<svg xmlns="http://www.w3.org/2000/svg" xmlns:xlink="http://www.w3.org/1999/xlink" viewBox="0 0 524.35 566"><defs><style>.cls-1{fill:none;}.cls-2{clip-path:url(#clip-path);}.cls-3{fill:#fff;}</style><clipPath id="clip-path" transform="translate(-454.68 0)"><rect class="cls-1" width="1292" height="1083"/></clipPath></defs><g id="Layer_2" data-name="Layer 2"><g id="Layer_1-2" data-name="Layer 1"><g class="cls-2"><polygon class="cls-3" points="296.39 77.24 209.13 77.24 181.9 0 180.84 0 207.74 76.32 207.75 76.34 208 77.06 208.29 77.89 208.3 77.91 208.35 78.05 208.4 78.17 208.42 78.24 297.14 78.24 297.16 78.17 297.26 77.84 297.26 77.83 297.49 77.07 320.26 0 319.21 0 296.39 77.24"/><polygon class="cls-3" points="424.42 0 406.67 53.25 406.66 53.25 297.49 77.07 320.26 0 319.21 0 296.4 77.24 296.39 77.24 296.37 77.32 296.27 77.65 296.1 78.24 296.05 78.41 296.14 78.39 296.15 78.39 296.83 78.24 297.16 78.17 297.2 78.16 407.01 54.2 407.02 54.2 407.16 54.17 407.44 54.11 407.68 53.38 425.48 0 424.42 0"/><path class="cls-3" d="M965.56,91.77l-.08-.14-.14-.26-.36-.66L915.12,0H914L963.9,90.84,862.36,53.38,880.15,0h-1L861.35,53.25h0l-.24.73.59.22h0L964.29,92.05h0l.94.35.3.11.54.2Z" transform="translate(-454.68 0)"/><polygon class="cls-3" points="209.8 79.15 209.55 78.43 209.48 78.24 209.25 77.59 209.2 77.44 209.15 77.32 209.13 77.24 181.9 0 180.84 0 207.74 76.32 107.4 0 105.75 0 206.65 76.76 206.66 76.77 208.32 78.02 208.35 78.05 208.57 78.21 208.6 78.24 209.53 78.94 209.53 78.95 209.8 79.15"/><path class="cls-3" d="M750.82,78.39l-14,80.48,14-80.48Zm-14.15,81.55v-.07l.07-.42h-56v.43l0,.15,0,.06v.36H737l-.26-.28Zm-73.83-82.7.13.65v0l0,.11,0,.14,16.7,81.72h0l0,.11v.05l.09.4H737.6l.08-.47,0-.18h0l14.17-81.63.06-.32h0l.1-.59Zm17.83,82.21-.2-1L664.21,79h0l-.11-.54,0-.16h86.78l0,.15-14,80.48h0l-.1.57Z" transform="translate(-454.68 0)"/><path class="cls-3" d="M664.93,78.24l-1-.78,0,0-.21-.16-.06,0-1.18-.9L562.08,0h-1.65l100.9,76.76L551,52.19l-.14,0L460.66,84.88,500.27,0h-1.1L459.73,84.5l-.4.86-.14.29,0,.09-.42.9.49-.18.19-.07.94-.34L551,53.2,663,78.16h.05l.17,0,.12,0,.73.16.13,0,1.34.3Z" transform="translate(-454.68 0)"/><path class="cls-3" d="M747.94,247.12l-.08-.61-10-85.1h0l-.17-1.42,0-.25,0-.28H679.76v91l.56,1.32,21.47,50.71.05.11.18.43.17.4h0l.09.2.25-.31.22-.26.24-.31.18-.22,44-54.13h0l.6-.73.09-.12.14-.16Zm-33,39.3-12.38,15.24-21.79-51.37V160.45h56l10.17,86.38,0,.19v0h0Z" transform="translate(-454.68 0)"/><path class="cls-3" d="M751.84,78.17l0,.07h-.31l-.68.15-14,80.48h0l-.1.57h.64l.26.28.06.06,14.17-81.63ZM965.47,91.42l-.13,0-.59-.22-.85-.31L862.36,53.38l-.46-.17-.13-.05-.42.09h0L752.17,77.07l-.78.17h0l-.29.07h0l-.06.32-.1.59,0,.15-14,80.48h0l-.1.57-.07.42v.07l0,.17.06.06.26.28.89,1h0l39.3,42,.1.11,60.54,13.67,1.09.25.48.1.2.05.14,0h0l.13-.05.16-.07.39-.15,1-.39h0l75.7-30.47.17-.07,47.39-92.8.62-1.22.26-.51.06-.12.14-.27Zm-49,94.21-76.62,30.84h0l-.25.1h0l-.18,0-61.67-13.93L737.71,159.8h0l14.17-81.63,109.81-24h0L964.29,92.05h0Z" transform="translate(-454.68 0)"/><path class="cls-3" d="M680.76,159.88l-.09-.43-.2-1L664.21,79h0l-.11-.54,0-.16-.12-.6v0l0-.13,0-.13h0l-.16,0-.19,0-.8-.18-1.34-.29h0L551,52.19l-.14,0L460.66,84.88l-.68.24-.46.17-.19.07-.14,0-.15.06.11.27.05.12.21.53,40.82,100.54-36,43-.72.87-.24.29,0,0-.67.8.72-.09h.07l.67-.09,110.67-14h0l.94-.12.52-.07.57-.07h0l78.49-9.93.26,0L679.76,162l.81-1.53.14-.26,0-.1,0-.06Zm-25.88,46.73-77.73,9.83-.95.12-.51.07-.58.07L465,230.63l36.39-43.52-41-101.05h0L551,53.2,663,78.16l16.71,81.71v0Z" transform="translate(-454.68 0)"/><path class="cls-3" d="M574.72,217.76l-62.51,73.73,62.52-73.73Zm1.48-1.2-.51.06h0l-.58.07L465,230.63l-1.46.19-.25,0h-.07l.05.28,0,.2.09.5.11.59,7.74,43.91,19.95,40,.12.23.15.3.22.44.31-.37.77-.9,83.11-98h0l.32-.39.36-.43.6-.7Zm-84.31,98.9L472.21,276.1l-7.83-44.38,110.34-14-62.51,73.73Z" transform="translate(-454.68 0)"/><path class="cls-3" d="M841.35,217l-1,.39,1-.39ZM965.54,92.51l0-.62,0-.26v-.21l-.1-1.48-.39.77-.23.44-.45.9h0l-47.78,93.58-76.62,30.84-.26.11h0l-.19.07-.09,0-.39.16.14.24.27.45.09.16.21.36L946.84,400.67l.77,1.32.3.51.43.73.06-1,0-.51,0-.3v-.22L955,302.7l20-71.28,0-.08ZM954,302.48v0l-6.45,97.39L840.42,217.38l0,0,1-.39,75.7-30.47.17-.07,47.39-92.8L974,231.24Z" transform="translate(-454.68 0)"/><path class="cls-3" d="M839.9,216.5l-.24.08-.23.07-.08,0h0l-1.55.5-89.93,29.32h0l-.55.18-.14.05-.24.08h0l0,.2h0l0,.17.1.61.09.51h0l15.67,89.09,0,.23.11.64,0,.28,0,.13h0v.06l.17,1,.25-.41h0l.17-.28.05-.08.32-.5,0-.09.18-.27,75.42-120.09.34-.54v0l.25-.39.22-.34.35-.57ZM763.75,337l-3.31-18.79L748,247.52h0L838.52,218Z" transform="translate(-454.68 0)"/><path class="cls-3" d="M763.47,339.37h0L825.1,442.76Zm-.36-.59h0l-.08,0Zm-59.94-36.3-.36-.21-.41-.24-.32.22-.29.18-51.94,34.72h0l0,.07-.28.77h.05l-.16.38.1.18.7-.47,10.8-7.22,41.16-27.51.24-.16h0l.09.06,60.25,35.31h0l.24.13,0-.13-.11-.18.06-.1-.11-.64.42.14,0-.07-.51-.3Zm123,140,0-.08-61.46-103.1h0l-.54-.91-.1-.18-.05-.08-.07-.11-.16-.1-.37-.21-.51-.3-59.63-35-.36-.21-.41-.24-.32.22-.29.18-51.94,34.72h0l-.82.55-.28.18-.16.11-.12.08-.06.14-.1.23-.17.37-.39.89h0L601,444.88h0l-.16.37-.08.18.15.45.23.64,39.12,113.6.4,1.13.16.48.06.18.13.37.27-.23.15-.14.39-.34.74-.66h0l65-57.23,84.44,57.23,1.05.71.42.29.15.1.31.21.08-.31,0-.18.15-.53.24-.91,31.45-116.41.29-1.07.06-.2Zm-32.86,118.1h0l-85.52-58-.32-.22-66,58.12h0l-39.6-115h0l0-.06.17-.37,24.62-55.36,22.35-50.25.23-.53.1-.21h0l.25-.16.7-.47,10.8-7.22,41.16-27.51.24-.16h0l.09.06,60.25,35.31h0l.24.13h0l.08,0,0,0,.32.55L825.1,442.76Z" transform="translate(-454.68 0)"/><path class="cls-3" d="M948.47,401.23l-.18-.06-1.45-.5-182.6-62.52-.32-.11-.24-.09-.84-.28-.49-.17.54.91.11.18.11.18h0l0,0,.32.55h0L825.1,442.76l.12.2.61.92,45.23,67.83.55.84.14.2.36-.52.25-.37L947.91,402.5l.23-.33.22-.31.08-.11.11-.15.19-.28ZM871.76,511l-30.58-45.88-15.06-22.58,0-.08L764.6,339.33h0l182.56,62.51Z" transform="translate(-454.68 0)"/><path class="cls-3" d="M641.89,561.91l-.12-.34-.35-1h0l-39.6-115h0l0-.06-.07-.19-.09-.26-.21-.63-.37.5-.26.35-.39.52h0l-42.1,56.76-.64.87-.11.14.34.24.48.33,82,57.33.39.28.26.18.2.14.93.65ZM559,503.32l42.13-56.8,39.12,113.6Z" transform="translate(-454.68 0)"/><path class="cls-3" d="M650.23,338.1l-.64-.09h-.05l-.38-.05-.4-.06h0l-.22,0-.63-.09L492.75,316l-1.17-.16-.41-.06.08.44.05.31.05.29L510,424.48l.07.41.08.42,0,.24.07.41.21-.13.25-.16,1.2-.75h0l135.79-85.2h0l.16-.1.8-.5.27-.17.08-.05.21-.13h0l.26-.16.75-.47ZM511,424.32,492.39,317l155,21.77Z" transform="translate(-454.68 0)"/><path class="cls-3" d="M948.55,401.6l-.09-.15-.17-.28-.73-1.25L840.42,217.38l0,0-.14-.24-.15-.26-.11-.19-.1-.16v0h0l-.2-.33-.25.39h0l-.09.14h0l-.25.4-.21.35-.36.56L763.75,337l-.44.7,0,.07-.21.34-.1.16-.06.1-.11.17h0l-.06.09.32.11.1,0,.13.05.42.14.43.15.48.17h0l182.56,62.51.44.15.18.06.35.12.26.09.67.23ZM764.24,338.15l75.42-120.09L946.84,400.67Z" transform="translate(-454.68 0)"/><path class="cls-3" d="M680.47,158.49l-.51,1-.2.38,0,0h0l-24.85,46.73-77.73,9.83-.95.12-.51.07-.58.07.22.36.34.58.19.32h0l72,119.81.29.49.12.19v0l.12.2.13.21.14.23h0l.23.38.05.08.22-.61.07-.22h0l0-.11.09-.25.13-.37.28-.77,0-.07h0l30.45-85.38,0-.05.41-1.15v-.35l0-89.77V158ZM648.75,337.24l-39-64.81-33-54.93h0l78.49-9.93.26,0L679.76,162v88.35Z" transform="translate(-454.68 0)"/><path class="cls-3" d="M841.36,217h0l-.87-.19-.48-.11-.34-.08h0l-.19-.05-61.67-13.92L737.71,159.8h0l-.06-.06-.26-.28-.54-.57h0l-.35-.37.11.95.06.49,0,.23,0,.28,10.16,86.38,0,.2h0l0,.18.07.62h0l.69-.22.27-.09h0L838.52,218l.93-.3.25-.08.15-.05.15,0,.42-.14,1.14-.37Zm-93.5,29.55-10-85.1,39.3,42,.1.11,60.54,13.67Z" transform="translate(-454.68 0)"/><path class="cls-3" d="M872.36,511.86l-.6-.89-30.58-45.88-15-22.48-.06-.1,0-.08-.63-.94-.34,1.27L793.25,560.6l-.18.68-.09.34-.08.29-.16.61.81-.51.15-.1.29-.18.48-.3,77.14-48.88.5-.32.35-.22Zm-78,48.43h0l31.46-116.42,45.23,67.83Z" transform="translate(-454.68 0)"/><path class="cls-3" d="M531.53,430.33l68.86,15.45h0ZM602,445.11h0l-.32-.07-.58-.13-.09,0h0l-19.38-4.35-69.63-15.62-1.39-.31-.54-.12-.41-.09.36.58.2.34.16.27.16.25,47.17,77.58.23.38.33.54.15-.21.6-.8,42.13-56.8.37-.51.22-.28.13-.18h0l.3-.4Zm-43.67,57.43-46.62-76.66,19.86,4.45,68.86,15.45Z" transform="translate(-454.68 0)"/><path class="cls-3" d="M794.47,561.43l-.33-.23-.88-.59h0l-85.52-58-.32-.22-66,58.12h0l-.8.71-.23.2-.52.46H795.18Zm-152-.52,65-57.23,84.44,57.23Z" transform="translate(-454.68 0)"/><path class="cls-3" d="M703,302.7l-.18-.43-.26-.61-21.79-51.37,0-.07-.51-1.2-.46,1.29-31,86.93h0l-.22.61-.08.23,0,.13-.09.25-.13.36-.28.78,0,.06.82-.55.27-.18.08-.05.21-.14h0l.25-.16.7-.47,10.8-7.22,41.16-27.5h0l.24-.16h0l.31-.2.29-.2Zm-53.14,34.45,30.45-85.38,21.49,50.66Z" transform="translate(-454.68 0)"/><path class="cls-3" d="M649.54,338.58h0l-.1-.18,0,0-.25-.42-.13-.23h0l-.27-.46h0l-39-64.82-33-54.93h0l-.21-.36-.18-.3-.17-.28-.19-.31-.32.37h0l-.36.43-.6.7-62.52,73.73-20.32,24-.31.37-.33.38-.07.08-.37.44.54.08h.1l.53.07.41.06,155,21.77h0l.69.1h0l.38.05.41.06.19,0h0l.63.09ZM492.75,316l83.12-98,72,119.81Z" transform="translate(-454.68 0)"/><path class="cls-3" d="M764.12,339.16l-.11-.65,0-.27,0-.2-.17-1-3.31-18.79L748,247.52h0l-.06-.4-.11-.6-.09-.51-.6.74-.22.27h0l-32,39.38-12.38,15.24-.47.59-.24.29-.18.22.36.21.41.24h0l.09.06,60.25,35.31.24.14h0l.08,0h0l.16.09.37.22.52.3Zm-17-90.81,15.67,89.09-59.63-35Z" transform="translate(-454.68 0)"/><path class="cls-3" d="M649.82,337.23l-.79.49-.27.17-.18.11-.12.08h0l-.26.17-.74.46h0L511,424.32l-.45.28-.47.29L510,425l-.62.39.86.19.12,0,.41.09.94.21,19.86,4.45,68.87,15.44.46.11.28.06.32.07.08,0,.14-.3.11-.25.16-.38,24.63-55.35,22.35-50.25.23-.53h0l.09-.21h0l0-.11.11-.23.16-.38.4-.89ZM601,444.88h0l-19.38-4.35-69.64-15.61h0l135.79-85.2h0Z" transform="translate(-454.68 0)"/><path class="cls-3" d="M460.36,86.06h0l-.37-.93-.25-.62L459.12,83l.07,2.4v.45l0,.6,4.06,144.39v.49l0,.51,0,.77.16-.19.56-.68.94-1.12,36.39-43.52ZM464.25,230l-4-141.43,40,98.41Z" transform="translate(-454.68 0)"/><circle class="cls-3" cx="407.05" cy="53.68" r="5.01"/><circle class="cls-3" cx="510.31" cy="91.78" r="5.01"/><circle class="cls-3" cx="98.25" cy="52.68" r="5.01"/><circle class="cls-3" cx="5.01" cy="85.76" r="5.01"/><circle class="cls-3" cx="10.03" cy="232.14" r="5.01"/><circle class="cls-3" cx="46.12" cy="187.02" r="5.01"/><circle class="cls-3" cx="121.31" cy="217.1" r="5.01"/><circle class="cls-3" cx="225.58" cy="252.19" r="5.01"/><circle class="cls-3" cx="292.75" cy="247.18" r="5.01"/><circle class="cls-3" cx="247.64" cy="304.33" r="5.01"/><circle class="cls-3" cx="308.8" cy="338.41" r="5.01"/><circle class="cls-3" cx="225.58" cy="159.95" r="5.01"/><circle class="cls-3" cx="282.73" cy="159.95" r="5.01"/><circle class="cls-3" cx="322.83" cy="204.07" r="5.01"/><circle class="cls-3" cx="384.99" cy="217.1" r="5.01"/><circle class="cls-3" cx="462.19" cy="187.02" r="5.01"/><circle class="cls-3" cx="519.34" cy="232.14" r="5.01"/><circle class="cls-3" cx="493.27" cy="401.58" r="5.01"/><circle class="cls-3" cx="370.96" cy="443.69" r="5.01"/><circle class="cls-3" cx="417.07" cy="511.86" r="5.01"/><circle class="cls-3" cx="338.87" cy="560.99" r="5.01"/><circle class="cls-3" cx="252.65" cy="503.84" r="5.01"/><circle class="cls-3" cx="186.48" cy="559.98" r="5.01"/><circle class="cls-3" cx="103.27" cy="502.84" r="5.01"/><circle class="cls-3" cx="147.38" cy="445.69" r="5.01"/><circle class="cls-3" cx="56.14" cy="425.64" r="5.01"/><circle class="cls-3" cx="194.5" cy="338.41" r="5.01"/><circle class="cls-3" cx="37.1" cy="316.36" r="5.01"/><circle class="cls-3" cx="296.76" cy="77.74" r="5.01"/><circle class="cls-3" cx="208.54" cy="77.74" r="5.01"/></g></g></g></svg>