<svg xmlns="http://www.w3.org/2000/svg" viewBox="0 0 607.49 225.43"><defs><style>.cls-1{fill:#fadfda;}</style></defs><g id="Layer_2" data-name="Layer 2"><g id="Layer_1-2" data-name="Layer 1"><path class="cls-1" d="M152.54,203.71c.45-1.1,1.38-1.15,2.37-1.1,2.75.13,5.41-.82,8.19-.67,1.69.09,2.84-2.14,4.66-1.6,2.54.73,3.42-.57,3.89-2.77-.22-.09-.53-.34-.66-.26-2,1.09-4.11.57-6.14.87a98.15,98.15,0,0,1-12.68,1.4c-.66,0-1.33-.05-2,0-1,.1-.82-.08-1.55-.8s-2-.42-2.62-1.59c-.15-.28-1.13-.42-.79-1.07,1.15-2.23.57-2.83-1.92-2.83-1.78,0-2.92-2.45-5.11-2-.12,0-.37-.15-.45-.3-1-1.75-1-1.75-3.37-1.59.76,1.14,2.09,1.79,2.2,3.27-1.83.26-3.15-1.7-5-1.18-.26.08-.5,0-.22-.45.44-.67.08-1.08-.6-1.17a1.15,1.15,0,0,0-1.41,1c-.72,3-3.93,1.19-5.38,2.78-.15-.31-.43-.62-.43-.94,0-2.72-1-3.19-3.82-1.82-.42-2.25.59-2.83,2.65-2.08-.38-1.53-1.48-1.23-2.32-1.37,0-1.38,1.92-.41,1.87-1.65,0-.83,2.2-1.44.24-2.41-1.14-.56-1.44-1.13-.25-2,.48-.33,2.75.11.68-1.43a.35.35,0,0,1,.08-.65c2.3-.2,3.91-2.93,6.56-1.83a2,2,0,0,0,2.1.07c.73-.43,2.22-.19,2.24-1.18,0-1.38-1.66,0-2.3-1a101.81,101.81,0,0,0,11.67-1.95c.64-.16,1.45-.06,1.61-.88.19-1-.91-.73-1.3-1.14-1.12-1.18-2.49-1.19-3.93-1a54.63,54.63,0,0,1-11.87.3c-3.5-.41-7.32.55-10.8,1.59-3.91,1.16-7.93,1.66-11.87,2.53-7.43,1.63-14.93,2.94-22.42,4.24-6.78,1.18-13.6,2.18-20.4,3.23a2.58,2.58,0,0,1-1.67-.09c-3.48-2.59-7.25-.5-10.86-.73s-7.31,0-10.88-.79c-1.45-.33-2.21-2.55-4.32-1.27.15-1,1.73-1.9.67-2-2-.27-3-2.5-5.31-2-1.41.33-2.87,1.15-4.48.55-.16-.92,1.28-.72,1.09-2.06-2.85.52-5.86,1.11-8.79-.9,1.41,0,2.58.08,3.73,0,.57-.06,1.53.21,1.62-.74s-.82-.85-1.43-1c-.45-.11-.91-.19-1.4-.29,1-1.75,2.26-2,4.06-1.7s4.14,1.18,5.84-.38c1.88-1.73,3.52-3.52,6-1,.86-.91,3.06-.37,2.78-2.51a1,1,0,0,1,.93-1.2c3.15-.28,6.11-2.48,9.41-1.11,2.27,1,2.82-2,4.64-1.89-.17-.85-.39-1.47-1.53-1.61s-1.94-.21-1.46-2.14c1-4.12,4.2-4.44,7.32-5a160.06,160.06,0,0,1,20.26-2.32c2.37-.11.57-1.87,1.09-2.79.61-1.1-.8-.77-1.38-.69-1.32.19-2.62.5-3.68-.71,1.06-1.3,1.87-3.09,4.13-1.88.09-1.29-1.11-1.11-1.5-1.94,3.22-.61,6.46-1.86,9.49-1.47a9.94,9.94,0,0,0,3.62.11c1.66-.34-.68-.89.33-1.6,1.31-.92,2.53-.5,3.74-.82,2.85-.73,5.88-.63,8.41-2.75,1-.87,2.9-1.12,4.57-1.1-1.85.06-3.26-2.83-5.52-.67A10.52,10.52,0,0,1,98,132.37c-2.29-1.72-4.65-1-7-1.2l.09.08a2.06,2.06,0,0,0-2.7-1.37c-.46.09-.69-.13-.74-.59s.09-.85.52-.79c1,.13,2.13-1.52,3.14.33a3,3,0,0,0,2.52.89c.93-.12,2.44.4,2.78-.84.42-1.52-1.71-.51-2.39-2.34,3.78,2.28,7,2.52,9.46-.73-1-.23-1.37-.76-1.12-1.63.18-.62-.26-1.05-.67-.77-1.72,1.15-3.55.4-5.21.2-2.21-.26-2.81,1.21-3.56,2.52-.87,1.55-.77,1.63-1.92.15a1,1,0,0,0-1.26-.23c-1.13.61-2.5.54-3.54,1.42a6.14,6.14,0,0,1,2.41-3c-3.35.3-6.79-.12-9.47,2.44h0c-.46-.45-1.34-.3-1.06.12.71,1.07.39,1.36-.59,1.29-3-.21-5.53,1.27-8.32,1.88l3.45-1.58-.14-.86-16.61,2.63-.07-.62a16.47,16.47,0,0,0,3.16-.43c.94-.3,3.51.07,1.34-2.27-.41-.43.21-1.21,1.26-1s1.4,0,1.35-1-.51-.73-1.39-.77a19.85,19.85,0,0,0-6.71,1.3,14.56,14.56,0,0,1-7.83,0c-1.9-.5-3.47.78-5.29.9-3,.18-6,.79-8.93,1.15-.64.07-1.58.47-1.67-.85-.08-1.09.49-1.42,1.49-1.85-2.91-.75-5.8-1.54-8.73-2.19-.61-.13-1.16.37-1.3,1.2-.17,1.06-1.11.78-1.84.83-.9.06-1.23-.21-.8-1.14a.44.44,0,0,0-.57-.62,10.13,10.13,0,0,0-1.94,1c-.37.22,1,.93-.2,1-.23,0-.57-.46-.71-.78a.6.6,0,0,1,.37-.9c2.55-.64,4.61-4.11,7.8-1.26a2.31,2.31,0,0,0,2.45-.14c1.85-1.08,3.56-1.37,4.6,1.32-.19-1.71.83-3.3-1.52-4.54-1.39-.73-1.4-3.07.87-4.31-2.18.32-4.36-.7-5.92,1.62-.85,1.26-3.2,1-3.86.55-1.75-1.31-3.24-.79-5-.49a1.89,1.89,0,0,1-2.14-.54c-.64-.74-2.69-1.48-3.31.84a1.19,1.19,0,0,1-1.24.94c-.55,0-.38-.57-.49-.87-.46-1.14.57-.4.86-.62,1.42-1.11,1.22-2.52-.85-3.62,1.92-.38,2-2,2.72-3.16-1-.44-2,.72-2.76-.29-.07-1.2,1.6-.64,1.57-2-2.26-.58-4.48,2-7,.49L7.59,105c-2.84-.79-6.44,1.64-7.59-2.46,2.59.87,3.78.69,6.14-1C5.07,100.78,4,100.11,3,99.35a1,1,0,0,1-.28-1.5c.6-.74.91-.12,1.27.33a1,1,0,0,0,1.47.34c2.85-1.7,5.24-1.07,7.37,1.37a2.24,2.24,0,0,0,2.39.51c.56-.18.61-.72.49-1.18-.28-1.12-1.05-1.36-2.28-.92,1.94-.47,3.41-1.07,4.09-3,.25-.72,1.35-1.53,2.09-.92a2.59,2.59,0,0,1,.58,2.94c-.23.54-1,.81-.51,1.61s1.36.42,2.05.37a3.65,3.65,0,0,0,1.31-.51c.69-.36,2-.33,1.71-1.45-.21-.94-1.33-.3-2-.52l-1.67-.5c3.05-.61,3.59-3.16,5.17-4.15a13.39,13.39,0,0,1,10-1.73,6.56,6.56,0,0,0,1.86.42c1.43-.1,3.14.19,1.73-2.32,1.52.35,2,1.59,2.94,2.12a3,3,0,0,1,4.41-1.6c.93.53,1.81,1,2.53.13,2.76-3.27,6.76-2.7,10.32-3.52.68-.16,1.91.36,1.65-1.21-.1-.59.53-.53.77-.35,2.77,2.24,4.82,0,7.09-1.07a25.17,25.17,0,0,1,5.64-2.33c2.31-.44,4-1.81,6-2.65,0-.6-.4-.67-.59-.58-3.13,1.43-3.46-2.77-5.81-2.87a7.31,7.31,0,0,1,2.38-4.72c-.12-.14-.16-.25-.23-.27-1.33-.38-3.85.49-3.66-1.39.13-1.3,2.19-2.76,4.14-3.32.66-.2,1.45,1.17,1.8-.18.39-1.53-1.44-.62-1.87-1.71,2-.2,3.6-1.7,5.71-1.27a1.4,1.4,0,0,0,1.5-.62c1.57-2.45,3.35-.05,4.71.18,1.78.31,1.81,1,4-.51-.58-1-1.37.15-2-.17-.23-.52.18-.74.49-.81,2.39-.53,4.8-1.38,7.21-1.42,3-.06,5.7-1.3,8.45-2.09,5.64-1.62,11.12-3.49,17.17-3.22a21.64,21.64,0,0,0,6.62-.83,6.18,6.18,0,0,1,2.75.1c-.24,3.13,2.44,1,3.48,1.84.2.17,1.1-.45,1.11-1,0-.74-.68-.78-1.27-.77l-3.4.05c4.38-1.67,9.08-2.06,13.6-3.12,3.13-.73,6.6-.65,9.94-1.12s6.67-.22,9.49-2.48c.35-.29.8-.2,1.31-.11a16.44,16.44,0,0,0,9.57-1c.68-.28,1.57-.71,2.16-.5,4.62,1.67,7.75-1.54,11.31-3.32a5,5,0,0,1,2.89-.53c2.86.23,5.32-2,8.27-1.81.47,1.17-.82.53-1.18,1.27,1.9,0,3.52,1.19,5.51,0,.91-.55,2.49.15,3.62-.2,2.5-.8,5.16-.47,7.68-1.63,2.82-1.29-1.33-.73-.24-1.41,2.26-1.31,4.9-.88,7.33-1.42,2-.46,4.09-1,6.13.24a1.24,1.24,0,0,0,1.89-.65c.14-.38.65-.65.58-.13-.36,2.91,1.68,1.4,2.56,1.29,1.86-.24,3.67-1.15,5.51-1.22,1.32,0-.59-2.91,1.84-1.61,1,.56,2.49,1.83,2.92,1.66,3.15-1.26,6.29,1,9.68-.73,4-2,9-3.44,13.19-3.09,3.92.32,7.19-1.77,10.86-1.1a1.82,1.82,0,0,0,1.35-.3c2.56-2.18,6.11-1.71,9-3.41a8.8,8.8,0,0,1,6.32-.52c1.91.55,4.44-.83,6.62-1.57a3.52,3.52,0,0,1,2.35-.29c-.43.83-1.41.77-2.1,1.37a9.21,9.21,0,0,0,7,.4c3.88-1.3,7.92-.35,11.79-1.26.36-.08.91-.35,1.16.35,1.1,3.16,3,1.38,4.39.49,4-2.59,8.46-3.29,13.11-3.24a8.77,8.77,0,0,0,1.64-.36l15.57-3c-.54,1.85-1.76,2-3.06,2.2-.64.07-1.45.31-1.28,1.16s.89.26,1.35.36c2.31.51,3.9-.84,5.55-2s3.07-2,5.33-1.54c-1.36,1.29-3.38.66-4.39,2.19,3.18,1.63,5.3-.4,7.61-2.05.64,1.76-1.53,1.28-1.8,3.06,1.06-1.64,4.21.24,3.16-3.38-.22-.76,2.41-1.42,3.65-1.3,3,.3,5.67-.73,8.34-1.8.64-.26,1.54-.63,1.62.24.29,3.25,2.16,1.35,3.1.85,2.38-1.24,5.64-2.51,7.39-2.07,2.64.67,4.59-.32,6.82-.54,3.32-.32,6.62-.89,9.92-1.39a12.65,12.65,0,0,1,3.37-.25c1.05.13,2.69,1,2.06-1.6-.23-1,1.83-.95,2.28-.44,2,2.23,4.12.7,6.2.54,1.64-.13,3.29-.93,4.86.27,2.55,1.95,4.77-.58,7.2-.62s5.26.09,7.6-.6c6.39-1.87,13-1.74,19.48-2.39,4.81-.48,9.66-1.23,14.32-2.12,2.43-.47,4.58.27,6.87,0,2.49-.31,5.18-.25,7.77-.49,4.7-.44,9.44-.66,14.08-1.26A178.19,178.19,0,0,1,529.21,2c4.59-.05,9-1.45,13.41-1.27,8.09.34,16.1-1.27,24.17-.61.24,0,.46.27.77.47-1,1.4-2.55-.45-3.58.75-.51.59-1.64.67-1.06,1.88.45.94,1.12.82,1.9.52.53-.2,1.29-.15,1.58-.5.64-.79,1.24-1.62,2.25-.87.66.48.52,1.25.22,2.18-.37,1.17,1.48,1.07,1.67,1,3.71-1.85,8,.07,11.59-1.68,1.85-.89,2.51,1.78,4.16.94-1.13.93-2.37,1.36-3.54.42-.86-.71-1.16,0-1.61.36-1.65,1.15-3.84.44-5.47,1.64-.84-2.4-2.63-1.07-4.11-1.07-1.79,0-3.4,1-5.42.62.56.71,1.87,1.15.27,1.59-.79.22-1.48.29-1.14,1.44s.86.82,1.7.68c3.42-.58,5.22.93,5.27,4.24,0,1,.67,2.07,1.41,1.49,1.52-1.19,3.05-.51,4.58-.66.37,0,.95.07,1.1-.14,2.29-3.3,5.4-2,8.34-1.42-1.14,1-1.61,3.42-4.17,2.18-.16-1.22,1.38-.88,1.91-1.87-2.72,0-4.6,1.58-6.6,2.8-.32.2-.51.65-.83.76-1.89.67-2.36,1.51-.51,2.84a4.7,4.7,0,0,1,.76,1c-2.65,1.61-5.69.86-8.46,1.56-3.46.89-7,1-10.41,2.66-1.93,1-4.56.57-6.87.8a6.1,6.1,0,0,0-1.93.3c-.72.32-1.92,1-1.86,1.34.28,1.49,1.35.05,2,.33a6.4,6.4,0,0,0,4.54,0c-.21,1.52-1.06,1-1.76.91s-1.17,0-1.09.83c.07.7.43,1,1.15.85a20.51,20.51,0,0,1,2.81-.33c.89,0,1.85-.06,2.27-.87.62-1.17-1.41-.79-1.23-1.83.13-.05.38-.21.42-.17.82,1,3.08-.34,2.94,1.28-.12,1.43-2.1,1.79-3.49,2C553.48,32,549.67,33,545.88,33A5.78,5.78,0,0,0,540,36.45c1.48.46,2.72-.8,4.16-.42,0-1.08-.82-.63-1.22-.87a6.74,6.74,0,0,1,1.62-.36c.35,0,1.1-.43,1,.46,0,.16-.82.53-.27.63,1.46.26,3,.06,4.42.7s2.53.51,3.4-1.18c.32-.61,2.42-1.1,2.77-.74,1.33,1.36,1.77.72,2.3-.54a.61.61,0,0,1,1-.2c1.94,1.93,3.53.29,5.43-.21,4.09-1.08,8.34-2.77,12.22,1.15.89.9,3.23-.14,4.89.44.34.11.32-.7.07-1.15s-1.12-.77-.45-1.35c.51-.45,1.11,0,1.76.16,1.94.63,3.56,2.68,6,1.41-.7.47-1.21.88-.7,1.68.36.56.72,1.2,1.54,1a2.07,2.07,0,0,0,1.66-1.4c.58-2.4,1.81-3.66,4.44-3.1.64.14,1.35.17,1.62-.71.18-.57.43-1.15,1.17-.75a1.74,1.74,0,0,1,.81,1.66c.06,1.08-2.53,2.36-.07,3.08,1.63.49,3.84,1.09,4.9-1.44,1,2.61.27,3.91-1.85,3.64-.58-.07-1.35-.92-1.66.06s.91,1,1.46,1.3a8.06,8.06,0,0,0,2.6.21c-1.67,2.31-4.09.76-6,1.77.92.89,2.55,1.16,1.64,2.91-.44.85.93.93,1.47,1.37s1.94-.54,1.37.8c-.25.6.16,2.62-1.88,1.94-.57-.2-1.76-.32-1.89.69-.21,1.6,1.39.72,2,1.18-.86,2.59-3.54.08-4.77,1.92.48.71,1.48.11,2.06.57a.82.82,0,0,1-1.12.63c-.52-.13-1-.58-1.44.15s.32,1,.6,1.36c.8,1.08,1.56,2-.68,2.06a1.79,1.79,0,0,0-.76.24c.76,3.56-2.39,2.65-4,3.53-.61.34-1.64.66-1.31,1.58s1.11,0,1.66,0c1.71-.22,4,.74,4.62-2,.1-.4.81-.38,1.24,0s.64.78.29,1.23c-.62.81-1.24,2.16-2.18,2-2.12-.34-3.66.65-5.39,1.44-2.27,1-4.48,2.2-7.14,2.22-.71,0-2.48,0-2.4,2,0,.51-1.48.89-2.48,1-10.43.93-20.79,2.53-31.28,2.91-6.67.23-13.33,1-20,1.53a16.9,16.9,0,0,1-5.92-.64c-1.82-.52-3.57,1.18-5.64,1.11-3.36-.1-6.74.3-10.11.45-2.59.11-5.08,1.19-7.7.87-.73-.09-2.45.78-1.74-1.37.1-.29-.45-1-.93-.5-3.3,3.65-7.91,2.38-11.86,2.82-9.56,1.06-19.21,1.44-28.83,1.78-2.08.08-4.63,1.55-6.48-.92-.12-.16-1,0-1,.08-.68,3.36-2.26.41-3.33.62-1.57.3-3.68-1.06-4.72,1.14-.18.36-.47.39-.57.32-1.93-1.29-4,0-6-.26-3-.36-6.14.49-9.23.83-.51.06-1,.29-.78.88a1.77,1.77,0,0,0,1.84,1.06,27.74,27.74,0,0,0,8.41-.81c1-.3,2-.77,2.83.37-2.16,1.86-5.25-.23-7.53,1.77,2.17,1.08,4.26-.67,6.13.57-1.87,1.25-4.12.62-6.24.77a10.59,10.59,0,0,0-2.54.15c-.57.19-1.84.14-1.54,1.17s1.1.29,1.65,0c1.24-.63,1.41,1,2.53,1.14,3.51.59,6.61-1,9.88-1.43,9-1.18,18.07-2.29,27.14-3.21,2.15-.22,4.27-.71,6.4-1.07.84-.14.81-.56.47-1.2-.07-.13-.87-.46-.27-.3,2.07.55,3.76-.9,6.08-.37a27.83,27.83,0,0,0,12.36.13,63.58,63.58,0,0,1,15.7-1.66c.62,1-1.79.83-.81,1.61s2-.36,2.1-1.11c.2-1.25.77-1.47,1.81-1.46a122,122,0,0,0,18.21-1.6,20.4,20.4,0,0,1,4.81-.14c-1.22.44-2.3.15-2.61,1.41,1.34.37,2.42,1.25,3.49-.85.72-1.41,2.83-.85,4.27-1.18,4.59-1.07,9.36-.59,14-1.17,6-.75,12.07-.93,18.11-1.36.4,0,1-.61,1.14.11s-.33.92-1.05.89c-1.08-.06-2.23-.2-3.07.72-.07.08.15.52.33.7,1.17,1.16,2.49.23,3.43-.19,1.91-.83,3.41-1.64,4.6.92.33.7,1.37.45,2.11.26,2.61-.66,5.21-1.36,8-.93a2.54,2.54,0,0,0,1.4-.09c2.41-1.16,4.84-.91,7.66-.2-1.57.45-2.57.83-4.15.39-1.4-.4-3.24.78-4.9,1.23-.5.14-.87.67-1.54.33-3.46-1.71-6.48-.21-9.36,1.52-.6.36-1.31,1.67-1.09,2,.6,1,1.33.17,2.08-.25,3.24-1.81,7-1,10.15,2.17a2,2,0,0,0,2.07.63c1.38-.72,2.79-.38,4.18-.45,1,0,1.71,0,2.4-1,.79-1.14,6.1-1.26,7-.37.37.35.51,1.08,0,1.17-.83.14-2.16,1-2.5.08-.82-2.35-2.17-.65-2.71-.3a56.51,56.51,0,0,0-5.2,4.17c1.88.88,3.8-2.05,5.45.37-.74.51-1.89.29-2.38,1.21l.06-.06c-1.66-1.3-3.19,0-4.72.32-3,.58-6.06.27-8.88,1.67-1.15.57-2.4.85-1.56,2.54-2.74-2.39-5.81-1.11-8.79-.79a.88.88,0,0,0-.85,1c.11.57.53.88,1.27.78,1.38-.18,2.8-.18,4.19-.33.58-.07,1.1-1.11,1.7-.3s-1.57.44-.65,1.66c1.58-.74,3.69.27,5.35-1.43L578,92.47c1.34.26,2.82-.52,4.11.53a5.16,5.16,0,0,1-3.93,1.66,73.3,73.3,0,0,0-12,1.66c-2.71.7-5.12,2.64-8.13,1.2-.7,2.16-5.09.85-4.23,4.52.22.95-.34,1.24-1.31,1.66-3.28,1.43-6.77,1.82-10.2,2.44,0,1.43,1.18,1.1,2,1.34-.95.78-2.27,0-3,1.34L545,110c-3.34,1.07-6.59,1.23-9.66-.73-.77.91.31,1.65-.2,2.44s-.68,1.44-1.61.75c-1.83-1.36-2.73-.76-3.85,1.13-.88,1.47-3.19,1.62-4.65,1.41-2.46-.36-4.64.6-7,.64-5.64.1-10.84,2.81-16.5,3a2.85,2.85,0,0,0-1.27.6c-1.38.92-2.46,2.51-4.55,1.71-.32-.13-.91.47-1.46.78,2.33,1.35,5.51.84,6.7,3.82.06.17.25.4.38.4,2.65,0,2.95,1.2,2.1,3.45-.35.9.12,1.93,1.32.67a1.84,1.84,0,0,1,1.91-.37L504.77,131c2.72.44,4.85-.77,7.08-.73.57,0,1.2-.4,1.64.3-.88.32,1.2,2.28-1.07,1.89-.72-.13-.61.6-.58,1,.07.82.59.41,1,.3.73-.18,1.4.34,2.21.07,5.75-1.9,11.89-.39,17.7-1.94,1-.26,1.67-.15,2,1.44.32,1.44,2.55,1.38,4,1.59.85.13.82.53,1,1l.06-.08c-3.48-.23-3.87.19-4,3.88,0,1.08-1.11,1.29-2,1.58-.46.15-1.32-.18-1.17.73.09.57.63.75,1.29.83,2.08.25,4.7,1.24,6.09.16,2-1.57,4.13-1.24,6.16-1.83.7-.21,2.08-.87,2.17.56s-1.26.81-2,.76c-2.68-.21-5,1.71-7.72,1.22a.81.81,0,0,0-.87.9c.21,2.51,3.71,5,6.32,4.6.6-.08,2.66-1.63,1.62,1.14-.18.47,1.07.31,1.7.35,1.26.07,2.72.11,1.33,2a.74.74,0,0,0,.44,1.29c1.89.46-.23,1.21.19,1.8,1.48.18,2.84-1.18,4.41-.36.18,1.1-1,.49-1.32,1-.22.32-.44.62-.2,1s.59.39.93.12c1.82-1.46,2.38.48,3.43,1.3-1.51-.64-3.23-.45-3.91.69-.8,1.33,2.36,1.07,1.79,2.89-2.53-.36-5.38.7-7.58-1.67-.41-.44-1.52-.39-1.37.62.29,1.84-1.66,2-2.17,3.25-.16.38-1.11.28-1.26-.1-1.29-3.17-3.26,0-3.36.18-2.2,3.55-5.51,2.68-8.7,2.5-.84,0-2.35-1.21-2.45.93,0,.14-.18.27-.28.41-1.56-2.13-3.45,1.33-5.1-.31a1.42,1.42,0,0,0-1.86.14c-2.22,1.81-4.89,1.82-7.51,2.06-5.57.53-10.36,3.19-15.39,5.64,2.6-1.2,3.48,1.19,4.52,2.31s-.85,2.21-1.35,3.34c.8.57,2.2-.22,2.49,1s-1.13,1.39-1.74,1.85c-2.92,2.24-6,4.27-10,2.33-.21-.1-.72,0-.8.1-1.68,3.2-4.9,2.29-7.52,2.7-2.83.46-5.49,1.54-8.21,2.23-8.15,2.08-16.61,1.07-24.76,3.35-3.66,1-8,.47-11.78,1.48a55.36,55.36,0,0,1-11.62,1.56c-5.15.23-9.34,3.11-14.2,3.81a6.5,6.5,0,0,1-3.43-.49c-2-.77-4.62.12-7,.16-1.9,0-3,1.07-4.36,2.25s-3.87.24-5.76.92a2.91,2.91,0,0,1-2.34-.35,9.19,9.19,0,0,0-8.89,1c-.48.31-.79.38-1.12.22-5.66-2.81-10.9.23-16.29,1.15-1.19.2-2.77,1.34-3.43.9-2.33-1.53-4.36,0-6.44.26-2.45.28-5.07.75-7.11,2.21-1.38,1-3,.54-3.93.43-2.71-.33-5,.87-7.95,1.43l1.73-1.52a7,7,0,0,0-4.27-.22,21.29,21.29,0,0,1-10.78-.52,2.49,2.49,0,0,0-1.9.14c-4.54,3.87-10.37,2.34-15.5,3.66a30.91,30.91,0,0,1-6.63,1c.07-2,2.73-.62,3-2.41-3.41-1.24-5.36,2.73-8.73,2.48.71-1.4,2.59-.36,3.06-1.95a2.71,2.71,0,0,0-2.57,0c-3.66,3-8.46,2.25-12.51,3.91a2.52,2.52,0,0,1-1,.26c-1.39-2.68-3.19-.5-4.73-.34-5.66.6-11.28,1.59-16.95,1.93-1.5.09-1.9,1.38-3,1.39-3,0-6.17.64-8.85-.27-3.5-1.19-6.5.92-9.75.37-.69-.12-1,.35-.71,1.09.12.27-.12.64-.19.49-1.11-2.57-3.15-.32-4.74-.85s-3.88.29-5.86.33-3.8.79-5.89.32c-1.42-.32-3.09.72-4.68.82-7.53.47-15.09.59-22.59,1.3-4.51.43-9,.65-13.52.89-9.66.51-19.35.58-29,.92-1.84.07-3.12-1.31-3.11-2.31,0-2.58-1.17-1.59-2.45-1.4-3.23.46-6.47.81-9.7-.23,2.79-.66,5.56-1.23,8.46-.68a7.37,7.37,0,0,0,6.11-1.61c.32-.24.62-.46.48-.9-.18-.59-.65-.55-1.14-.51-2.37.22-4.3,0-3.82-3.25,0-.28-.57-.66-.87-1-1.48,1.59-3.87-.56-5.35,1.37-.85,1.11-2.2.74-3.37.44-.48-.13-1-.22-.75-1.13s1.32-1,1.43-.75c1.5,3,2.55-.64,3.83-.22.22-1.09,3.62-.69,1.31-3.15-.8-.85,1.2-1.19,1.56-1.16,2.13.21,4.09-.84,6.17-.7,2.47.16,4.39-1.16,6.42-2,.19-1.59-2.44-.57-1.8-2.27.09-.24.86-.22,1.31-.33,2.74,3.81,4.15,4.08,7.78.71C157.11,205.71,155.16,202.82,152.54,203.71ZM579.86,85.79c2.56.9,4.8-.21,7.5-1.06-5.29-1.16-5.29-1.16-7.55.21-2.11-1.48-3.52.36-5.17,1.08-.39.17-1,0-.86.75a.86.86,0,0,0,1.14.57C576.58,86.88,578.22,86.32,579.86,85.79Zm-539,35.13c-1.36-.63-2.94.61-4.32-.56-.23-.2-1.81.51-1.83.85-.07,1.4-2.52,1.56-1.76,2.81s1.73-.55,2.54-.8c2-.62,4.58.78,6-1.69a13.75,13.75,0,0,1,4.74.38c.46.17.94.35,1.31,0a1,1,0,0,0,0-1.3.86.86,0,0,0-1.16-.43,4.07,4.07,0,0,1-3.53-.38C42.41,119.55,40.46,118.83,40.88,120.92ZM551,10.94c-3.44-.79-6.85.83-10.33.1-.88-.18-2,.52-2.94.81-.68.19-.46.65-.41,1.11.08.64.31.77.93.55a20.79,20.79,0,0,1,12-.82,2.6,2.6,0,0,0,2.76-1.07c3.21,1,6.26-.58,9.7-.06-2.82-2.29-5.77-1.39-8.51-1.8C553.3,9.61,551.26,8.38,551,10.94ZM534.5,103.55a4.26,4.26,0,0,0,3.27,0c.81-.32,2.37-.13,2.24.26-.67,2,.91,1.26,1.43,1.2a40.73,40.73,0,0,0,9.29-2.65c.33-.12,1.26-.32.68-.76s.13-1.7-1-1.78c-.55,0-1.3-.13-1.62.17-1.3,1.2-1.41,1.45-2.71.43-2.07-1.61-3.88-.65-6-.29C537.55,100.56,537.41,104.12,534.5,103.55ZM172.23,199.1c1.65-.31,3.44.9,4.94-.72.47-.5,1-.62,1.58.39,1.73,2.89,3.31-1.72,5.17-.32.1.08.58-.13.67-.31a1.54,1.54,0,0,0,0-.82c-.17-1.07-.91-1.15-1.84-1.32C178.74,195.29,175.7,198,172.23,199.1ZM515.6,68.16c-.33,1.48-1.66,1.84-1.28,2.72.45,1,1.49.31,2.27.35.47,0,.94.1,1.41.12a1.56,1.56,0,0,0,1.66-.85c.3-.77-.33-.92-.93-1a2,2,0,0,1-.44-.18c.21-.19.52-.34.61-.57.35-.88,1.6-.41,2.05-1.51l-10.63,1C512.29,69.48,513.67,70.29,515.6,68.16Zm45.94-50.72c1.27,2.8,8.36,2.86,11.23.53C569.24,15.11,565.56,18.29,561.54,17.44Zm.78,60.84c-2.58,1.1-4.18,2.81-6.46,3.19,5.32,2.11,10.38-1.76,15.64-.55-4-1.5-7.82-1.07-11.77.19A5.31,5.31,0,0,0,562.32,78.28Zm-25.57,70.84c-1.67-.27-3.14.5-4.62,1a1.41,1.41,0,0,0-.84,1.89c.41,1.13,1.42.73,1.85.33,1.13-1,3.33,0,3.79-2.11.72.28,1.37.39,1.18-.73C538,148.56,537.24,149.17,536.75,149.12ZM378.94,92.61c-3.31,0-6.63-.7-9.88.59C372.64,96.52,375.73,93.25,378.94,92.61Zm13.69-1.37c3.2.75,5.66-.08,8.09,0,.43,0,.58-.49.49-.87,0-.22-.46-.56-.52-.52-1.08.62-1.41-.72-2.15-.8a5.63,5.63,0,0,0-3.3.2C395.11,89.27,393.48,91.05,392.63,91.24ZM133,126.58c3.69,1.42,7-.29,10.35-1.34C139.76,124.74,136.49,126.36,133,126.58ZM533.48,34.74c-2.79-1-5.38,0-8.54.23C528.31,37.31,530.84,35.06,533.48,34.74ZM433.19,77.34c3.17-.29,6.45,1,10.12-.5C439.42,75.12,436.36,77.08,433.19,77.34ZM41.5,168.46A4.26,4.26,0,0,0,37,168c-.59.22-1.46.2-1.2,1.13a1.43,1.43,0,0,0,1.59.91A10.34,10.34,0,0,0,41.5,168.46ZM578.08,37.28a18.38,18.38,0,0,0,7.31.3C582.66,35.29,581.67,35.21,578.08,37.28ZM156.68,216.83c2.93,1.84,5.87.62,8.83.35C162.58,216.8,159.64,216.94,156.68,216.83ZM373,88.06c1.38-.08,2.92.3,3.2-1.31.18-1-1.22-1.26-1.82-1.13-1.11.23-2.61.53-2.74,1.95C371.57,88.51,372.64,88,373,88.06ZM431.7,77.72c-3.44-.4-6.79.13-10.67.62C425.1,80.13,428.32,77.87,431.7,77.72Zm-48.13,14c-1.13.21-2.4.23-3.18,1.39a.93.93,0,0,0,.18,1.27c1.23,1.26,1.42-1.28,2.5-.67a1.07,1.07,0,0,0,.83-.09c.62-.33,1.71-.38,1.48-1.37C385.19,91.41,384.24,91.89,383.57,91.69ZM136.83,169.32c2.21,1.31,4,.18,6.45-1C140.51,167.75,138.74,169,136.83,169.32ZM548.9,18.86c2,.81,3,2.05,4.47,1.44a4.51,4.51,0,0,0-.78-2.79C550.89,16.22,550.87,18.87,548.9,18.86ZM175.55,119.37c1.41,1.22,2.7,1,4.16,1s1.19-1,1.81-1.4c-.62-.59-1.57-1-2.15-.55C178.29,119.23,177.06,119,175.55,119.37ZM150.62,51.59c-3-.41-5.82-.23-8.22,1.79Zm172.66,47.3c.51.42,1,.83,1.49,1.2,1.28,1,2-.29,3-.74.4-.2.51-.66.16-.91a2.08,2.08,0,0,0-2.53-.27A9.73,9.73,0,0,1,323.28,98.89ZM147.77,211.59c-2.4-.54-4.34.11-6.65.06C143.44,213.58,145.43,214,147.77,211.59Zm379.78-75.53a5.34,5.34,0,0,0,3.82.81c.61,0,1-.28,1-1s-.46-.88-1.11-.82A6.25,6.25,0,0,0,527.55,136.06Zm8.51-99.69c-.61-.92,1-1.46,0-2.07-.74-.44-1.09.55-1.32,1.11-.31.76-1.58.61-1.59,1.78a10.28,10.28,0,0,0,5.5-.87C537.59,35.32,536.78,36.39,536.06,36.37ZM419.56,84.25c.36-1.92-.65-2.33-2-2.14-.4.06-1.41-.26-1.18.6.37,1.36,2,1.34,2.93,2C419.45,84.87,420,84.53,419.56,84.25Z"/><path class="cls-1" d="M51.09,131.17a27.67,27.67,0,0,1-14.28,2.11c-2-.23-1.93-.27-3.61,1.49a2.19,2.19,0,0,1-2.11.2,15.48,15.48,0,0,0-2.81-.91c2.79-1.85,5.75-1.38,8.48-1.87.45-.08,1.11.35,1.53-.14,2.35-2.7,5.3-1.8,8.73-1.62l-1.64.95c.11.14.19.37.32.39.87.16,1.85.22,2.06-.88.3-1.57,1.27-1.36,2.34-1.1Z"/><path class="cls-1" d="M585.61,26.82c-1.39.95-2.37,3-4.31.66-.6-.72-1.81-.16-2.64.33a18.28,18.28,0,0,1-12.26,2.36c-.8-.12-.8.66-1.24.73a3.56,3.56,0,0,1-1.33-.33c.72-.54,0-1.2.15-1.77s.73-.21,1.12-.28c1.41-.25,2,2.18,3.65,1,.08-.89-.94-.27-1.18-1a10,10,0,0,1,7.36-1.23c2.17.48,4.71-.4,7-1A3.9,3.9,0,0,1,585.61,26.82Z"/><path class="cls-1" d="M91,131.17c1.2,2,3.28,1,5.54,1.36-2.68,1.66-5.22.83-7.49,1.45-2.44.66-5-.87-7.46.37a.84.84,0,0,1-1.19-.79,1.52,1.52,0,0,1,1.35-1.26c2-.26,4.13-.9,6-.47,1.44.33,2.25-.34,3.34-.58Z"/><path class="cls-1" d="M149.91,204.6c-3.74-.27-6.88.63-9.45,3.71,1.06-2.27,1.35-3.34-1.72-2.62-1.55.37-3.37,1.41-5.15.37a.81.81,0,0,1,.71-1c4.7.7,8.92-2.28,13.63-1.75A2.73,2.73,0,0,1,149.91,204.6Z"/><path class="cls-1" d="M593.23,88.09c.75-.39,1.58-.06,1.62.56.17,2.89,1.77,2.28,3.57,1.72a18.5,18.5,0,0,1,3.35-.44l-.06,0c-3.24,3.33-7.72,2.62-11.69,3.48-1.31.28-.94-.94-.54-1.49a2.75,2.75,0,0,1,2.12-1.08c2-.08,2.16-1.23,1.7-2.77Z"/><path class="cls-1" d="M567.69,102.07,553,105.46C555.56,102.87,563.15,101,567.69,102.07Z"/><path class="cls-1" d="M523,129.22c1.14-2.53,3.58-1.41,5.42-1.78,1.17-.24,2.52.37,4.38.71-3.61.73-6.48,2.95-9.86,1Z"/><path class="cls-1" d="M79.34,126.91c1.09-.21,2.18-.48,3.28-.59s2.73-1.11,1.84,1.61c-.51,1.56,1.67.15,2.52,1.42-3.23.68-5-2.41-7.64-2.45Z"/><path class="cls-1" d="M51.09,131.17l-1-1.38,5-2.37C54.79,130.25,52.89,130.66,51.09,131.17Z"/><path class="cls-1" d="M522.9,129.13c-.87,2.39-3.68.68-5,2.92.48-3,2.5-3.89,5.06-2.84Z"/><path class="cls-1" d="M539.72,136c1.4-1.26,2.68-3,4.85-.86-1.49.37-2.5,3.16-4.78.77Z"/><path class="cls-1" d="M601.77,89.93c1.87-.34,3.7-1.12,5.72-.56-1,1.37-1,1.37-5.77.53Z"/></g></g></svg>