<svg xmlns="http://www.w3.org/2000/svg" viewBox="0 0 835.39 62.14"><defs><style>.cls-1,.cls-2{fill:#a77969;}.cls-2{font-size:40.34px;font-family:Dubai-Light, Dubai;font-weight:300;}</style></defs><g id="Layer_2" data-name="Layer 2"><g id="Layer_1-2" data-name="Layer 1"><path class="cls-1" d="M29.94,19.24c0,.09-.07.12-.11.16l-.65.66-5.61,5.62q-3.18,3.2-6.35,6.38c-.32.32-.65.64-1,1-.12.13-.2.15-.34,0l-2.53-2.48L3.88,21.21.12,17.53c-.14-.14-.17-.2,0-.36,1-1,2-2,3-3,.14-.15.22-.14.36,0q5.13,5.2,10.28,10.4l2.16,2.19c.12.13.19.13.32,0l4.65-4.6q3-2.91,5.89-5.84c.13-.13.2-.14.33,0l2.76,2.8Z"/><path class="cls-1" d="M19.06,8.2l-.1.12q-3.26,3.3-6.56,6.56l-1.55,1.53c-.3.31-.3.31-.6,0L7.58,13.73c-.13-.12-.13-.19,0-.32l7.88-7.87C16,5,16,5,16.56,5.57c.78.82,1.57,1.62,2.35,2.43C19,8.06,19.05,8.1,19.06,8.2Z"/><path class="cls-1" d="M24.46,13.65c0,.09-.08.13-.13.18l-1.24,1.26c-2.29,2.3-4.59,4.6-6.87,6.9-.17.17-.25.18-.42,0-.91-.94-1.84-1.87-2.77-2.79-.12-.12-.11-.18,0-.3l8.22-8.2c.11-.11.18-.14.3,0l2.81,2.85Z"/><path class="cls-1" d="M629.39,15.94c-3,.2-6.06.19-9.09.14-.88,0-1.11.24-1.1,1.12,0,5,0,9.94,0,14.92,0,.83-.22,1.12-1.06,1.06a22.33,22.33,0,0,0-3.06-.06c-.84.05-1.07-.23-1.07-1.06,0-4.91,0-9.81,0-14.71,0-1.06-.23-1.4-1.33-1.36-2.61.08-5.22,0-7.83,0-.71,0-1-.17-1-.93,0-2.78,0-2.78,2.7-2.78L628,12.25c.46,0,.91-.08,1.36-.12Z"/><path class="cls-1" d="M575.91,19.25V21.9c0,3.42,0,6.84,0,10.26,0,.73-.2,1-.95,1a19.42,19.42,0,0,0-2.75,0c-.78.05-1-.19-1-1,0-4.37,0-8.74,0-13.11,0-2,0-4,0-6,0-.63.15-.83.82-.87a6.06,6.06,0,0,1,4.36,1.36c5,4,10.07,7.83,15.13,11.72.24.19.5.55.79.44s.22-.62.22-.95c0-3.84.06-7.68,0-11.53,0-.85.25-1.08,1.06-1a27.08,27.08,0,0,0,2.85,0c.52,0,.75.1.75.69q0,9.84,0,19.67c0,.51-.18.69-.68.68-1.2,0-2.4,0-3.59,0a1.89,1.89,0,0,1-1.27-.66l-15-12.69C576.48,19.68,576.31,19.56,575.91,19.25Z"/><path class="cls-1" d="M448.6,20.39c0-3.91,0-7.83,0-11.74,0-.79.19-1.05,1-1a32.8,32.8,0,0,0,3.71,0c.81,0,1,.25,1,1-.06,6.1,0,12.21-.12,18.31,0,1.09.3,1.33,1.35,1.32,5.68,0,11.35.05,17,0,.85,0,1.1.25,1,1.07a15.39,15.39,0,0,0,0,2.54c.09.94-.19,1.25-1.19,1.25-7.06,0-14.11,0-21.17,0-2.64,0-2.64,0-2.64-2.61Z"/><path class="cls-1" d="M520.45,27c.42-.16.5-.54.67-.83,2.56-4.34,5.12-8.68,7.63-13a1.53,1.53,0,0,1,1.59-.9c1.47.06,2.94,0,4.41,0a1.4,1.4,0,0,1-.41,1c-3.85,6.28-7.72,12.55-11.55,18.84A2,2,0,0,1,521,33.21a2.9,2.9,0,0,1-3.19-1.82c-3.35-6.12-6.84-12.16-10.29-18.23-.55-1-.55-1,.55-1s2.05.05,3.06,0a1.39,1.39,0,0,1,1.47.88c2.43,4.38,4.9,8.73,7.36,13.09C520.09,26.43,520.27,26.72,520.45,27Z"/><path class="cls-1" d="M549.69,18.19l-5,8.83c-1,1.78-2,3.55-3,5.35a1.34,1.34,0,0,1-1.41.81c-1.33-.06-2.66,0-4.18,0,.72-1.27,1.33-2.37,2-3.46,3.13-5.51,6.27-11,9.36-16.55a1.87,1.87,0,0,1,1.73-1,3,3,0,0,1,3.23,1.78C556,20,559.82,26.06,563.53,32.13c.18.28.59.58.34.91-.13.17-.59.12-.9.12-1.13,0-2.26,0-3.39,0a1.58,1.58,0,0,1-1.67-.94c-2.45-4.27-5-8.51-7.45-12.77C550.23,19.08,550,18.7,549.69,18.19Z"/><path class="cls-1" d="M488.76,32.85c-.12-.1-.23-.17-.32-.26a1.53,1.53,0,0,1-.17-.27c-1.49-2.29-1.49-2.29.9-3.66,3.69-2.13,7.39-4.24,11.06-6.39.63-.37,1-.37,1.25.36s1.27,1.7,1,2.44-1.39.95-2.15,1.38l-10.8,6Z"/><path class="cls-1" d="M494.36,10.78c0,.41-.26.46-.45.57-4.23,2.38-8.48,4.74-12.71,7.12-.45.25-.63.18-.9-.26-1.39-2.33-1.4-2.31.94-3.63,3.53-2,7.07-3.94,10.57-6,.9-.53,1.34-.42,1.7.54A13.86,13.86,0,0,0,494.36,10.78Z"/><path class="cls-1" d="M484.82,25.35c-.35.06-.41-.19-.53-.35-1.55-2.16-1.54-2.21.72-3.5,1.62-.92,3.26-1.82,4.87-2.76.53-.31.85-.39,1.23.27,1.24,2.12,1.28,2.1-.91,3.32L485.41,25Z"/><text class="cls-2" transform="translate(53.97 33.24)"><tspan xml:space="preserve">Powered &amp; Designed By                    Company</tspan></text></g></g></svg>