<svg xmlns="http://www.w3.org/2000/svg" viewBox="0 0 29.67 29.74"><defs><style>.cls-1,.cls-2{fill:#a77969;}.cls-1{isolation:isolate;opacity:0.4;}</style></defs><g id="Layer_2" data-name="Layer 2"><g id="Layer_1-2" data-name="Layer 1"><path class="cls-1" d="M21.05,0H8.62C3.22,0,0,3.22,0,8.62V21.05c0,5.4,3.22,8.62,8.62,8.62H21.05c5.4,0,8.62-3.22,8.62-8.62V8.62C29.67,3.22,26.45,0,21.05,0Z"/><path class="cls-2" d="M17.68,10.81l.07,4.37,3.9-.06a.45.45,0,0,1,.45.52l-.52,2.84a.47.47,0,0,1-.43.37l-3.34.06L18,29.67l-4.45.07L13.36,19,10.83,19a.44.44,0,0,1-.44-.45l0-2.82a.43.43,0,0,1,.44-.44l2.52-.05-.07-4.82A4.45,4.45,0,0,1,17.6,5.92h0l4-.06a.44.44,0,0,1,.44.45l.06,3.56a.44.44,0,0,1-.45.45l-3.56,0A.43.43,0,0,0,17.68,10.81Z"/></g></g></svg>