<svg xmlns="http://www.w3.org/2000/svg" viewBox="0 0 578.94 712.28"><defs><style>.cls-1{opacity:0.2;}.cls-2{fill:#a77969;}</style></defs><g id="Layer_2" data-name="Layer 2"><g id="Layer_1-2" data-name="Layer 1"><g class="cls-1"><path class="cls-2" d="M578.94,3.51V0c-21.5,1.27-38,12.52-53,26.86-7.35,7-11.24,16.85-17.27,25a2,2,0,0,0-.24.89c-.47,3.13-2.27,5.52-4.38,7.71a23.42,23.42,0,0,0-3.79,4.91c-8,14.51-13.58,30-19.07,45.57a291.8,291.8,0,0,0-9.5,34.75c-1.46,6.7-5.34,10.23-10.77,13.2-4.9,2.68-10.11,4.88-14.46,8.45-2.32,1.9-3.38.89-4.37-1.28-.74-1.61-1.4-4.39-3.42-3.52s-1,3.47-.31,5.35a1.48,1.48,0,0,0,.12.29c2,3.8,1.3,7.12-1.06,10.71-8.36,12.76-16.28,25.78-22.33,39.85-6.28,14.6-12.32,29.25-13.66,45.33,0,.2-.36.37-.71.69-1.79-4.81-3.68-9.38-5.19-14.08-2.21-6.88-6.46-12.75-9.21-19.35-3.83-9.18-7.56-18.41-12.11-27.26q-9.51-18.48-20.43-36.16c-6-9.7-11.95-19.37-18.16-28.9-4.75-7.28-10.3-14.06-14.7-21.53a208.62,208.62,0,0,0-12.05-18.45c-1-1.32-1.86-4-3.69-2.92s-.16,3.36.46,5c3.11,8.23,6.56,16.33,9.47,24.63,6.41,18.22,10.51,37.13,16.11,55.59a53.26,53.26,0,0,1,1.61,7.29c2,12.91,3.84,25.84,5.76,38.76,2.25,15.18,8.16,29.32,12.71,43.83,2.35,7.5,5.14,14.88,7.67,22.34,2.8,8.25,5.52,16.52,8.78,24.62,2.14,5.33,4,10.78,6.11,16.5-2.51-.53-3.6-2.45-5.15-3.67-10.8-8.54-23.13-14.59-35-21.28-2.7-1.51-3.73-3-3.34-6,1.19-9.23,1.06-18.38-2.15-27.32-2.24-6.24-4.23-12.59-6.23-18.92-7.43-23.4-18-45.19-33.24-64.55-13.39-17-28.64-32.21-44.52-46.78-14-12.81-28.39-25.11-42.6-37.64-1-.86-2-1.84-3.23-.83s-.2,2.22.41,3.24c4.16,7,8.7,13.89,12.41,21.16,8.58,16.78,17.27,33.49,25.08,50.68,8.42,18.51,16.61,37.07,23.49,56.22,4.4,12.23,10.28,23.77,18.64,33.9,2.2,2.66,4.2,5.48,6.76,8.85a24.79,24.79,0,0,1-3.4-1.1c-9.44-5-19.14-9.47-29-13.7-1.7-.74-2.34-1.75-1.76-3.64a11.64,11.64,0,0,0,.06-4.92c-1.28-10.49-6.59-19.42-11.44-28.39-8-14.81-19.48-27-31.22-38.88-11.91-12.08-27-19.83-40.51-29.79-9.42-7-20.07-12-30.35-17.64-3.55-1.93-6.91-4.2-10.44-6.16-.87-.49-2.22-1.05-3,.37-.65,1.19.15,1.91,1,2.6,6.47,5.22,10.72,12.35,15.65,18.83,7.61,10,12.93,21.42,19.05,32.34,11.44,20.4,24,39.91,40.89,56.39.66.64,1.38,1.28,1.1,2.36-.93.42-1.58-.28-2.35-.49-5.38-1.42-8.74-5.74-12.92-8.91-5.66-4.28-12.16-7.11-18.39-10.39-12.71-6.69-26.07-11.86-40.33-14-14.91-2.29-29.95-1.25-44.94-.84-10.89.3-21.58,2.69-32.47,3.11-15.62.59-31.23,1.42-46.85,2.19-1.36.07-3.37-.32-3.56,1.62s1.88,1.55,3.05,1.8a212.18,212.18,0,0,1,50.3,17.69,199,199,0,0,0,36.85,14.06c3.62,1,7.43,1.33,11.54,3.29-5.93.9-11.12,1.71-16.31,2.47-9.56,1.4-18.93,3.72-28.33,5.87-1.3.3-2.46.81-2.15,2.46.25,1.37,1.39,1.29,2.45,1.3a128.12,128.12,0,0,1,39.65,6.7c20.46,6.79,41.06,13.1,62.06,18,2.95.69,5.83,1.61,9.24,2.56-5.32,2.9-10.1,5.35-14.73,8.05C135.84,317.26,116.83,325,98,333.18c-3,1.28-5.88,2.58-8.79,3.95-.92.44-2,1-1.43,2.36s1.53.67,2.41.43a11.52,11.52,0,0,1,2.72-.63c9.72-.17,19.43-.9,29.17.07,20.2,2,40.41,3.51,60.73,1.54,14.64-1.43,29.4-.26,44.06-1.64,3.92-.37,7.89-.3,12.34-.45-2.28,2.55-5.1,3.24-7.37,4.76C219.13,352,207.5,361.86,196.15,372c-15.13,13.57-27.94,29.45-43.1,43-1.47,1.31-2.91,2.66-4.32,4-.7.69-1.19,1.59-.52,2.5s1.66.4,2.45-.1c2.18-1.39,4.21-3.15,6.56-4.13C170.4,411.79,183,405,196.55,400.25c11.06-3.85,21.95-8.29,33.52-10.54a308.9,308.9,0,0,0,40.41-10.23c.43-.14.95-.49,1.5.17a4.46,4.46,0,0,1-1.85,2.26c-11.54,8.57-21.13,19.22-31.22,29.33-11.28,11.3-21.61,23.46-32.25,35.35-5.38,6-10.87,11.94-16.31,17.91-.69.77-1.58,1.57-.65,2.68a2.9,2.9,0,0,0,2.86.8,6,6,0,0,0,2.6-1.6c6.86-5.16,13.39-10.82,20.69-15.35a244.41,244.41,0,0,1,54.82-24.78c17.69-5.64,35.39-11.29,52.67-18.1,5.5-2.17,11.34-3.25,16.71-5.9,8.26-4.07,17.19-6.66,25.3-11.14,10.37-5.73,19.08-13,22.29-25,.76-2.84,1.67-2.6,3.65-1.11,6.3,4.74,12.36,9.77,18.31,14.94,2.55,2.22,5.47,4,7.58,7.06-.55.23-.74.38-.92.36-.4,0-.8-.17-1.2-.25a40.76,40.76,0,0,0-23.23,1.66c-15.41,5.88-30.65,12.08-44.59,21.09-6.86,4.44-14.69,7.29-20.93,12.74a112.16,112.16,0,0,1-14.42,10.26A103.45,103.45,0,0,0,300.53,441c-14.29,12-28.64,23.87-42.78,36-5.49,4.72-11.41,9-16.26,14.4-.75.85-1.7,1.81-.79,3s1.89.26,2.81-.14c6.08-2.61,12.17-5.12,18.07-8.25,15.63-8.27,32.29-14.12,49.37-18.68,2.2-.59,4.46-1.41,7.25-1.13-1,1.82-2.49,2.6-3.71,3.63-3.56,3-7.22,5.9-10.7,9-12.08,10.72-23.09,22.62-35.73,32.73-4,3.17-8.14,6.08-11.66,9.77-.81.86-2.07,1.7-1.32,3.17s2,.69,3.06.54c11.75-1.6,23.12-4.91,34.6-7.71,16.15-3.94,31.72-9.85,47.79-14a156.66,156.66,0,0,0,23.64-7.74,19,19,0,0,1,9.73-1.46c14.83,1.53,29.75,1.89,44.56,3.9,18.89,2.57,38,2.87,57,4.49.93.08,2-.15,2.59.71a45.4,45.4,0,0,1,4.79,7.56c-.7.13-1.09.23-1.49.27a215.68,215.68,0,0,0-44.3,8c-13.52,4.08-27,8.08-40.58,12.09-6.07,1.8-12,3.93-17.89,6.3-8.75,3.53-17,8.06-25.5,12.17-3.35,1.63-6.68,3.31-10,5-1.69.85-1.92,2.43-1.59,4s1.67,1.85,3.15,1.84a100.88,100.88,0,0,0,10.85-.49c11.12-1.3,21.91-4.78,33.12-5.35,12.3-.63,24.63-.85,36.94-1.22,16.63-.49,33.26.44,49.44,4A341.32,341.32,0,0,0,530,564.7a5,5,0,0,1,3.63,2c4.15,4.77,8.24,9.59,12.47,14.27,3.51,3.88,7.88,6.82,12,10.55a5.17,5.17,0,0,1-1.29.08c-11.54-3.89-23.55-3.16-35.42-3.38-13-.24-25.8,1.74-38.6,3.8-14.86,2.41-29.72,5-44.05,9.52-16.2,5.13-32.06,11.35-48,17.2-8.38,3.07-15.84,8.19-24.26,11.21-1.28.46-3.79.67-3.15,2.57s2.73.5,4.07.16c15.5-3.86,31.1-6.12,47.12-3.73,10.54,1.57,21.19,2.43,31.33,6.15,10.41,3.81,20.75,7.83,31.55,10.52,1.48.37,3.23.24,4.47,1.43-.43,1-1.24,1-1.9,1.2-22.59,6.94-43.92,16.83-64.87,27.63-11.16,5.75-21.43,13-32.26,19.26-7,4-14.3,7.52-20.46,12.85-1,.85-2.53,1.55-1.85,3.19.75,1.8,2.38.87,3.56.62,10.67-2.31,21.59-2.58,32.37-4.05,9.59-1.3,19.24-.29,28.84-1.16,9.18-.83,18.39-.31,27.6-.17,17.57.26,35.15.09,52.68-2,21.56-2.6,42.94-5.88,63.59-12.89,3.18-1.08,6.45-1.91,9.73-2.67v-2.38c-10.47,3-20.81,6.54-31.51,8.85a388.3,388.3,0,0,1-69.91,8.78c-15.43.48-30.85-.73-46.27-.25-18,.57-36,1.36-53.92,3.23-.7.08-1.42,0-2.12,0,11.19-5.15,22.44-10.47,34.34-13.57,11.41-3,23.07-5.21,34.53-8.09,17.91-4.52,36-8.13,54.11-11.74C517,670,535.74,666,554.79,663.48c8.06-1.08,16.12-2.23,24.15-3.59v-2c-3,.57-5.9,1.11-8.87,1.59-16.25,2.64-32.61,4.59-48.77,8-18.67,3.92-37.33,7.91-56,11.65q-29.44,5.88-58.53,13.48c-11.4,3-22.33,7.72-33.16,12.49-.83.36-1.57,1.07-3.15.56,5.18-4.08,10.87-6.61,16.06-9.94,11.6-7.43,23.3-14.66,35.49-21.1a358.72,358.72,0,0,1,56.39-23.77,288.69,288.69,0,0,1,38.64-10A276.16,276.16,0,0,1,556.56,637c7.45-.26,14.82-2.23,22.28-1.44h.1v-3.73c-4.71-1.35-9.33-3.07-14-4.84-7.56-2.9-15.53-4.39-23.48-5.9-8.14-1.55-16.21-3.5-24.44-4.57-16.94-2.2-33.81-4.07-51-3.33-16,.68-31.78,3-47.51,5.42a286.13,286.13,0,0,0-34.33,7.54c-1.45.41-2.9,1.07-5,.52,7.27-4.31,14.86-6.49,22.21-9.29,11.34-4.33,22.67-8.68,34.19-12.5,16.06-5.33,32.63-8.54,49.29-11.49,16.95-3,33.95-3.68,51.07-3.18,10.65.31,20.82,3.36,31.19,5.28a87.62,87.62,0,0,1,11.76,3v-2c-3.63-1.07-7.32-2-11.06-2.74a3.66,3.66,0,0,1-1.46-.49c-8.77-6.87-18.31-12.9-24.79-22.31a1.44,1.44,0,0,1-.32-1.73c5.56,2.65,11.09,5.35,16.67,7.93q10.47,4.85,21,9.65v-2.9c-13.31-5.81-26-12.09-38.57-18.71a74.81,74.81,0,0,0,17.4-3.33c2.06-.7,4.18-1.29,5.68-3,.41-.48.93-1,1.58-.74,2.61,1.2,5.86,1.44,7.7,3.78,2.12,2.69,4.19,5.41,6.21,8.19v-4.19q-3.59-4.93-7.3-9.76c-2.07-2.68-2.86-5.28-1.85-8.63,2-6.57-1.81-11.69-5-16.66A29,29,0,0,0,552.19,520a27.77,27.77,0,0,1-9.1-7c-8.28-9.28-17.35-17.81-25.82-26.91A11.3,11.3,0,0,1,514,478c0-6.47-2.85-11.71-7.95-15.81a44.61,44.61,0,0,0-16.7-8.66,3.69,3.69,0,0,1-1.66-.77c-7.75-8.06-16.74-14.87-24-23.48a9,9,0,0,1-2.22-5.29c-.66-7.93-4-12.08-11.66-13-6.49-.74-9.7-4.82-11.91-10-1.85-4.3-4.69-7.61-8.81-9.12-5.62-2-9.48-6.13-13.7-9.88-7.68-6.81-15.73-13.17-23.83-19.46-2.05-1.59-4.2-3.21-5.52-5.43-2.92-4.95-7.54-8.07-12.23-10.73C362.59,340,351.73,333,340.71,326.15c-8.8-5.44-18.46-9.43-27.22-15-2.56-1.63-5-2.92-6.83-5.86-2-3.27-5.82-5.5-9.28-7.63C281.51,287.88,264.3,281,247,274.13c-4-1.6-4-1.64-5.14-3.53,5.93-4.17,11.38-1.1,16.83,1.36a209.47,209.47,0,0,1,23,11.58,34.71,34.71,0,0,0,5.24,2.72c4.07,1.59,7.22,4.28,10.22,7.39a99.86,99.86,0,0,0,18.17,15.46,24,24,0,0,0,7.65,3.31,4.52,4.52,0,0,0,3.9-.56c2.09-1.69,3.89-1.17,5.94.06,9.15,5.49,19.06,9.71,27.61,16.2,6.58,5,13.45,9.68,19,16a23.14,23.14,0,0,0,13,7.51c3.15.65,5.71,2.36,8.32,4.06a2.09,2.09,0,0,1,1.2,1.7c-.19,4.07,2.27,7,4.32,10.1,4.19,6.26,9.11,11.83,16.15,15.08,2.28,1.05,4.56,2.09,7.14,1.07,1.38-.55,2.45.1,3.39.94,10.38,9.2,21.06,18.12,28.19,30.33,3.37,5.78,7.82,10.09,14.58,11.65a10.88,10.88,0,0,1,5.2,3.29c9.84,10.08,19.59,20.26,28.88,30.87a15,15,0,0,1,3.87,8.59,23.49,23.49,0,0,0,7.1,14.51c2.73,2.69,5.51,5.34,8.41,7.83,3.55,3.06,7.58,4.25,12.12,2.33,1.81-.77,3-.28,4.31,1.19,8.77,10.11,15.65,21.61,23.72,32.23a8.23,8.23,0,0,1,1.54,4,93.83,93.83,0,0,0,8.05,27.23v-6.47A98.88,98.88,0,0,1,574,534.73a119.19,119.19,0,0,1-1.45-30.51c1.58-22.72,3.42-45.42,6.39-68V417.8c-.64,4.36-1.3,8.73-1.85,13.1-.22,1.85-1,1.89-2.46,1.45-2.37-.73-4.73-1.5-7.15-2-1.88-.4-2.14-1.48-2.14-3.11,0-6.89.82-13.78,0-21.25,4.73,2.26,9,4.35,13.28,6.32a2.14,2.14,0,0,1,.3.17v-3.34a3.06,3.06,0,0,1-.5-.23,93.51,93.51,0,0,0-12.14-5.54c-.95-.36-1.08-1.07-1.14-2-.51-7.13-1.06-14.25-1.66-22.15,4.6,2.37,8.88,4.14,12.78,6.68a3.59,3.59,0,0,1,1.56,2.57c.36,2.06.73,4.11,1.1,6.17V373.73c-.16-1.66-.3-3.32-.43-5-2.37-29.1-5.66-58.11-7.75-87.24-.85-11.87-3.29-23.62-4.14-35.49-1.3-18.17-1.85-36.39-2.7-54.59-.27-5.86-.5-11.72-.55-17.62,1.4,2.41,1.43,5.15,1.78,7.77,2.57,19.2,5.35,38.38,7.5,57.63,2.57,23,4.45,46.11,6.29,69.2V272.47a15.67,15.67,0,0,0-.69-4.24c-1.09-2.86-.68-4.84.69-6.44v-4.53c-1.59.28-2.21-.75-2.34-3.32a64.91,64.91,0,0,0-1.2-11.73c-.47-2,.69-2.78,2.09-3.63l1.45-.87V234l-1.49.88c-1.89,1.12-2.63.55-2.72-1.52a86.23,86.23,0,0,0-1.82-13.86c-.55-2.61.36-4.24,2.64-5.6l3.39-2v-3.17c-1.29.67-2.6,1.31-3.91,1.95-2.35,1.13-3.17,1.42-3.45-1.71-.53-6-1.51-11.91-2.41-17.85-.19-1.21.06-1.61,1.24-1.88a9.77,9.77,0,0,0,3.11-1.35l5.42-3.54V181q-2.25,1.34-4.53,2.63c-.63.35-1.23.77-1.86,1.12-3.17,1.76-3.84,1.58-4.42-2-.94-5.82-1.61-11.68-2.32-17.53-.31-2.58,1.21-4.22,3.14-5.66,3.22-2.41,6.58-4.57,10-6.66V150.2c-3.45,2-6.93,3.85-10.37,5.8-2.15,1.22-3,.83-3.21-1.83-.46-6.62-.81-13.23-.76-19.86a4.35,4.35,0,0,1,2.16-4.07q6.12-4,12.18-8v-3.29c-3.57,2.2-7.13,4.39-10.68,6.6-.86.54-1.77,1.57-2.74.92s-.51-1.9-.51-2.9c0-5.42,1.5-10.64,2.16-16,.41-3.27,3.15-5.27,5.75-7q3-2,6-4.08V92.66c-1.25.8-2.51,1.58-3.78,2.36-1.93,1.19-3.45,3-6,3.79-.1-.88-.2-1.48-.22-2.09-.12-4.69,1.27-9.2,1.9-13.8.46-3.31,2.92-5.8,5.44-8.1.9-.82,1.8-1.64,2.71-2.45V68.64l-3.37,2.93c-.89.78-1.85,2.17-3.11,1.68-1.42-.55-.74-2.17-.73-3.35,0-4,0-8.06.14-12.09a12.75,12.75,0,0,1,3.82-8.61c1.07-1.12,2.16-2.24,3.25-3.35V41.91c-1.3,1.29-2.63,2.55-4,3.76s-2.27,1.09-2.38-.46c-.52-3.05.44-5.69,0-8.17-1.3-8.13,2.58-14.46,6.35-21V10.93c-1.53,2.83-3.48,5.54-5.42,8.62-.95-5.2-2.25-9.59.34-13.9C574.67,4.29,577,3.43,578.94,3.51ZM485.58,615c31.81,2,76.67,11.64,89.06,18.52-6.77-.6-13.27,1.81-20,1.61-6.14-.17-12.18,1-18.27,1.34-15.71.86-30.93,4.27-46,8.52-2.93.82-5.77.13-8.58-.56a234.1,234.1,0,0,1-29.6-9.43c-13.45-5.31-27.6-7.17-41.85-8.61a152.47,152.47,0,0,0-15.28-.31C405.3,620.58,463.75,613.58,485.58,615ZM262.5,519c-.15-.83.42-1.11.93-1.47,12.13-8.46,22.16-19.31,33.05-29.17,7.61-6.88,15.44-13.41,23.49-19.78,7.61-6,16.34-7.1,25.16-8.68a271.07,271.07,0,0,0,46.47-12.72c1.25-.46,2.53-.88,3.79-1.31-12.81,6-24.85,13.52-37.47,20-8.62,4.4-18,6.93-26.57,11.31-7.13,3.62-13.7,8.18-20.89,11.65-2.7,1.31-5.49,2.45-8.13,3.87-2.3,1.24-2.26,2.23.08,3.38,1.22.59,1,1.11.23,1.74a17.15,17.15,0,0,1-2.58,1.74q-17.62,9.49-35.29,18.93C264.1,518.84,263.39,519.46,262.5,519Zm4,2.69-.48-1.11c2.81-1.6,5.57-3.28,8.43-4.79,11.71-6.16,23.73-11.73,34.53-19.55,4-2.88,9.14-2.73,13.86-2.79,11.89-.15,23.79.08,35.68.18a5.61,5.61,0,0,1,1.19.25L360,495C329,504.58,298.16,514.56,266.47,521.73ZM481.4,502.65a77.55,77.55,0,0,0,16.86-2.26,2.18,2.18,0,0,1,1.79.21l16.12,9.95-19.53-.16a11.49,11.49,0,0,0-2.48-.05C487.71,511.77,484.1,508.36,481.4,502.65Zm84,49.21a17.53,17.53,0,0,1-9,7.25c-9.6,3.34-19.51,3.47-29.48,2.95-19.3-1-38.19-4.66-57.11-8.37a166.42,166.42,0,0,0-33.36-2.81c-16.55.13-33.15-.07-49.64,1.62-7.81.8-15.51,2.61-23.31,3.67-3.9.52-7.82.79-11.63,1.88a5.06,5.06,0,0,1-5.1-.9c3.86-1.91,7.72-2.26,11.4-3.17,14.07-3.51,28.12-7.21,42.31-10.19,13.17-2.77,26.44-5.16,39.82-6.82,9.25-1.14,18.47-2.78,27.8-2.78,12.3,0,24.62.38,36.87,1.59,10.6,1.05,21.18,2.51,31.71,4.15,9.33,1.46,18.33,4.3,27.24,7.41C566.54,548.27,567,549.47,565.37,551.86Zm1.45-10.25c.38,1,.89,1.91.2,2.94-.57.85-1.33.38-2,.15-12-4.47-24.7-6.05-37.28-8.08a348.54,348.54,0,0,0-63.12-4.4c-16.29.35-32.37,3.23-48.35,6.26-17.72,3.37-35.31,7.4-52.79,11.84-2.39.6-4.84.91-8,1.48,3.68-3.46,7.6-5.28,11.49-7.06,16-7.29,32.72-12.45,49.61-17.11,11.1-3.06,21.93-7,33.23-9.36,17.3-3.67,34.67-5.87,52.4-5.46,12,.28,23.71,1,35.34,4.26C551.23,520.89,561.58,528.07,566.82,541.61ZM514.69,487c9.25,9,17.88,18.61,27.16,28.13-14.83-2-26.93-9.05-39.51-16.33,5.54-2,7.86-6.38,9.83-11C512.72,486.45,513.13,485.43,514.69,487Zm-6.61,3.53c-4.31,6.67-11.24,8.1-18.29,8.94-11.5,1.37-22.93-.57-34.4-1-28.26-1.14-56.22-5.92-84.5-6.74-9.19-.26-18.35-.62-27.59-.24s-18.8-.58-28.19.37c-.18,0-.38-.12-.87-.3a21.61,21.61,0,0,1,7.29-2.66c21.16-5.15,42.48-9.72,64.2-11.48,25.9-2.09,51.89-.36,77.83-.5,15.48-.09,30.68,3.17,46.12,3a10.38,10.38,0,0,1,1.89.36C510.67,483.78,510.1,487.35,508.08,490.48Zm-4.43-27A17.84,17.84,0,0,1,510.88,474c.4,1.8.3,2.68-2,2.87-7,.58-13.83-.56-20.72-1.24-13.52-1.35-27.08-.89-40.63-.91-19.25,0-38.5-.93-57.72.37-10.75.72-21.36,2.6-32,4.3q-18,2.85-35.8,6.24c5.77-4.73,12.74-6.9,19.3-9.88C365,465,390.1,459.33,415.57,454.73c18.1-3.27,36.31-2.82,54.5-2.69A56.12,56.12,0,0,1,503.65,463.52Zm-52.88-17.09c1.2-.63,1,.87,1.32,1.34.31,1,.59,2-.85,2.08-.95,0-2.38.44-2.62-.77S449.78,446.94,450.77,446.43Zm11.3-14.56a10.11,10.11,0,0,1,2.21,1.65c5.29,5.24,10.33,10.73,16.13,15.44.55.45,1.4.8,1.16,1.63s-1,.64-1.6.43c-5.2-1.79-10.63-1.2-16-1.48-3.66-.2-8.07-3.19-8.91-6.27a2.49,2.49,0,0,1,.29-2.54,41.4,41.4,0,0,0,4.53-8.12C460.38,431.45,461,431.29,462.07,431.87Zm-3.65-5.5c-.21,5.86-3.65,10.19-6.89,14.63-4.74,6.52-11,9.3-19.17,9.36-13.23.09-26,3.95-38.86,6.45a182,182,0,0,0-18.09,4.55,4.78,4.78,0,0,1-3.22.08c5.68-4.73,12.28-7.09,18.42-10.23,13.67-7,28.5-11.23,42.53-17.4,7.39-3.25,15-6.07,22.33-9.4C458.16,423.2,458.5,424.09,458.42,426.37Zm-16.66-13.19c4.88-.29,9.84-.34,13.68,3.42,2.56,2.49,2.21,3.58-.83,5.31-10.93,6.23-22.81,10.26-34.44,14.89-4,1.6-8,3.25-12,4.87l-.3-.82a99.84,99.84,0,0,0,19-13.57c3.24-2.93,6.39-5.91,8.45-9.83A7.45,7.45,0,0,1,441.76,413.18Zm-5.92-8.67a18.2,18.2,0,0,1-3.62,13.16c-7.4,10.16-17.28,17-28.69,22-22.67,10-46.53,15.82-70.69,20.48a303.54,303.54,0,0,0-64.78,20.15c-4.68,2.06-8.92,4.75-13.43,7a9.55,9.55,0,0,1-5.16,1.44c3.51-3.14,7-4.67,10.28-6.59,14.6-8.65,29-17.68,44.29-25.1,21.71-10.54,42.7-22.49,64.5-32.82,15.07-7.15,30.52-13.59,46.76-17.74,6-1.54,12.18-2.53,18.26-3.86C435.26,402.3,435.66,402.9,435.84,404.51Zm-5.91-9.19c1.81,1,3.93,2.56,3.71,4.57-.14,1.29-2.89,1-4.46,1.25-17.58,2.46-33.67,9.55-49.91,16.09-17,6.87-32.86,16.22-49.14,24.64-19.84,10.27-40.16,19.65-59.24,31.36-3.18,1.95-6.3,4-9.5,5.91-1,.61-2,1.61-4.09,1.1,4.13-3.49,7.91-6.65,11.66-9.84q16.57-14.08,33.13-28.19c6.42-5.44,14.07-9.12,20.75-14.16a262.64,262.64,0,0,1,46.52-27.89c10.26-4.82,20.82-9.51,32.24-11.11C411.72,387.63,421.1,390.52,429.93,395.32ZM179.72,218.86c-10.5-15-19.16-31-28.13-46.79-4.48-7.93-10-15.22-15.18-22.7a2.14,2.14,0,0,1-.67-2c38.74,36.17,75.41,73.82,104.33,119.32a36.59,36.59,0,0,1-10.61-2.83C207.54,254.72,192.92,237.69,179.72,218.86ZM218,261c-2.89.43-4.8-1.16-6.87-2.23l0,0,0-.06c-3.07-1.34-6.28-2.34-8.87-4.61,3.43.6,6.66,1.6,8.87,4.61l.08,0C213.94,257.49,215.79,259.3,218,261Zm-18.46-3.74-19-1.72C187.71,252.27,193.59,252.07,199.55,257.26ZM31.81,221.83c16,.38,31.78-2.64,47.67-3.76,16.3-1.16,32.68-2.07,48.92.78a124.3,124.3,0,0,1,24.14,7c11.44,4.54,21.88,10.87,32.45,17,2.25,1.3,3.86,3.29,5.58,5.7-4.11-.07-7.48-1.42-10.85-2.54-7.42-2.44-15.08-3-22.76-4.12-24.49-3.39-49-6.65-73.36-11.06-14.68-2.66-29.61-3.37-44.42-5-4-.44-8-1.15-12-1.79a28.61,28.61,0,0,1-3.21-1A17.6,17.6,0,0,1,31.81,221.83Zm40.93,25.91c-12.08-4.94-23.92-10.46-35.81-15.87-5-2.29-10.34-3.66-15.61-5.18-1.05-.3-2.29-.25-3.23-1.44,3.27-.58,6.27.34,9.27.75,11.39,1.57,22.86,2.25,34.3,3.27,15.27,1.36,30.32,4.34,45.43,6.87,19.69,3.29,39.44,6.21,59.31,8.34,7,.76,13.54,3.76,20.29,6a138.08,138.08,0,0,1-24.84,5.44c-11.2,1.34-22.36,3-33.68,2.92A148.28,148.28,0,0,1,72.74,247.74Zm151.33,89.47c-19.75.87-39.52,1.36-59.25,2.59-14.82.92-29.57-.68-44.29-2.36a115.85,115.85,0,0,0-18-.68c-.75,0-1.64.44-2.69-.55a7.77,7.77,0,0,1,1.58-.82c12.49-2.5,24.51-7,37.34-8.1,21.19-1.8,42-5.93,63-9.43,20.39-3.4,40.55-9,61.42-8.8,12.39.12,24.84-.43,37.16,1.59,1.21.19,3.16.19,3.22,1.29.1,1.56-1.66,2.54-3,3.21-7.53,3.69-14.88,7.72-22.63,11C260.69,333.43,242.62,336.39,224.07,337.21Zm26.46,46.06c-6.17,1.9-12.55,2.83-18.87,4-9,1.68-17.47,5.22-26.18,7.92-13.41,4.15-26.09,10.11-39,15.36a35.84,35.84,0,0,1-3.44,1l-.41-.67c1.74-1.42,3.43-2.91,5.24-4.23,8.29-6,16.06-12.68,24.29-18.72A146,146,0,0,1,220,372.29c10.92-4.8,21.29-10.68,32.1-15.69a218.56,218.56,0,0,1,60.29-17.94c8.4-1.25,16.82-2.25,25.27-3.16,3.1-.34,3.44.88,2.82,3.46-1.4,5.84-5.21,9.69-10.07,12.83-15.19,9.82-31.68,16.7-48.91,22Q266,378.48,250.53,383.27Zm134.75-18.9a26.66,26.66,0,0,1-9.66,16.55c-9,7.6-19.54,12.32-30.39,16.58-24.53,9.63-49.52,17.87-74.53,26.12-21.49,7.08-42.15,16.23-61,29.07-3.21,2.19-6,5.06-10,6.83.6-2.42,2.4-3.38,3.82-4.38,7.49-5.23,14.21-11.4,21.22-17.22,10.13-8.39,20.92-15.85,31.82-23.18,9.53-6.42,18.93-13,29.07-18.47,12.88-6.89,25.81-13.66,39.36-19.2,17.93-7.34,36.32-12.88,55.63-15.05.83-.09,1.66-.1,2.48-.21C385.2,361.53,385.57,362.51,385.28,364.37Zm-5.51-10.62a7.25,7.25,0,0,1,1.17,1c1,1.19,2.57,2.4,2.17,3.91-.46,1.75-2.51.87-3.83,1.08-12.11,1.87-24.27,4-35.74,8.05a304.57,304.57,0,0,0-29.61,12.05c-18.44,8.78-36.34,18.39-53.28,29.82-16.56,11.18-32.54,23.12-48.1,35.64-.78.63-1.66,1.13-2.49,1.69,9-12.15,19.35-23,29.55-34,11.95-12.87,25.2-24.25,38.91-35.15a16.86,16.86,0,0,1,5.75-3,194,194,0,0,0,47.09-20.7,8.37,8.37,0,0,0,2.08-1.35c5.62-6.5,13.4-7,21-7.08C363.63,345.7,372.36,347.86,379.77,353.75ZM344,331.83a108.17,108.17,0,0,1,18.6,11.5c-6.92-.1-13.79-.61-21.13,1.36A33.27,33.27,0,0,0,344,331.83ZM308,312.14a1.43,1.43,0,0,1,2-.14c.8.58,1.51,1.3,2.3,2-1.12.94-2.19.46-3.17.47-.67,0-1.58,0-1.88-.78C307,313,307.54,312.56,308,312.14Zm7.35,5.24a62,62,0,0,1,22.25,10,9.57,9.57,0,0,1,2.42,2.37c.58.81,1.19,1.87.67,2.89s-1.68.44-2.55.51a262.84,262.84,0,0,0-32.59,4.55c-6.8,1.43-13.65,2.67-20.32,4.56a250.49,250.49,0,0,0-36.27,13.87c-13.92,6.39-27.44,13.64-41.26,20.27-11.43,5.47-21.49,13.22-31.24,21.29-1.52,1.25-3.13,2.38-4.72,3.54a13.56,13.56,0,0,1-1.82.77c6.2-7.21,12.25-13.39,18.4-19.49,15.35-15.22,31.83-29,50.36-40.22,6.52-3.95,13.3-7,21.09-7.75,8.3-.76,15.54-5,23-8.24,5.67-2.49,11.29-5.14,16.75-8.15C304.4,315.47,310.07,316.28,315.32,317.38ZM304.17,306c.48.65,1.41,1.26,1.08,2.11-.42,1.05-1.64.83-2.5.74-3.7-.39-7.37-1.19-11.08-1.36-22.1-1-44-.59-65.83,4.33-16,3.6-32.2,6-48.36,8.65s-32.49,4.07-48.65,6.69c-5.72.93-11.31,2.63-17,3.95-.84.19-1.66.82-3.14,0,5.85-3.2,11.79-5.09,17.39-7.73,11.81-5.56,23.29-11.77,34.9-17.73,3-1.56,6.21-2.85,9.17-4.54,2.34-1.33,4.53-1.27,7.12-.93,16.35,2.15,32.68,2.58,48.62-2.65,5.8-1.9,11.48-4.22,16.25-8.25a11.8,11.8,0,0,1,6.56-2.62,66.52,66.52,0,0,1,41.22,9C295,298.65,300.53,301.08,304.17,306Zm-56.41-25.48a2.46,2.46,0,0,1,3.09-1.84c4.17.86,7.82,2.9,11.55,5-5.12.54-10.21-.38-15.49.7A32.83,32.83,0,0,1,247.76,280.56Zm-3.22,1.93c-1.38,3.91-4.54,6.15-7.81,8.13-7.22,4.36-15.29,6.54-23.51,7.73-16.49,2.38-32.8.92-49-2.94-19.76-4.71-39.38-9.88-58.6-16.44-9.34-3.18-18.55-6.61-28.49-7.37a2.7,2.7,0,0,1-2.34-1.24A4.42,4.42,0,0,1,78,269.21c15.76-1.21,31.44-.15,47.07,1.94,21.66,2.89,43.18,6.64,64.84,9.51,17,2.25,33.85,1.61,50.76-.25.82-.09,1.64-.07,2.47-.09C244.79,280.29,245,281.07,244.54,282.49Zm-.84-5.41c-.37,1.75-2.85,1-4.4,1.25-20.89,3-41.62,1.82-62.45-1.27-16-2.36-31.82-5.3-47.79-7.56C110.38,266.85,91.62,265,72.77,268a15.56,15.56,0,0,1-2.16.12c-.18,0-.37-.16-1.09-.49,6-2.21,12.07-2.65,17.94-3.79,6.79-1.32,13.85-1.12,20.44-3.61a5.13,5.13,0,0,1,2.14,0,170.86,170.86,0,0,0,46.39-1.34c16.27-2.7,32.46-1.15,48.47,1.91,12.31,2.36,24.47,5.59,35.24,12.46C241.65,274.24,244.13,275.07,243.7,277.08Zm3.61-12.1c-2.16,2.71-3.77,2.77-5.72-.07-7.27-10.58-14.31-21.31-22.32-31.37-11.43-14.35-23.28-28.32-35.82-41.71C170,177.45,155.62,164,141.71,150.1c-.5-.49-1-1-1.44-1.53a124.47,124.47,0,0,1,31.52,18c7.59,5.79,16,10.33,23.5,16.27,11.39,9,21.06,19.6,30,30.91a142.42,142.42,0,0,1,19.3,32.84,50.82,50.82,0,0,1,3.84,14.07A5.58,5.58,0,0,1,247.31,265Zm69.52,42c-4.92-2.39-8.75-6.17-12.67-9.88-8.5-8.06-16.67-16.39-23.68-25.82A151.15,151.15,0,0,1,260,232.77c-6.27-17.14-13-34.08-21.29-50.37-3.9-7.65-6.78-15.82-10.57-23.52-3.51-7.14-7.68-14-11.47-21-3.34-6.2-6.55-12.46-9.81-18.7-.21-.41-.69-.82-.1-1.56,2.33,1,3.68,3.15,5.12,5,18.92,24.37,37.93,48.69,54.08,75,8.28,13.52,14.92,28,21.75,42.26,9.05,19,17.83,38.08,26.89,57.06a38.13,38.13,0,0,0,7.72,11.57A13,13,0,0,1,316.83,307Zm10.6-.17c0,.71-.13,1.57-.94,1.82-1,.31-1.37-.62-1.94-1.2-5.2-5.28-8-12-11.1-18.52-11-23.66-22.55-47.08-34.06-70.51-12.82-26.11-29.67-49.51-47.42-72.36-4.44-5.72-8.35-11.84-13-17.41-.61-.73-1.48-1.5-1.23-3,2.95,2.65,5.67,5.31,8.62,7.7,17.67,14.35,33.58,30.54,48.89,47.29,14.69,16.08,26.79,33.91,35.11,54.23,6,14.62,11.2,29.47,16,44.5C329.22,288.44,327.93,297.67,327.43,306.85ZM538.33,20.49c2.57-1.75,4.94-3.77,7.45-5.59,2.91-2.11,3.8-2,5.77.86a58,58,0,0,0,10.14,11.3,6.4,6.4,0,0,1,2.23,3.35,13.56,13.56,0,0,1,.08,2.46c-.65,4.3-1.3,8.6-2.11,12.87-.68,3.59-.82,3.59-3.77,1.66A61.89,61.89,0,0,1,544.8,35.34c-2.65-3.16-5.81-5.9-7.79-9.64C535.78,23.36,536.24,21.91,538.33,20.49ZM522.5,36.32c2.49-3,4.18-6.62,7.39-9.12,2-1.51,3.28-1.56,4.91.46a166.62,166.62,0,0,0,16.36,17.86,35.25,35.25,0,0,0,6.51,4.75A7.29,7.29,0,0,1,561,54.68c.17,4.28.45,8.93.48,13.57,0,1.44-.63,3.33-2.67,1.89-6.6-4.65-14.45-7.38-20.33-13.12-5.33-5.21-11.14-9.93-15.94-15.68C521.08,39.6,520.85,38.31,522.5,36.32Zm-9.9,16.21C514,50,515.66,47.6,517,45c1.44-2.73,2.88-2.29,4.74-.44,4.35,4.28,8.82,8.43,13.19,12.7,6.68,6.53,15.44,10,22.67,15.76.87.68,2.07,1.08,2.25,2.41.91,4.87.17,9.73-.36,14.53-.2,1.83-2.29.87-3.36.35-4.83-2.36-9.79-4.48-14.29-7.5-9.55-6.41-18.94-13-27.22-21.08-.29-.29-.6-.57-.9-.86C510,57.19,510,57.07,512.6,52.53ZM500.08,72.09c2-3.64,3.8-7.34,7-10.2,1.48-1.32,2.63-1.29,4,0,1.92,1.74,3.9,3.41,5.82,5.14C529,77.91,541.93,87.62,557.34,93.57c1.86.72,2.37,1.28,2.8,2.9a5.71,5.71,0,0,1,.07,1.32,81.78,81.78,0,0,0-.23,15.8c.12,2.28-.91,2.52-2.64,1.77-18-7.75-35.08-16.89-49.16-30.83-2.56-2.54-5.7-4.45-7.74-7.57A4.24,4.24,0,0,1,500.08,72.09Zm-6.84,16.48A29.68,29.68,0,0,0,496.1,81c.51-2.49,1.42-2.66,3.24-1q7,6.19,14.06,12.26c11.76,10.06,25.18,17.45,39.06,24.1,2.58,1.24,5.48,2.11,6.81,4.93,0,3.95,0,7.77.11,11.59.17,6.49-.14,6.85-6.17,4.16-12.56-5.6-24-13.2-35.3-20.88-7.82-5.29-15.27-11.08-22.56-17.06C490.54,95.15,490.39,94.09,493.24,88.57Zm-10.09,25.86c1.57-4.39,3-8.82,4.53-13.23.33-1,.54-2,1.8-2.53,1.29-.33,2.16.62,3.13,1.39,9,7.13,17.91,14.42,27.59,20.67,11.84,7.62,23.73,15.14,36.6,20.93,2.12,1,2.81,2.12,2.7,4.49a129.4,129.4,0,0,0,.24,13.64c.15,2.4-.58,2.43-2.57,1.87a174.7,174.7,0,0,1-55.36-26.86c-5.37-3.87-11.23-7.05-16.3-11.36C482.11,120.54,481.65,118.6,483.15,114.43Zm-8.41,30.95c1.25-6.63,3.76-12.94,4.86-19.61.39-2.31,2.14-1.87,3.57-.78,9.4,7.2,19.54,13.28,29.58,19.51A194.8,194.8,0,0,0,550.15,162q3.79,1.35,7.62,2.66a3.06,3.06,0,0,1,2.32,3.2q.27,9.61.88,19.23c.13,2-.47,2.23-2.26,1.77a363.13,363.13,0,0,1-38.15-12.21c-15.37-5.82-28.86-14.86-42.24-24.12-.72-.5-1.66-1-1.6-2,.38-1.55-.06-2.5-1.53-3C474.06,147.12,474.61,146.1,474.74,145.38Zm.32,9.63c.79-1.79,1.67-.39,2.4.09,6.52,4.22,13,8.49,19.52,12.71,12.66,8.17,26.62,13.33,40.95,17.65,7.13,2.16,14.19,4.57,21.29,6.84.9.29,1.81.52,2.07,1.62,0,.62.11,1.23.13,1.85.31,6.82.56,13.64.93,20.46.09,1.57.06,2.25-1.9,1.78A245.63,245.63,0,0,1,501,195.79c-8.87-4.75-16.88-10.88-24.86-17-2-1.55-3.57-3.72-5.35-5.6a2.91,2.91,0,0,1-.63-2.3C470.31,165.15,472.81,160.11,475.06,155Zm-5.49,4c.08-.1.38,0,.84,0-3.36,11-7.37,21.7-11.53,33.07-2.32-3.89-4.35-7.27-6.34-10.68a1.89,1.89,0,0,1,.24-2.06C458,172.26,463.93,165.76,469.57,159Zm-5.08,43.62c-1.64-3.59-5.38-6.5-2.63-11.32,1.4-2.45,1.92-5.39,3.13-8.07C464.28,189.71,464.47,196.15,464.49,202.64Zm-16.74-33.06c5.55-3.82,12-6,18-10.58-1,3-2.69,4.42-4.05,6-3.35,3.95-6.85,7.78-10.19,11.73-.88,1-1.45,1.4-2.34.14-.72-1-1.52-2-2.27-3C445.57,172.18,445.85,170.89,447.75,169.58ZM388.32,346.45c-.93.58-1.89-.48-2.72-1-5-3.26-7.83-8.28-9.8-13.65-6-16.26-11.95-32.51-17.54-48.9-4.69-13.74-9.53-27.43-13.78-41.31a88.05,88.05,0,0,1-2.86-12.08c-2.32-14.84-4.62-29.7-7.39-44.46-2.24-11.92-6.5-23.36-9.34-35.15a262.63,262.63,0,0,0-11.82-36c-.76-1.91-1.63-3.77-2.56-5.92a2.18,2.18,0,0,1,2.13,1.24A194.39,194.39,0,0,1,332,145.9c5.16,13.33,9.31,27,15.13,40.12,13.25,29.83,22.28,61.11,30.78,92.55,4.23,15.66,6.29,31.68,8.26,47.74.7,5.76,1.66,11.48,2.47,17.23C388.82,344.54,389.26,345.88,388.32,346.45Zm4.78,2.63c-1.21-.17-1.63-1-1.72-2.21-1.42-18-4.83-35.71-7.63-53.51a35.2,35.2,0,0,0-.82-4c-6.78-24.49-13.17-49.1-21.75-73-4.32-12.09-9.47-23.86-14.45-35.7-4.7-11.16-8.39-22.74-12.54-34.13-1.31-3.58-2.69-7.15-4-10.72,11.05,15.88,21.46,32,31.19,48.64,9.21,15.7,16.41,32.28,23.74,48.85,3.36,7.58,7.38,14.88,10,22.77,6.36,19.38,13.84,38.53,14.77,59.22a72.65,72.65,0,0,1-3.52,26.95C403.92,349.18,398.53,349.88,393.1,349.08Zm28.4,29.16c-.86.57-1.58-.14-2.2-.62a42.8,42.8,0,0,1-15.57-22.09c-1.09-2.07-.72-4.93,2.45-7.44,1.88-1.5,2.74-3.86,3.34-6.2,4.51-17.73,3.68-35.27-1.69-52.69-1.68-5.45-3-11-4.54-16.49a4.78,4.78,0,0,1-.23-1.53c2.11-24.69,10.58-47.27,22.69-68.66,4.25-7.5,9-14.67,13.7-21.87.48-.73.81-1.92,1.94-1.67.91.2.88,1.33,1.09,2.08,1,3.55,1.82,6.79.45,10.8-4.41,12.83-10.55,25.07-13.75,38.28-5.67,23.36-10.71,46.87-10.24,71.1.38,19.24-.77,38.5.67,57.71.43,5.78,1.4,11.51,2.1,17.27C421.8,376.9,422.25,377.75,421.5,378.24Zm10.08,1.37a4.9,4.9,0,0,1-5.71,1.23c-2-.91-2.38-3-2.17-4.77a26.42,26.42,0,0,0-.53-8.62c-2.55-12.58-2.58-25.25-2.19-38,.4-13.64,0-27.3.14-41,.2-16.37,4.32-32.17,7.4-48.11,3.11-16.09,10.54-30.7,16-46,.07-.17.28-.29.9-.91,2.05,8.26,4.92,16.23,4,24.14-1,8.45-1.8,17.05-4.12,25.37-2.87,10.31-3.64,21-5,31.56-2.59,20.44-4.14,41-5.71,61.5-.48,6.32,0,12.62.33,18.92a122.8,122.8,0,0,1-.06,15.82C434.62,374,434.05,377.2,431.58,379.61Zm18,16.64c-4.58-4.18-9-8.28-13.46-12.26-1.81-1.59-2.17-3.07-1.12-5.37,2.46-5.43,2.63-11.41,2.15-17.1-2.56-29.77,2.18-59.06,5.28-88.47,1.52-14.46,4.69-28.58,8.37-42.71.14,2.24.32,4.48.39,6.72s.13,4.56.08,6.83c-.49,19.46-2.82,38.81-3.22,58.28-.23,10.85-1.9,21.7-1.69,32.53.3,14.66-.59,29.46,2.86,43.92C450.62,384.43,451.33,390.2,449.59,396.25Zm20.88,21.18c-.06,1,.11,2.46-.89,2.77s-2.06-.77-2.74-1.7a54.68,54.68,0,0,1-6.52-11.25c-7.27-17.52-10.31-35.82-11.21-54.76-.8-16.84,1-33.5,1.33-50.24.44-19.78,2.43-39.46,3.15-59.23s-2.6-38.78-7.72-57.67c-.59-2.18-.92-4.44-1.36-6.67,2,1.31,2.66,3.38,3.38,5.36a365.9,365.9,0,0,1,15.31,53.49c2.55,13,4.08,26.21,6.67,39.21,3.34,16.76,4.1,33.63,4.11,50.66,0,15,1.82,30,.92,45-.81,13.41-1.08,26.9-4,40.12A29.78,29.78,0,0,0,470.47,417.43Zm7.06,5.87c-3.93.2-4.85-.94-4.28-4.8,3.49-23.61,5.13-47.31,3.4-71.18-1.11-15.37-.67-30.79-1.34-46.18-.37-8.63-2.33-17-3.72-25.51-2.32-14.22-4.91-28.39-7.43-42.57a246.24,246.24,0,0,0-11.58-42.25c-.6-1.64-1-3.37-1.47-5.06l.65-.4c2,3.32,4,6.61,6,10A218.89,218.89,0,0,1,478,243.66c3.74,12.73,8,25.28,11.19,38.21a402.6,402.6,0,0,1,10.65,75.88,121.2,121.2,0,0,1-6.78,47.66c-2.4,6.64-5.38,13.08-12,16.81A7.75,7.75,0,0,1,477.53,423.3ZM502.27,357c7.13,2.66,13.8,5.18,20.5,7.62,1.52.55,2.12,1.18,1.55,2.93a163.07,163.07,0,0,0-4.69,18.62c-.36,1.83-1,1.92-2.46,1.24q-6.9-3.18-13.86-6.22a2,2,0,0,1-1.46-2.31A174.77,174.77,0,0,0,502.27,357Zm21.39,5.83c-6.74-2.62-13.47-5.27-20.22-7.9a1.92,1.92,0,0,1-1.47-1.75c-.55-6.89-1.14-13.78-1.75-21.17,9.66,3.92,18.74,7.62,27.84,11.28a1.73,1.73,0,0,1,1.34,2c-.54,5.81-2.82,11.22-3.84,16.92C525.33,363.55,524.42,363.11,523.66,362.81Zm4.19-21.87c-8.93-3.31-17.69-7-26.42-10.81a2.81,2.81,0,0,1-1.7-2.67c-.6-5.33-1.25-10.66-1.92-16.32,4.41,1.05,8.06,3.29,12,4.73,6.51,2.37,12.93,5,19.44,7.39,1.67.61,2.52,1.25,2.21,3.26-.68,4.39-1.17,8.81-1.6,13.23C529.72,341.34,529.05,341.38,527.85,340.94Zm2.28-19.58c-10.51-4.13-21-8.32-31.52-12.42a3,3,0,0,1-1.87-2.6l-5.18-24.86c5.95,2.72,11.38,5.22,16.84,7.68,7.47,3.37,15.19,6.12,22.89,8.88,1.68.61,2.4,1.34,2.35,3.3-.15,6.33-.81,12.6-1.48,18.88C532,321.91,531.17,321.77,530.13,321.36Zm1.09-25.59a249.32,249.32,0,0,1-27-11.09c-3.94-1.85-7.81-3.86-11.69-5.82-.9-.46-1.9-.78-2.2-2-2.55-10.68-6.14-21.07-8.87-31.83,6.24,4.53,13.06,7.81,19.77,11.29a166.34,166.34,0,0,0,28.55,12.11,3,3,0,0,1,2.49,2.92c.82,7.52,1.37,15,1.47,22.62C533.74,296,533.26,296.46,531.22,295.77ZM503.58,450c-6.75-7.42-14.15-14.23-20.68-21.87-.64-.74-2.26-1.34-1.15-2.71.95-1.17,2.22-1.22,3.62-.44,8,4.51,16.39,8.41,24.78,12.23a2.23,2.23,0,0,1,1.51,2.38,96.9,96.9,0,0,0,.56,16.26A25.09,25.09,0,0,1,503.58,450ZM514,415.21c-.72,6.06-1.37,12.12-1.91,18.2-.16,1.79-.58,2.1-2.23,1.29-5.25-2.58-10.72-4.74-15.78-7.63-2.6-1.48-5.51-2.35-8.21-4.35a34,34,0,0,0,9.57-15.59c.48-1.57,1-1.89,2.59-1.12,4.82,2.39,9.71,4.64,14.6,6.88A1.9,1.9,0,0,1,514,415.21Zm-1-4.62c-5-2.34-9.91-4.69-14.93-6.88-1.55-.69-1.16-1.6-.87-2.71,1.54-5.89,3.43-11.69,4.31-18.27,5.38,2.39,10.46,4.67,15.56,6.9,1.2.52,1.77,1.1,1.45,2.57-1.25,5.75-2.4,11.52-3.49,17.31C514.76,411,514.28,411.19,513,410.59Zm16,76.53c-.86.36-1.22-.52-1.78-.93-8.85-6.4-10.67-15.8-11.92-25.88-2.38-19.31.08-38.19,3.65-57.07,2.45-12.93,4.57-26,8.65-38.48,5.54-17,5.47-34.71,7.16-52.17,1.43-14.75,1.47-29.58-1.48-44.25a4.1,4.1,0,0,1,.68-3.75c2.29,6.27,3.13,12.54,4.48,18.68,6.05,27.63,4.1,55.64,3.93,83.56a420.22,420.22,0,0,1-4.21,59.09c-2.38,16.08-5.3,32.07-7.83,48.13-.58,3.66-.57,7.42-.81,11.14C529.43,485.88,529.83,486.74,529,487.12Zm14.32,2.61c-3,2.18-6.08,2.8-9.61,1.36-1.66-.68-2-1.66-1.88-3.36,2.14-26.35,7.93-52.2,10.43-78.5q1.56-16.39,1.88-32.86c.34-17,.76-33.94.51-50.93a215.65,215.65,0,0,0-4.9-43.45c-.09-.4-.13-.82.67-1.31,5.18,12,8.12,24.66,11.3,37.22,7.32,29,10,58.59,11.41,88.34,1,21.55-.74,42.85-7.4,63.54C553.22,477.46,550.22,484.78,543.28,489.73Zm25.59,33.12-14-20.22a92.29,92.29,0,0,1,13.77,5.48,1.29,1.29,0,0,1,.62,1C569.27,513.46,570.39,517.88,568.87,522.85Zm1.88-29.28c-.2,3.41-.52,6.8-.75,10.21-.12,1.66-.64,2.08-2.33,1.36-5-2.13-10.21-4-15.24-6.15-3.13-1.35-4.37-4.54-6.11-7.18-.47-.71.38-1.31.93-1.76a28.63,28.63,0,0,0,8-10.6c.51-1.12.94-1.6,2.3-1,4,1.84,8.18,3.5,12.28,5.25.55.24,1.19.43,1.3,1C571,487.78,570.92,490.68,570.75,493.57Zm2-25.24c-.28,3.71-.56,7.43-.85,11.14-.1,1.18-.07,2.36-1.95,1.51-3.78-1.69-7.62-3.24-11.46-4.79-1.08-.43-1.71-.75-1.3-2.2,1.54-5.37,2.91-10.79,4.34-16.2.15-.59.16-1.24,1-1.59.76.23,1.66.45,2.52.78,2.68,1.06,6.49.72,7.95,2.89S573,465.46,572.77,468.33Zm-7.54-33.95c.08-1.71.32-2.23,2.1-1.56,2.41.91,4.92,1.56,7.4,2.27a1.8,1.8,0,0,1,1.52,2.25c-.78,5.82-1.5,11.66-2.25,17.49-.06.45.07,1.09-1,1.13a53.21,53.21,0,0,0-6.55-2c-3.29-.58-3.93-2-3.06-5.22A66.9,66.9,0,0,0,565.23,434.38Zm11-58.56c0,.52.06,1,.07,1.56,0,1.52,1.5,3.52.18,4.39-1.62,1.08-3-1.11-4.56-1.78-2.29-1-4.51-2.12-6.83-3a3,3,0,0,1-2.33-2.82c-.59-5.66-1.41-11.3-2.12-17-.13-1-.47-2.42,1.39-1.6q5.82,2.58,11.55,5.38a3.55,3.55,0,0,1,1.8,2.87C575.64,367.56,575.94,371.69,576.23,375.82Zm-1.91-21.06c.25,2.48-.92,2.66-2.72,2.06-3.74-1.24-7-3.6-10.78-4.78-1.15-.36-.85-1.77-1-2.76-.55-4.94-.73-9.92-2-15.58l10.2,4.34c.47.21.92.72,1.37.7,4-.12,4.22,2.52,4.29,5.48C573.83,347.74,574,351.26,574.32,354.76Zm-3.39-35.91c.28,4.84,1,9.67,1.59,14.48.26,2-.4,2.48-2.17,1.85-4-1.42-8-2.88-12-4.26a2.44,2.44,0,0,1-1.71-2c-1.83-7.74-3.69-15.48-5.67-23.73a55.85,55.85,0,0,1,11.37,5.09,19.19,19.19,0,0,0,3.83,2C569.66,313.24,570.74,315.47,570.93,318.85Zm-2.72-34.18c.45,7.86.85,15.71,1.25,23.56.08,1.5,0,2.47-2,1.41a126.19,126.19,0,0,0-15.1-6.53c-1.15-.43-2.28-.7-2.7-2.21a238.29,238.29,0,0,0-9.75-29.13c5,1.75,9.51,3.28,14,4.84,3.62,1.26,7.21,2.6,10.85,3.81A4.49,4.49,0,0,1,568.21,284.67Zm-3-29.89c.65,6.8,1.18,13.61,1.94,20.4.3,2.7-.68,3.13-2.93,2.3-8.06-3-16.07-6.11-24.39-8.33-1.19-.32-1.48-1.2-2-2.11-2.63-4.51-2.82-10-5.85-14.33-.29-.42-.52-.89-.81-1.32-.6-.9-1.27-1.78-2.5-1.11s-.61,1.58-.27,2.45c1.66,4.27,1.41,8.9,2.85,13.59A111.66,111.66,0,0,1,508,257.26a258.32,258.32,0,0,1-25.51-14.19,8.37,8.37,0,0,1-3.56-4.43c-3.41-9.56-6.54-19.24-11-28.37a5.25,5.25,0,0,1-.28-3.62c1.69-.13,2.77.86,3.94,1.72a175.62,175.62,0,0,0,35.17,20.35c12.31,5.2,24.77,10,37.54,14,4.42,1.38,8.62,3.48,12.93,5.24a16,16,0,0,0,2.59,1C564,249.81,564.78,250.65,565.17,254.78Zm-1.43-10.7c.12,1.85-.62,2.06-2.18,1.87-4.32-.53-7.92-3-11.95-4.29-10.24-3.35-20.55-6.6-30.52-10.66-16.51-6.72-32.82-14-46.87-25.33a11.89,11.89,0,0,1-4.37-6.17,12.73,12.73,0,0,1-.31-5c.31-4.75.6-9.51.95-14.26.07-1-.25-2.38.73-2.78s1.87.65,2.69,1.27c6.44,4.88,12.77,9.91,19.6,14.28,11.51,7.35,23.93,12.82,36.68,17.56,10.68,4,21.45,7.7,32.21,11.43a2.9,2.9,0,0,1,2.29,2.86C563,231.26,563.32,237.68,563.74,244.08ZM563,115.57a22.65,22.65,0,0,1-.66-9.09c.84-7.34.29-14.67.22-22a40.68,40.68,0,0,1,1.91-14.07,6.46,6.46,0,0,0,.29-3A77.1,77.1,0,0,1,566.34,40a14.39,14.39,0,0,0,.42-4.3,5.77,5.77,0,0,1,2.63-5.32C569.5,59.08,569.28,87.23,563,115.57Zm2.77-92.14c-.5,1.91-1.52,2.53-3,1.05-3.12-3-6.34-6-8.45-9.85-1.6-3-1.33-3.89,1.73-5.15,4.72-1.95,9.33-4.28,15-4.94C568.34,10.92,567.37,17.26,565.76,23.43Z"/></g></g></g></svg>