<svg xmlns="http://www.w3.org/2000/svg" viewBox="0 0 29.94 29.95"><defs><style>.cls-1,.cls-2{fill:#a77969;}.cls-1{isolation:isolate;opacity:0.4;}</style></defs><g id="Layer_2" data-name="Layer 2"><g id="Layer_1-2" data-name="Layer 1"><path class="cls-1" d="M21.25,0H8.7C3.25,0,0,3.25,0,8.7V21.24C0,26.7,3.25,30,8.7,30H21.24c5.45,0,8.7-3.25,8.7-8.7V8.7C30,3.25,26.7,0,21.25,0Z"/><path class="cls-2" d="M15,20.79A5.81,5.81,0,1,0,9.17,15,5.81,5.81,0,0,0,15,20.79ZM22.46,9.14a1.67,1.67,0,0,1-1.18-.48,2,2,0,0,1-.35-.56,1.51,1.51,0,0,1-.13-.63,1.69,1.69,0,0,1,.13-.63,1.57,1.57,0,0,1,.35-.55,1.64,1.64,0,0,1,1.5-.45.86.86,0,0,1,.32.1,1.05,1.05,0,0,1,.3.15,2.19,2.19,0,0,1,.25.2,1.57,1.57,0,0,1,.35.55A1.59,1.59,0,0,1,24,8.1a2,2,0,0,1-.35.56A2.14,2.14,0,0,1,23.1,9,1.74,1.74,0,0,1,22.46,9.14Z"/></g></g></svg>