<svg xmlns="http://www.w3.org/2000/svg" viewBox="0 0 267.78 384.68"><defs><style>.cls-1{fill:#a77969;opacity:0.2;}</style></defs><g id="Layer_2" data-name="Layer 2"><g id="Layer_1-2" data-name="Layer 1"><path class="cls-1" d="M85.4,169c.48-7.2-1.86-11-3.56-14.94-1.07-2.5-2.94-2.48-5.43-2-25,4.84-49.11-.46-73.08-6.87-1.81-.48-3.24-1.39-3.33-3.51-.1-2.62,1.9-3.25,3.79-3.79a60.91,60.91,0,0,1,18.78-2.72c16.18.59,32.45.7,48,6.42a38.81,38.81,0,0,0,4.6,1,60.6,60.6,0,0,0-9-18.21C45.68,94.77,35.56,61.72,33.42,26.08c-.41-6.74.32-13.56.72-20.33.14-2.38.65-5.26,3.46-5.7,3-.47,2.82,2.65,3.71,4.51A538.39,538.39,0,0,1,64,58.33c5.13,14.53,8.86,29.24,8.48,44.83-.18,7,.29,14,.62,21,.16,3.24.53,6.53,3.83,9.73,1.88-6.83,3.72-13.11,5.33-19.45,4-16,9.32-31.41,18.47-45.4,3.65-5.58,9.34-9.13,12.85-14.7a2.59,2.59,0,0,1,2.24-.76,1.87,1.87,0,0,1,1.37,2.55c-3.45,11.39-.76,23.3-3.92,35-4.83,17.89-12,34.2-23.41,48.66-7.29,9.2-7.28,12.27.53,22.12,1.63-.37,1.73-1.9,2.06-3,7.46-25.72,23-46.45,40.59-65.91,3.86-4.26,8.72-7.29,13.49-10.4,1.3-.85,2.63-1.89,4-.35,1.24,1.35.61,2.77,0,4.27-11.92,30.94-28.42,59-52.19,82.4-2.61,2.57-3.2,4.76-1.33,8a92.94,92.94,0,0,0,9.31,14.1c2.4-1.12,2.37-3.32,2.88-5.1,9-31.9,27.81-57.61,51-80.52,1.47-1.46,3.33-3.69,5.62-2.14s.68,4,.13,6c-6.61,24.56-21.65,44.31-37.2,63.53-6.17,7.63-10.41,16.69-17.86,23.28-1.32,1.18-.58,2.37.06,3.51a111.23,111.23,0,0,0,12.79,19c3.31,3.82,4.55,2.38,5.71-1.61,6.46-22.19,18.64-41.36,31.91-59.94A82.58,82.58,0,0,1,177,141.12c1.84-1.49,4-3.43,6.46-1.79,2.69,1.78.82,4.27.35,6.54-6.55,31.58-26.27,55.37-46.9,78.47-4.26,4.77-4.82,8-.65,12.68,2.9,3.24,5.11,7.1,7.83,10.54,1.12,1.42,1.74,4.06,4.16,3.49,1.91-.45,1.84-2.81,2.36-4.4,4.84-15,9.93-30,18.37-43.42,6.28-10,13.78-19.15,21.26-28.29a21.57,21.57,0,0,1,5.05-4.13,3.51,3.51,0,0,1,3-.29c1.05.63.33,1.92.06,3-7.33,28.64-17,56-38.16,78-8.1,8.45-6.7,6.48-.62,15.1,3.26,4.61,6.35,9.47,12.14,13.54a114.88,114.88,0,0,1,6.19-22.79c8-20,20.39-37.05,35-52.64,1.39-1.49,3.36-3.87,5.53-2,2.42,2.06-.49,3.71-1.4,5.52a22.47,22.47,0,0,0-2.33,6.07c-4.41,26.18-18.94,47.32-34.45,67.75-3.68,4.85-3.58,7.48.22,11.21a44,44,0,0,1,3.22,3.93c1.54-.18,1.88-1.25,2.3-2.25,10.65-25.73,30.64-42.66,53.57-56.8a25.23,25.23,0,0,1,3.56-1.69c1.23-.52,2.62-1,3.6.28,1.35,1.73-.1,2.94-1.27,3.79-6,4.32-8.85,10.68-11.67,17.13-8.27,19-23.7,31.68-38.85,44.67-1.78,1.52-4.88,2.53-2.29,6.16,3.55,5,5,5,8.88-.57,10-14.36,23.51-24.62,39.22-31.93,3.59-1.66,9.09-4.32,11.66-1.09s-2.86,6.36-4.73,9.51c-7.19,12.12-17.77,20.22-30.83,25.36A42.57,42.57,0,0,0,204.36,317c-1.36,1.18-2.73,2.28-1.38,4.37a3.53,3.53,0,0,0,5.06,1.41c4.91-2.42,9.83-4.81,14.69-7.32,9.33-4.8,19.69-5.7,29.69-8,1.53-.34,3.15-.49,4.2,1,1.25,1.74.26,3.37-.69,4.84a18.13,18.13,0,0,1-7.49,6.2,127.78,127.78,0,0,1-30.25,10.66c-4.53,1-4.71,2.78-1.89,6.1a241.81,241.81,0,0,0,48.15,43.3c1.5,1,4.48,1.61,2.87,4.08s-3.61,0-5-.92c-16.67-10.47-29.9-24.81-43.39-38.87-3.13-3.26-6.42-6.38-10.1-10-3.43,10.81-5.16,21.39-12.55,29.46-2.66,2.9-5.44,5.69-8.25,8.44-1,1-2.14,2.76-3.72,2.07-1.73-.75-2-2.8-1.92-4.59a51.41,51.41,0,0,1,5.83-20c3.07-6.12,7.52-11.25,11.92-16.41a15.09,15.09,0,0,0,2.64-3.68c1-2.42-.92-3.61-2.58-4.65-2.28-1.43-2.49.82-3.05,2-7.48,16.13-20.94,24.78-37.29,29.71-5.8,1.75-10.49,5.36-15.56,8.36-1.59.94-3.36,3-5.22,1.32-2.35-2.17.3-4,1.3-5.66,11.44-19.54,26.81-34.42,49-41.27,1.64-.51,6.1-1,3.14-4.49-2.42-2.84-3.26-9.6-9.26-6.49-5.4,2.79-10.25,6.71-15.12,10.43-15.72,12-33.71,18.33-53,21.36-2,.31-4.69,1.6-5.77-1.22-1.15-3,1.65-4,3.64-5.31,19.63-12.89,39.74-24.84,62.57-31.3,4.29-1.21,5.28-2.61,2.07-6.46-5.5-6.6-6-7.29-13.11-2-12.48,9.33-26.5,15-41.12,20-13,4.41-26.33,3.12-39.54,4.11a2.28,2.28,0,0,1-2.4-1.82c-.49-1.81.66-2.85,2.09-3.63,8.06-4.4,16-8.84,24.94-11.6,15.33-4.76,31.29-6.35,46.85-9.9,14.74-3.37,15-4.34,5.85-16.14-9.33-12-9.16-11.67-22.48-4.75-18.16,9.43-38.12,10.57-58.07,11.76-7.92.48-15.55-2.88-23.45-1.12-1.61.35-2.45-.69-3-1.87-1-2.05.19-3.31,1.77-4.31a74.66,74.66,0,0,1,24.61-10.44c18.39-3.91,36.87-4.53,55.52-3.19,3.55.25,8.27,1.71,10.2-2.09,1.8-3.54-2.36-6.16-4.28-8.92-3.62-5.21-7.51-10.24-11.29-15.35-1.92-2.59-4.32-4.07-7.23-1.79-21.62,16.92-46.64,13.34-71.26,11.78-5.88-.37-11.73-1.37-17.67-1.22-2,.05-4.08,0-4.84-2.38-.87-2.73,1.06-3.92,2.95-5.16,6.56-4.34,13.87-6.17,21.59-7.14a294.62,294.62,0,0,1,55.07-1.24c1.09.07,2.18.12,3.28.12,3.48,0,7.91.89,9.65-2.44s-2.46-5.56-4.18-8.11c-3.8-5.62-6.92-12.85-12.31-15.92s-12.78,1.64-19.44,2.14c-10.25.76-20.44,2.27-30.66,3.39a67.23,67.23,0,0,1-24.73-1.81,80.08,80.08,0,0,0-19.43-3c-1.77,0-4.55.85-5.1-1.54s2.36-2.74,3.79-3.9c14.21-11.41,31-10.69,47.62-9.46,11.53.87,22.93,3.48,34.41,5.23,2.35.36,5.43,1.26,6.93-.5,1.82-2.15-1.12-4.22-2-6.32a56.5,56.5,0,0,0-2.64-5.28c-2.33-4.43-5.17-5.7-10.63-4.33-14.74,3.7-29.92,3.38-45,2.29-9.82-.71-19.59-2.1-29.38-3.25-2.07-.25-4.78,0-5.11-3s2.19-3.44,4.19-4.25c15.54-6.29,31.83-5.64,47.93-4.16C66.27,163.85,75.79,166.9,85.4,169ZM68,119.35C73.19,91.66,56.2,29,38.35,8.77,30.56,32.85,48,98.79,68,119.35ZM110.71,65C96.48,74.64,78.17,124,82.3,141.54,99.29,130,115,87.67,110.71,65ZM178,145.55c-21.73,21.53-37.24,46.75-45,76.59C152.87,199.55,174.73,178.17,178,145.55ZM142.63,90c-22.46,21.83-40.52,44.66-46.77,74.91C115.67,143.15,136.89,122.31,142.63,90ZM18.31,197.21C38.09,204.84,87.76,204,99,195.3c-10.38.76-19.27-2.44-28.42-4.21a103.21,103.21,0,0,0-43.53.68C23.71,192.57,20.2,193.15,18.31,197.21Zm19.77,40.3c20.43,5.78,41.08,6,61.74,3A29.4,29.4,0,0,0,117,231.4C89.7,229,63.37,227,38.08,237.51ZM155,249.9c18.94-18.77,32.78-40.2,36-69C170.85,200.86,160,223.83,155,249.9ZM61.72,274.4c17.66,7.53,65.66,1.14,76-9.78C111.65,262,86.85,263.32,61.72,274.4Zm51.87-88.56C131,163,151.66,142.05,159.72,113.25,137.58,133.13,121.93,157.14,113.59,185.84Zm119.89,62.43c-20.5,9.84-44.47,39-43,52C210.63,287.11,225,270.12,233.48,248.27Zm-24-33.3c-15.83,18.73-30,38.32-32.42,63.83C191.59,259.42,207.06,240.51,209.45,215Zm-61,141.14c20.89-5.73,39.07-12.24,46.9-35.05C174.72,327,159.13,337,148.41,356.11Zm-74-208c-21.14-8.74-42.77-11.75-65.12-6.26C30.61,148,52,153.53,74.41,148.06ZM12.29,170.41c23.37,5.29,59.85,7.27,71.16.76C70.09,163.93,30,163.3,12.29,170.41Zm79,141.13c13,5.31,50.08-4.92,61.11-16.62C131.19,298.42,110.7,300.71,91.27,311.54Zm84.36-4.7c-20,4.24-37.56,13.6-53.35,26.5C143.57,331.66,160.31,320.69,175.63,306.84Zm70.18-28.46c-17.5,7.37-30.54,17.73-40.76,31.71C221.06,303.75,237.63,298.17,245.81,278.38Zm-42.69,57.39c-9.16,8-14.47,17.87-15.38,29.93C197.88,358.29,201.66,347.6,203.12,335.77Zm9.8-9.8c12.67-1.24,25-3.53,34.89-12.63C235.12,314.52,223.14,317.75,212.92,326Z"/></g></g></svg>