<svg xmlns="http://www.w3.org/2000/svg" viewBox="0 0 298.13 424.67"><defs><style>.cls-1{fill:#a77969;opacity:0.2;}</style></defs><g id="Layer_2" data-name="Layer 2"><g id="Layer_1-2" data-name="Layer 1"><path class="cls-1" d="M277.88,139.47c1.63-1.93,3.27-4.05,5.35-5.37,3.56-2.25,7.59-4.61,11.69-1.3,4.48,3.63,3.63,8.62,1.3,12.71-4.7,8.24-12,13.15-21.76,13.24-16,.15-31.71,6.19-48,2.6-4.57-1-7.85,2.59-11.4,4.8-13.66,8.5-26.81,18-42.2,23.23-7.64,2.58-11.41,7.17-13.7,14.88a409.89,409.89,0,0,1-36.47,86.45c-1.23,2.17-4.52,4.3-1.77,8.06a94.73,94.73,0,0,0,9.13-4c8.47-4.8,17-9.51,25.16-14.83,14.8-9.66,18.54-22.87,11.86-39.44-1.9-4.69-4.22-9.4-5-14.3-.91-6-2.45-14.08,7.11-14.49,8.33-.35,9.74,7,10.45,13.39a14.48,14.48,0,0,1-2,8.5c-5.94,9.75-4.55,20-3.28,32.18,18.24-16.76,39.67-29.07,40.92-56.55.15-3.16,1.83-6.58,3.7-9.26,2.46-3.53,6.05-6.27,10.82-4.7,4.6,1.51,6.33,5.34,6.51,9.93.4,10.1-5.43,16.3-13.09,21.72-20.27,14.38-34.88,34.89-54.44,50.35,34.13-6.5,67.79-13.18,86.4-47.42,1.95-3.58,5.41-6.49,8.58-9.22,2.87-2.47,6.23-4.71,10.31-1.92,4.42,3,3.94,7.41,2.51,11.43-3.06,8.58-9.81,14-18,16.76-20.66,6.92-36.94,22-58.66,29.12,13.52,7.36,25.64,10.38,39.18,5.72,4.6-1.59,10.07-1.19,15.09-.83,3.89.28,7.41,2.32,7.74,7,.29,4-2.3,6.22-5.47,7.81-9.65,4.85-18.33,3.1-27.52-2.41-12.61-7.56-26.94-15.33-41.13-13.94-38.71,3.79-72.09,18.21-92.7,54.7-12.2,21.61-28.44,40.66-48.35,61,15.19-3.51,27.36-2.4,38-8.72,20.17-12,30.65-29.8,31.7-53.23.34-7.6.13-15.42,5.42-21.76,2.81-3.37,6.33-6.22,11-4.89,5.16,1.48,5,6.13,4.91,10.48-.15,7.07-1.86,14.35-7.23,18.45-16.64,12.7-16.35,36.24-33.22,48.68,20.84-4.56,38.3-14.58,54.5-27,11.92-9.17,21.45-19.45,17.14-36.44-.67-2.68.26-5.92,1-8.76,1.36-5.36,4.43-9.44,10.51-9.14s8.69,5,9.55,10.28c1.93,11.85-3.92,19.94-12.87,27.09-11.07,8.83-21.42,18.58-34.78,30.3,26.14-.35,50.33,9.94,68.47-14,3.48-4.6,10.23-6.16,16.41-3.67,3,1.21,4.62,4,3.46,7.28-2.16,6.13-7,9.3-13.11,10.88a6.76,6.76,0,0,1-1.24.29c-24.37,1.61-48.59,8.7-73.2,1.77-2.32-.66-5.59-1-7.39.13-19,11.95-40.28,17.33-63.56,22.08,17.83,14.21,37.92,15.78,57,20.49,12,2.95,21.61,3.4,30.19-8.13,5.58-7.5,15.06-11.51,25.06-6.87,4.32,2,5.37,6.52,3.82,11-3.74,10.76-13.57,14-22.58,12.9-31-3.69-62.51-6.41-90.72-21.88-16-8.74-27.54-7.53-41.28,4.64-2.67,2.37-4.8,6.38-11.13,5.42,17.41-16.55,33.74-31.91,47.62-49.61,4.61-5.87,6.85-11.77,3.08-18.66-12-21.91-28-38.93-53.94-43.62-5.06-.92-10-2.21-14-5.53-3.65-3-7.11-6.61-4.14-11.94,2.64-4.72,7.11-5.9,12.06-4.78,7.05,1.59,11.76,6.13,15.36,12.32,5.43,9.35,13.6,15.53,23.74,20,.25-18.79-2.11-25.19-13.78-38.62A26.86,26.86,0,0,1,34,266.1c-2.23-4.87-3.54-10.26,2.59-13.14,5.61-2.63,10.08.55,12.65,5.38,1.5,2.84,1.81,6.48,2,9.8,1.69,27.06,4.39,53.71,26.86,72.58,7.69-26.32-1.21-73.3-18.2-94.66-4.59-5.76-8.84-11.73-4.76-19.58,1.77-3.41,5-5.39,8.45-3.66,7.77,4,10.38,11.59,9.28,19.36-2.68,18.88,9.07,34.2,10.86,52C92,283,101.92,273.13,97.35,257.52c-1.36-4.62,1-10.18,6.28-12.8a6.54,6.54,0,0,1,8.12,1.63c4,4.32,3.46,9.45,1.62,14.33a21.57,21.57,0,0,1-4.91,7.29c-20.22,20.27-29.12,44.16-23.28,74a662.2,662.2,0,0,0,42.3-68.12c5.6-10.44,5.15-21.17,3.87-32.2-.54-4.55-2.53-7.92-7.19-9.48-21.3-7.13-36.36-24.64-56.41-34-6-2.82-9.28-8.72-8.49-15.8.39-3.52,2.14-6.79,6.16-7.08,7.46-.54,11.43,4.46,14.74,10.16a15.19,15.19,0,0,1,2.1,4.61c4.45,24.89,26.74,28.52,44.66,37.82-6.91-30.29-18.11-58.13-39.11-81.23-5.1-5.61-8.76-11.66-5.26-19.47,1-2.32,3.07-4.44,6-3.24,7.4,3,12.5,9.55,12.21,16.54C99.89,163,117,177.67,124,197.17c5-16.61,12-32.58,6.88-50.4-1.14-4-2-8.44-1.49-12.47.81-6.32,4.44-11.75,11.6-10.77,6.59.9,8.25,6.66,7.7,12.68-.27,2.92-.4,6.62-2.16,8.51-11.56,12.45-8.84,29.7-15.08,43.54-10,22.22,5.61,40.3,5.75,60.8C152,217.83,161,185.23,169.21,152.43c6.83-27.23,6.63-27.28-18.82-39.43-2.29-1.1-4.56-2.25-6.86-3.33C121,99.07,102.78,82.46,84.29,66.36c-4.7-4.1-7.68-10.5-4.76-17.33a7.69,7.69,0,0,1,8.22-4.86c7.78,1,9.71,7.23,11.61,13.43.37,1.21,1.13,2.38,1.22,3.6C102.35,85.35,122.16,92,139,102.86c4.3-25.14-3.13-42.3-22.83-54.93-3.93-2.52-7.81-5-10.15-9.36-3.49-6.44-3.39-12.4,2.82-16.88,5.87-4.23,11.41-2.23,15.78,2.74,2.47,2.82,5.51,6.13,6,9.55,2.75,18.87,12.1,36.08,13.63,55.19,1.47,18.3,4.58,21.79,22.78,27.31,6.13,1.87,8.12.67,8.7-5.84,1.49-17,2.24-33.77-.12-50.74-1.58-11.33-4.72-21.29-14.11-28.75a30.62,30.62,0,0,1-9.9-13C149.11,11.45,149.24,5,156,1.48c7.33-3.79,12.95.16,16.94,6.67,3.81,6.22,3.16,13.15,2.57,19.83-1.75,19.92,8.2,38.27,7,58.39,9.79-14.68,22.07-27.63,20.44-46.73-.71-8.37.76-16.3,9-20.8,3.06-1.68,6.21.08,7.54,2.89,4,8.54,1.72,16.45-3.37,23.84a7.67,7.67,0,0,1-1.64,1.93c-15,10.74-16.63,29.85-29.6,43.69,19.15,1.45,31.88-3.49,38.31-20.48,1.82-4.81,6.14-8.45,11.82-8.27,3.05.09,5.38,2.57,6,5.81,1.14,6.21-2,10.58-6.67,14.09a17.65,17.65,0,0,1-5.55,3c-12.53,3.57-24.26,10.35-37.84,9.85-7.09-.26-10.7,2.13-10.78,10.15-.17,16.6-4.06,32.73-7.73,48.85-2.47,10.8-6.62,21.33-6.78,33.44,16.27-5.45,31-10.58,36.14-28.3,4.43-15.18,8.84-30,0-45.35-2.66-4.59-3.07-10.94,2.06-15.18,3.2-2.65,7.23-2.48,10.72-.28,5.26,3.32,6.81,8.5,5.93,14.37-.43,2.9-.83,6.33-2.56,8.43-11.17,13.53-6.53,31.34-15.94,48,13.76-7.2,23.39-14.17,31.86-22.5,12.7-12.5,25.41-25.15,27.9-44.23,1.15-8.82,4.45-16.89,13.76-19.48,5.05-1.4,9.11,2.59,10,7.64,1.85,10.56-5.27,16.19-13,21.15-1.76,1.13-4,1.43-5.79,2.56-2.06,1.34-4.37,2.82-5.59,4.83A142.37,142.37,0,0,1,228,157C254.27,160.56,262.87,157.26,277.88,139.47ZM122.62,27.6c-3.13-3.87-7.53-6-12.08-2.22s-3.31,8.4-.29,12.38c4.68,6.16,11,10,19.3,12.54C130.65,41.05,127.72,33.88,122.62,27.6ZM167,7.16c-2.17-2.47-5.2-4.34-8.91-2.52s-3.81,5.19-3.32,8.6c1.31,9.1,7.92,14.17,15.51,20.54C173.73,22.79,173.4,14.42,167,7.16ZM179.38,417c3.59-2.25,7.12-5.61,5.09-10.42s-7-4.52-11-3.22c-7.83,2.52-14.17,7.15-18.53,16.23C164.25,421.47,172.19,421.52,179.38,417Zm6.67-102.33c-.41-3.8-1.42-8.13-6.22-8.09-4.49.05-6.43,4-6.67,7.89-.44,6.94-.13,13.93-.13,23.26C183.51,331,187,323.84,186.05,314.67Zm-51.83,2.47c.36-2.39.7-5.22-2.41-6.39-2.88-1.07-4.87.71-6.36,2.73-5.47,7.4-5.73,15.84-5.51,26.14C129.59,333.7,132.89,326,134.22,317.14ZM232.1,210.23c1.44-4.33,1.26-8.95-3.29-10.71-4.34-1.68-7.07,2.33-8.24,5.85-2,6.19-3.28,12.66-5.17,20.31C224.88,222.93,229.61,217.72,232.1,210.23ZM281.49,96.91A6.74,6.74,0,0,0,279,88.05c-3.68-2.43-6.39-.19-8.41,2.67-3.88,5.5-6.66,11.4-5,18.8C273.81,108.57,278.47,103.59,281.49,96.91ZM271.26,232c1.5-2.61,4.44-6.18,1.07-9.09s-6.37.24-8.69,2.46c-5.21,5-8.9,11.08-12,19.2C261.2,242.9,267.34,238.87,271.26,232ZM292.8,143.8c1.2-2.19,2.46-4.68.33-6.89-2.61-2.71-5.48-1.41-7.78.52-5.43,4.55-9.3,10.29-13,17.6C281.88,154.49,288.6,151.41,292.8,143.8Zm-148.24-5c.65-3.66,1.31-7.69-2.44-10.36a4.45,4.45,0,0,0-5.8.54c-3,2.69-4.5,6.08-3.44,10.17.92,3.6,2,7.15,3.39,11.92A16.49,16.49,0,0,0,144.56,138.77Zm67.93-16c4.24-6.77,6.77-13.71.28-20.49-1.81-1.89-5-2.56-6.7,0-5.72,8.68,2.09,14.19,3.61,21.08C211.79,123,212.36,123,212.49,122.82ZM12.51,282.7c-2.87-.42-6.14-.7-7.52,2.72s.73,5.68,3.3,7.31c5.42,3.44,11.46,4.41,19.45,4.47C23.6,289.2,19.92,283.8,12.51,282.7ZM92.87,52c-1.5-2.92-4.18-4.3-7.32-3.08-3.61,1.41-2.91,4.61-2.16,7.47,1.91,7.33,6.73,12,14.37,15.56A40.73,40.73,0,0,0,92.87,52ZM72.66,181.86c-2.14-2-4.85-4.27-7.78-2-2.68,2.07-2.08,5.43-.89,8.2,2.93,6.78,8.84,9.31,17,11.52C79.41,192,77.42,186.25,72.66,181.86ZM253.89,292.29c1.9-.68,3.85-2.1,3.39-4.65-.51-2.8-3.07-2.61-5-2.6-7,0-14.3-1.28-21.35,3.88C238.55,297.23,246.25,295,253.89,292.29Zm-36.08-264a4.59,4.59,0,0,0-3.05-5c-2.23-.7-4,1-5.06,2.78-3.62,6.45-5.25,13.06-.46,20.74C216.18,41.58,217,34.9,217.81,28.32ZM172.64,216.9c-1.31-1.71-3.82-2.63-5.3-.48-5.3,7.67-.39,13.79,3.32,21.77C176.13,230,177.67,223.5,172.64,216.9ZM63.78,227.55a3.31,3.31,0,0,0-5.2,1.62c-2.15,8.06,2.59,13,9.07,19.56C69.33,239.52,70.37,232.72,63.78,227.55ZM41.66,256.7c-2-1.06-5-.12-5.07,1.95-.25,7.32,4.25,11.81,10.83,16.16C48.79,266.8,48.83,260.5,41.66,256.7ZM236.78,71.42c.49-2-.24-4.86-2.85-4.49-8,1.15-9.13,8.62-13.59,15.13C230.11,82.48,235,78.9,236.78,71.42Zm-148.59,57c-3.68,10.08-3.12,11.33,9.52,21C98,140.27,95.59,133.4,88.19,128.37ZM110,250.79c-.75-2-3-3.86-4.84-2.38-5.83,4.78-3.49,11.25-3.07,19.44C109.36,262.43,112.51,257.72,110,250.79ZM209.69,366.9c6.77,1.5,12.45-.29,16.25-6.19a3,3,0,0,0-2.31-4.72c-7.37-.4-12.46,3-15.32,9.7C209.12,366.42,209.36,366.83,209.69,366.9Z"/></g></g></svg>