<svg xmlns="http://www.w3.org/2000/svg" viewBox="0 0 740.55 728.92"><defs><style>.cls-1{opacity:0.2;}.cls-2{fill:#a77969;}</style></defs><g id="Layer_2" data-name="Layer 2"><g id="Layer_1-2" data-name="Layer 1"><g class="cls-1"><path class="cls-2" d="M417.18,387.12c-2.11-3-5-4.84-7.58-7.06-6-5.17-12-10.2-18.31-14.94-2-1.49-2.89-1.73-3.65,1.11-3.21,12-11.92,19.28-22.29,25-8.11,4.48-17,7.07-25.3,11.14-5.37,2.65-11.21,3.73-16.71,5.9-17.28,6.81-35,12.46-52.67,18.1a244.41,244.41,0,0,0-54.82,24.78c-7.3,4.53-13.82,10.19-20.69,15.35a6,6,0,0,1-2.6,1.6,2.9,2.9,0,0,1-2.86-.8c-.92-1.11,0-1.91.65-2.68,5.44-6,10.93-11.89,16.31-17.91,10.64-11.89,21-24.05,32.25-35.35C249,401.26,258.59,390.61,270.13,382a4.46,4.46,0,0,0,1.85-2.26c-.55-.66-1.07-.31-1.5-.17a309.15,309.15,0,0,1-40.4,10.23c-11.58,2.25-22.47,6.69-33.53,10.54-13.52,4.7-26.15,11.54-39.33,17.06-2.35,1-4.37,2.74-6.56,4.13-.79.5-1.68,1.14-2.45.1s-.18-1.81.52-2.5c1.41-1.37,2.85-2.72,4.32-4,15.16-13.53,28-29.41,43.1-43,11.35-10.17,23-20,35.69-28.46,2.27-1.52,5.09-2.21,7.37-4.76-4.45.15-8.42.08-12.34.45-14.66,1.38-29.42.21-44.06,1.64-20.32,2-40.53.48-60.73-1.54-9.74-1-19.45-.24-29.17-.07a11.52,11.52,0,0,0-2.72.63c-.88.24-1.88.8-2.41-.43s.51-1.92,1.43-2.36c2.91-1.37,5.84-2.67,8.79-3.95,18.83-8.15,37.84-15.92,55.63-26.27,4.63-2.7,9.41-5.15,14.73-8.05-3.41-.95-6.29-1.87-9.23-2.56-21-4.93-41.61-11.24-62.07-18a128.12,128.12,0,0,0-39.65-6.7c-1.06,0-2.2.07-2.45-1.3-.31-1.65.85-2.16,2.15-2.46,9.4-2.15,18.77-4.47,28.33-5.87,5.19-.76,10.38-1.57,16.31-2.47-4.11-2-7.92-2.31-11.54-3.3a197.56,197.56,0,0,1-36.85-14.06,212.59,212.59,0,0,0-50.3-17.68c-1.17-.25-3.24.18-3.05-1.8s2.2-1.55,3.56-1.62c15.62-.77,31.23-1.6,46.85-2.2,10.89-.41,21.58-2.8,32.47-3.1,15-.41,30-1.46,44.94.84,14.27,2.19,27.62,7.36,40.34,14,6.22,3.28,12.72,6.11,18.38,10.39,4.18,3.17,7.54,7.49,12.92,8.91.77.21,1.43.9,2.35.49.28-1.08-.44-1.72-1.1-2.36-16.84-16.48-29.45-36-40.89-56.39-6.12-10.92-11.44-22.35-19.05-32.34-4.93-6.48-9.17-13.61-15.65-18.83-.85-.69-1.65-1.41-1-2.6.78-1.42,2.13-.86,3-.37,3.53,2,6.89,4.23,10.44,6.16,10.28,5.6,20.93,10.68,30.35,17.64,13.48,10,28.6,17.71,40.52,29.79,11.73,11.9,23.22,24.07,31.21,38.88,4.85,9,10.16,17.9,11.44,28.39a11.81,11.81,0,0,1-.05,4.92c-.58,1.89.05,2.9,1.75,3.64,9.81,4.23,19.51,8.69,29,13.7a24.79,24.79,0,0,0,3.4,1.1c-2.56-3.37-4.56-6.19-6.76-8.85-8.36-10.13-14.24-21.67-18.64-33.9-6.88-19.15-15.07-37.71-23.49-56.22-7.81-17.19-16.5-33.9-25.08-50.68-3.71-7.27-8.25-14.12-12.41-21.16-.61-1-1.82-2.1-.41-3.24s2.27,0,3.24.83c14.21,12.53,28.63,24.83,42.59,37.64,15.88,14.57,31.13,29.81,44.52,46.78,15.28,19.36,25.81,41.15,33.24,64.55,2,6.33,4,12.68,6.23,18.92,3.21,8.94,3.34,18.09,2.15,27.32-.39,3,.64,4.5,3.34,6,11.92,6.69,24.25,12.74,35,21.28,1.55,1.22,2.64,3.14,5.15,3.67-2.11-5.72-4-11.17-6.11-16.5-3.26-8.1-6-16.37-8.78-24.62-2.53-7.46-5.32-14.84-7.67-22.34-4.54-14.51-10.46-28.65-12.71-43.83-1.91-12.92-3.8-25.85-5.76-38.76a53.26,53.26,0,0,0-1.61-7.29c-5.6-18.46-9.7-37.37-16.11-55.59-2.91-8.3-6.36-16.4-9.47-24.63-.62-1.62-2.38-3.87-.46-5s2.71,1.6,3.7,2.92a210.79,210.79,0,0,1,12,18.45c4.4,7.47,9.95,14.25,14.7,21.53,6.21,9.53,12.2,19.2,18.16,28.9q10.88,17.7,20.43,36.16c4.55,8.85,8.28,18.08,12.11,27.26,2.75,6.6,7,12.47,9.21,19.35,1.51,4.7,3.4,9.27,5.19,14.08.35-.32.7-.49.72-.69,1.33-16.08,7.38-30.73,13.65-45.33,6.05-14.07,14-27.09,22.33-39.85,2.36-3.59,3-6.91,1.06-10.71a1.78,1.78,0,0,1-.12-.29c-.65-1.88-1.59-4.53.31-5.35s2.68,1.91,3.42,3.52c1,2.17,2.05,3.18,4.37,1.28,4.35-3.57,9.56-5.77,14.46-8.45,5.43-3,9.31-6.5,10.77-13.2a291.8,291.8,0,0,1,9.5-34.75c5.49-15.56,11.1-31.06,19.07-45.57a23.42,23.42,0,0,1,3.79-4.91c2.11-2.19,3.91-4.58,4.38-7.71a2,2,0,0,1,.24-.89c6-8.17,9.92-18,17.27-25C541.81,11.8,559.41.08,582.82,0,599,0,614.25,2.05,628.65,10c18,10,30.28,24.76,39.4,42.72,6.84,13.47,11.26,27.84,16,42.13,7,21.18,14.3,42.26,21.22,63.46,3.18,9.76,5.81,19.71,8.57,29.6,3.27,11.79,7,23.45,10,35.31,4.66,18.05,7.86,36.34,10.69,54.74,1.94,12.62,2.48,25.35,3.51,38,.38,4.69-.14,9.45.9,14.14a81,81,0,0,1,1.49,14.51,220.81,220.81,0,0,1-3,42.93,392.27,392.27,0,0,1-8.11,40.48c-5.18,19.26-7.07,39.16-12.17,58.41a373.09,373.09,0,0,1-19.33,55.11,30,30,0,0,1-3,5.46c-2.39,3.33-2.8,7-2.4,10.89,2,20.1-1.86,39.36-9.9,57.59-7.49,17-18.43,31.45-35.14,40.7a17.42,17.42,0,0,1-8,2.31c-1.91,0-2.6.74-2.15,2.65,3.61,15.43,4.69,31.39,9.9,46.49.89,2.57.29,3.37-2.38,2.9a87.28,87.28,0,0,0-15.49-.83c-1.8,0-3.26-.51-2.13-2.77,4-8.08,3.79-16.47,1.6-24.89-1.8-6.93-3.91-13.77-6-20.61-.32-1-.65-2.88-2.09-2.61s-1.17,2-1.26,3.22c-1,14.56-2.7,29.06-3.42,43.66-.26,5.35-1.53,10.62-.43,16,.46,2.24-.85,3.76-3,4.5s-4.32,1.48-6.51,2.11c-3.56,1-4.13.65-5-2.9-2.63-10.93-4.2-21.94-2.85-33.23.43-3.58.4-7.22.6-11.28-2.55,1.28-4.84,2.37-7.08,3.56A46.53,46.53,0,0,1,580,688.73a108.38,108.38,0,0,0-10.81,2.92c-20.65,7-42,10.29-63.59,12.89-17.53,2.12-35.11,2.29-52.68,2-9.21-.14-18.42-.66-27.6.17-9.6.87-19.25-.14-28.84,1.16-10.78,1.47-21.7,1.74-32.37,4.05-1.18.25-2.81,1.18-3.56-.62-.68-1.64.86-2.34,1.85-3.19,6.16-5.33,13.51-8.81,20.46-12.85C393.71,689,404,681.78,415.14,676c21-10.8,42.28-20.69,64.87-27.63.66-.2,1.47-.2,1.9-1.2-1.24-1.19-3-1.06-4.47-1.43-10.8-2.69-21.14-6.71-31.55-10.52-10.14-3.72-20.79-4.58-31.33-6.15-16-2.39-31.61-.13-47.12,3.73-1.34.34-3.43,1.77-4.07-.16s1.87-2.11,3.15-2.57c8.43-3,15.88-8.14,24.26-11.21,16-5.85,31.84-12.07,48-17.2,14.33-4.54,29.19-7.12,44.05-9.52,12.8-2.06,25.62-4,38.6-3.8,11.87.22,23.88-.51,35.42,3.38a5.14,5.14,0,0,0,1.29-.08c-4.16-3.73-8.53-6.67-12-10.55-4.23-4.68-8.32-9.5-12.47-14.27a5,5,0,0,0-3.63-2A341.32,341.32,0,0,1,475,557.54c-16.18-3.61-32.81-4.54-49.44-4-12.31.37-24.64.59-36.94,1.22-11.21.57-22,4-33.12,5.35a100.88,100.88,0,0,1-10.85.49c-1.48,0-2.81-.23-3.15-1.84s-.1-3.16,1.59-4c3.32-1.69,6.65-3.37,10-5,8.47-4.11,16.75-8.64,25.5-12.17,5.87-2.37,11.82-4.5,17.89-6.3,13.53-4,27.06-8,40.58-12.09a215.68,215.68,0,0,1,44.3-8c.4,0,.79-.14,1.49-.27a45.4,45.4,0,0,0-4.79-7.56c-.61-.86-1.66-.63-2.59-.71-19-1.62-38.09-1.92-57-4.49-14.81-2-29.73-2.37-44.56-3.9a19,19,0,0,0-9.73,1.46,156.29,156.29,0,0,1-23.64,7.74c-16.07,4.17-31.64,10.08-47.79,14-11.48,2.8-22.85,6.11-34.6,7.71-1.08.15-2.34.87-3.06-.54s.51-2.31,1.32-3.17c3.52-3.69,7.7-6.6,11.66-9.77,12.64-10.11,23.65-22,35.73-32.73,3.48-3.09,7.14-6,10.7-9,1.22-1,2.72-1.81,3.71-3.63-2.79-.28-5.05.54-7.25,1.13-17.08,4.56-33.74,10.41-49.37,18.68-5.9,3.13-12,5.64-18.07,8.25-.92.4-2,1.24-2.81.14s0-2.14.79-3c4.85-5.44,10.77-9.68,16.26-14.4,14.14-12.14,28.49-24,42.78-36A103.45,103.45,0,0,1,311.89,433a113.14,113.14,0,0,0,14.42-10.26c6.24-5.45,14.07-8.3,20.93-12.74,13.94-9,29.18-15.21,44.59-21.09a40.76,40.76,0,0,1,23.23-1.66c.4.08.8.21,1.2.25C416.44,387.5,416.63,387.35,417.18,387.12Zm-206-128.22c2.07,1.07,4,2.66,6.87,2.23-2.23-1.71-4.09-3.53-6.91-2.21-2.21-3.06-5.46-4.07-8.91-4.67C204.8,256.54,208.05,257.54,211.14,258.9ZM375.21,707.26c.7,0,1.42,0,2.12,0,17.92-1.87,35.92-2.66,53.92-3.23,15.42-.48,30.84.73,46.27.25a388.3,388.3,0,0,0,69.91-8.78c11.49-2.48,22.57-6.33,33.84-9.53,16.93-4.8,30.69-13.87,38.07-30.67.51-1.16,1.9-2.48.84-3.65s-2.54-.12-3.84,0a1.71,1.71,0,0,0-.3.09c-20,5.89-40.64,9.13-61.25,11.89-19,2.56-37.81,6.49-56.6,10.24-18.09,3.62-36.2,7.23-54.11,11.75-11.46,2.88-23.12,5.11-34.53,8.09C397.65,696.79,386.4,702.11,375.21,707.26Zm-4.79-1.53c1.58.51,2.32-.2,3.15-.56,10.83-4.77,21.76-9.5,33.16-12.49q29.06-7.59,58.53-13.48c18.71-3.74,37.37-7.73,56-11.65,16.16-3.4,32.52-5.35,48.77-8,16.1-2.62,31.8-6.7,47.59-10.53,2.35-.57,2.14-1.63.59-2.77a58.1,58.1,0,0,0-9.25-5.71c-9.57-4.6-20-3.82-30.16-4.89-7.46-.79-14.83,1.18-22.28,1.44A276.16,276.16,0,0,0,517,641a288.69,288.69,0,0,0-38.64,10A358.72,358.72,0,0,0,422,674.69c-12.19,6.44-23.89,13.67-35.49,21.1C381.3,699.12,375.6,701.65,370.42,705.73Zm8.81-79c2.06.55,3.51-.11,5-.52a286.13,286.13,0,0,1,34.33-7.54C434.25,616.32,450,614,466,613.3c17.23-.74,34.1,1.13,51,3.33,8.23,1.07,16.3,3,24.44,4.57,8,1.51,15.92,3,23.48,5.9,9.81,3.76,19.6,7.29,30.27,7.58a40,40,0,0,1,9.48,1.61c4.48,1.23,6.81-.32,7.68-5a11.22,11.22,0,0,0-.62-6.7,38,38,0,0,0-12.51-15.56c-9.58-7.15-20.39-11.29-32.11-13.46-10.37-1.92-20.54-5-31.19-5.28-17.12-.5-34.12.17-51.07,3.18-16.66,3-33.23,6.16-49.29,11.49-11.52,3.82-22.85,8.17-34.19,12.5C394.09,620.29,386.5,622.47,379.23,626.78Zm65.28-448c.44,2.23.77,4.49,1.36,6.67,5.12,18.89,8.43,38,7.72,57.67s-2.71,39.45-3.15,59.23c-.37,16.74-2.13,33.4-1.33,50.24.9,18.94,3.94,37.24,11.21,54.76a54.72,54.72,0,0,0,6.53,11.25c.67.93,1.6,2.06,2.73,1.7s.83-1.73.89-2.77a31.13,31.13,0,0,1,.4-4.93c2.95-13.21,3.22-26.7,4-40.11.9-15-.91-30-.92-45,0-17-.77-33.9-4.11-50.66-2.59-13-4.12-26.21-6.67-39.21a365.9,365.9,0,0,0-15.31-53.49C447.17,182.19,446.54,180.12,444.51,178.81ZM665.22,449.4c-1.13.91-.63,2.16-.57,3.19,1,19.75,2.47,39.48,3.83,59.2.7,10.21,1.54,20.45,1.16,30.7-.46,12.22-2.16,24.35-3.52,36.5a72.3,72.3,0,0,1-4,17.85,159.22,159.22,0,0,1-16,30.52c-4.66,7.11-9.45,14.14-14.18,21.2-.91,1.35-1.89,3.61-.34,4.05,3.07.85,5.58,3.68,9.16,2.72a22.8,22.8,0,0,0,6.16-2.11,76,76,0,0,0,23.94-22.64,112.5,112.5,0,0,0,18.64-47c2.61-17.59,1-35.21-2-52.58s-5.94-35-12.07-51.73c-3.28-8.95-5.91-18.14-8.87-27.21C666.31,451.14,666.27,450,665.22,449.4ZM451.76,185.48l-.65.4c.49,1.69.87,3.42,1.47,5.06a246.24,246.24,0,0,1,11.58,42.25c2.52,14.18,5.11,28.35,7.43,42.57,1.39,8.48,3.35,16.88,3.72,25.51.67,15.39.23,30.81,1.34,46.18,1.73,23.87.09,47.57-3.4,71.18-.57,3.85.35,5,4.28,4.8a7.75,7.75,0,0,0,3.53-1.08c6.62-3.73,9.6-10.17,12-16.81a121.2,121.2,0,0,0,6.78-47.66A402.6,402.6,0,0,0,489.19,282c-3.15-12.93-7.45-25.48-11.19-38.21a218.89,218.89,0,0,0-20.27-48.35C455.79,192.09,453.75,188.79,451.76,185.48ZM621.69,646.2c0-1,.19-1.38.07-1.62-3.76-7.35-3.06-15.07-1.85-22.82a11.32,11.32,0,0,0-.19-5.55c-1.74-4.87-3.31-9.84-5.49-14.53-4.1-8.82-8.66-17.42-12.83-26.21-1-2.16-1.95-2.85-4.41-2.31-3.54.77-7.33,1.21-10-2.21-2.36-3-5-5.85-6.68-9.33a96.21,96.21,0,0,1-9.4-30.09,8.23,8.23,0,0,0-1.54-4c-8.07-10.62-15-22.12-23.72-32.23-1.27-1.47-2.5-2-4.31-1.19-4.54,1.92-8.57.73-12.12-2.33-2.9-2.49-5.68-5.14-8.41-7.83a23.49,23.49,0,0,1-7.1-14.51,15,15,0,0,0-3.87-8.59c-9.29-10.61-19-20.79-28.88-30.87a10.88,10.88,0,0,0-5.2-3.29c-6.76-1.56-11.21-5.87-14.58-11.65C454,402.81,443.35,393.89,433,384.69c-.94-.84-2-1.49-3.39-.95-2.58,1-4.86,0-7.14-1.06-7-3.25-12-8.82-16.15-15.08-2.05-3.06-4.51-6-4.32-10.1a2.09,2.09,0,0,0-1.2-1.7c-2.61-1.7-5.17-3.41-8.32-4.06a23.14,23.14,0,0,1-13-7.51c-5.52-6.3-12.39-11-19-16-8.55-6.49-18.46-10.71-27.61-16.2-2-1.23-3.85-1.75-5.94-.06a4.52,4.52,0,0,1-3.9.56,24.08,24.08,0,0,1-7.65-3.31,99.86,99.86,0,0,1-18.17-15.46c-3-3.11-6.15-5.8-10.22-7.39a33.87,33.87,0,0,1-5.24-2.73,211.17,211.17,0,0,0-23-11.57c-5.45-2.46-10.9-5.53-16.83-1.36,1.12,1.89,1.11,1.93,5.14,3.52,17.26,6.83,34.47,13.76,50.34,23.54,3.46,2.13,7.24,4.36,9.28,7.63,1.83,2.94,4.27,4.23,6.83,5.86,8.77,5.57,18.42,9.56,27.22,15,11,6.81,21.89,13.85,33.16,20.27,4.69,2.66,9.31,5.78,12.24,10.73,1.31,2.22,3.46,3.84,5.51,5.43,8.11,6.29,16.15,12.65,23.83,19.46,4.23,3.75,8.08,7.84,13.7,9.88,4.12,1.51,7,4.82,8.81,9.12,2.21,5.15,5.42,9.23,11.91,10,7.65.88,11,5,11.66,13a9,9,0,0,0,2.22,5.29c7.23,8.61,16.22,15.42,24,23.48a3.69,3.69,0,0,0,1.66.77,44.61,44.61,0,0,1,16.7,8.66c5.1,4.1,7.91,9.34,7.95,15.81a11.3,11.3,0,0,0,3.24,8.08c8.47,9.1,17.54,17.63,25.82,26.91a27.77,27.77,0,0,0,9.1,7,28.91,28.91,0,0,1,12.56,10.81c3.23,5,7,10.09,5,16.66-1,3.35-.23,6,1.84,8.63a432,432,0,0,1,25.09,36.25c5.51,8.87,8.89,19,15.82,27a6.45,6.45,0,0,1,.54,1.12c3,5.24,2.64,11,2.47,16.69C615.42,641.65,618.17,643.8,621.69,646.2ZM330.15,135.94c1.35,3.57,2.73,7.14,4,10.72,4.15,11.39,7.84,23,12.54,34.13,5,11.84,10.13,23.61,14.45,35.7,8.58,23.94,15,48.55,21.75,73a35.49,35.49,0,0,1,.82,4c2.8,17.81,6.21,35.52,7.63,53.52.09,1.21.51,2,1.72,2.21,5.43.8,10.82.1,13.19-6.84a72.65,72.65,0,0,0,3.52-26.95c-.93-20.69-8.41-39.84-14.77-59.22-2.58-7.89-6.6-15.19-10-22.77-7.33-16.57-14.53-33.15-23.74-48.85C351.61,168,341.2,151.82,330.15,135.94ZM310.51,108.1c.93,2.15,1.8,4,2.56,5.92a262.63,262.63,0,0,1,11.82,36c2.84,11.79,7.1,23.23,9.34,35.15,2.78,14.76,5.07,29.62,7.39,44.46a88.05,88.05,0,0,0,2.86,12.08c4.25,13.88,9.09,27.57,13.78,41.31,5.59,16.39,11.57,32.64,17.54,48.9,2,5.37,4.76,10.39,9.8,13.65.83.53,1.8,1.59,2.72,1s.5-1.91.36-2.91c-.81-5.75-1.77-11.48-2.47-17.23-2-16.06-4-32.08-8.26-47.74-8.49-31.44-17.53-62.73-30.78-92.55-5.82-13.11-10-26.79-15.12-40.12a195,195,0,0,0-19.41-36.69A2.17,2.17,0,0,0,310.51,108.1ZM594.28,357.38c-1.25.71-.75,1.6-.65,2.35a476.07,476.07,0,0,1,4,56.84c.21,13.86,2.09,27.63,2.1,41.51,0,14.27.77,28.58-1.1,42.8-1.94,14.78-4.26,29.51-6.23,44.29-.9,6.77-1.42,13.59-2,20.39-.37,4.61,1.64,6.08,6.06,4.74a13,13,0,0,0,6.43-4.66c3.18-4,4.25-8.89,5.86-13.6,4.84-14.08,8.41-28.39,9.25-43.31.78-13.84,2.72-27.63,2.67-41.49-.1-28.12-6.91-55-15.9-81.4-1.74-5.1-3.87-10-5.46-15.22C598,366.13,596,361.82,594.28,357.38ZM162.58,411l.41.67c1.15-.34,2.34-.57,3.44-1,13-5.25,25.64-11.21,39-15.36,8.71-2.7,17.14-6.24,26.19-7.92,6.31-1.16,12.69-2.09,18.86-4q15.46-4.78,30.94-9.52c17.23-5.26,33.72-12.14,48.91-22,4.87-3.14,8.67-7,10.07-12.83.62-2.58.28-3.8-2.82-3.46-8.45.91-16.87,1.91-25.27,3.16a218.56,218.56,0,0,0-60.29,17.94c-10.81,5-21.18,10.89-32.1,15.69a145.59,145.59,0,0,0-27.85,15.64c-8.24,6-16,12.72-24.3,18.72C166,408.1,164.32,409.59,162.58,411Zm37.13,48.64c4.06-1.77,6.81-4.64,10-6.83,18.82-12.84,39.48-22,61-29.07,25-8.25,50-16.49,74.53-26.12,10.85-4.26,21.43-9,30.39-16.58a26.66,26.66,0,0,0,9.66-16.55c.29-1.86-.08-2.84-2.17-2.56-.82.11-1.65.12-2.48.21-19.31,2.17-37.7,7.71-55.63,15.05-13.55,5.54-26.48,12.31-39.36,19.2-10.14,5.43-19.54,12.05-29.07,18.47-10.9,7.33-21.69,14.79-31.82,23.18-7,5.82-13.73,12-21.22,17.22C202.11,456.27,200.31,457.23,199.71,459.65ZM587.13,566.17a13.61,13.61,0,0,0,1-5.25c1.1-14,3-28,5.38-41.87,1.66-9.71,3.22-19.42,3.91-29.24,1.36-19.65.07-39.28-1-58.9-1.48-26-1.16-52.2-5.69-78-.82-4.71-1.42-9.5-3.5-14.56a6.46,6.46,0,0,0-.49,3.84,178.17,178.17,0,0,1,0,31.33c-1.5,16-3.18,31.92-5.65,47.79-4.3,27.53-6.62,55.27-8.55,83.06A119.19,119.19,0,0,0,574,534.86a98,98,0,0,0,6.81,21.92A26.81,26.81,0,0,0,587.13,566.17ZM540.38,280.81c-.8.49-.76.91-.67,1.31a215.65,215.65,0,0,1,4.9,43.45c.25,17-.17,33.95-.51,50.93q-.33,16.49-1.88,32.86c-2.5,26.3-8.28,52.15-10.43,78.5-.14,1.7.22,2.68,1.88,3.36,3.53,1.44,6.56.82,9.61-1.36,6.94-4.95,9.94-12.27,12.41-19.95,6.66-20.69,8.42-42,7.4-63.54C561.68,376.62,559,347,551.68,318,548.5,305.47,545.56,292.82,540.38,280.81Zm179.86-60.55c-.61-2.09-1.27-4.17-1.79-6.28-.48-1.95-1.22-2.23-2.6-.7-3,3.35-6.72,5.82-10.29,8.48-14.87,11.07-29.19,22.94-44.81,32.91-16.49,10.52-33,21.07-50.81,29.35a263.17,263.17,0,0,0-26.37,13.92c-1,.63-2.46,1-2.36,2.59.33,5.37.17,10.78,1.39,16.08.44,1.9,1.43,2,3,1.26,10.35-4.76,21-9,31-14.34,19-10,38.18-19.49,55.71-32,15.28-10.9,30.12-22.25,43.57-35.41C720.72,231.36,724.1,227,720.24,220.26ZM99.88,336.34c1.05,1,1.94.58,2.69.55a115.85,115.85,0,0,1,18,.68c14.72,1.67,29.47,3.28,44.29,2.36,19.73-1.23,39.5-1.72,59.25-2.59,18.55-.82,36.62-3.78,53.86-11.07,7.75-3.27,15.1-7.3,22.63-11,1.37-.67,3.13-1.65,3-3.21-.07-1.1-2-1.1-3.23-1.29-12.32-2-24.77-1.47-37.16-1.59-20.86-.21-41,5.4-61.42,8.8-21,3.5-41.8,7.63-63,9.43C126,328.5,114,333,101.46,335.52A7.77,7.77,0,0,0,99.88,336.34ZM249.47,488.91a9.55,9.55,0,0,0,5.16-1.44c4.51-2.27,8.75-5,13.43-7a304.14,304.14,0,0,1,64.78-20.16c24.16-4.65,48-10.51,70.69-20.47,11.41-5,21.3-11.86,28.69-22a18.16,18.16,0,0,0,3.62-13.16c-.18-1.61-.58-2.21-2.28-1.84-6.08,1.33-12.24,2.32-18.26,3.86-16.24,4.15-31.69,10.59-46.76,17.74-21.8,10.33-42.79,22.28-64.5,32.82-15.28,7.42-29.69,16.45-44.29,25.1C256.49,484.24,253,485.77,249.47,488.91Zm412.76-47.13c-2,4.4-.8,8.7-.75,13a313.59,313.59,0,0,1-2.94,46.15c-1.64,12-3.72,23.9-7.56,35.49-6.08,18.3-14.77,35.6-20.19,54.15-3,10.33-7.11,20.33-8.42,31.14-1.06,8.83-1,17.35,3.85,25.25,1.27,2.07,2.12,2.56,3.64.21,5.58-8.62,12-16.66,17.19-25.53,6.36-10.94,12.67-21.91,15.4-34.5a211.14,211.14,0,0,0,3.2-23.07c1.12-10.8,2.71-21.64,2-32.5-1.56-24.37-3.35-48.73-4.69-73.12C662.68,452.9,662.48,447.34,662.23,441.78Zm27-321.74c-1.48-4.05-2.86-8-4.34-11.84-2.26-6-2.33-6-6.5-1.24-12.1,13.75-25.93,25.63-40.43,36.66-20.77,15.8-42.58,30.16-64.42,44.42a9.77,9.77,0,0,1-3.11,1.35c-1.18.27-1.43.67-1.24,1.88.9,5.94,1.88,11.88,2.41,17.85.28,3.13,1.1,2.84,3.45,1.71,14.49-7,27.93-15.82,41.4-24.53,13-8.42,25.3-18,38.06-26.8a136.17,136.17,0,0,0,33.8-33.92C689.6,123.74,690.41,122,689.21,120ZM618,421.22c-.44,1.89.34,2.24,1.92,1.54,1.89-.84,3.91-1.39,5.79-2.26,14.44-6.73,28.56-14.13,42.81-21.25,14.62-7.29,29.41-14.44,42.88-24,7.43-5.28,14.67-10.75,21.82-16.37a10.77,10.77,0,0,0,4.4-9.72c-.39-7-.76-14.06-1.74-21-.11-.77.24-1.81-.91-2.05a2.44,2.44,0,0,0-2.19,1c-1.39,1.4-2.65,2.93-4.08,4.28-11.09,10.47-23.43,19.36-36,28-7.5,5.16-14.85,10.59-22.65,15.25a279.18,279.18,0,0,1-55.31,25.22c-2,.67-2.58,1.52-2,3.58C614.58,409.27,616.23,415.25,618,421.22ZM346.75,557.28a5,5,0,0,0,5.09.9c3.81-1.09,7.73-1.36,11.63-1.88,7.8-1.06,15.5-2.87,23.31-3.67,16.49-1.69,33.09-1.49,49.64-1.62a166.52,166.52,0,0,1,33.37,2.81c18.91,3.71,37.8,7.36,57.1,8.37,10,.52,19.88.39,29.48-3a17.53,17.53,0,0,0,9-7.25c1.6-2.39,1.17-3.59-1.48-4.52-8.91-3.11-17.91-6-27.24-7.41-10.53-1.64-21.11-3.1-31.71-4.15-12.25-1.21-24.57-1.58-36.87-1.59-9.32,0-18.55,1.64-27.8,2.78-13.38,1.66-26.65,4-39.82,6.82-14.19,3-28.24,6.68-42.31,10.19C354.46,555,350.6,555.37,346.75,557.28ZM620.4,395.18l-.1-.32a81.91,81.91,0,0,0,8.06-2.36c19.81-7.92,38.08-18.72,55.87-30.34,11.52-7.54,22.38-16,33.14-24.6,5.93-4.73,10.33-11.08,16.7-15.31a3.53,3.53,0,0,0,1.33-3.35c-.51-6.09-1.12-12.16-1.58-18.25-.18-2.31-1.27-1.81-2.34-.86-1.86,1.64-3.48,3.55-5.37,5.14a257.54,257.54,0,0,1-26.39,20.15c-11.12,7.19-21.35,15.75-33.11,21.94-19.89,10.46-38.75,22.84-59.57,31.52-1.91.8-1.83,1.7-1.22,3.29q2.23,5.81,4.2,11.71c1.46,4.35,1.4,4.35,5.59,3C617.2,396.07,618.8,395.64,620.4,395.18ZM206.73,117.78c-.59.74-.11,1.15.1,1.56,3.26,6.24,6.47,12.5,9.81,18.7,3.79,7,8,13.83,11.47,21,3.79,7.7,6.67,15.87,10.57,23.51,8.32,16.3,15,33.24,21.29,50.38a151.15,151.15,0,0,0,20.51,38.55c7,9.43,15.18,17.76,23.68,25.82,3.92,3.71,7.75,7.49,12.67,9.88a13,13,0,0,0,5.46,1.56,38.13,38.13,0,0,1-7.72-11.57c-9.06-19-17.84-38.09-26.89-57.06-6.83-14.3-13.47-28.74-21.75-42.26-16.15-26.34-35.16-50.66-54.08-75C210.41,120.93,209.06,118.79,206.73,117.78Zm466.5-43.87A12.85,12.85,0,0,0,672,75a13.38,13.38,0,0,0-1.76,2.17c-5.35,9.62-12.93,17.45-20.16,25.59a125.55,125.55,0,0,1-20,18.59c-12.18,8.8-25.63,15.57-38.21,23.74-7.62,4.93-15.7,9.16-23,14.62-1.93,1.44-3.45,3.08-3.14,5.66.71,5.85,1.38,11.71,2.32,17.53.58,3.61,1.25,3.79,4.42,2,.63-.35,1.23-.77,1.86-1.12,12.91-7.3,25-15.82,37.29-24.09C629,148,645.63,135.59,661,121.41a240,240,0,0,0,18-19.29,7.22,7.22,0,0,0,1.5-8c-1.91-5-3.36-10.25-5.07-15.36C674.87,77.14,674.53,75.38,673.23,73.91Zm-2.33-7.17c-2.31-4.43-3.72-10.17-7.17-14.94-.86-1.19-1.4-1.55-2.39,0-3.78,5.82-8.44,11-12,17a18.63,18.63,0,0,1-3.45,4c-15.42,14.69-32.51,27.19-50.41,38.65-9.67,6.18-19.15,12.67-28.77,18.92a4.37,4.37,0,0,0-2.16,4.08c-.05,6.63.3,13.24.76,19.86.18,2.66,1.06,3,3.21,1.83,5.93-3.36,11.95-6.57,17.79-10.1,11.07-6.68,22-13.51,33-20.32,21.55-13.35,37.42-32.11,50.8-53.25A5.64,5.64,0,0,0,670.9,66.74Zm32.59,95.85-.28.09c-.86-3-1.63-6-2.63-9-.38-1.12-.46-2.87-1.71-3.11-1.49-.3-2.11,1.37-2.87,2.43a64.48,64.48,0,0,1-10,11.42c-6,5.23-11.84,10.7-18,15.77-8.61,7.11-16.37,15.27-26.08,21-10.49,6.24-20.13,13.82-31.25,19.1a376.89,376.89,0,0,0-33.16,18.33c-1.4.85-2.56,1.6-2.09,3.63a64,64,0,0,1,1.2,11.73c.17,3.44,1.23,4.12,4.31,2.61,4-2,7.79-4.37,11.89-6.07a237.49,237.49,0,0,0,28.48-13.82c17.35-10.11,33.88-21.53,50.65-32.58,11.47-7.56,22.32-15.75,31.46-26.09,2.5-2.83,3.7-5.57,2-9.27A41.89,41.89,0,0,1,703.49,162.59ZM691.3,126.26c-1.81,2.19-3.08,3.82-4.44,5.36-7.14,8.15-13.41,17.08-22.37,23.58-20.25,14.7-40.88,28.82-61.69,42.7-8.8,5.87-18.19,10.72-27.25,16.15-2.28,1.36-3.19,3-2.64,5.6a86.23,86.23,0,0,1,1.82,13.86c.09,2.07.83,2.64,2.72,1.52,2.49-1.47,5-2.92,7.58-4.25,16.79-8.7,34.3-16.1,49.37-27.87,4.83-3.77,10.75-5.9,15.4-9.89,8.34-7.15,16.56-14.42,24.76-21.74,7.8-7,15.61-13.94,21.7-22.57.83-1.18,1.92-2.32,1.38-3.93C695.62,138.8,693.56,132.84,691.3,126.26Zm46.44,233.52c-6.7,4.23-12.68,8.81-18.93,13a418.18,418.18,0,0,1-52.23,29.83c-15.28,7.4-30.2,15.54-45.8,22.28-2.13.92-2.27,2.09-1.93,4.05,1.08,6.12,2.11,12.25,2.91,18.41.28,2.15.86,2.33,2.69,1.57,9.37-3.91,19-7.09,28.25-11.4,6.29-2.95,6.28-2.84,5.87-9.64-.15-2.46-1-4.91-.38-7.39.24-1,.59-2.15,1.87-2.2s1.67,1.05,1.91,2.08c.46,2,1,4,1.27,6.09.89,5.86.72,5.54,6.25,3.3s10-6.22,15.27-8.83c10-4.94,19.93-10.11,28.4-17.64,6.27-5.57,12.29-11.41,19-16.52a9.51,9.51,0,0,0,3.48-6.43C736.48,373.53,737.05,366.65,737.74,359.78ZM355.55,551.93c3.13-.57,5.58-.88,8-1.48C381,546,398.59,542,416.31,538.61c16-3,32.06-5.91,48.35-6.26a348.54,348.54,0,0,1,63.12,4.4c12.58,2,25.24,3.61,37.29,8.08.62.23,1.38.7,1.95-.15.69-1,.18-2-.2-2.94-5.24-13.54-15.59-20.72-29.2-24.54-11.63-3.27-23.39-4-35.34-4.26-17.73-.41-35.1,1.79-52.4,5.46-11.3,2.39-22.13,6.3-33.23,9.36-16.89,4.66-33.62,9.82-49.61,17.11C363.16,546.65,359.23,548.47,355.55,551.93ZM314.24,491.6c.49.17.69.32.87.3,9.4-.95,18.83,0,28.2-.37s18.39,0,27.59.24c28.27.82,56.23,5.6,84.5,6.74,11.46.47,22.89,2.41,34.39,1,7-.84,14-2.27,18.29-8.94,2-3.13,2.59-6.7,3.49-10.3a10.38,10.38,0,0,0-1.89-.36c-15.44.18-30.64-3.08-46.12-3-25.94.14-51.93-1.59-77.83.5-21.72,1.76-43,6.33-64.2,11.48A21.61,21.61,0,0,0,314.24,491.6Zm7.77-5.8q17.87-3.41,35.8-6.24c10.64-1.7,21.25-3.58,32-4.3,19.22-1.3,38.47-.39,57.72-.37,13.55,0,27.11-.44,40.63.91,6.89.68,13.73,1.82,20.72,1.24,2.3-.19,2.4-1.07,2-2.87a17.84,17.84,0,0,0-7.23-10.52,56.1,56.1,0,0,0-33.58-11.48c-18.19-.13-36.4-.58-54.5,2.69-25.46,4.6-50.57,10.29-74.26,21.06C334.75,478.9,327.78,481.07,322,485.8ZM533.92,264.72a4.1,4.1,0,0,0-.68,3.75c3,14.67,2.91,29.5,1.48,44.25-1.69,17.46-1.62,35.17-7.16,52.17-4.08,12.52-6.2,25.55-8.65,38.48-3.57,18.88-6,37.76-3.65,57.07,1.25,10.08,3.07,19.48,11.92,25.88.56.4.92,1.29,1.78.93s.47-1.24.52-1.93c.24-3.72.23-7.48.81-11.14,2.53-16.06,5.45-32.05,7.83-48.13A420.22,420.22,0,0,0,542.33,367c.17-27.92,2.12-55.93-3.93-83.56C537.06,277.26,536.21,271,533.92,264.72ZM217.74,125.82c-.25,1.48.62,2.25,1.23,3,4.65,5.57,8.56,11.69,13,17.41,17.75,22.85,34.6,46.25,47.42,72.36,11.51,23.43,23,46.85,34.06,70.51,3.06,6.57,5.9,13.24,11.1,18.52.57.58.94,1.51,1.94,1.2.81-.25.9-1.11.94-1.82.5-9.18,1.79-18.41-1.08-27.44-4.79-15-10-29.88-16-44.5-8.32-20.32-20.42-38.15-35.11-54.23-15.31-16.75-31.22-32.94-48.89-47.29C223.41,131.13,220.69,128.47,217.74,125.82ZM724.32,237.31c-1.08-4.07-1.34-4.12-4.23-1.44-5.16,4.77-10.3,9.57-15.57,14.23-26.43,23.41-57,40.44-88.09,56.5-8.92,4.6-18.3,8.24-27.17,13-1.89,1-3.08,1.95-2.29,4.47a62.63,62.63,0,0,1,1.87,9.13c.33,2.26,1.06,2.7,3.21,1.7,7.61-3.54,15.34-6.81,23-10.34,7.8-3.62,16.31-5.63,23.78-9.9,19.83-11.34,40.93-20.35,59.75-33.55a198.34,198.34,0,0,0,26.83-22c1.57-1.57,2.45-3.26,2-5.55C726.29,248,725.29,242.52,724.32,237.31Zm6.75,40.87c-4.53,3.44-8.77,6.53-12.88,9.8-12.25,9.71-24.55,19.32-38.28,26.93-11.66,6.47-24,11.56-35.43,18.57-14.36,8.79-29.31,16.74-45.34,22.29-1.44.5-2.7,1-1.87,3.05,2.19,5.48,4.61,10.88,6.17,16.6.32,1.17.9,1.38,2,.86,5.57-2.53,11.36-4.61,16.72-7.51,16.25-8.82,32.69-17.36,48.37-27.12,15.08-9.39,29.47-19.91,43.66-30.66,6.29-4.77,12.45-9.6,17.37-15.84.7-.88,1.69-1.53,1.6-2.88A75.35,75.35,0,0,0,731.07,278.18ZM574.64,633.61c-12.39-6.88-57.25-16.51-89.06-18.52-21.83-1.38-80.28,5.62-90.52,11.08a152.47,152.47,0,0,1,15.28.31c14.25,1.44,28.4,3.3,41.85,8.61a234.1,234.1,0,0,0,29.6,9.43c2.81.69,5.65,1.38,8.58.56,15.07-4.25,30.29-7.66,46-8.52,6.09-.34,12.13-1.52,18.27-1.34C561.37,635.42,567.87,633,574.64,633.61ZM108.72,331.31c1.48.79,2.3.16,3.14,0,5.66-1.32,11.25-3,17-3.95,16.16-2.62,32.49-4,48.65-6.69s32.41-5.05,48.36-8.65c21.81-4.93,43.73-5.37,65.83-4.33,3.71.17,7.38,1,11.09,1.36.85.09,2.07.31,2.49-.74.34-.85-.6-1.46-1.08-2.11-3.64-5-9.15-7.39-14.22-10.33a66.52,66.52,0,0,0-41.22-9,11.86,11.86,0,0,0-6.56,2.61c-4.77,4-10.45,6.36-16.25,8.26-15.94,5.23-32.26,4.8-48.62,2.65-2.59-.34-4.78-.4-7.12.93-3,1.69-6.13,3-9.17,4.54-11.61,6-23.09,12.17-34.9,17.73C120.51,326.22,114.57,328.11,108.72,331.31ZM445.4,193.59c-.62.62-.83.74-.89.91-5.45,15.29-12.88,29.9-16,46-3.08,15.94-7.2,31.74-7.4,48.11-.17,13.65.26,27.32-.14,41-.39,12.77-.36,25.44,2.19,38a26.7,26.7,0,0,1,.54,8.62c-.22,1.75.15,3.86,2.16,4.77a4.9,4.9,0,0,0,5.71-1.23c2.47-2.41,3-5.63,3.31-8.84a122.8,122.8,0,0,0,.06-15.82c-.29-6.3-.81-12.6-.33-18.92,1.57-20.53,3.12-41.06,5.71-61.5,1.33-10.57,2.1-21.25,5-31.56,2.32-8.32,3.15-16.92,4.12-25.37C450.32,209.82,447.46,201.85,445.4,193.59ZM257.3,480.37c2.13.51,3.07-.49,4.09-1.1,3.2-1.92,6.32-4,9.5-5.91,19.08-11.71,39.4-21.09,59.24-31.36,16.28-8.42,32.09-17.77,49.14-24.64,16.24-6.54,32.33-13.63,49.91-16.09,1.57-.22,4.32,0,4.46-1.25.22-2-1.9-3.59-3.71-4.57-8.83-4.8-18.21-7.69-28.33-6.27-11.42,1.6-22,6.29-32.24,11.11a262.64,262.64,0,0,0-46.52,27.89c-6.68,5-14.33,8.72-20.75,14.16Q285.5,456.4,269,470.53C265.21,473.72,261.44,476.88,257.3,480.37Zm-47.24-33.22c.83-.56,1.71-1.06,2.49-1.69,15.56-12.52,31.54-24.46,48.1-35.64,16.94-11.43,34.84-21,53.28-29.82A304.57,304.57,0,0,1,343.54,368c11.47-4,23.63-6.18,35.74-8.05,1.32-.21,3.37.67,3.83-1.08.4-1.51-1.21-2.72-2.17-3.91a7.25,7.25,0,0,0-1.17-1c-7.41-5.89-16.14-8.05-25.3-8-7.63.05-15.41.58-21,7.08a8.5,8.5,0,0,1-2.07,1.35,194.21,194.21,0,0,1-47.1,20.7,16.86,16.86,0,0,0-5.75,3c-13.71,10.9-27,22.28-38.91,35.15C229.41,424.14,219.08,435,210.06,447.15ZM659.87,45.28c-3-5.45-6.19-10.75-10.79-15a2,2,0,0,0-3.26.14c-1.74,2.05-3.77,3.91-5.19,6.17a170,170,0,0,1-35.78,40.59,366.22,366.22,0,0,1-31.93,23.56c-2.6,1.73-5.34,3.73-5.75,7-.66,5.33-2.15,10.55-2.16,16,0,1-.38,2.3.51,2.9s1.88-.38,2.74-.92c20.61-12.85,41.74-24.93,60.31-40.78,4.95-4.23,10.55-7.89,14.8-12.73,6.15-7,10.87-15.12,16-22.94A5.05,5.05,0,0,0,659.87,45.28ZM531.2,266.45c-1.44-4.69-1.19-9.32-2.85-13.59-.34-.87-.88-1.81.27-2.45s1.9.21,2.5,1.11c.29.43.52.9.81,1.32,3,4.33,3.22,9.82,5.85,14.33.53.91.82,1.79,2,2.11,8.32,2.22,16.33,5.37,24.39,8.33,2.26.83,3.23.4,2.93-2.3-.76-6.79-1.29-13.6-1.94-20.4-.39-4.13-1.22-5-5.37-5.86a16,16,0,0,1-2.59-1c-4.31-1.76-8.51-3.86-12.93-5.24-12.77-4-25.23-8.77-37.54-14a175.62,175.62,0,0,1-35.17-20.35c-1.17-.86-2.25-1.85-3.94-1.72a5.25,5.25,0,0,0,.28,3.62c4.51,9.13,7.64,18.81,11,28.37a8.34,8.34,0,0,0,3.57,4.43A257,257,0,0,0,508,257.39,112.78,112.78,0,0,0,531.2,266.45ZM403.73,355.66a42.8,42.8,0,0,0,15.57,22.09c.62.48,1.34,1.19,2.2.62s.3-1.34.21-2c-.7-5.76-1.67-11.49-2.1-17.27-1.44-19.21-.29-38.47-.67-57.71-.47-24.23,4.57-47.74,10.24-71.1,3.21-13.21,9.34-25.45,13.75-38.28,1.37-4,.54-7.25-.45-10.8-.21-.75-.18-1.88-1.09-2.08-1.13-.25-1.46.94-1.94,1.67-4.71,7.2-9.45,14.37-13.7,21.87-12.11,21.39-20.58,44-22.69,68.66a4.78,4.78,0,0,0,.23,1.53c1.5,5.5,2.86,11,4.54,16.49,5.37,17.42,6.2,35,1.69,52.69-.6,2.34-1.46,4.7-3.34,6.2C403,350.73,402.64,353.59,403.73,355.66ZM169.89,402.15a13.56,13.56,0,0,0,1.82-.77c1.59-1.16,3.2-2.29,4.72-3.54,9.75-8.07,19.81-15.82,31.24-21.29,13.82-6.63,27.34-13.88,41.26-20.27a250.49,250.49,0,0,1,36.27-13.87c6.67-1.89,13.52-3.13,20.32-4.56a262.84,262.84,0,0,1,32.59-4.55c.87-.07,2,.53,2.55-.51s-.09-2.08-.67-2.89a9.69,9.69,0,0,0-2.41-2.37,62.11,62.11,0,0,0-22.26-10c-5.24-1.1-10.91-1.91-15.83.79-5.46,3-11.08,5.66-16.75,8.15-7.45,3.28-14.7,7.48-23,8.24-7.79.72-14.57,3.8-21.09,7.75-18.53,11.22-35,25-50.36,40.22C182.14,388.76,176.09,394.94,169.89,402.15Zm298-202.52a11.89,11.89,0,0,0,4.37,6.17c14,11.35,30.36,18.61,46.87,25.33,10,4.06,20.28,7.31,30.52,10.66,4,1.31,7.63,3.76,11.95,4.29,1.56.19,2.31,0,2.18-1.87-.42-6.4-.71-12.82-1-19.23a2.9,2.9,0,0,0-2.29-2.86c-10.76-3.73-21.53-7.46-32.21-11.43C515.44,206,503,200.48,491.51,193.12c-6.83-4.36-13.15-9.39-19.6-14.27-.82-.62-1.76-1.65-2.69-1.27s-.66,1.81-.73,2.78c-.35,4.75-.64,9.51-.95,14.26A12.73,12.73,0,0,0,467.85,199.63Zm-393,70.86a2.7,2.7,0,0,0,2.34,1.24c9.94.76,19.15,4.19,28.49,7.37,19.22,6.56,38.84,11.73,58.6,16.44,16.19,3.86,32.5,5.32,49,2.94,8.22-1.19,16.29-3.37,23.51-7.73,3.27-2,6.43-4.22,7.81-8.13.5-1.42.26-2.2-1.38-2.17-.82,0-1.65,0-2.47.09-16.91,1.86-33.78,2.5-50.76.25-21.66-2.87-43.18-6.62-64.83-9.51-15.64-2.09-31.32-3.15-47.08-1.94A4.42,4.42,0,0,0,74.8,270.49ZM476.72,150.67c-.06,1,.88,1.48,1.6,2,13.38,9.26,26.87,18.3,42.24,24.12A362.55,362.55,0,0,0,558.72,189c1.78.46,2.38.25,2.25-1.77q-.62-9.6-.88-19.23a3.05,3.05,0,0,0-2.32-3.2c-2.54-.87-5.09-1.76-7.62-2.66a194.8,194.8,0,0,1-37.4-17.49c-10-6.23-20.17-12.31-29.58-19.51-1.43-1.09-3.18-1.53-3.57.78-1.1,6.67-3.61,13-4.86,19.61-.13.72-.68,1.74.45,2.14C476.66,148.17,477.1,149.12,476.72,150.67Zm237.74,49.68c-.6-2.1-1.25-4.18-1.79-6.29s-1.42-1.74-2.53-.54c-1.9,2-3.73,4.16-5.64,6.2-7,7.5-15,13.93-22.72,20.72A117.34,117.34,0,0,1,665,233.15c-10.16,6.16-20.1,12.68-30.47,18.54-8.93,5.05-17.84,10.1-27.25,14.14-8.66,3.73-17.46,7.11-25.5,12.1-1.19.73-2.62,1.24-2.36,3.21.49,3.8.8,7.62,1.2,11.44.25,2.48,1.43,2.75,3.5,1.62,5-2.72,9.9-5.71,15.12-7.93,19.23-8.2,37-19,54.7-30,19.63-12.23,37.9-26.35,55.8-41C717.06,209.33,717.07,209.34,714.46,200.35Zm-153.17-6.3c-.26-1.1-1.17-1.33-2.07-1.62-7.1-2.27-14.16-4.68-21.29-6.84-14.33-4.32-28.29-9.48-40.95-17.65-6.52-4.22-13-8.49-19.52-12.71-.73-.48-1.61-1.88-2.4-.09-2.25,5.1-4.75,10.14-4.95,15.89a2.88,2.88,0,0,0,.64,2.3c1.77,1.88,3.32,4,5.34,5.6,8,6.11,16,12.24,24.86,17a245.63,245.63,0,0,0,59.5,22.22c2,.47,2-.21,1.9-1.78-.37-6.82-.62-13.64-.93-20.46C561.4,195.28,561.33,194.67,561.29,194.05Zm-374.6,56.56c-6.75-2.24-13.25-5.24-20.29-6-19.87-2.13-39.62-5.05-59.31-8.34-15.11-2.53-30.16-5.51-45.43-6.87-11.44-1-22.91-1.7-34.3-3.27-3-.41-6-1.33-9.26-.75.93,1.19,2.17,1.14,3.22,1.44,5.27,1.52,10.57,2.89,15.61,5.18,11.89,5.41,23.73,10.93,35.81,15.87A148.28,148.28,0,0,0,128.17,259c11.32.09,22.48-1.58,33.68-2.92A138.08,138.08,0,0,0,186.69,250.61Zm541.63,9.28c-3.27,3.18-6.13,6.14-9.17,8.91-9.45,8.61-20.44,15.14-30.91,22.36-7.17,4.93-15.45,7.9-23,12.19-15.41,8.75-31,17-47.68,23.24-8.43,3.15-16.68,6.83-24.8,10.76-2,1-2.53,2-1.7,4.08,1.37,3.47,2.57,7,3.62,10.59.59,2,1.39,2.29,3.31,1.54,7-2.72,13.75-5.78,20.49-9,18.5-8.79,35.68-20,54.23-28.8,11.21-5.31,22.17-11.6,31.58-20.08a158.79,158.79,0,0,1,13-10.09A77,77,0,0,0,728,276.19c1.13-1.19,2.55-2.39,2.3-4.22C729.78,268.09,729.05,264.24,728.32,259.89Zm-20.45-82.16-3.89,3.6c-5.08,4.72-9.42,10.25-15.11,14.3-15.45,11-31.48,21.09-47.55,31.14-5.35,3.35-10.09,7.59-15.79,10.44-14.35,7.17-28.87,14-42.86,21.9-3.9,2.2-6.23,4.51-4.42,9.25A17.06,17.06,0,0,1,579,273c.16,1.78.92,2.17,2.45,1.33,8.93-4.9,18.69-7.9,28-12a254.57,254.57,0,0,0,28.66-15.49c14.78-8.95,30-17.19,43.08-28.68,9.84-8.6,19.66-17.17,28-27.3.83-1,2-1.84,1.51-3.48C709.71,184.28,708.87,181.21,707.87,177.73Zm-467.8,89.06c-28.92-45.5-65.59-83.15-104.33-119.32a2.14,2.14,0,0,0,.67,2c5.18,7.48,10.7,14.77,15.18,22.7,9,15.84,17.63,31.83,28.13,46.79,13.21,18.83,27.82,35.86,49.74,45A36.59,36.59,0,0,0,240.07,266.79Zm-170.55,1c.72.33.91.49,1.09.49a15.56,15.56,0,0,0,2.16-.12c18.85-3,37.61-1.19,56.29,1.46,16,2.26,31.83,5.2,47.79,7.56,20.83,3.09,41.57,4.27,62.45,1.27,1.55-.23,4,.5,4.4-1.25.43-2-2-2.84-3.56-3.8-10.77-6.87-22.93-10.1-35.24-12.46-16-3.06-32.2-4.61-48.47-1.91A170.86,170.86,0,0,1,110,260.38a5.13,5.13,0,0,0-2.14,0c-6.59,2.49-13.65,2.29-20.44,3.61C81.59,265.15,75.57,265.59,69.52,267.8Zm70.75-119.1c.48.51.94,1,1.44,1.53C155.62,164.14,170,177.58,183.45,192c12.54,13.39,24.39,27.36,35.82,41.71,8,10.06,15,20.79,22.32,31.37,1.95,2.84,3.56,2.78,5.72.07a5.58,5.58,0,0,0,1.15-4.37,50.82,50.82,0,0,0-3.84-14.07,142.42,142.42,0,0,0-19.3-32.84c-9-11.31-18.64-21.89-30-30.91-7.5-5.94-15.91-10.48-23.5-16.27A124.47,124.47,0,0,0,140.27,148.7Zm50.3,100c-1.72-2.41-3.33-4.4-5.57-5.7-10.58-6.12-21-12.45-32.46-17a124.3,124.3,0,0,0-24.14-7c-16.24-2.85-32.62-1.94-48.92-.78-15.89,1.12-31.64,4.14-47.67,3.76A17.6,17.6,0,0,0,24,223.19a28.61,28.61,0,0,0,3.21,1c4,.64,8,1.35,12,1.79,14.82,1.61,29.74,2.32,44.42,5C108,235.37,132.47,238.63,157,242c7.68,1.07,15.34,1.68,22.76,4.12C183.09,247.26,186.46,248.61,190.57,248.68ZM489.48,98.8c-1.26.5-1.47,1.56-1.8,2.53-1.52,4.41-3,8.84-4.53,13.23-1.5,4.17-1,6.11,2.37,9,5.06,4.31,10.92,7.49,16.29,11.36a174.7,174.7,0,0,0,55.36,26.86c2,.56,2.72.53,2.57-1.88a129.16,129.16,0,0,1-.24-13.63c.11-2.37-.58-3.54-2.7-4.49C543.93,136,532,128.48,520.21,120.86c-9.69-6.25-18.58-13.54-27.6-20.67C491.64,99.42,490.77,98.47,489.48,98.8Zm79.63.14c2.6-.78,4.12-2.6,6-3.79,22.06-13.53,41.93-29.54,57.16-50.77,3.67-5.13,7.37-10.23,11-15.36,1.32-1.84,1.57-3.66-.52-5.13q-5.85-4.11-11.77-8.1c-1.31-.87-2.4-.71-3.32.85-2.38,4-4.94,7.91-7.38,11.88a117.66,117.66,0,0,1-16.56,20.9C595,58.34,585.48,66.51,576.23,75c-2.52,2.3-5,4.79-5.44,8.1-.63,4.6-2,9.11-1.9,13.8C568.91,97.46,569,98.06,569.11,98.94ZM734,389.54a24.5,24.5,0,0,0-5.8,4,189.76,189.76,0,0,1-32.47,24.86c-9.43,5.62-19.24,10.55-29,15.51-1.61.82-2,1.53-1.65,3.29a145.37,145.37,0,0,0,4.21,14.95c.73,2.25,1.55,2,2.94.74a15.6,15.6,0,0,1,5-3.05,100.85,100.85,0,0,0,13.25-6.08c5.94-3.2,10.91-7.92,16.94-10.92A43.32,43.32,0,0,0,722,421.49c2.8-3.43,7.05-6.14,8.19-10.38A108.49,108.49,0,0,0,734,389.54Zm-284.42,6.84c1.74-6.05,1-11.82-.36-17.63-3.45-14.46-2.56-29.26-2.86-43.92-.21-10.83,1.46-21.68,1.69-32.53.4-19.47,2.73-38.82,3.22-58.28.05-2.27,0-4.55-.08-6.83s-.25-4.48-.39-6.72c-3.68,14.13-6.85,28.25-8.37,42.71-3.1,29.41-7.84,58.7-5.28,88.47.48,5.69.31,11.67-2.15,17.1-1.05,2.3-.69,3.78,1.12,5.37C440.62,388.1,445,392.2,449.59,396.38Zm109.68-275c-1.33-2.82-4.23-3.69-6.81-4.93-13.88-6.65-27.3-14-39.06-24.1q-7.08-6.06-14.06-12.26c-1.82-1.63-2.73-1.46-3.24,1a29.68,29.68,0,0,1-2.86,7.54c-2.85,5.52-2.7,6.58,2.11,10.53,7.29,6,14.74,11.77,22.56,17.06,11.34,7.68,22.74,15.28,35.3,20.88,6,2.69,6.34,2.33,6.17-4.16C559.28,129.19,559.3,125.37,559.27,121.42Zm.87-24.82c-.43-1.62-.94-2.18-2.8-2.9C541.93,87.75,529,78,516.87,67.11c-1.92-1.73-3.9-3.4-5.82-5.14-1.37-1.24-2.52-1.27-4,.05-3.17,2.86-5,6.56-7,10.2a4.24,4.24,0,0,0,.36,4.87c2,3.12,5.18,5,7.74,7.57,14.08,13.94,31.19,23.08,49.16,30.83,1.73.75,2.76.51,2.64-1.77a81.78,81.78,0,0,1,.23-15.8A5.71,5.71,0,0,0,560.14,96.6Zm66-82.77a4.4,4.4,0,0,0-2.21-2.3,66.28,66.28,0,0,0-9.48-3.9c-4.76-1.77-5.44-1.49-7.83,3a135.77,135.77,0,0,1-15,21.69c-4.91,6-10.56,11.4-15.92,17a12.75,12.75,0,0,0-3.82,8.61c-.11,4-.13,8.06-.14,12.09,0,1.18-.69,2.8.74,3.35,1.26.49,2.21-.9,3.1-1.68,7.66-6.66,15.37-13.26,22.87-20.1,11.31-10.33,19.18-23.3,27.16-36.16A6.45,6.45,0,0,0,626.13,13.83ZM481.43,245.16c2.73,10.76,6.32,21.15,8.87,31.83.3,1.22,1.3,1.54,2.2,2,3.88,2,7.75,4,11.69,5.82a250.15,250.15,0,0,0,27,11.09c2,.69,2.52.19,2.49-1.8-.1-7.57-.65-15.1-1.47-22.62a3,3,0,0,0-2.49-2.92,166.34,166.34,0,0,1-28.55-12.11C494.49,253,487.67,249.69,481.43,245.16ZM395.39,446c-1.26.43-2.54.85-3.79,1.31a271.07,271.07,0,0,1-46.47,12.72c-8.82,1.58-17.55,2.66-25.16,8.68-8.05,6.37-15.88,12.9-23.49,19.78-10.89,9.86-20.92,20.71-33.05,29.17-.51.36-1.08.64-.93,1.47.89.42,1.61-.2,2.27-.55q17.67-9.42,35.29-18.93a17.15,17.15,0,0,0,2.58-1.74c.79-.63,1-1.15-.23-1.74-2.34-1.15-2.38-2.14-.08-3.38,2.64-1.42,5.43-2.56,8.13-3.87,7.19-3.47,13.76-8,20.89-11.65,8.61-4.38,17.95-6.91,26.57-11.31C370.54,459.56,382.58,452,395.39,446ZM582,394.74c.81-6.38,1.53-12.73,2.35-19.08a68.65,68.65,0,0,0,.42-17.65c-1.72-13.05-4-26-5-39.15-2.12-26.53-4.16-53.07-7.11-79.52-2.15-19.25-4.93-38.43-7.5-57.63-.35-2.62-.38-5.36-1.78-7.77,0,5.9.28,11.76.55,17.62.85,18.2,1.4,36.42,2.7,54.59.85,11.87,3.29,23.62,4.14,35.49,2.09,29.13,5.38,58.14,7.75,87.24A182.6,182.6,0,0,0,582,394.74ZM728.5,419.9c-1.74-.18-2.4,1-3.07,1.74-4.68,5.54-10.61,9.37-16.74,13.15-9.59,5.92-18.81,12.46-29.3,16.8a29.07,29.07,0,0,0-6.64,4c-1.3,1-1.83,1.93-1.21,3.64,1.63,4.48,3.13,9,4.54,13.56.53,1.72,1.18,1.67,2.64,1,6.94-3.11,12.81-7.94,19.17-11.95s11.87-9,17.81-13.49c4.85-3.67,8.55-7.9,9.47-14.3C725.86,429.29,727.35,424.67,728.5,419.9ZM559.87,75.6c-.18-1.33-1.38-1.73-2.25-2.41-7.23-5.72-16-9.23-22.67-15.76-4.37-4.27-8.84-8.42-13.18-12.7-1.87-1.85-3.31-2.29-4.75.44-1.36,2.56-3,5-4.42,7.49C510,57.2,510,57.32,513.74,61l.91.86C522.92,70,532.31,76.57,541.86,83c4.5,3,9.46,5.14,14.29,7.5,1.07.52,3.16,1.48,3.36-.35C560,85.33,560.78,80.47,559.87,75.6Zm-187.68,386a4.78,4.78,0,0,0,3.22-.08,182,182,0,0,1,18.09-4.55c12.9-2.5,25.63-6.36,38.86-6.45,8.17-.06,14.43-2.84,19.17-9.36,3.24-4.44,6.68-8.77,6.89-14.63.08-2.28-.26-3.17-2.95-2-7.36,3.33-14.94,6.15-22.33,9.4-14,6.17-28.86,10.41-42.53,17.4C384.47,454.48,377.87,456.84,372.19,461.57Zm119.37-180c1.8,8.63,3.49,16.74,5.19,24.86a3,3,0,0,0,1.86,2.6c10.52,4.1,21,8.29,31.52,12.42,1,.41,1.84.55,2-1.14.67-6.28,1.33-12.55,1.48-18.88.05-2-.67-2.69-2.35-3.3-7.7-2.76-15.42-5.51-22.89-8.88C502.94,286.83,497.51,284.33,491.56,281.61Zm167.36,156c-11.59,5.78-23.3,9.91-34.77,14.61-1.44.59-1.68,1.52-1.62,2.91.25,5.47.41,10.95.6,16.43.06,1.78-.33,3.61.24,5.61,1.69-.64,3.18-1.08,4.57-1.73,9.46-4.44,18.49-9.8,28.39-13.26,2.57-.9,3.39-2.26,3.07-5A101.62,101.62,0,0,1,658.92,437.58ZM561,54.81a7.29,7.29,0,0,0-3.32-4.41,35.25,35.25,0,0,1-6.51-4.75A166.62,166.62,0,0,1,534.8,27.79c-1.63-2-3-2-4.91-.46-3.21,2.5-4.9,6.11-7.39,9.12-1.65,2-1.42,3.28,0,5,4.8,5.75,10.61,10.47,15.94,15.67,5.88,5.75,13.73,8.48,20.33,13.13,2,1.44,2.68-.45,2.67-1.89C561.44,63.73,561.16,59.09,561,54.81ZM360,495.12l-.36-1.07a5.61,5.61,0,0,0-1.19-.25c-11.89-.1-23.79-.33-35.68-.18-4.72.06-9.88-.09-13.86,2.79-10.8,7.82-22.82,13.39-34.53,19.55-2.86,1.51-5.62,3.19-8.43,4.79l.48,1.11C298.16,514.69,329,504.71,360,495.12Zm296.67-7.85c-4,2-7.38,3.8-10.9,5.3-7.15,3.06-14.36,6-21.59,8.85a4.92,4.92,0,0,0-3.48,4.42c-.82,5.29.58,10.3,1.11,15.43.23,2.25,1.63,1.92,2.85,1.13a25.73,25.73,0,0,1,6.89-3.54c8-2.21,14.81-6.83,21.94-10.81a3.56,3.56,0,0,0,2.07-2.48c1.24-5.58,1.57-11.28,2.14-16.94C657.88,487.25,657.38,486.88,656.71,487.27ZM621.28,498.7a170,170,0,0,0,35.84-14.45,2,2,0,0,0,1.21-1.93c.32-6.17.69-12.34,1-18.78a15.91,15.91,0,0,0-1.63.47c-11.37,5-22.09,11.33-33.62,16a2,2,0,0,0-1.4,2.06C622.29,487.49,621.79,492.93,621.28,498.7Zm61-5.36c6.63-4.48,13.74-6.55,19-11.88s11-10.39,16.48-15.6c.66-.62,1.55-1.46,1.58-2.23a72.47,72.47,0,0,1,2.28-14.76c-3.17.89-3.15.92-5.8,3.07a229.32,229.32,0,0,1-36.25,24.4c-1.36.73-1.82,1.36-1.37,2.86C679.52,483.75,680.79,488.34,682.23,493.34Zm-109.68-448c.11,1.55.85,1.82,2.38.46A145.23,145.23,0,0,0,585.63,35a117.25,117.25,0,0,0,19-27.44c.86-1.74.82-2.38-1.26-2.84-5.7-1.29-11.5-1.24-17.27-1.56-1-.06-2.4.26-2.34,1.51.18,4.4-2.55,7.56-4.53,11-3.87,6.69-8,13.15-6.67,21.52C573,39.65,572,42.29,572.55,45.34ZM539.9,271.9A236.59,236.59,0,0,1,549.65,301c.42,1.51,1.55,1.78,2.7,2.21a127,127,0,0,1,15.11,6.53c2,1.06,2.08.09,2-1.41-.4-7.85-.8-15.7-1.25-23.56a4.49,4.49,0,0,0-3.49-4.25c-3.63-1.21-7.23-2.55-10.85-3.81C549.41,275.18,544.94,273.65,539.9,271.9Zm-42.09,39.37c.67,5.66,1.32,11,1.92,16.32a2.81,2.81,0,0,0,1.7,2.67c8.73,3.79,17.5,7.5,26.42,10.81,1.2.44,1.87.4,2-1.19.43-4.42.92-8.84,1.6-13.23.31-2-.54-2.65-2.21-3.26-6.51-2.4-12.93-5-19.43-7.39C505.87,314.56,502.22,312.32,497.81,311.27Zm2.41,20.85c.61,7.39,1.2,14.28,1.75,21.17a1.93,1.93,0,0,0,1.47,1.75c6.75,2.63,13.48,5.28,20.23,7.9.75.3,1.66.74,1.89-.58,1-5.7,3.3-11.11,3.84-16.92a1.73,1.73,0,0,0-1.34-2C519,339.74,509.88,336,500.22,332.12Zm40.15,233.15a540.06,540.06,0,0,0,51.49,24.12,286.8,286.8,0,0,0-19.12-27.45c-1.85-2.34-5.1-2.58-7.71-3.78-.65-.3-1.17.26-1.58.74-1.5,1.75-3.62,2.34-5.68,3A74.81,74.81,0,0,1,540.37,565.27ZM615.5,667.21a43.8,43.8,0,0,1-12,11c-1.22.75-1.19,1.81-1.24,2.94-.21,4.85.2,9.84-.79,14.53-1.91,9.06,1.14,17.44,2.49,26.06.14.9.37,1.84,1.56,2.06,2.78.51,6-2.14,6.15-5,.65-10.61,1.27-21.23,2.08-31.83C614.21,680.71,615.39,674.51,615.5,667.21ZM563.92,30.54a6.34,6.34,0,0,0-2.23-3.35,58,58,0,0,1-10.14-11.3c-2-2.85-2.86-3-5.77-.86-2.51,1.82-4.88,3.84-7.44,5.59-2.1,1.42-2.56,2.87-1.33,5.21,2,3.74,5.14,6.48,7.79,9.64a61.89,61.89,0,0,0,13.32,12.06c3,1.93,3.09,1.93,3.77-1.66C562.7,41.6,563.35,37.3,564,33A12.71,12.71,0,0,0,563.92,30.54ZM619.39,523.4c-1,.52-.91,1.32-1,2-1.42,7.64-2.92,15.25-5.69,22.54a16.34,16.34,0,0,0-.91,7.89c1.23,10.57,3.66,21.15,2,31.8-1.27,8.16,3.74,14,6.3,20.85C620.56,580.12,622.54,551.8,619.39,523.4Zm34.79-12.16c-6.08,2.49-11,6.27-16.78,8.27A66.12,66.12,0,0,0,624.69,526a3.72,3.72,0,0,0-2.09,3.8c.33,3.61.48,7.23.75,10.84.22,3,.76,3.24,3.46,1.92,7-3.41,13.89-7,21.15-9.76a2.86,2.86,0,0,0,2.13-2C651.7,524.48,653.48,518.22,654.18,511.24ZM541.31,569.3a1.44,1.44,0,0,0,.32,1.73c6.48,9.41,16,15.44,24.79,22.31a3.66,3.66,0,0,0,1.46.49c12,2.52,23.56,6,33.65,13.57a52.28,52.28,0,0,0-4.81-10.26,10.08,10.08,0,0,0-5.14-4.55c-11.25-5-22.43-10.19-33.6-15.36C552.4,574.65,546.87,572,541.31,569.3Zm89.54,137.24c3.59.3,7.18.53,10.77.91,2.53.27,2.88-.67,2.33-3-1.82-7.66-3.6-15.34-5.09-23.06-1.38-7.12-2.21-14.34-4.42-21.28a8,8,0,0,0-3.16-4.33c-1.94-1.42-4.62-1.75-6-4.17-.61-1.1-1.41-.16-1.71.68a6.3,6.3,0,0,0,.09,4c.95,3.29,2.12,6.51,3,9.83C630,679.38,635.17,692.48,630.85,706.54Zm-145-283.7c2.7,2,5.61,2.88,8.21,4.36,5.06,2.89,10.53,5.05,15.78,7.63,1.65.81,2.07.5,2.23-1.29.54-6.08,1.19-12.14,1.91-18.2a1.9,1.9,0,0,0-1.37-2.32c-4.89-2.24-9.78-4.49-14.6-6.88-1.55-.77-2.11-.46-2.59,1.12A33.9,33.9,0,0,1,485.82,422.84Zm230.62,47.91c-7.07,9.17-16.92,14.93-26.44,21.1-6.67,4.33-6.7,4.29-5,11.86.11.5.21,1,.3,1.52,1,5.65,1.12,5.87,5.6,2.5,6.42-4.82,12.6-10,18.82-15.07,1.41-1.15,3.32-2,3.81-4,1.36-5.3,2.56-10.64,3.78-16A1.84,1.84,0,0,0,716.44,470.75ZM502.27,357.11a174.77,174.77,0,0,1-.42,21.88,2,2,0,0,0,1.46,2.31q7,3,13.86,6.22c1.46.68,2.1.58,2.46-1.24a163.07,163.07,0,0,1,4.69-18.62c.57-1.75,0-2.38-1.55-2.93C516.07,362.29,509.4,359.77,502.27,357.11Zm68.81,127.74c-.11-.57-.75-.76-1.3-1-4.1-1.75-8.23-3.41-12.28-5.25-1.36-.62-1.79-.14-2.3,1a28.63,28.63,0,0,1-8,10.6c-.55.45-1.4,1.05-.93,1.76,1.74,2.64,3,5.83,6.11,7.18,5,2.17,10.2,4,15.24,6.15,1.69.72,2.21.3,2.33-1.36.23-3.41.55-6.8.75-10.21C570.93,490.81,571,487.91,571.08,484.85ZM407.89,441l.3.82c4-1.62,8-3.27,12-4.87,11.63-4.63,23.51-8.66,34.44-14.89,3-1.73,3.39-2.82.83-5.32-3.84-3.75-8.8-3.7-13.68-3.41a7.45,7.45,0,0,0-6.42,4.27c-2.06,3.92-5.21,6.9-8.45,9.83A99.84,99.84,0,0,1,407.89,441Zm134,74.23c-9.28-9.53-17.91-19.12-27.16-28.13-1.56-1.52-2-.5-2.52.77-2,4.65-4.29,9-9.83,11C514.92,506.16,527,513.24,541.85,515.21ZM501.51,382.86c-.88,6.58-2.77,12.38-4.31,18.27-.29,1.11-.68,2,.87,2.71,5,2.19,10,4.54,14.93,6.88,1.28.6,1.76.36,2-1.08,1.09-5.79,2.24-11.56,3.49-17.31.32-1.47-.25-2.05-1.45-2.57C512,387.53,506.89,385.25,501.51,382.86ZM551,305.36c2,8.25,3.84,16,5.67,23.73a2.44,2.44,0,0,0,1.71,2c4,1.38,8,2.84,12,4.26,1.77.63,2.43.13,2.17-1.85-.64-4.81-1.31-9.64-1.59-14.48-.19-3.38-1.27-5.61-4.73-6.53a19.19,19.19,0,0,1-3.83-2A55.85,55.85,0,0,0,551,305.36Zm97.38,230.71a79.78,79.78,0,0,0-23.09,11.57,3.26,3.26,0,0,0-1.4,2.93c0,4.13-.09,8.25-.06,12.38,0,1.7.36,2.91,2.57,1.58,4.25-2.55,8.62-4.89,13-7.3a2.86,2.86,0,0,0,1.56-1.42C643.35,549.38,645.78,542.94,648.38,536.07ZM512.22,456a96.9,96.9,0,0,1-.56-16.26,2.21,2.21,0,0,0-1.51-2.38c-8.39-3.82-16.74-7.72-24.78-12.23-1.4-.78-2.67-.73-3.62.44-1.1,1.37.51,2,1.15,2.71,6.53,7.64,13.93,14.45,20.68,21.87A25.09,25.09,0,0,0,512.22,456Zm51.28-76.64c.6,7.9,1.15,15,1.66,22.15.06.89.19,1.6,1.14,2A94.25,94.25,0,0,1,578.45,409c1.45.82,2.11,0,2.22-1.39a11.28,11.28,0,0,0,.05-2.78c-.92-5.42-1.93-10.82-2.88-16.23a3.59,3.59,0,0,0-1.56-2.57C572.38,383.52,568.1,381.75,563.5,379.38ZM563,115.7c6.29-28.34,6.51-56.49,6.4-85.24a5.77,5.77,0,0,0-2.63,5.32,14.39,14.39,0,0,1-.42,4.3,77.1,77.1,0,0,0-1.59,27.41,6.46,6.46,0,0,1-.29,3.05,40.68,40.68,0,0,0-1.91,14.07c.07,7.33.62,14.66-.22,22A22.65,22.65,0,0,0,563,115.7ZM710.71,496.28a6.29,6.29,0,0,0-3.08,1.7c-6.38,5.11-12.6,10.42-19.65,14.64-.59.35-1.3.66-1.14,1.63a123.35,123.35,0,0,0,2.66,13.88C700.3,519.65,710.21,511,710.71,496.28ZM562.57,456.33c-.86.35-.86,1-1,1.59-1.43,5.41-2.8,10.83-4.34,16.2-.41,1.45.22,1.77,1.3,2.2,3.84,1.55,7.68,3.1,11.46,4.79,1.88.85,1.85-.33,1.95-1.51.29-3.71.57-7.43.85-11.14.21-2.87,1.72-6.29.27-8.46s-5.27-1.83-7.95-2.89C564.23,456.78,563.33,456.56,562.57,456.33ZM575.38,364a3.55,3.55,0,0,0-1.8-2.87q-5.73-2.79-11.55-5.38c-1.86-.82-1.52.58-1.39,1.6.71,5.65,1.53,11.3,2.12,17a3,3,0,0,0,2.33,2.82c2.32.89,4.54,2,6.83,3,1.54.67,2.94,2.86,4.56,1.78,1.32-.87-.17-2.87-.18-4.39q0-.78-.06-1.56C575.94,371.82,575.64,367.69,575.38,364Zm-10,42.13c.8,7.47,0,14.36,0,21.25,0,1.63.26,2.71,2.13,3.11,2.42.51,4.78,1.28,7.15,2,1.42.44,2.24.4,2.46-1.45.69-5.53,1.57-11,2.36-16.56.11-.79.27-1.54-.81-2C574.34,410.46,570.09,408.37,565.36,406.11ZM455.09,443.4c.84,3.08,5.25,6.07,8.91,6.27,5.35.28,10.77-.31,16,1.48.61.21,1.38.29,1.59-.43s-.6-1.18-1.16-1.63c-5.8-4.71-10.84-10.2-16.13-15.44a10.11,10.11,0,0,0-2.21-1.65c-1-.58-1.69-.42-2.16.74a40.89,40.89,0,0,1-4.53,8.12A2.49,2.49,0,0,0,455.09,443.4Zm102.8-109.57c1.24,5.66,1.42,10.64,2,15.58.11,1-.19,2.4,1,2.76,3.79,1.18,7,3.54,10.78,4.78,1.8.6,3,.42,2.72-2.06-.35-3.5-.49-7-.57-10.54-.07-3-.31-5.61-4.29-5.48-.45,0-.9-.49-1.37-.7Zm-76.49,169c2.7,5.71,6.31,9.12,12.76,7.69a11.49,11.49,0,0,1,2.48,0l19.53.16-16.12-9.95a2.18,2.18,0,0,0-1.79-.21A77.55,77.55,0,0,1,481.4,502.78ZM573,456.09c1.07,0,.94-.68,1-1.13.75-5.83,1.47-11.67,2.25-17.49a1.8,1.8,0,0,0-1.52-2.25c-2.48-.71-5-1.36-7.4-2.27-1.78-.67-2-.15-2.1,1.56a67.52,67.52,0,0,1-1.83,14.4c-.88,3.19-.24,4.64,3.05,5.22A53.21,53.21,0,0,1,573,456.09Zm-102.59-297c-.46,0-.76-.08-.84,0-5.64,6.74-11.56,13.24-16.79,20.31a1.89,1.89,0,0,0-.24,2.06c2,3.41,4,6.79,6.34,10.68C463,180.83,467.05,170.14,470.41,159.13ZM571,4.67c-5.66.66-10.27,3-15,4.94-3.06,1.26-3.33,2.2-1.73,5.15,2.11,3.88,5.34,6.83,8.45,9.85,1.52,1.48,2.54.86,3-1.05C567.37,17.39,568.34,11.05,571,4.67ZM638.63,561c-14.12,6.57-15.4,8.56-15,22.82,0,1.41-.46,3.4.84,4,1.7.78,3.25-.88,4.68-1.81.58-.38.84-1.37,1.1-2.14,1.29-3.82,2.41-7.68,4-11.4S637,565.19,638.63,561Zm-276-217.54A108.17,108.17,0,0,0,344,332a33.27,33.27,0,0,1-2.53,12.86C348.84,342.85,355.71,343.36,362.63,343.46ZM568.87,523c1.52-5,.4-9.39.38-13.78a1.29,1.29,0,0,0-.62-1,92.29,92.29,0,0,0-13.77-5.48ZM465.76,159.13c-6,4.61-12.46,6.76-18,10.58-1.9,1.31-2.18,2.6-.85,4.36.75,1,1.55,2,2.27,3,.89,1.26,1.46.9,2.34-.14,3.34-3.95,6.84-7.78,10.19-11.73C463.06,163.55,464.71,162.09,465.76,159.13ZM691.14,540c5.91-4.6,10.6-12.34,10.66-18.22-2.38,2.14-4.42,4.6-7,6.16-4.72,2.87-5.36,6.74-3.91,11.5A6.09,6.09,0,0,0,691.14,540ZM573.52,19.68c3-4.76,6-8.63,7.48-13.4.22-.71.77-1.52-.26-2.16C579,3,575,3.93,573.86,5.78,571.27,10.09,572.57,14.48,573.52,19.68ZM602.11,572c3.75,5.48,5.6,11.07,8.78,16.5C612.92,578.06,611,574.23,602.11,572Zm-339.7-288.2c-3.74-2.06-7.39-4.1-11.56-5a2.46,2.46,0,0,0-3.09,1.84,32.83,32.83,0,0,0-.85,3.82C252.19,283.43,257.28,284.35,262.41,283.81Zm-62.86-26.42c-6-5.19-11.84-5-19-1.72Zm264.94-54.62c0-6.49-.21-12.93.5-19.39-1.21,2.68-1.73,5.62-3.13,8.07C459.11,196.27,462.85,199.18,464.49,202.77ZM604,569.05a11.45,11.45,0,0,0,4.8,1.89c1.48.34,2-.22,1.94-1.75a58.89,58.89,0,0,0-1.2-9.5C608,563.25,606.62,566.37,604,569.05Zm23.49,22.47c-4.26.66-5.56,4.42-3.83,11.33C625.07,598.88,626.76,595.4,627.53,591.52ZM452.09,447.9c-.37-.47-.12-2-1.32-1.34-1,.51-2.41,1.33-2.15,2.65s1.67.82,2.62.77C452.68,449.9,452.4,448.91,452.09,447.9ZM312.24,314.12c-.79-.69-1.5-1.41-2.3-2a1.43,1.43,0,0,0-2,.14c-.43.42-1,.9-.78,1.54.3.79,1.21.79,1.88.78C310.05,314.58,311.12,315.06,312.24,314.12Z"/></g></g></g></svg>