<svg xmlns="http://www.w3.org/2000/svg" viewBox="0 0 221.8 449.8"><defs><style>.cls-1{fill:#a77969;opacity:0.2;}</style></defs><g id="Layer_2" data-name="Layer 2"><g id="Layer_1-2" data-name="Layer 1"><path class="cls-1" d="M97.33,63.4C92,53.68,86.37,43.08,92,32a78.79,78.79,0,0,1,24.2-28.11A18.71,18.71,0,0,1,125.37.68c8.72-1,17.21-1.08,25.89,1.11C162.8,4.69,163,4.27,160.2,15.35c-4,16-.32,31.55,1.74,47.48,5.87-12.21,13.29-23.28,19.58-35,1-1.93.39-5.43,3.54-5.37s3.92,3,4.62,5.54c2.7,9.76,5.75,19.44,8,29.31,6.57,29.12,12.32,58.44,20.74,87.12a103.61,103.61,0,0,1,3.15,13.75c1,6.49-.85,12.48-6.09,16.47-14.37,10.94-27.73,23.64-46.23,27.77-1.43.32-3.29.33-4.16,2.09,12.84,5.4,40.39-1,50.47-11.54,1.12-1.17,1.91-4,4.3-2.14,1.92,1.47,1.56,3.22.37,5.53-3.61,7-5,14.61-6.35,22.3-3.49,19.7-7,39.4-11.1,59-2.89,13.93-9.54,16.31-21.82,8.64-.4-.25-.73-.61-1.14-.83-10.44-5.56-20.88-11.1-33-17.54,1.13,3.07,1.26,4.32,1.94,5.11,8.29,9.58,15.5,20.13,25.45,28.21,2.42,2,5,3.81,8.06,4.23,6.46.91,6.72,3.77,4.29,9.13-14.13,31.24-30.88,60.83-53,87.24a39.13,39.13,0,0,1-23.81,14c-10.62,1.93-21.17.54-31.63-1-29.4-4.37-23.38-5-41.15,15.18-6.22,7.08-12.84,13.86-21.25,18.43-5.51,3-8.73.87-8.29-5.3A16.78,16.78,0,0,1,12,433.06c7.05-7.9,13.93-15.95,20.89-23.92,4.53-5.19,4.56-9.85.28-15.73C27.28,385.27,19.7,379,12.55,372.23-.62,359.7-3.29,350.32,3.92,333.92c10.36-23.55,18.37-47.86,26.32-72.27,8.85-27.15,15.19-54.94,22.44-82.5A77.36,77.36,0,0,0,55.3,154c8.16,8.1,35.33,19.29,42.93,18-9.35-7.18-14.74-17.1-22.23-25-14.19-15-10.91-33.23-9.39-50.09C67.52,86.79,72.71,76.31,76,66c1.55-4.92,3.85-5.37,7.23-1.24,8.65,10.58,20,17.61,32.21,23.69C107.93,81.1,102.3,72.4,97.33,63.4Zm-21.21,77c8.89,12.49,17.09,25.49,31.2,33,1.47.79,3.08,1.83,2.56,3.74-.64,2.39-2.82,2.09-4.69,1.89a94.92,94.92,0,0,1-23.92-6c-1.32-.51-2.64-1-4-1.42-5.84-1.61-12.48-7.31-17-4.53-3.66,2.26-3.76,10.58-5,16.31-8.82,39.36-20.7,77.85-33.18,116.15-1.92,5.88-1.14,9.48,3.83,13.27,18.33,14,35.59,29.49,58.54,36.09,4.69,1.34,6.57,1.23,9.09-3.55,12.07-22.91,19.8-47.23,25.52-72.34,1.12-4.91-.73-7-4.67-8.65-16.81-7.17-31.4-18-46.44-28.14-1.83-1.23-5.29-2.59-3.72-5,2.13-3.29,4.59,0,6.39,1.43a218.85,218.85,0,0,0,41,26.15,62.48,62.48,0,0,0,5.86,2.45c2,.72,3.69.59,4.63-1.72s.76-4.27-1.42-5.54a28.72,28.72,0,0,0-5.82-2.55c-18.92-5.95-34.22-17.41-48-31.23-1.37-1.37-3.09-3-1.33-4.75,2.31-2.25,3.05.74,4.11,2,13.69,15.79,31,25.76,50.84,31.68,3.76,1.12,5-.22,6-3.52,5.94-20.12,10.85-40.49,15.15-61,.8-3.81-.6-5.95-3.64-8.23-22.75-17-42.28-37.34-59.9-59.54-2.58-3.25-4.71-6.85-8.18-12C69.59,118.41,68.67,129.89,76.12,140.37ZM205.83,204c-18,8.39-36.35,8.88-55.1,3.09-1.79-.55-4-1-3.77-3.43s2.71-2.32,4.49-2.47a139.27,139.27,0,0,0,14.63-2.37c18.69-3.66,32.36-15.94,46.49-27.18,6.93-5.51,5-13.93,3.16-21.14-2-7.73-4.87-15.25-6.21-23.17-.64-3.78-2.3-4-5.19-2-4.07,2.81-8.38,5.27-12.4,8.15A85.43,85.43,0,0,1,159.21,148c-5.69,1.17-8.33,4.2-9.18,9.91-5.55,37.11-15.37,73.22-25.94,109.14-2.54,8.61-6.54,17.4-5.88,26.05S128.7,306,133.86,312.75c8.44,11,18.1,21.09,27,31.77,3.15,3.79,4.72,3.48,6.81-.81,4.12-8.47,8.6-16.76,13-25.12,2.48-4.78,2.39-7.29-3.36-10.92-14.67-9.26-25.83-22.5-35.14-37.15-1.83-2.88-2.72-6.79-.26-9.26,3.27-3.29,5.15,1.33,7.54,2.65,11.74,6.49,23.25,13.41,35.2,19.5,8.78,4.49,11.7,2.9,13.72-6.76,3.94-18.91,7.5-37.9,11.26-56.84,1.19-6,2.54-12,3.93-18.47C210.12,201.12,208.09,203,205.83,204ZM80.32,89.16C91.08,119,115.77,135.08,140,151.85c4.55,3.16,6.79,2.92,8.24-3.3a442.21,442.21,0,0,0,9.71-64.11c1.11-13-2.66-25.68-3.08-38.62-.37-11-1.76-22.07,1.23-33,1.2-4.4-.9-6.27-4.84-7.57-13.65-4.49-33,.38-42.46,10.94-18.31,20.4-18.86,28.58-4.17,51.68,6.15,9.67,14.18,17.51,22.65,25,1.58,1.4,3.2,2.77,4.72,4.24,1.35,1.31,3,2.75,1.59,4.81-1.67,2.41-3.4.36-4.85-.44C113,92.91,97.3,84.4,83.79,72.44c-1-.92-2.12-1.79-3.63-3.07C75.53,76.52,77.85,82.33,80.32,89.16Zm22.36,323.07c11.78-.52,21.19-5.07,28.78-14.18a381.35,381.35,0,0,0,28-38.08c2.79-4.34,3.34-7.72-.38-11.9-11.57-13-22.74-26.41-34.36-39.39-2.33-2.6-5.4-8.27-9.06-5.08-4.63,4,1.72,6.73,4.06,9.21,10.52,11.11,19.54,23.6,31.15,33.69,2.47,2.15,5.11,4.11,7.64,6.2.87.71,2,1.53,1.12,2.84a2.17,2.17,0,0,1-3.15.49,65,65,0,0,1-8.11-6.75q-15.29-16.14-30.28-32.58c-4-4.37-6.4-5.18-8.89,1.44-12.1,32.22-28,62.26-51.91,87.49-.29.3-.32.84-.88,2.39C72.46,408.24,87.27,412.91,102.68,412.23ZM14.21,367.87C20.72,375,29,380.24,34.77,388.12a32.41,32.41,0,0,1,5,8.45c1.7,4.9,2.13,8.39-2.41,13.47-7.46,8.35-14.68,17-22,25.61-1.78,2.07-4.64,5.42-2.63,7.25,2.46,2.24,5.65-.91,7.7-2.91,7.4-7.22,15.17-14.21,21.64-22.23,12.24-15.17,26.22-28.94,36.66-45.6,2.68-4.26,3.3-6.25-2.24-8.66-21.37-9.29-39.95-22.94-56.85-38.82-4.16-3.91-5.93-3.1-7.7,1.6-1.25,3.3-2.7,6.53-4.06,9.79C.48,348.57,5.63,358.5,14.21,367.87ZM165.64,69.06c-6.38,18-4.32,37.11-8,55.42-.9,4.41,2.23,3.87,4.77,3,6.08-2,11.51-5.35,16.89-8.72,5.79-3.61,11.5-7.35,17.18-11.13,5-3.29,7.54-7.78,6-13.84q-7.58-30.48-15.33-60.91a18.88,18.88,0,0,0-1.57-3.08A171,171,0,0,0,165.64,69.06ZM73.7,103.46c17.44,26.26,38.5,49.13,64.27,67.47,1.32.94,3.42,3.49,4.64,1.11,1.88-3.67,3.4-8,.74-12a15.62,15.62,0,0,0-4.8-4c-18.45-11.58-34.18-26.39-49.58-41.6-3.26-3.22-5.26-7.17-7-11.32-2-4.93-4.18-9.82-6.71-15.77C70.39,93.37,70.4,98.49,73.7,103.46Zm125.19,6.69A130.73,130.73,0,0,1,165,130.24a36.3,36.3,0,0,0-7,3.33,9.37,9.37,0,0,0-3.62,10c.91,2.81,4.94.22,7.43-.43,15.29-4,28.61-11.88,41.34-21,6.68-4.8,1.69-10,1.58-15C201.79,107,200.47,108.86,198.89,110.15ZM24,323.13a190.43,190.43,0,0,0,52.57,36.15c2.14,1,4.32,2,6.74,1.74a3.8,3.8,0,0,0,3.11-2.55c.76-1.75-.36-2.6-1.71-3.22C61,344.46,39.78,329.88,20,313c-.43-.37-1.29-.23-3.08-.49C18.53,317.49,21.22,320.42,24,323.13Z"/></g></g></svg>