<svg xmlns="http://www.w3.org/2000/svg" viewBox="0 0 790.91 36.05"><defs><style>.cls-1{fill:#937969;}</style></defs><g id="Layer_2" data-name="Layer 2"><g id="Layer_1-2" data-name="Layer 1"><path class="cls-1" d="M29.94,14.1c0,.09-.07.12-.11.16-.21.22-.43.45-.65.66l-5.61,5.62q-3.18,3.2-6.35,6.38c-.32.32-.65.64-1,1-.12.14-.2.15-.34,0l-2.53-2.48L3.88,16.07.12,12.39C0,12.25,0,12.19.1,12c1-1,2-2,3-3,.14-.15.22-.14.36,0q5.13,5.21,10.28,10.4l2.16,2.19c.12.13.19.13.32,0L20.84,17q3-2.91,5.89-5.84c.13-.13.2-.14.33,0L29.82,14Z"/><path class="cls-1" d="M19.06,3.06l-.1.12Q15.7,6.48,12.4,9.74l-1.55,1.54c-.3.3-.3.3-.6,0-.89-.9-1.77-1.8-2.67-2.7-.13-.12-.13-.19,0-.32L15.46.41c.55-.56.55-.54,1.1,0l2.35,2.42C19,2.92,19.05,3,19.06,3.06Z"/><path class="cls-1" d="M24.46,8.51c0,.09-.08.13-.13.18L23.09,10c-2.29,2.3-4.59,4.6-6.87,6.9-.17.17-.25.18-.42,0C14.89,15.92,14,15,13,14.07c-.12-.12-.11-.18,0-.29l8.22-8.21c.11-.11.18-.13.3,0,.94,1,1.88,1.9,2.81,2.86Z"/><path class="cls-1" d="M629.39,10.8c-3,.2-6.06.19-9.09.14-.88,0-1.11.24-1.1,1.12,0,5,0,10,0,14.92,0,.83-.22,1.12-1.06,1.06a22.33,22.33,0,0,0-3.06-.06c-.84.05-1.07-.23-1.07-1.06,0-4.9,0-9.81,0-14.71,0-1.06-.23-1.39-1.33-1.36-2.61.09-5.22,0-7.83,0-.71,0-1-.17-1-.93,0-2.78,0-2.77,2.7-2.78L628,7.11c.46,0,.91-.08,1.36-.12Z"/><path class="cls-1" d="M575.91,14.11v2.65c0,3.42,0,6.84,0,10.26,0,.74-.2,1-.95,1a19.42,19.42,0,0,0-2.75,0c-.78.05-1-.19-1-1,0-4.37,0-8.74,0-13.11,0-2,0-4,0-6,0-.63.15-.83.82-.86a6,6,0,0,1,4.36,1.36c5,4,10.07,7.82,15.13,11.71.24.19.5.56.79.44s.22-.62.22-.95c0-3.84.06-7.68,0-11.53,0-.85.25-1.08,1.06-1a27.08,27.08,0,0,0,2.85,0c.52,0,.75.1.75.69q0,9.84,0,19.67c0,.51-.18.69-.68.68-1.2,0-2.4,0-3.59,0a1.89,1.89,0,0,1-1.27-.66l-15-12.69Z"/><path class="cls-1" d="M448.6,15.25c0-3.91,0-7.83,0-11.74,0-.79.19-1,1-1,1.24.06,2.48.06,3.71,0,.81,0,1,.24,1,1-.06,6.1,0,12.2-.12,18.3,0,1.09.3,1.33,1.35,1.32,5.68,0,11.35.05,17,0,.85,0,1.1.25,1,1.07a15.39,15.39,0,0,0,0,2.54c.09.94-.19,1.26-1.19,1.25-7.06-.05-14.11,0-21.17,0-2.64,0-2.64,0-2.64-2.62Z"/><path class="cls-1" d="M520.45,21.88c.42-.16.5-.54.67-.83,2.56-4.34,5.12-8.68,7.63-13a1.53,1.53,0,0,1,1.59-.9c1.47.06,2.94,0,4.41,0a1.44,1.44,0,0,1-.41,1c-3.85,6.27-7.72,12.54-11.55,18.84A2,2,0,0,1,521,28.07a2.88,2.88,0,0,1-3.19-1.82c-3.35-6.12-6.84-12.16-10.29-18.22-.55-1-.55-1,.55-1s2.05,0,3.06,0a1.39,1.39,0,0,1,1.47.89c2.43,4.37,4.9,8.72,7.36,13.08C520.09,21.29,520.27,21.58,520.45,21.88Z"/><path class="cls-1" d="M549.69,13.06l-5,8.82c-1,1.78-2,3.55-3,5.35a1.34,1.34,0,0,1-1.41.81c-1.33-.05-2.66,0-4.18,0,.72-1.28,1.33-2.38,2-3.47,3.13-5.51,6.27-11,9.36-16.55a1.87,1.87,0,0,1,1.73-1,3,3,0,0,1,3.23,1.79C556,14.9,559.82,20.92,563.53,27c.18.28.59.58.34.91-.13.17-.59.12-.9.12-1.13,0-2.26,0-3.39,0a1.57,1.57,0,0,1-1.67-.93c-2.45-4.28-5-8.52-7.45-12.77C550.23,13.94,550,13.56,549.69,13.06Z"/><path class="cls-1" d="M488.76,27.71a3,3,0,0,1-.32-.26,1.45,1.45,0,0,1-.17-.26c-1.49-2.3-1.49-2.29.9-3.67,3.69-2.12,7.39-4.24,11.06-6.39.63-.37,1-.37,1.25.36s1.27,1.7,1,2.44-1.39.95-2.15,1.38l-10.8,6Z"/><path class="cls-1" d="M494.36,5.64c0,.41-.26.46-.45.57-4.23,2.38-8.48,4.74-12.71,7.12-.45.26-.63.18-.9-.26-1.39-2.33-1.4-2.31.94-3.63,3.53-2,7.07-3.93,10.57-6,.9-.53,1.34-.41,1.7.54A13.12,13.12,0,0,0,494.36,5.64Z"/><path class="cls-1" d="M484.82,20.21c-.35.06-.41-.19-.53-.35-1.55-2.16-1.54-2.21.72-3.49,1.62-.93,3.26-1.83,4.87-2.77.53-.31.85-.39,1.23.27,1.24,2.12,1.28,2.1-.91,3.33l-4.79,2.69Z"/><path class="cls-1" d="M70.81,2.91A7.15,7.15,0,0,1,74,5.57a7.49,7.49,0,0,1,1.09,4.06A8.14,8.14,0,0,1,74,13.72a7.71,7.71,0,0,1-3.24,3,11.54,11.54,0,0,1-5.35,1.13H60.14V28.1H57.88V2h8A11.83,11.83,0,0,1,70.81,2.91ZM69.45,15.09A5.71,5.71,0,0,0,72,12.87a5.9,5.9,0,0,0,.83-3.08A5.49,5.49,0,0,0,71,5.47,7.64,7.64,0,0,0,65.81,3.9H60.14v12h5.15A9.52,9.52,0,0,0,69.45,15.09Z"/><path class="cls-1" d="M81,27.34a7.64,7.64,0,0,1-2.75-3.29,11.3,11.3,0,0,1-.92-4.66,10.18,10.18,0,0,1,1.17-5.14,7.09,7.09,0,0,1,3.1-3A10,10,0,0,1,86,10.35a8.14,8.14,0,0,1,4.46,1.17,7.22,7.22,0,0,1,2.74,3.23,11.56,11.56,0,0,1,.91,4.68A10.6,10.6,0,0,1,93,24.61a7,7,0,0,1-3.07,3,10,10,0,0,1-4.44.95A7.87,7.87,0,0,1,81,27.34Zm9.41-2.57A8.4,8.4,0,0,0,92,19.39a8.48,8.48,0,0,0-1.52-5.29,5.53,5.53,0,0,0-4.65-2A5.78,5.78,0,0,0,81,14.08a8.25,8.25,0,0,0-1.57,5.31A8.5,8.5,0,0,0,81,24.73a5.54,5.54,0,0,0,4.71,2A5.69,5.69,0,0,0,90.45,24.77Z"/><path class="cls-1" d="M120.89,10.76V11L115.12,28.1H113l-4-12.66a23.2,23.2,0,0,1-.64-2.3,15.68,15.68,0,0,1-.61,2.3l-4,12.66h-2L95.84,11v-.2h2.22l4.12,12.7c.29.92.51,1.66.64,2.22.16-.67.36-1.41.61-2.22l3.91-12.7h2.26l4,13a19.05,19.05,0,0,1,.57,2.05,13.33,13.33,0,0,1,.52-2.05l4.16-12.95Z"/><path class="cls-1" d="M137.35,19.59H124.52c0,2.48.55,4.28,1.56,5.43a5.33,5.33,0,0,0,4.21,1.71,9.39,9.39,0,0,0,2.3-.26,8.76,8.76,0,0,0,1.76-.65,15.47,15.47,0,0,0,1.71-1l.85,1.54A13.51,13.51,0,0,1,133.82,28a10.28,10.28,0,0,1-3.57.59,7.54,7.54,0,0,1-5.71-2.22q-2.12-2.22-2.11-6.86a11.09,11.09,0,0,1,.88-4.38A8.15,8.15,0,0,1,126,11.68a7.46,7.46,0,0,1,4.51-1.33,7.22,7.22,0,0,1,3.86,1,6,6,0,0,1,2.3,2.6,9,9,0,0,1,.74,3.73A17.51,17.51,0,0,1,137.35,19.59Zm-9.9-6.74A5.9,5.9,0,0,0,125.51,15a8.61,8.61,0,0,0-.91,2.91h10.74v-.33a6.37,6.37,0,0,0-1.21-4.13A4.42,4.42,0,0,0,130.49,12,5.28,5.28,0,0,0,127.45,12.85Z"/><path class="cls-1" d="M150.54,10.41a10.67,10.67,0,0,1,1.17.22l-.52,2.14a7.15,7.15,0,0,0-2.06-.36,4.66,4.66,0,0,0-2.64.83A6.48,6.48,0,0,0,144.37,16V28.1h-2.1V10.76l2.1-.25v2.87a7,7,0,0,1,2.32-2.28,5.48,5.48,0,0,1,2.76-.75A9.56,9.56,0,0,1,150.54,10.41Z"/><path class="cls-1" d="M168.37,19.59H155.55c0,2.48.54,4.28,1.55,5.43a5.33,5.33,0,0,0,4.21,1.71,9.34,9.34,0,0,0,2.3-.26,8.54,8.54,0,0,0,1.76-.65,14.59,14.59,0,0,0,1.71-1l.85,1.54A13.11,13.11,0,0,1,164.84,28a10.28,10.28,0,0,1-3.57.59,7.5,7.5,0,0,1-5.7-2.22c-1.42-1.48-2.12-3.77-2.12-6.86a10.93,10.93,0,0,1,.89-4.38,8.13,8.13,0,0,1,2.7-3.41,7.47,7.47,0,0,1,4.52-1.33,7.21,7.21,0,0,1,3.85,1,6,6,0,0,1,2.3,2.6,8.87,8.87,0,0,1,.74,3.73A17.51,17.51,0,0,1,168.37,19.59Zm-9.9-6.74A5.9,5.9,0,0,0,156.53,15a8.38,8.38,0,0,0-.9,2.91h10.73v-.33a6.37,6.37,0,0,0-1.2-4.13A4.44,4.44,0,0,0,161.51,12,5.3,5.3,0,0,0,158.47,12.85Z"/><path class="cls-1" d="M187,.11v28h-2l-.13-1.41a13,13,0,0,1-3,1.37,10.61,10.61,0,0,1-3.07.49,6.72,6.72,0,0,1-3.95-1.11,6.55,6.55,0,0,1-2.35-3.05,12,12,0,0,1-.76-4.36,11.32,11.32,0,0,1,1.09-5.1,8,8,0,0,1,3.08-3.39,9.06,9.06,0,0,1,4.69-1.19,11.69,11.69,0,0,1,4.21.77V.35ZM175.2,24.88a4.64,4.64,0,0,0,4,1.81,9.18,9.18,0,0,0,3-.46A14,14,0,0,0,184.83,25V12.89a11.19,11.19,0,0,0-4.13-.8,7.07,7.07,0,0,0-3.64.9,5.9,5.9,0,0,0-2.37,2.69,10.07,10.07,0,0,0-.83,4.27A8.17,8.17,0,0,0,175.2,24.88Z"/><path class="cls-1" d="M224.57,28.55l-4.6-4a13.06,13.06,0,0,1-9.2,4,11.14,11.14,0,0,1-4.25-.77,6.44,6.44,0,0,1-2.93-2.26,6.06,6.06,0,0,1-1.05-3.59,7.11,7.11,0,0,1,.73-3.29,8.17,8.17,0,0,1,1.89-2.46,19.12,19.12,0,0,1,2.83-2,17.14,17.14,0,0,1-2.91-3.28,5.82,5.82,0,0,1-.92-3.17,5.85,5.85,0,0,1,3.26-5.39,8,8,0,0,1,3.72-.82,8.5,8.5,0,0,1,3.43.66,5.45,5.45,0,0,1,2.36,1.94,5.2,5.2,0,0,1,.86,3,5.18,5.18,0,0,1-.91,3.05,8.41,8.41,0,0,1-2.19,2.18c-.86.58-2,1.28-3.56,2.12l8.72,7.46a26,26,0,0,0,3.75-6.17l1.86.8a30.88,30.88,0,0,1-4.12,6.62L226,27.09Zm-6-5.25-9.16-7.86A13,13,0,0,0,206,18.22a5.49,5.49,0,0,0-1.19,3.59,4.53,4.53,0,0,0,.7,2.46A4.77,4.77,0,0,0,207.61,26a7.85,7.85,0,0,0,3.37.65A10.67,10.67,0,0,0,218.52,23.3Zm-11.37-13a13.88,13.88,0,0,0,2.57,2.93c1.32-.7,2.36-1.31,3.13-1.82a7.84,7.84,0,0,0,1.92-1.79,3.93,3.93,0,0,0,.76-2.4,3.69,3.69,0,0,0-1.15-2.85,4.6,4.6,0,0,0-3.25-1.07,5.36,5.36,0,0,0-2.61.59,3.71,3.71,0,0,0-1.59,1.57,4.83,4.83,0,0,0-.52,2.24A5,5,0,0,0,207.15,10.29Z"/><path class="cls-1" d="M257.91,5.15q3.38,3.18,3.37,9.88t-3.71,9.87q-3.72,3.2-10.65,3.2h-6V2h7Q254.55,2,257.91,5.15Zm-4.62,20a8.14,8.14,0,0,0,4.2-3.41A12.7,12.7,0,0,0,259,15q0-5.56-2.64-8.35T248.13,3.9h-4.92V26.17h3.71A18.8,18.8,0,0,0,253.29,25.2Z"/><path class="cls-1" d="M279.92,19.59H267.09c0,2.48.54,4.28,1.55,5.43a5.33,5.33,0,0,0,4.22,1.71,9.45,9.45,0,0,0,2.3-.26,8.66,8.66,0,0,0,1.75-.65,14.59,14.59,0,0,0,1.71-1l.85,1.54A13.25,13.25,0,0,1,276.39,28a10.36,10.36,0,0,1-3.57.59,7.51,7.51,0,0,1-5.71-2.22Q265,24.11,265,19.47a11.1,11.1,0,0,1,.89-4.38,8.13,8.13,0,0,1,2.7-3.41,7.49,7.49,0,0,1,4.52-1.33,7.21,7.21,0,0,1,3.85,1,5.9,5.9,0,0,1,2.3,2.6,8.87,8.87,0,0,1,.75,3.73C280,18.43,280,19.08,279.92,19.59ZM270,12.85A6,6,0,0,0,268.07,15a8.38,8.38,0,0,0-.9,2.91H277.9v-.33a6.37,6.37,0,0,0-1.2-4.13A4.44,4.44,0,0,0,273.05,12,5.3,5.3,0,0,0,270,12.85Z"/><path class="cls-1" d="M286.05,28a12,12,0,0,1-3.35-1.73l1-1.58a10.39,10.39,0,0,0,6.22,2.1,6,6,0,0,0,3.39-.85,2.66,2.66,0,0,0,1.28-2.34,2.78,2.78,0,0,0-.47-1.63,3.61,3.61,0,0,0-1.42-1.13,15.48,15.48,0,0,0-2.62-.91l-1.34-.36a10,10,0,0,1-3.9-1.69,3.49,3.49,0,0,1-1.3-2.87,4,4,0,0,1,.78-2.46,5,5,0,0,1,2.18-1.61,8.3,8.3,0,0,1,3.17-.57,12.27,12.27,0,0,1,3.16.39,13.91,13.91,0,0,1,3.25,1.35l-.93,1.57a14.3,14.3,0,0,0-2.87-1.19,10,10,0,0,0-2.62-.34,5.34,5.34,0,0,0-2.95.7,2.29,2.29,0,0,0-1.08,2,2.06,2.06,0,0,0,.39,1.31,2.87,2.87,0,0,0,1.16.85,14.29,14.29,0,0,0,2.15.7l1.34.37a16.75,16.75,0,0,1,3.46,1.23A4.81,4.81,0,0,1,296.07,21a4.45,4.45,0,0,1,.63,2.44,4.58,4.58,0,0,1-.81,2.67,5.21,5.21,0,0,1-2.32,1.81,9.07,9.07,0,0,1-3.57.65A12.59,12.59,0,0,1,286.05,28Z"/><path class="cls-1" d="M301.28,5.49a1.47,1.47,0,0,1-.47-1.07,1.52,1.52,0,0,1,.47-1.11,1.43,1.43,0,0,1,1.06-.46,1.51,1.51,0,0,1,1.11.46,1.52,1.52,0,0,1,.47,1.11,1.47,1.47,0,0,1-.47,1.07,1.52,1.52,0,0,1-1.11.47A1.44,1.44,0,0,1,301.28,5.49Zm.06,22.61V10.76l2.09-.25V28.1Z"/><path class="cls-1" d="M324,27.48a3.45,3.45,0,0,1,1.51,3,4.25,4.25,0,0,1-1.13,2.89,7.4,7.4,0,0,1-3.25,2,15.91,15.91,0,0,1-5,.71,11.51,11.51,0,0,1-5.85-1.25,4.1,4.1,0,0,1-2.1-3.75,4.34,4.34,0,0,1,.73-2.48,7.89,7.89,0,0,1,2.22-2.08,2.42,2.42,0,0,1-1.33-2.22,2.49,2.49,0,0,1,.44-1.43,4.59,4.59,0,0,1,1.37-1.27,5.47,5.47,0,0,1-1.93-2.16,6.35,6.35,0,0,1-.65-2.85A5.61,5.61,0,0,1,312.57,11a9.82,9.82,0,0,1,3.77-.69,8.75,8.75,0,0,1,2.18.24l6.05-2.3L325.3,10l-4.8,1.45a6.09,6.09,0,0,1,2.26,2.28,6,6,0,0,1,.72,2.85,5.61,5.61,0,0,1-1,3.38,5.92,5.92,0,0,1-2.68,2.06,10,10,0,0,1-3.79.69,9.32,9.32,0,0,1-3.19-.53,2.42,2.42,0,0,0-1,1.7,1.3,1.3,0,0,0,.93,1.21,10.43,10.43,0,0,0,2.95.6l3.67.37A9.69,9.69,0,0,1,324,27.48Zm-4.49,6.45a7.33,7.33,0,0,0,2.77-1.15,2.52,2.52,0,0,0,1.13-2.14,2.09,2.09,0,0,0-1.07-1.87,8.31,8.31,0,0,0-3.42-.91l-3.64-.36a15.52,15.52,0,0,1-2.63-.45q-2.39,1.62-2.39,3.71a2.82,2.82,0,0,0,1.5,2.73,10,10,0,0,0,4.49.78A15.84,15.84,0,0,0,319.46,33.93Zm-7.17-20.65a4.54,4.54,0,0,0-1.23,3.24,4.51,4.51,0,0,0,1.23,3.29,5.32,5.32,0,0,0,4,1.27A5.61,5.61,0,0,0,320,19.93a4.07,4.07,0,0,0,1.36-3.28,4.74,4.74,0,0,0-.65-2.49,4.24,4.24,0,0,0-1.82-1.63,6.09,6.09,0,0,0-2.7-.56A5.15,5.15,0,0,0,312.29,13.28Z"/><path class="cls-1" d="M342,11.58c1,.82,1.57,2.26,1.57,4.3V28.1h-2.09V16.73a7.25,7.25,0,0,0-.39-2.61,2.75,2.75,0,0,0-1.25-1.47,5,5,0,0,0-2.4-.48,11.17,11.17,0,0,0-3.08.46,21.18,21.18,0,0,0-3.13,1.15V28.1h-2.1V10.76l2.1-.25v1.7a21.48,21.48,0,0,1,3.29-1.31,11.39,11.39,0,0,1,3.45-.55A6.35,6.35,0,0,1,342,11.58Z"/><path class="cls-1" d="M363.18,19.59H350.35c0,2.48.54,4.28,1.55,5.43a5.35,5.35,0,0,0,4.22,1.71,9.39,9.39,0,0,0,2.3-.26,8.66,8.66,0,0,0,1.75-.65,15.49,15.49,0,0,0,1.72-1l.84,1.54A13.25,13.25,0,0,1,359.65,28a10.28,10.28,0,0,1-3.57.59,7.51,7.51,0,0,1-5.71-2.22q-2.12-2.22-2.12-6.86a11.1,11.1,0,0,1,.89-4.38,8.13,8.13,0,0,1,2.7-3.41,7.49,7.49,0,0,1,4.52-1.33,7.19,7.19,0,0,1,3.85,1,5.9,5.9,0,0,1,2.3,2.6,8.87,8.87,0,0,1,.75,3.73C363.26,18.43,363.23,19.08,363.18,19.59Zm-9.91-6.74A6.08,6.08,0,0,0,351.33,15a8.38,8.38,0,0,0-.9,2.91h10.73v-.33a6.37,6.37,0,0,0-1.2-4.13A4.43,4.43,0,0,0,356.32,12,5.31,5.31,0,0,0,353.27,12.85Z"/><path class="cls-1" d="M381.81.11v28h-2l-.12-1.41a13.07,13.07,0,0,1-3,1.37,10.61,10.61,0,0,1-3.07.49,6.74,6.74,0,0,1-3.95-1.11,6.59,6.59,0,0,1-2.34-3.05,11.76,11.76,0,0,1-.76-4.36,11.46,11.46,0,0,1,1.08-5.1,7.94,7.94,0,0,1,3.09-3.39,9,9,0,0,1,4.69-1.19,11.73,11.73,0,0,1,4.21.77V.35ZM370,24.88a4.66,4.66,0,0,0,4,1.81,9.12,9.12,0,0,0,2.95-.46A14.34,14.34,0,0,0,379.64,25V12.89a11.23,11.23,0,0,0-4.13-.8,7.11,7.11,0,0,0-3.65.9,6,6,0,0,0-2.37,2.69,10.07,10.07,0,0,0-.83,4.27A8.17,8.17,0,0,0,370,24.88Z"/><path class="cls-1" d="M415.6,16.77A6.18,6.18,0,0,1,417.15,21a6.76,6.76,0,0,1-.95,3.57,6.44,6.44,0,0,1-3.08,2.54,13.52,13.52,0,0,1-5.49,1h-8.47V2h8.35a12.63,12.63,0,0,1,4.64.77,6.39,6.39,0,0,1,3,2.24,6.11,6.11,0,0,1,1,3.57,6,6,0,0,1-1.23,3.71,6.92,6.92,0,0,1-4,2.3A7.57,7.57,0,0,1,415.6,16.77ZM401.42,3.86v10h5.79A8.42,8.42,0,0,0,412,12.55a4.49,4.49,0,0,0,1.89-4,4.29,4.29,0,0,0-.69-2.42,4.59,4.59,0,0,0-2.05-1.66,8.28,8.28,0,0,0-3.34-.6Zm11.8,20.89A4.7,4.7,0,0,0,414.89,21a4.72,4.72,0,0,0-1.77-3.93A8.13,8.13,0,0,0,408,15.68h-6.58V26.21H408Q411.55,26.21,413.22,24.75Z"/><path class="cls-1" d="M436.31,10.76V11l-7.74,20a10.48,10.48,0,0,1-2.4,4,4.83,4.83,0,0,1-3.33,1.17,8.51,8.51,0,0,1-3.11-.61l.61-1.65a6.21,6.21,0,0,0,2.38.48,3.67,3.67,0,0,0,1.49-.28,3.12,3.12,0,0,0,1.21-1,9.11,9.11,0,0,0,1.13-2.09l1.09-2.79H427L419.81,11v-.2H422l4.6,11.33c.76,1.86,1.31,3.3,1.66,4.32l1.61-4.36,4.32-11.29Z"/><path class="cls-1" d="M649.25,26.85a10.47,10.47,0,0,1-4-4.74A17.6,17.6,0,0,1,644,15a15.66,15.66,0,0,1,1.65-7.58A10.64,10.64,0,0,1,649.92,3a12,12,0,0,1,5.77-1.43,15,15,0,0,1,4.35.6A18.75,18.75,0,0,1,664,3.86l-1,1.69A17,17,0,0,0,659.55,4a12.77,12.77,0,0,0-3.84-.53A9.08,9.08,0,0,0,650.49,5a8.78,8.78,0,0,0-3.21,4,15.26,15.26,0,0,0-1.07,5.93,16.07,16.07,0,0,0,1,6,9.13,9.13,0,0,0,3.17,4.14,8.79,8.79,0,0,0,5.24,1.51,12.85,12.85,0,0,0,3.9-.57,19.45,19.45,0,0,0,3.62-1.57l.93,1.66a16.33,16.33,0,0,1-8.47,2.46A11.59,11.59,0,0,1,649.25,26.85Z"/><path class="cls-1" d="M670.09,27.34a7.64,7.64,0,0,1-2.75-3.29,11.47,11.47,0,0,1-.92-4.66,10.18,10.18,0,0,1,1.17-5.14,7.09,7.09,0,0,1,3.1-3,10,10,0,0,1,4.36-.93,8.14,8.14,0,0,1,4.46,1.17,7.22,7.22,0,0,1,2.74,3.23,11.39,11.39,0,0,1,.91,4.68A10.6,10.6,0,0,1,682,24.61a7,7,0,0,1-3.07,3,10,10,0,0,1-4.44.95A7.87,7.87,0,0,1,670.09,27.34Zm9.41-2.57a8.4,8.4,0,0,0,1.56-5.38,8.48,8.48,0,0,0-1.52-5.29,5.53,5.53,0,0,0-4.65-2,5.78,5.78,0,0,0-4.81,1.95,8.25,8.25,0,0,0-1.57,5.31,8.5,8.5,0,0,0,1.55,5.34,5.54,5.54,0,0,0,4.71,2A5.69,5.69,0,0,0,679.5,24.77Z"/><path class="cls-1" d="M711,11.52q1.47,1.17,1.47,4.08V28.1h-2.09V16.44a5.35,5.35,0,0,0-.79-3.28,3.28,3.28,0,0,0-2.72-1,13.43,13.43,0,0,0-5.77,1.69,7.41,7.41,0,0,1,.2,1.74V28.1h-2.1V16.44a7.24,7.24,0,0,0-.34-2.46,2.56,2.56,0,0,0-1.09-1.37,4.15,4.15,0,0,0-2.08-.44,9.16,9.16,0,0,0-2.76.46,17.31,17.31,0,0,0-2.8,1.15V28.1H688V10.76l2.1-.25v1.66a13.19,13.19,0,0,1,6.09-1.82,6.51,6.51,0,0,1,2.5.47,3.76,3.76,0,0,1,1.81,1.59A21.61,21.61,0,0,1,703.89,11a10.81,10.81,0,0,1,3.47-.61A5.61,5.61,0,0,1,711,11.52Z"/><path class="cls-1" d="M732.13,12.73A10.36,10.36,0,0,1,733.87,19a10.45,10.45,0,0,1-1.26,5.34,7.83,7.83,0,0,1-3.32,3.19,10.19,10.19,0,0,1-4.54,1,12.21,12.21,0,0,1-4-.69v7.75h-2.09V10.76l2.09-.25v1.66a14.94,14.94,0,0,1,3.09-1.33,10.11,10.11,0,0,1,3-.49A6.17,6.17,0,0,1,732.13,12.73Zm-3.68,13.15a5.9,5.9,0,0,0,2.46-2.64,9.64,9.64,0,0,0,.86-4.25,8.51,8.51,0,0,0-1.29-5,4.61,4.61,0,0,0-4-1.77,11.41,11.41,0,0,0-5.78,1.69V26.13a12,12,0,0,0,4,.64A7.52,7.52,0,0,0,728.45,25.88Z"/><path class="cls-1" d="M750.89,16.08v12H749l-.17-1.93A11,11,0,0,1,745.55,28a10.48,10.48,0,0,1-3.43.59,6.3,6.3,0,0,1-2.76-.57,4.5,4.5,0,0,1-1.85-1.59,4.37,4.37,0,0,1-.66-2.4q0-3.22,3.34-4.8a21,21,0,0,1,8.56-1.66V16.32a4.64,4.64,0,0,0-.9-3.1A3.56,3.56,0,0,0,745,12.17a10,10,0,0,0-3.07.5,15,15,0,0,0-3.36,1.68l-1-1.5a13.28,13.28,0,0,1,7.62-2.5Q750.9,10.35,750.89,16.08ZM739.83,26a3.91,3.91,0,0,0,2.67.77,8.57,8.57,0,0,0,3.19-.6,14.74,14.74,0,0,0,3.06-1.74v-5.2a19.93,19.93,0,0,0-7.09,1.19q-2.71,1.11-2.71,3.45A2.66,2.66,0,0,0,739.83,26Z"/><path class="cls-1" d="M769.89,11.58c1.05.82,1.57,2.26,1.57,4.3V28.1h-2.1V16.73a7.27,7.27,0,0,0-.38-2.61,2.75,2.75,0,0,0-1.25-1.47,5,5,0,0,0-2.4-.48,11.3,11.3,0,0,0-3.09.46,21.48,21.48,0,0,0-3.12,1.15V28.1H757V10.76l2.1-.25v1.7a21.48,21.48,0,0,1,3.29-1.31,11.38,11.38,0,0,1,3.44-.55A6.36,6.36,0,0,1,769.89,11.58Z"/><path class="cls-1" d="M790.91,10.76V11l-7.75,20a10.48,10.48,0,0,1-2.4,4,4.8,4.8,0,0,1-3.33,1.17,8.42,8.42,0,0,1-3.1-.61l.6-1.65a6.21,6.21,0,0,0,2.38.48A3.63,3.63,0,0,0,778.8,34,3.12,3.12,0,0,0,780,33a8.74,8.74,0,0,0,1.13-2.09l1.09-2.79h-.68L774.41,11v-.2h2.22l4.59,11.33c.76,1.86,1.31,3.3,1.66,4.32l1.61-4.36,4.32-11.29Z"/></g></g></svg>