<svg xmlns="http://www.w3.org/2000/svg" viewBox="0 0 54.44 43.53"><defs><style>.cls-1{fill:none;stroke:#665a4d;stroke-miterlimit:10;stroke-width:2px;}.cls-2{fill:#a77969;}.cls-3{fill:#665a4d;}</style></defs><g id="Layer_2" data-name="Layer 2"><g id="Layer_1-2" data-name="Layer 1"><line class="cls-1" x1="25.47" y1="1.53" x2="25.47" y2="43.53"/><path class="cls-2" d="M42.79,30.58A14.22,14.22,0,0,1,36,34.42c-.69.17-.92,0-.92-.71q0-12.34,0-24.69c0-.83.28-.89,1-.74,9,1.87,13.38,13,8.07,20.55A9,9,0,0,1,42.79,30.58Z"/><path class="cls-2" d="M46.35,11.93l8.09.58-5.31,6.12Z"/><path class="cls-2" d="M35.84,5.3,41.93,0l.6,8.1Z"/><path class="cls-2" d="M42.5,34.6l-.59,8.08-6.1-5.29Z"/><path class="cls-2" d="M49.1,24.08l5.32,6.12-8.07.57Z"/><path class="cls-3" d="M13.42,34.28C6.69,34.84.36,28.93,0,21.92-.35,14.63,5.32,8.17,12.46,8,8.1,11.54,5.79,15.94,6,21.4S8.81,31.14,13.42,34.28Z"/><path class="cls-3" d="M20.45,19.83c-.67.64-1.69,1.18-1.92,2s.4,1.75.68,2.77c-1.07-.18-1.79-1.3-2.64-1.14S15,24.4,14,25c1.14-2.19.58-3.74-1.76-4.76,2.41,0,3.9-.76,3.92-3.44.7,2.32,1.88,3.57,4.4,2.7Z"/></g></g></svg>