<svg xmlns="http://www.w3.org/2000/svg" viewBox="0 0 30 30.01"><defs><style>.cls-1,.cls-2{fill:#a77969;}.cls-1{isolation:isolate;opacity:0.4;}</style></defs><g id="Layer_2" data-name="Layer 2"><g id="Layer_1-2" data-name="Layer 1"><path class="cls-1" d="M21.3,0H8.72C3.26,0,0,3.26,0,8.72V21.28C0,26.76,3.26,30,8.72,30H21.28C26.74,30,30,26.76,30,21.3V8.72C30,3.26,26.76,0,21.3,0Z"/><path class="cls-2" d="M21.85,12A6.86,6.86,0,0,0,15,6.66h0A6.85,6.85,0,0,0,8.15,12c-.93,4.1,1.58,7.57,3.85,9.75a5,5,0,0,0,3.11,1.62A4.49,4.49,0,0,0,18,21.73C20.26,19.55,22.78,16.09,21.85,12ZM15,16a2.5,2.5,0,0,1-2.5-2.5,2.45,2.45,0,0,1,.74-1.77A2.42,2.42,0,0,1,15,11a2.5,2.5,0,1,1,0,5Z"/></g></g></svg>