<svg xmlns="http://www.w3.org/2000/svg" viewBox="0 0 44.17 31.6"><defs><style>.cls-1{fill:#a77969;}</style></defs><g id="Layer_2" data-name="Layer 2"><g id="Layer_1-2" data-name="Layer 1"><path class="cls-1" d="M44.11,15.73,29.08.07a.21.21,0,0,0-.25,0,.22.22,0,0,0-.14.21V12h-11a.2.2,0,0,0-.16.07l0,0,0,0a.2.2,0,0,0-.07.16.2.2,0,0,0,0,.11v0l0,0,.16.14,3.53,3.3.34.31,2.73,2.55a5.39,5.39,0,0,0,3.67,1.45h.83V31.37a.21.21,0,0,0,.14.21.15.15,0,0,0,.09,0,.21.21,0,0,0,.16-.07l15-15.48A.24.24,0,0,0,44.11,15.73Zm-15,15.08V20a.22.22,0,0,0-.22-.23H27.86a4.94,4.94,0,0,1-3.36-1.32l-2.86-2.67h0l-3.52-3.28H28.92a.22.22,0,0,0,.22-.23V.79l14.49,15.1Z"/><path class="cls-1" d="M21.64,15.77h0l0,0-3.5-3.26-.2-.19-.17-.16-.06,0a.23.23,0,0,0-.23,0h0l-.18.17-4.37,4.07a.23.23,0,0,0-.07.17.21.21,0,0,0,.07.17l3.69,3.45a.28.28,0,0,0,.16.06h.35a.25.25,0,0,0,.15-.06l4.23-3.94.15-.15a.2.2,0,0,0,.07-.16A.23.23,0,0,0,21.64,15.77Zm-4.65,4h-.17l-3.45-3.22,4.22-3.93h0l3.52,3.3Z"/><path class="cls-1" d="M16.73,20.22H9.79a3.45,3.45,0,0,1-2.34-.92L.07,12.42a.22.22,0,0,1,0-.25A.22.22,0,0,1,.23,12h6.6a4.3,4.3,0,0,1,2.92,1.15l7.13,6.65a.24.24,0,0,1,.06.25A.24.24,0,0,1,16.73,20.22ZM.81,12.48l7,6.48a2.94,2.94,0,0,0,2,.8h6.36L9.44,13.5a3.82,3.82,0,0,0-2.61-1Z"/><path class="cls-1" d="M18.19,12l-.59.59h0l-.16-.14,0,0h0l-.13-.12.18-.17h0l0,0a.2.2,0,0,1,.16-.07Z"/><rect class="cls-1" x="17.33" y="12.24" width="0.46" height="0.07" transform="translate(-3.35 16.92) rotate(-47.49)"/></g></g></svg>