<svg xmlns="http://www.w3.org/2000/svg" viewBox="0 0 338.42 496.62"><defs><style>.cls-1{fill:#dcc7b2;}</style></defs><g id="Layer_2" data-name="Layer 2"><g id="Layer_1-2" data-name="Layer 1"><path class="cls-1" d="M2.94,234.51c-.76.79-1.52,1.59-2.25,2.39v1.18c.27-.33.55-.65.82-1l1.88-2.25ZM4.76,381.33c-1.28-4-2.66-7.94-4.07-11.88v4.15a80.57,80.57,0,0,1,4.67,16.93,89.15,89.15,0,0,1,.34,20.52c-.48,5.43-1.21,10.84-1.43,16.3a34,34,0,0,1-.93,4.88,7.07,7.07,0,0,1-1.83-4.94c-.05-6.19-.13-12.38-.14-18.56a49.27,49.27,0,0,0-.68-7.8v34.29A5.44,5.44,0,0,0,2,436c1.91.81,2.41.49,2.58-1.52.84-9.74,1.75-19.48,2.51-29.23A61.89,61.89,0,0,0,4.76,381.33Zm44.57-69.5a4.26,4.26,0,0,0-1.18.17c-8.28,2.27-16.55,2-24.92.34-8.09-1.59-15.32-5-22.54-8.79v1.94A55.78,55.78,0,0,0,11,310.43c11.79,3.65,23.74,5.45,36.05,3.34.85-.15,1.67-.46,2.51-.68.41-.12.84-.33.74-.78S49.72,311.83,49.33,311.83Zm-1.77,10.38c-13.19.8-26-.61-38.44-5.5a57.38,57.38,0,0,1-8.43-4.15v1.67a57.58,57.58,0,0,0,20.44,7.17c6.72,1,13.4,2.12,20.21,2.22,5,.07,10-.11,14.78-1.85C53.27,321.91,50.42,322,47.56,322.21Zm290.68,95c-.43-4.57-.92-9.13-.93-13.73A21.75,21.75,0,0,0,333,390.56c-5.62-7.8-10.25-16.19-14.92-24.57-3.25-5.81-7.39-10.62-13.54-13.34-5-2.21-10.06-4.3-15-6.69-2.15-1-4.52-1.76-6.3-3.74a11.77,11.77,0,0,1,3.9-.46c5.2-.05,10.32-.38,15.34-2.09,11.05-3.76,17.11-12.84,16-24.45-.29-3.14-2-5.92-2.21-9.1a15.86,15.86,0,0,0-2.7-7.62,18.69,18.69,0,0,1-3.07-10,4.67,4.67,0,0,0-.93-2.59,31.54,31.54,0,0,0-6.16-7c-2.95-2.33-6.27-4.1-8.92-6.95-2.23-2.4-6.13-1.8-7.08.63-2.16,5.5-6,9.91-9.24,14.68a15.31,15.31,0,0,1-7.72,5.68c-5.37,2-10.75,3.91-16.2,5.7-8.48,2.76-14.73,8.73-20,15.65a20,20,0,0,1-8.92,7c-2.87,1.12-3.8.89-5-1.83a115.37,115.37,0,0,1-6.76-18.79c-4-15.31-6-31-8.58-46.54a6.85,6.85,0,0,1,1.47-5.53,29.69,29.69,0,0,0,6.08-17.06c.11-6.52.73-12.9,3.28-19,3.08-7.31,1.25-13.63-4.22-18.94-6.31-6.12-10.52-14.1-18-19.62,7.23-1.42,14.08-1.85,20.75.27A249.67,249.67,0,0,1,239,184c7.67,3.36,15.53,6.1,23.91,7,6.67.71,13.26-.21,19.9-.86,6.11-.6,14.43-8.47,14.84-15.14.16-2.65.12-5.31.2-8,.1-3.11.07-6.26.38-9.36a13.12,13.12,0,0,1,8.05-11.29c2.18-1,2.22-1.79,1-3.78-2.43-4.07-6-5.77-10.57-6.59-6.29-1.13-11.25-4.32-13.57-10.74a9.15,9.15,0,0,0-6.36-5.89,11.47,11.47,0,0,1-3.6-1.71c-4.49-3.21-9.6-4.09-15-4.07-4.28,0-7.65,2.47-11.31,4.19a18.75,18.75,0,0,0-7.46,6.44c-1.5,2.11-3.16,4.11-4.8,6.12a4.75,4.75,0,0,1-4.86,2c1.94-2.56,3.85-4.93,5.6-7.41s1.26-4.37-1.06-6a7.33,7.33,0,0,0-3.81-1.67c-4.53-.23-8.94.14-12.65,3.2a11.56,11.56,0,0,1-3.61,2.09c-3.25,1.13-6.43-.18-8.86-3.69-1.59-2.3-1.27-4.8,1.06-7.43a22.79,22.79,0,0,1,10-6.67c6.23-2.08,9.43-6.57,9.3-13,0-.73,0-1.47-.08-2.2a12.92,12.92,0,0,1,3.35-9.9A55.65,55.65,0,0,1,234,74.87c1.64-1.5,2-3.65.57-4.43-3.5-1.85-7.2-3.44-11.23-1.67-4.2,1.85-8.31,3.9-12.48,5.85-5.61,2.62-11.11,3.28-16.31-1a3.53,3.53,0,0,0-3.35-.89A14,14,0,0,0,186,75.25c-5.43,4.85-9.92,10.38-12.38,17.38-2.07,5.92-4.31,11.78-6.47,17.67a20.73,20.73,0,0,1-4,6.82c-.38.43-.62,1.23-1.29,1s-.58-1-.66-1.54c-.57-4-1.09-8.06-1.68-12.08-1.38-9.54-.38-18.71,4-27.42,1.8-3.6,4.35-6.73,6.12-10.29A45,45,0,0,1,181,52.35c1.66-1.4,3.48-2.67,4.47-4.77,2.42-5.14.41-9.78-1.4-14.46a9.67,9.67,0,0,0,.5,5.05c1.87,5.64-.23,9.82-4.36,13.49-3.68,3.27-7.3,6.62-9.78,11-1.68,3-2.94,6.1-4.89,8.91a44,44,0,0,0-7.61,22c-.51,6.5.65,12.87,1.18,19.29.38,4.52,1.1,9.11-3.53,12.42-3.38,2.42-6.39,5.35-10.53,6.8a4.89,4.89,0,0,1,1-2.53A28.85,28.85,0,0,0,150,110.74a111,111,0,0,1,1.94-39.29c.45-1.87,1-3.81.54-5.81-1.14,6.69-2.82,13.28-3.91,20-1.27,7.79-.65,15.67-.22,23.51.32,5.84.4,11.61-2.47,17-.91,1.69-1.68,3.6-3.83,4.43-.29-2.08.42-3.85.68-5.67.69-4.87,0-9.68-.33-14.51-.6-7.77-1-15.55-1.49-23.33-.49-7.5-1.3-15-1.26-22.52A194.27,194.27,0,0,1,141.76,40c1.05-7.92,2.47-15.8,2.59-23.82,0-1.31-.23-2.85,1.23-4.06l2.82,5.37c-1.5-3.41-2.15-7.36-4.34-10.77a8.26,8.26,0,0,1,3.4,3,20.73,20.73,0,0,0,8.75,6.75c2.52,1.06,5.11,2,7.59,3.1,3.86,1.8,7.63,3.73,11.88,4.63a9.45,9.45,0,0,1,7.37,6.89c.07.24.16.55.54.34-.49-5.11-2.73-7.63-7.62-8.56a27.34,27.34,0,0,1-6.27-2c-4.62-2.09-9-4.67-13.85-6.27a13.5,13.5,0,0,1-5.42-3.62c-3-3.11-5.35-6.82-8.66-9.65C139-1,136.22-.3,134.88,3.13c-2.2,5.65-4.47,11.29-6.71,16.93a15.66,15.66,0,0,1-4.54,6,59.86,59.86,0,0,0-7.28,7.4,9.66,9.66,0,0,0-2.49,7c.26,3.25.74,6.49,1.11,9.73.14,1.28.25,2.57.41,4.2a7.55,7.55,0,0,1-3.28-4.57c-1-4.06-1.9-8.2-3.57-12.07-2.3-5.34-6.94-8-11.92-10.36-3.08-1.44-6-3.19-9.55-3.29a50.69,50.69,0,0,0-16.3,2.59c-5.68,1.72-11,4-15,8.68-3.77,4.42-8.6,6.13-14.34,5.87a15.29,15.29,0,0,0-12.66,5.7c-2.2,2.55-2.27,4.57-.4,7.23,3.9,5.56,7.94,11,11.67,16.69s6.42,11.7,7,18.53a54.27,54.27,0,0,0,17,36c.37.35.86.68.43,1.47-4.37-1.25-8.93-1-13.42-1.38-8.78-.78-16.65,1.22-23.52,6.84-3.16,2.6-5.5,6-8.38,8.82a15.71,15.71,0,0,0-4,6.37c-1.79,5.38-3.65,10.74-5.48,16.12a23.14,23.14,0,0,1-4.18,7.65C4,173,2.33,174.74.69,176.42v1.75a64.2,64.2,0,0,0,6.37-6.82c3.47-4.44,4.51-9.9,6.35-15,1.38-3.82,1.56-8.11,3.94-11.5,6.27-8.93,13.7-16.53,25.21-18a50.87,50.87,0,0,1,24.6,2.64c5.36,2,10.63,4.25,16.33,5.34a177.37,177.37,0,0,1,29.65,8.79,22.38,22.38,0,0,1,8.44,5.91,5,5,0,0,1,1.24,2.55c-2.49.37-4.81-.39-7.14-.82-8.91-1.64-17.77-2.29-26.75-.25-4.79,1.09-9.74,1.43-14.61,2.11A7.36,7.36,0,0,0,69.93,155c16.65-2.5,32.76-6.37,49.07-1.28-.09.45-.49.46-.77.45-7-.24-13.89,1.36-20.84,2a58.24,58.24,0,0,1-7,.12c-4.64-.16-8.87,1.6-13.24,2.75-12,3.2-22.92,8.86-33.64,15-6.11,3.54-11.27,8.24-16.79,12.5C19.61,192,12.55,197.6,5.18,202.76c-1.51,1.07-3,2.17-4.49,3.22v1.92c5.69-3.64,10.82-8.11,16.15-12.28,10.27-8,20.12-16.65,31.59-23.06,10.39-5.79,21.13-10.76,32.71-13.71a53.26,53.26,0,0,1,13.25-1.46,65,65,0,0,0,10.35-.74c7-1.11,14.07-.74,21.12-.73,2.51,0,3.9,1.86,5.11,3.7.82,1.25.39,2.55-.4,3.75a4.57,4.57,0,0,1-2.63,1.71c-10.06,3-18,9.34-25.14,16.75-.7.7-1.41,1.4-2.07,2.15s-1.61,1.14-2,2.16c1.16.27,1.66-.51,2.23-1.11,5.33-5.63,11-10.84,17.89-14.56,1.56-.84,3.1-1.72,4.65-2.58.12.17.25.33.38.5-1.42,1.29-2.79,2.64-4.27,3.88-3.87,3.25-7.92,6.27-11.47,9.92a16.89,16.89,0,0,0-4.76,9.7,38.6,38.6,0,0,1-9,19.92c-2.5,3-5.87,4.79-9.31,6.42-5.06,2.4-10.15,4.73-15.25,7.05a9.52,9.52,0,0,1-6.58.94c-1.51-.39-3,.34-4.52.61a35.72,35.72,0,0,1-24.94-4.9c-2.55-1.51-5.62-2.25-7.41-4.9-5.86-1.74-11.6-4.19-17.93-3.25-2.55.38-5.11.74-7.67.93v1.18l5.43,0c-.87,1.5-2.1,1.67-3.07,2.15L.69,219.18v.92a71.57,71.57,0,0,1,9.45-3.72,14.07,14.07,0,0,1,10.6.66c-4.68,1.37-9.74,1.85-13.27,5.74a71.69,71.69,0,0,1,7.07-2.95,25,25,0,0,1,5.28-1c1-.08,2-.08,2.68.91.54.81,1.32.45,2,.42a2.74,2.74,0,0,1,2.86,1.74,3,3,0,0,1-.75,3.63c-7.9,7.64-14.56,16.52-22.63,23.88A38.71,38.71,0,0,0,.69,252.8v2c.13-.13.25-.27.37-.4C9,245.62,17,236.91,25.58,228.74a32.21,32.21,0,0,0,3.7-4.69c.44-.61.6-1.86,1.86-1.11s.68,1.7.14,2.55c-2.5,3.93-5,7.84-7.54,11.77-3.17,5-6.76,9.59-11.56,13.09-2.42,1.77-5.08,3.17-7.58,4.83a31,31,0,0,0-3.91,3.09v5.1a26.57,26.57,0,0,1,17.52-4,5.42,5.42,0,0,1,1.94.41c4.49,2.48,9.23,2.16,14,1.38a24.48,24.48,0,0,1,7.73.19,54.85,54.85,0,0,0,14.14.07c6.73-.69,12.84.63,18.12,5.09,4,3.38,8.42,6.32,11.65,10.57a10.66,10.66,0,0,1,1.52,3c2.24,6.43,6.74,10,13.48,10.78.44.05.87.17,1.56.3-7.56,6.32-16.28,10.16-24.65,14.66,3-.54,5.53-2.12,8.24-3.28s5.56-2.47,8.48-3.43c-10.68,9.79-22,18.57-36.34,22.33,1.34.72,2,.79,3.94.1a93.61,93.61,0,0,0,22.87-12.18c2.81-2,5.31-4.39,8.58-5.88-1.29,1.91-2.44,3.93-3.88,5.7A64,64,0,0,0,80,326a12.49,12.49,0,0,1-8,7.68c-10.47,3.64-21.31,5.16-32.22,6.39a17.09,17.09,0,0,1-6.88-1c-2.3-.7-4.62-1.33-7-1.86-3.27-.75-6.55-1.55-9.33-3.45-3.74-2.55-8.17-3.61-12-5.9q-2-1.21-3.93-2.56v1.46c3.53,2.22,7.4,3.72,11,5.74a53,53,0,0,0,11.78,5.4c2.82.78,5.77,1.07,8.53,2.12a21,21,0,0,0,11,1.32c9.4-1.49,18.78-3.07,27.91-5.93,5-1.57,8.58-4.27,10.55-9.38,4-10.29,10.43-19,18.46-26.5a21.1,21.1,0,0,0,5.49-8c.6-1.61.38-2.17-1.54-2.08-8.22.36-12.49-2.48-15.57-10.08a15.47,15.47,0,0,0-2.83-4.56c-2.48-2.81-5.47-5.06-8.25-7.54-6.47-5.75-13.91-8.61-22.59-7.36-5.71.82-11.28.08-16.89-.67-1.65-.22-1.57-.9-.89-2.09a28,28,0,0,0,3.74-10.9c.42-4,1.92-7.7,3.46-11.42,1.44-3.5,3.78-4.8,7.35-4.92a67.06,67.06,0,0,0,14.21-2c7.69-2,14.72-5.43,21.75-9,4-2,7.68-4.24,9.92-8.32a12.67,12.67,0,0,1,1.92-2.18l.44.21c-.11,1.2-.18,2.39-.31,3.58a15.87,15.87,0,0,0,1.93,10.4c.9,1.47,1.81,2.95,2.65,4.46,4.17,7.52,7.45,15.5,12,22.84,1.92,3.09,3.36,6.61,6.11,9.06a39.73,39.73,0,0,0,13.61,7.82,60.87,60.87,0,0,1,16.3,8.35,32.93,32.93,0,0,0,12.23,5.77,44.89,44.89,0,0,1,14.4,6.26c5.42,3.45,6.12,3.33,10.68-1.08a3.71,3.71,0,0,0,.29-.27c2.18-2.37,4.45-4.79,4.44-8.24,0-2.81.39-5.57.46-8.37.1-4.69,2.85-7.95,5.9-11.15a5.39,5.39,0,0,1,.79,2.4c1,4.45,1.06,9,1.33,13.51a143.38,143.38,0,0,0,3.33,23.31c1.69,7.43,4.46,14.51,6.69,21.77,1.84,6,3.94,11.93,4.76,18.15,1.43,10.85,0,21.52-2.63,32.07-.92,3.65-1.6,7.27-.23,11a7.55,7.55,0,0,1,0,3.95c-1.87,9.77-7.28,17.64-13.47,25.06-4.37,5.23-9.32,9.9-11.31,16.9-1.54,5.45-11.37,10.3-16.34,8.54a43,43,0,0,0-6.25-1.28c-6-1.12-12-.37-17.93-.14a27.82,27.82,0,0,0-18.69,8c-2.22,2.13-4.24,4.69-7.47,5.5-.52.13-.5.53-.54.94-.15,1.87,1,2.18,2.52,2.21,7,.14,14.1.29,21.15.54,7.76.27,15.43,1.09,22.4,5a34.31,34.31,0,0,0,6.46,2.66,11.47,11.47,0,0,0,10.76-1.88c8.37-6,16.78-12,25.19-18,2.43-1.73,2.38-1.67,3.26,1.09,1.15,3.62,1.71,7.47,3.47,10.84a92.9,92.9,0,0,0,19.54,25.59,22,22,0,0,0,12.2,6c3.77.47,7.49,1.17,11.25,1.7,4.19.57,7.38,2.41,9.46,6.17a36.52,36.52,0,0,0,4.22,6.06,2.44,2.44,0,0,0,3.54.52,8.8,8.8,0,0,0,3.94-6,76.61,76.61,0,0,1,2.86-10.43,15.78,15.78,0,0,1,4.82-7.68,6.79,6.79,0,0,0,2.47-3.09c1.48-4.94,2.7-9.92,1.17-15.1-.48-1.61-.95-3.23-1.54-5.24,1.52.94,2.67,1.6,3.76,2.35a21.63,21.63,0,0,0,15.9,3.91c3.9-.56,7.1.67,9.12,4.28.68,1.22,1.43,2.41,2,3.69s1.17,1.17,2.11.49a7.55,7.55,0,0,0,2.77-4.93c1.21-5.9,2.36-11.81,5.5-17.06A38.75,38.75,0,0,0,338.24,417.17ZM1.73,259c2.81-1.94,5.52-4.05,8.44-5.8A40.11,40.11,0,0,0,26,236a55.58,55.58,0,0,1,4.45-6.84,4.08,4.08,0,0,1,2.09-1.78,34.81,34.81,0,0,1-5.16,10.49c-4.73,6.82-10.64,12.57-16.9,18A15.12,15.12,0,0,1,1.73,259Zm19-1.91c-2.74.28-5.53.11-8.76.14,3.45-3.56,6.42-6.79,9.56-9.85,5.38-5.24,9.08-11.58,12.37-18.23,1.39-2.81,3.62-3.53,6.25-2.28.7.33,1.09.69.22,1.19-5.58,3.25-7.15,8.79-8.51,14.52a36.19,36.19,0,0,1-2.7,8.55A10.34,10.34,0,0,1,20.71,257.09ZM27,259.16c2.3-1.37,4.65-2.46,6.41-4.41a27.8,27.8,0,0,0,4.41-6.38C38.63,253.25,33.27,261,27,259.16Zm9.2-11.7a14.52,14.52,0,0,1-7.05,7.92c2.26-5,3.12-10.36,4.52-15.54a17.66,17.66,0,0,1,3.26-7c.45-.54.8-1.25,2-1.2C37.68,236.92,38.19,242.4,36.2,247.46Zm3.1-4.16c-1.24-5.79,2.33-14.05,5.89-13.65C42,233.73,40.59,238.48,39.3,243.3Zm266.8-99.76a1.36,1.36,0,0,1-.86,1.45c-3.55,1.42-5.4,4.39-7,7.59a7.54,7.54,0,0,1-4.51,3.68c-6.74,2.49-13.86,2.42-20.86,3.18-1.72.19-3.45.28-5.17.41a1.56,1.56,0,0,0-1.55,1.18c2.33.59,4.66.23,6.92.05,7.43-.63,14.82-1.69,22.16-3,1.4-.25,1.65.11,1.57,1.45-.16,2.85-.19,5.71-.16,8.58,0,1-.27,1.47-1.32,1.72-5.63,1.31-11.24,2.69-16.85,4.08A9.35,9.35,0,0,0,276,175a47.83,47.83,0,0,0,9.62-1.33c3-.6,6-1.19,9-1.89,1.35-.32,1.62,0,1.69,1.39.28,6-3.22,9.57-7.74,12.59-3.57,2.39-7.66,3-11.76,3.49-12.17,1.51-23.74-.78-34.9-5.59-6.31-2.72-12.65-5.35-19-8-.66-.28-1.42-.41-1.84-1.61,2.41.55,4.61,1,6.79,1.56,4.32,1.11,8.53,2.81,13,3a160.66,160.66,0,0,0,24.89-1.4c.56-.06,1.63.19,1.46-.83-.12-.75-1-.34-1.55-.31-6.05.33-12.09.73-18.14,1-7.29.33-14.26-1.76-21.26-3.31-7.89-1.74-15.72-3.48-23.87-2.94a9.45,9.45,0,0,1-1.59-.11c-.12,0-.23-.12-.56-.31,7.76-4.41,16.44-5.47,24.66-8,8.43-2.54,17.06-1.15,25.59-2.07-1.89-.16-3.78-.31-5.67-.49s-3.83-.48-5.76-.58c-6.7-.36-13.06,1.46-19.46,3.06-6.19,1.55-12.37,3.14-18.72,4.75.09-.89.69-1.13,1.25-1.39,3.8-1.77,7.66-3.42,11.37-5.36,2.51-1.31,5.41-.74,7.88-2s5.39-1.67,6.64-4.67c.35-.84,1.34-1.22,2.23-1.59a126.25,126.25,0,0,1,32.37-8.47c5.6-.73,11.14-2,16.73-2.85s11.41-.08,17.06.89c2.82.48,5.65.92,8.47,1.38C305.36,143.08,306,143.06,306.1,143.54Zm-118.71,25.8c2.44-3.2,11.55-6.88,14.58-5.85C197.33,166.35,193.07,169,187.39,169.34ZM229.61,148a16.22,16.22,0,0,1,8.54-4,44.35,44.35,0,0,1,13.8,0c-1.79.78-3.78.54-5.59,1.26a88.57,88.57,0,0,1-14.44,4.52,7.71,7.71,0,0,1-1.55.3,1.4,1.4,0,0,1-1.47-.81C228.62,148.56,229.26,148.35,229.61,148Zm68.95-8.37c-5.45.21-10.83-.94-16.32-.3s-10.87,1.43-16.37,1.83l6.45-2.22a23.9,23.9,0,0,0-7.39,1.28,47.65,47.65,0,0,1-18,1.58,28.3,28.3,0,0,0-18.23,4.7c-.53.34-1.06,1.11-1.74.69s-.3-1.23-.33-1.87a2.7,2.7,0,0,1,1.15-2.21,22.23,22.23,0,0,1,8.93-4.73c7.25-2,14.52-3.94,21.85-5.62,8.06-1.84,16.12-2,24,1a13.76,13.76,0,0,1,3.52,1.75c-1.16.82-2.59.28-3.73,1C287.94,136.65,293.54,136.49,298.56,139.64Zm-68.07-4.06c4.37-1.63,7-5.16,9.37-8.91a20,20,0,0,1,8.47-7.64c2.28-1.08,4.41-2.49,6.84-3.26,6.25-2,11.8,0,17.17,3,.53.3,1,.61,1.58.86,6.12,2.86,9.25,6.48,11.44,13.29a17.4,17.4,0,0,1-3.12-.63c-8.19-3.22-16.53-2.38-24.78-.66-7.55,1.57-15,3.64-22.46,5.63-2.41.64-4.71,1.72-7.13,2.63C227.71,137.67,228.51,136.33,230.49,135.58Zm.1-14.8a2.32,2.32,0,0,1,3.1.25,2.18,2.18,0,0,1,.24,3.07c-1.23,1.82-2.52,3.6-3.85,5.34a17.33,17.33,0,0,0-3.71,8.71,21.17,21.17,0,0,1-.78,3.51,16.56,16.56,0,0,0,.18,9.46c.87,2.92.51,3.64-2.37,4.59a15.15,15.15,0,0,1-6.6.87c-2.47-.27-5.1.7-7.63,1.29-5.78,1.34-11.32,3.5-16.95,5.34a30.78,30.78,0,0,1-14.52,1.64c-4.76-.73-9.56-.54-14.36-.47-10.22.16-14.66-.47-24.7-3.38-.45-.3-1.48,0-1.49-.88s1-.74,1.56-1c5.8-2.16,11.63-4.26,17.43-6.44,7.49-2.81,14-7.4,20.6-11.76,4.71-3.1,9.65-4.16,15-2.34a30,30,0,0,0,12.12,1.74c5-.4,8.87-2.91,12.69-5.77A64.06,64.06,0,0,0,229,122.28,5.37,5.37,0,0,1,230.59,120.78Zm-82.87,30.16a112.6,112.6,0,0,1,12.83-3c.46-.08,1.22-.57,1.38.13.24,1-.79.55-1.24.72-4.17,1.57-8.34,3.14-12.54,4.63s-8.31,2.86-12.47,4.26c-.55.19-1.15.45-1.75-.22A44.34,44.34,0,0,1,147.72,150.94Zm-9,1.41a4,4,0,0,1,3.76-1.73A7.92,7.92,0,0,1,138.68,152.35ZM196.41,138a6.82,6.82,0,0,1,4.42-2.48,54.75,54.75,0,0,0,17.64-6.7,8.45,8.45,0,0,1,1.27-.56,4.34,4.34,0,0,1,.82-.18C216.29,135.13,204.86,141.19,196.41,138Zm9.41-28.32c1-3.2,3.51-5.49,7-4.72Zm9-35c2.85-1.61,6.13-2.19,9.34-2.79.91-.18,1.8-.4,2.76-.61-.18-.89-.91-1.18-.81-2.08a22.52,22.52,0,0,1,6.52,1.56c1.44.71,1.16,2,.32,3a24.37,24.37,0,0,1-3,2.91,15.59,15.59,0,0,0-5.71,11.64c-.1,2.46-.15,4.93-.45,7.37-.39,3.11-1.86,4.54-4.87,5.32a75.11,75.11,0,0,1-9.4,1.86,5,5,0,0,0-3.61,2.18,49.25,49.25,0,0,1-17.55,14.77c-.53-.43-.12-.88-.06-1.27a23.56,23.56,0,0,0-2.62-15.06c-1.06-2-.65-3.08,1-4.5,3.58-3.17,6.94-6.58,10.39-9.93a1.32,1.32,0,0,0,.39-.94c-4.39,1.56-6.47,6.35-11.07,8.1a7,7,0,0,1,2.1-3.67C196.49,85.4,205.56,79.81,214.86,74.62Zm-12.32,4.62.36.59C198,83.54,193.07,87.25,188,91.08,189.51,85.29,196,80.06,202.54,79.24Zm-15.89,3c2.9-4.4,7-5,12.1-4.34-6,3.19-9.79,8.31-14.19,13.11C183.56,87.41,184.89,84.87,186.65,82.21Zm-39.74,51.73c4.41-3.65,8.91-7.18,13.26-10.89A30.84,30.84,0,0,0,169,109.7c2.19-6.08,4.26-12.22,6.53-18.27a23.77,23.77,0,0,1,5-8.33c.48-.5.84-1.22,1.88-1.14-.23,2.78-.7,5.5-.73,8.28a36.72,36.72,0,0,0,3.51,15.2c3.92,9,2.78,15-5.75,22.87-5,4.63-11,6.65-17.54,7.93-7.1,1.39-14.12,3.25-21.18,4.89-.35.08-.74.34-1.24-.11C141.53,138.21,144.27,136.12,146.91,133.94ZM140.11,5.47a6.6,6.6,0,0,1,2.44,5A98.73,98.73,0,0,1,142,31.19c-1.39,10.62-3,21.21-3.39,32a224.41,224.41,0,0,0,.86,23.91c.68,9.23,1.07,18.47,1.59,27.7a1.14,1.14,0,0,1-.38,1.12,46.07,46.07,0,0,1-2.85-12.38C137.1,96.09,135,89,133.2,81.84a59.22,59.22,0,0,1-.6-25.35c.72-4.06,1.3-8.16,1.63-12.26.5-6.23,2.06-12.2,3.6-18.21a52.46,52.46,0,0,0,1.9-18.37A2.84,2.84,0,0,1,140.11,5.47Zm-3.45-.87a1.74,1.74,0,0,1,.57-1.52c1.3,1.9,1.19,4.08,1.42,6.14A36.56,36.56,0,0,1,137.11,24,138.51,138.51,0,0,0,132,52.88c-.47,5.62-1.44,11.21-2.19,16.81a13.33,13.33,0,0,1-.35,1.4c-2.34-2.51-3.72-5.13-3.7-8.35,0-5.4.81-10.74,1.1-16.12a2.57,2.57,0,0,0-.33-2.14L124,64.13c-2.32-1.55-3.49-3.45-3.39-6.1.2-5.26.36-10.51.89-15.74.39-3.86,2.32-7.06,4.24-10.26,3.12-5.18,7-9.94,8.72-15.88A48.36,48.36,0,0,0,136.66,4.6ZM117.34,34.37a82.72,82.72,0,0,1,7.11-7.27,23.26,23.26,0,0,0,6-9c.9-2.22,1.86-4.41,2.93-6.57a36.41,36.41,0,0,1-3.79,12,38.71,38.71,0,0,1-4.11,6.35c-4.7,6.28-6.44,13.47-6.39,21.19a19.3,19.3,0,0,1-.58,5.54A4.07,4.07,0,0,1,117,53.69a94.55,94.55,0,0,1-1.55-13.84A7.23,7.23,0,0,1,117.34,34.37ZM81.51,133.06A38.37,38.37,0,0,1,56.7,113.21a8.88,8.88,0,0,1-1.44-3.47c8.13,10.66,18.61,17.71,30.78,23A6.86,6.86,0,0,1,81.51,133.06ZM58.36,109.53c7.68,7.39,16.25,13.63,25.06,19.57C73.25,124.92,64.38,119.06,58.36,109.53Zm-1.06-3.4c.77-.88,1.05-.34,1.4-.09,8.68,6.24,17.24,12.71,26.72,17.72,6.17,3.26,12.54,6.16,18.32,10.12,2.43,1.66,5,3.09,7.06,5.35C90,132.92,72.55,121.38,57.3,106.13Zm69.17,12c1.41,8,3.84,16,2.39,24.31-.89-3-1.39-6.07-2.6-9a26,26,0,0,0-5-8.08,38.33,38.33,0,0,1,4.9,21.5,70.17,70.17,0,0,0-21-22.77l-.41.37c1.11,1.12,2.19,2.29,3.36,3.36,4.41,4,9.1,7.83,12.23,13.06a32.09,32.09,0,0,1,3.72,7.51,4.51,4.51,0,0,1-2-1.51,105.09,105.09,0,0,0-30.77-21.17c-7-3.16-13-7.75-19.47-11.75-7.53-4.68-13.77-10.85-20.24-16.79a9.12,9.12,0,0,1-3.07-6.44c-.51-9.3-4.46-17.14-9.84-24.48-3.19-4.34-6.11-8.89-9.15-13.35a3.7,3.7,0,0,1,.1-4.61C33,43.54,37.08,42,43.46,43.5c8.69,2.08,17.37,4.25,25.52,8.08,1.57.73,3.12,1.5,4.69,2.23.39.19.76.61,1.41,0-8.33-5.77-18.2-7.63-27.53-11.27a5,5,0,0,1,2.29-1.68,22.76,22.76,0,0,0,8.78-6.76,9.11,9.11,0,0,1,4.63-3.3c5.12-1.68,10.12-3.64,15.39-4.9,7.07-1.7,13.29,0,19.4,3.29,5.63,3,9.32,7.24,10.89,13.7,2.5,10.26,2.79,10.19,10.27,18.92a56.51,56.51,0,0,0,6.17,6.5A14.75,14.75,0,0,1,130,76.8c2,9.45,3.83,18.92,5.84,28.37,1.09,5.08,2.42,10.1,3.6,15.16a16.83,16.83,0,0,1-1,10.57c-1.57,3.68-3.32,7.28-5,10.93A3,3,0,0,1,132,143.4c-2-17-3.09-34.07-14.19-48.2C121.11,102.67,125,109.93,126.47,118.1Zm3.88,36.49c-.95-.78-.74-1.67-.44-2.71a8,8,0,0,1,4.59-5.13c9.88-5,20.44-7.84,31.16-9.9a28.28,28.28,0,0,0,16.49-9,37.76,37.76,0,0,1,9.78-7.88c2.84-1.61,5.12-4,7.53-6.24,2.08-1.92,2.31-1.82,2.93.86a13.48,13.48,0,0,0,5.89,8.67c2.92,1.89,5.08,1.92,7.95,0a34.09,34.09,0,0,1,5.76-3.59,13.87,13.87,0,0,1,7.32-.62c-2.45,3.09-5.78,4.94-8.91,7-5.79,3.85-12.3,6-19,7.75a19.3,19.3,0,0,0-2.42.85,17.78,17.78,0,0,1-11,1.43c-3.54-.76-7,.68-10,2.58a72.28,72.28,0,0,1-25.06,9.54c-2.58.49-5,1.49-7.73,1.57,10.68-5,22-8.3,32.74-13.14s22.18-7.26,33.44-10.39c-.07-.23-.13-.46-.2-.69-2.7.51-5.38,1.1-8.09,1.53-8.43,1.34-16.33,4.32-24.18,7.51-12.4,5.05-24.75,10.24-37.59,14.11-3.36,1-5.8,3.47-8.68,5.23C132,154.4,131.35,155.42,130.35,154.59Zm-5.92,16.18c-1.51,2.06-2.66,3.79-5,4.54A11.34,11.34,0,0,1,124.43,170.77Zm60.07,102c-1-3.93-.29-7.23.36-10.46,1.26-6.19,2.15-12.46,3.13-18.71a2.13,2.13,0,0,0-.7-2.4c-.86,4.83-1.8,9.58-2.54,14.37-.82,5.31-2.61,10.48-2.23,16,.3,4.38.22,8.78.81,13.15.08.67.7,1.67-.16,2a2.25,2.25,0,0,1-2.61-1c-5.89-9.86-12.68-19.26-15.34-30.76a80.25,80.25,0,0,1-1.78-16.63,157.18,157.18,0,0,0-.61-15.94,4.18,4.18,0,0,0-.11-.79c-.14-.46.09-1.31-.63-1.26-.88.07-.5.94-.52,1.46,0,1,0,2,.05,3,.23,8.3-.25,16.64,1.25,24.87A76.52,76.52,0,0,0,177,282.62c.23.3.6.57.41,1.12-2.63-1.08-5.27-2.11-7.86-3.24a15.39,15.39,0,0,0-4.2-1.26,26.41,26.41,0,0,1-12.67-5.57,46.67,46.67,0,0,0-14.49-7.48c-5.79-1.79-10.71-5.07-15.26-8.91-2.13-1.8-3.1-4.62-4.67-6.93-5.5-8.08-9.1-17.18-13.75-25.72-1.39-2.57-3-5-3.52-8a20.44,20.44,0,0,1,.71-8.3c1.31-5.37,2.39-10.8,3.81-16.14,1.23-4.64,3.34-8.86,7.4-11.77a9.91,9.91,0,0,1,2.6-1.48c7-2.26,11.46-7.51,15.84-12.93.95-1.18,1.6-3.08,2.94-3.33s2.18,1.69,3.34,2.55c8,6,13.2,13.94,16.66,23.17.54,1.43,1.23,2.81,1.87,4.2a1.27,1.27,0,0,0,.7.62c-1.18-5.35-3.72-10.17-5.79-15.17s-6.63-8.34-10.14-12.8a15.63,15.63,0,0,1,10.29,2.95c9,6,17.47,12.64,24.18,21.24,3.67,4.72,6,10.18,8.26,15.69a4,4,0,0,0,.69,1.22c.12-2.48-1-4.64-1.87-6.83-4.65-11.15-12.86-19.24-22.35-26.28-2.13-1.58-4.09-3.36-6.31-5.2a4.86,4.86,0,0,1,4.09.51c5.85,3.45,11.73,6.85,17.07,11.08s9,9.54,12,15.52c4.66,9.31,8.16,18.95,8.84,29.47a38,38,0,0,1-1.75,15.15c-3.56,10.28-6.1,20.86-9.09,31.31C184.85,271.46,184.75,271.84,184.5,272.73Zm18.86-23.63c-2.15.48-3.15,2-3.84,3.93a33.75,33.75,0,0,1-4.22,8.37c-3,4.22-3,9.23-3,14s-2.89,7.73-5.9,11.39c-.27-7.27-.83-13.92,1.17-20.64,3-10.21,6.63-20.26,8.92-30.7,1.23-5.58.45-11-.2-16.43-.81-6.69-3.12-12.87-5.83-19-2.46-5.58-5-11-8.88-15.78-4.47-5.57-10.31-9.35-16.29-13a41,41,0,0,1-6.68-4.56c11.49,1,19.48,7.77,27.26,15.59-.66-2.75-3.57-6.13-7.48-8.91-3.12-2.21-6.29-4.34-9.77-6.75,6.54-.74,12.33-.45,17.29,3.88,4.12,3.59,9.05,6.2,12.78,10.21,5.8,6.24,11.51,12.59,16,19.88a10.09,10.09,0,0,1,.69,9.62c-3.24,7.24-4.14,14.84-4.28,22.61-.1,5.93-2.81,10.73-6.28,15.23A2.41,2.41,0,0,1,203.36,249.1Zm100.16,32a18,18,0,0,1,6,11.53,14.46,14.46,0,0,0,3.15,7.43c1.92,2.45,2.16,5.55,2.93,8.43,1.09,4.12,2.27,8.22,1.75,12.58-1,8.17-7.93,15.88-16.19,18-5.56,1.38-11.29.51-16.86,1.21-3.86.49-6.45-1.1-9.19-3.17-5.44-4.13-11.62-7-17.48-10.45a62,62,0,0,0-8.4-4.18c-3.31-1.29-6.63-2.49-10.3-1.68a1.82,1.82,0,0,1-1.64-.23,23.89,23.89,0,0,1,16-3,55.77,55.77,0,0,0,8.73.95,18.89,18.89,0,0,0,13.94-5.92c4.45-4.51,8.69-9.16,11.68-14.84,2-3.75,2.46-7.86,3.36-11.88a61.12,61.12,0,0,0,1.62-12.8C296,276.51,300.26,278,303.52,281.12Zm-22,4.82c-.16,1.39-1.16,2.26-2.17,3.12C279.33,287.58,280.52,286.83,281.49,285.94Zm0,3.39c.93-1.18,2-2.21,3-3.31l.5.35a25.48,25.48,0,0,1-6.64,13.09c-4.35,4.89-10.14,7.2-16.19,9a55.68,55.68,0,0,1-11.61,1.94,5.66,5.66,0,0,1-3.66-.5c3.63-1.77,6.92-3.46,10.27-5,3-1.36,5.95-2.74,9-3.8C272.68,298.89,277.37,294.52,281.48,289.33ZM238.63,311.7c4.4-4.56,9-8.94,15-11.35,2.81-1.13,5.92-1.48,8.79-2.56,4.19-1.57,8.28-3.33,12.33-5.21.34-.17.68-.46,1.22,0a21.36,21.36,0,0,1-7.79,5.9q-10.08,4.66-20.2,9.2a31.7,31.7,0,0,0-6.91,4.35,15.53,15.53,0,0,1-3.16,1.65A2,2,0,0,1,238.63,311.7Zm10.5.57a81.78,81.78,0,0,0,21.19-5.55c8.86-3.88,14-10.73,15.87-20.08a7,7,0,0,0,.06-2.58c-.61-3.44.79-6.22,2.65-8.93,1-1.4,1.45-.71,2,.22a3.58,3.58,0,0,1,.23,2.35,29.19,29.19,0,0,1-.91,4.29c-1.37,4-.71,8.36-2.31,12.32a45.94,45.94,0,0,1-10.22,14.86c-2.31,2.38-4.58,4.84-7.69,6.26a21.74,21.74,0,0,1-12.51,1.44c-4.54-.69-9.09-1.65-13.67-.42-2.34.64-4.63,1.46-6.94,2.19A21.49,21.49,0,0,1,249.13,312.27Zm-21.95,10.51c.39.17.28.91,0,1.27-.81,1.07-1.58.14-2.95-.16C225.59,323.27,226.21,322.37,227.18,322.78Zm-19-31.84q-1.42-8.46-2.77-16.94a7.47,7.47,0,0,1,.11-2.57,303.62,303.62,0,0,0,12,46.69c-2.37-1.16-2.94-3.06-3.67-4.79C210.87,306.14,209.44,298.56,208.17,290.94Zm6.62,28.85c1.21,1.1,2.42,2.21,3.64,3.29a17.44,17.44,0,0,0,8.59,4c1.29.24,1.56.74,1.61,2a22,22,0,0,1-5.1,15.55c-1.85,2.25-3.73,4.63-3.34,7.86.3,2.46,1.81,4.42,3,6.49,1.58,2.77,3.38,5.43,5,8.18a9.08,9.08,0,0,1,1.18,6.32c-.77,4.69-.11,9.44-.68,14.14a20.44,20.44,0,0,1-3,8.81,18,18,0,0,0-3.06,11c.2,3.54-1.9,6.11-4,8.63a20.92,20.92,0,0,1-12.3,7.5c.45-1.78,1.61-2.84,2.51-4,5.58-7.32,8.32-15.64,9.33-24.71.47-4.22,1.47-8.39,2.3-12.57,1.25-6.29.19-12.46-.78-18.65-.32-2-.65-3.93-1-5.91a15.14,15.14,0,0,1,.44-5.52c1.13-5.27.29-10.45-.78-15.64C217.26,331,216.25,325.39,214.79,319.79Zm2.54,62.2c.49-3.47-.24-6.91-.22-10.36a10.27,10.27,0,0,1,.73-4.61c.89.57.81,1.35.95,2.06,1.25,6.29.28,12.46-1.1,18.58-1.07,4.76-1.54,9.6-2.31,14.39-1.22,7.6-5,13.82-10.27,19.21-1.72,1.77-3.36,3.72-5.73,5-.19-1.17.52-1.67,1-2.29A93.49,93.49,0,0,0,217.33,382Zm-20.62,34.36q6-7.82,12.14-15.56c1.45-1.84,2.34-4,3.68-6.12a3.81,3.81,0,0,1-.2,3.11c-3.52,8.05-6.65,16.3-11.91,23.44-2.27,3.08-4.84,5.8-9,6.92A23.83,23.83,0,0,1,196.71,416.35Zm13.78,20.27c-.87.61-1.75,1.21-2.62,1.8-8.54,5.84-18.19,8.29-28.32,9.27a4.22,4.22,0,0,0-1.93.41c1.78.8,4.89.84,8.7.18a70.31,70.31,0,0,0,8.57-1.95c.35-.1.8-.32,1.09.11s-.1.72-.41.95c-4.18,3.09-8.23,6.37-12.85,8.79-3.37,1.77-6.76.85-10-.52-2.89-1.2-5.54-2.91-8.48-4-4.89-1.87-10-2.21-15.13-2.46-6.51-.3-13-.41-19.56-.64-1.37,0-2.74-.24-4.66-.41,4.57-3.73,7.84-8,12.63-10.61a23.75,23.75,0,0,1,13.24-3.06c4.06.31,8.11-.42,12.18-.08a75.56,75.56,0,0,1,10.56,2.09c4.93,1.12,9.68,0,14.22-2,5.26-2.27,10.67-4.24,15.27-7.81a6,6,0,0,1,2.95-1.17c6.28-.77,10.61-4.64,14.48-9.18a17.49,17.49,0,0,1,2.5-2.53c.24,2.91.47,5.69.72,8.46a4.7,4.7,0,0,1-1,3.15C219.4,430.06,215,433.41,210.49,436.62Zm63.62,39.3c-.1,2.66-.07,5.32-.08,8a4.47,4.47,0,0,1-.42,2.23c-1.49-2.28-1.64-4.68-1.85-7-.69-7.84-3-15.25-5.79-22.56-1.1-2.92-2.11-5.89-3.22-8.81a3.26,3.26,0,0,0-1.16-1.92,4.27,4.27,0,0,0,.35,2.92c2.2,6.42,4.44,12.82,6.54,19.28,1.75,5.36,1.52,11,2.72,17.08-2.75-2.76-4.75-5.44-5.52-8.66-1.54-6.52-5.16-11.8-9.37-16.76-4.62-5.44-9.05-11-12.08-17.53a.79.79,0,0,0-.9-.58,23.75,23.75,0,0,0,3.73,8.4c2.62,3.53,5.2,7.12,8.07,10.42,4.46,5.14,7,11.28,9.69,17.37.81,1.81,1.58,3.64,2.57,5.94-1.53-.54-2.67-1-3.82-1.34-3.91-1.27-8-1.31-12-1.81a24.43,24.43,0,0,1-15.13-7.32c-5.74-6-11.5-11.88-15.53-19.19-2.8-5.07-3.94-10.73-5.24-16.31-.37-1.56.66-2.76,1.64-3.87a66.18,66.18,0,0,1,4.93-5.5c3-2.77,3.32-6.19,2.84-9.87a43.92,43.92,0,0,1,5.59-28.14c1,4,.59,7.72.93,11.4a100.39,100.39,0,0,0,4.59,20.84,5.86,5.86,0,0,0,2.24,3c-3.55-11.14-6.21-22-5.36-33.46a1.49,1.49,0,0,1,1,1.14c1,5.16,4.77,8.69,7.6,12.76a66.46,66.46,0,0,1,9.19,18.08c.54,1.75,1,3.59,3.2,4.71l-4.89-13.11c2,.61,3,2,4.17,3.06,5.33,5,10,10.41,12.92,17.29C271.67,448.84,274.66,462,274.11,475.92ZM276,486.06a8.75,8.75,0,0,1-.32-6.72A10.6,10.6,0,0,1,276,486.06Zm-.26-13.63c-1-8.92-.94-17.93-4.3-26.33-3.26-8.16-5.32-16.94-11.75-23.61,2.45.77,4.64,1.93,5.86,3.92,3,4.89,6.57,9.38,9.21,14.47,4.23,8.15,4.62,16.82,3.32,25.67C277.78,468.64,275.87,470.17,275.74,472.43Zm7.71-7.35c-1,6.79-2.18,13.54-3.39,20.29-.2,1.07-.12,2.93-1.35,3-.91,0-.47-1.82-.62-2.82a44.15,44.15,0,0,1,1.11-18.6c1.45-5.22.35-10.58.14-15.89s-2.74-9.65-5.3-14a13.72,13.72,0,0,1-1.64-3.54,4.87,4.87,0,0,1,3.66,2.9q3.07,7.15,6.11,14.33C284.1,455.25,284.13,460.21,283.45,465.08Zm7.22,2.26a4.73,4.73,0,0,1-1,1.71c-1.84,2.09-3.72,4.15-5.78,6.44a50,50,0,0,1,.9-8.73A36.78,36.78,0,0,0,282,445.68c-1.6-3.51-2.62-7.28-4.62-10.63a14.08,14.08,0,0,0-4.85-4.72c-.11,1-.18,1.68-.28,2.63-2.34-1.47-3.17-3.77-4.67-6.22,3.5.92,6.57,1.64,8.56,4.28,4.27,5.7,9,11.1,12.66,17.21S292.57,460.73,290.67,467.34ZM325,460.79c-.5.88-.9,1.29-1.67.2-1.11-1.57-2.39-3-3.49-4.61a5.81,5.81,0,0,0-4.71-2.53c-3.65-.27-7.33.48-11-.34-6.86-1.56-11.84-5.89-16.16-11.12-2.37-2.87-4.42-6-6.72-8.93a21.9,21.9,0,0,0-10.17-7.17c-10.66-3.67-18.85-10.55-25.76-19.2-3.24-4-6.85-7.82-9.3-12.47a25.51,25.51,0,0,1-2.91-9.29c-.55-5.49-1.07-11,0-16.5.15-.82-.34-1.24-.69-1.77-2.63-3.85-5.42-7.58-7.83-11.59-2.09-3.51-2.36-6.8.24-10.19,1.53-2,2.79-4.2,4.5-6.8-.06,3.65,1.82,5.57,4,7.4a41.27,41.27,0,0,0,17,8.5c4.86,1.21,8.85,4.25,12.94,7a3.26,3.26,0,0,0,2.22,1l-7-5.71a2.36,2.36,0,0,1,2.31-.09c7.35,3.45,15.13,6,21.92,10.63a45.14,45.14,0,0,1,14.29,16.17c3.12,5.75,7.36,10.59,11.57,15.49a65,65,0,0,1,14.74,31.25c1.15,6.14,1.94,12.34,2.57,19-3.11-2.66-4.21-5.9-5.29-9.1-2.8-8.27-7.58-15.38-12.81-22.25-.73-.94-1.42-1.9-2.21-3-.48.88,0,1.42.43,2a91.76,91.76,0,0,1,14.61,26.7A69.41,69.41,0,0,0,325,452.4,8.24,8.24,0,0,1,325,460.79ZM231.82,336a20.32,20.32,0,0,0,8.15,9.38c3.49,2,6.68,4.53,10.13,6.71-.22.21-.33.37-.39.36-6.21-1.72-12.17-3.93-16.71-8.79C231.07,341.63,230.56,339.22,231.82,336ZM332.89,437.92a29.59,29.59,0,0,0-2.29,5.53c-.45,1.26-1,2.49-1.51,3.7-.17.38-.21,1.05-.8,1s-.76-.65-.85-1.21c-.63-3.94-1.39-7.87-1.89-11.83A69.79,69.79,0,0,0,308.3,396.7a106.26,106.26,0,0,1-12.93-18c-3.9-6.91-9.8-11.63-16.67-15.34s-14.19-5.79-21.11-9.12a117.83,117.83,0,0,1-18.78-11,16.16,16.16,0,0,1-6.63-12.45,13.38,13.38,0,0,0-.13-1.8c-.68-3.43-.7-3.45,2.44-5,4.23-2.14,8.6-2.7,14.49-.5,3.11,1.74,7.38,4.34,11.83,6.59,8.83,4.45,16.59,10.59,25.07,15.6a101.08,101.08,0,0,0,16.45,7.73c6.34,2.33,10.78,6.67,14.14,12.32C322,375,327.18,384.45,333,393.54a15.11,15.11,0,0,1,2.44,6.08,172.3,172.3,0,0,1,1.7,21.87A30.72,30.72,0,0,1,332.89,437.92ZM13.6,187c7.56-7.24,16.38-12.81,25.21-18.34-15.06,6.94-26.6,18.21-38.12,29.48v1.49C4.91,195.29,9.27,191.16,13.6,187Z"/><path class="cls-1" d="M154,53.78a12.63,12.63,0,0,1-1.18,9.38Q153.39,58.47,154,53.78Z"/><path class="cls-1" d="M153.21,37.18c1,2.52.89,5.18,1.11,7.8A20.88,20.88,0,0,1,153.21,37.18Z"/><path class="cls-1" d="M114.77,90.8c-1.38-.82-15.16-16-16.21-17.88A74.44,74.44,0,0,1,114.77,90.8Z"/><path class="cls-1" d="M72.56,103.06a26.52,26.52,0,0,1,8.8,5.39C77.84,107.6,75.08,105.51,72.56,103.06Z"/><path class="cls-1" d="M60.49,91.87a13.84,13.84,0,0,1-7.4-6.37Z"/><path class="cls-1" d="M273,369.56l11,11.9C281.22,380.8,273,372.18,273,369.56Z"/><path class="cls-1" d="M300.12,408.31l3.17,3.78A5.15,5.15,0,0,1,300.12,408.31Z"/><path class="cls-1" d="M45.84,223.83l16.56-9.19C57.69,219.15,52.4,222.61,45.84,223.83Z"/><path class="cls-1" d="M78.32,203.37a38.32,38.32,0,0,1,9.56-7.92A30.24,30.24,0,0,1,78.32,203.37Z"/><path class="cls-1" d="M5.09,224.33a26.4,26.4,0,0,1-4.4,3.47c-.23.17-.46.34-.69.53a5.47,5.47,0,0,1,.69-1.16A8,8,0,0,1,5.09,224.33Z"/><path class="cls-1" d="M12.61,226.86l-5,4A7.13,7.13,0,0,1,12.61,226.86Z"/><path class="cls-1" d="M156.19,444.82c2.88-.65,5.8-.28,8.69-.48a.61.61,0,0,1,.71.73c0,.45-.35.5-.72.46C162,445.22,159.05,445.6,156.19,444.82Z"/><path class="cls-1" d="M274.51,138.11a7.58,7.58,0,0,1,4.63-1.44A5.1,5.1,0,0,1,274.51,138.11Z"/></g></g></svg>