<svg xmlns="http://www.w3.org/2000/svg" viewBox="0 0 30 30.01"><defs><style>.cls-1,.cls-2{fill:#a77969;}.cls-1{isolation:isolate;opacity:0.4;}</style></defs><g id="Layer_2" data-name="Layer 2"><g id="Layer_1-2" data-name="Layer 1"><path class="cls-1" d="M21.3,0H8.72C3.26,0,0,3.26,0,8.72V21.28C0,26.76,3.26,30,8.72,30H21.28C26.74,30,30,26.76,30,21.3V8.72C30,3.26,26.76,0,21.3,0Z"/><path class="cls-2" d="M20.6,23.88a12.48,12.48,0,0,1-3.36-.74,16.2,16.2,0,0,1-4.13-2.29A11.22,11.22,0,0,1,10.5,18a17,17,0,0,1-2.06-4.38,9.86,9.86,0,0,1-.38-2.09,2.68,2.68,0,0,1,.49-1.82,5.39,5.39,0,0,1,1-1.14A1.2,1.2,0,0,1,11,8.4l0,0a2.43,2.43,0,0,1,1.43,1.31,12.3,12.3,0,0,1,.9,2.19,1.34,1.34,0,0,1-.41,1.36l-.58.54A.81.81,0,0,0,12.15,15,10.38,10.38,0,0,0,14,17.46a11.52,11.52,0,0,0,2.87,2.24.9.9,0,0,0,1.38-.22l.45-.49a1.35,1.35,0,0,1,1.33-.4,11.65,11.65,0,0,1,2.47,1,2.57,2.57,0,0,1,1.2,1.73.83.83,0,0,1-.17.77A3.81,3.81,0,0,1,21,23.85Z"/></g></g></svg>