<svg xmlns="http://www.w3.org/2000/svg" viewBox="0 0 486.49 496.61"><defs><style>.cls-1{fill:#ffead9;}</style></defs><g id="Layer_2" data-name="Layer 2"><g id="Layer_1-2" data-name="Layer 1"><path class="cls-1" d="M247.26,208.34a13.17,13.17,0,0,0-1.92,2.19c-2.23,4.08-5.93,6.3-9.91,8.32-7,3.55-14.06,7-21.75,9a67.15,67.15,0,0,1-14.22,2c-3.57.12-5.9,1.42-7.35,4.92-1.54,3.73-3,7.39-3.46,11.42a27.7,27.7,0,0,1-3.74,10.9c-.67,1.19-.75,1.88.89,2.1,5.61.75,11.19,1.49,16.89.67,8.69-1.26,16.13,1.6,22.6,7.36a93.2,93.2,0,0,1,8.25,7.53,15.76,15.76,0,0,1,2.83,4.56c3.07,7.6,7.34,10.45,15.56,10.08,1.93-.08,2.15.47,1.55,2.08a21.33,21.33,0,0,1-5.49,8c-8,7.55-14.47,16.21-18.46,26.5-2,5.1-5.53,7.81-10.56,9.39-9.12,2.86-18.5,4.44-27.9,5.92a21.24,21.24,0,0,1-11-1.31c-2.76-1.06-5.71-1.34-8.54-2.13a53.3,53.3,0,0,1-11.77-5.39c-4.23-2.38-8.82-4-12.79-7A57.06,57.06,0,0,1,135.37,314c-.31-.41-.51-1.11-1.07-1.06-.71.07-.69.87-.87,1.4-.77,2.33-.05,4.61.27,6.9,1.68,11.63,5.77,22.56,9.73,33.53,3.19,8.83,6.52,17.62,9.39,26.55a61.92,61.92,0,0,1,2.38,23.92c-.76,9.75-1.67,19.48-2.51,29.23-.17,2-.68,2.32-2.59,1.52a5.77,5.77,0,0,1-1.38-.8c-4.59-3.81-10-5.45-15.83-5.89-5.11-.39-9.7-2.4-14-4.9-2.45-1.41-3.42-4.2-4.84-6.51-3.57-5.78-6.07-12.15-9.85-17.83-2.59-3.88-5.33-7.66-8.27-11.28a17.13,17.13,0,0,1-4.15-12c.5-11,0-22.1.28-33.14s4.77-20.11,13.07-27.46c4.35-3.85,9-7.28,13.5-10.94,3.08-2.52,4.15-5.72,3.94-9.75a45.58,45.58,0,0,0-5.62,4.5c-3.52,3-7.08,5.87-10.46,9a34.45,34.45,0,0,0-8.39,12.54C93.82,332.06,85.68,339.06,77,345.52c-3.47,2.58-7.87,3.27-12,4.25a61.38,61.38,0,0,1-15.65,1.71c-5.45-.14-10.44-2-15.36-4.12a37.32,37.32,0,0,0-21.52-2.58,13.78,13.78,0,0,1-10.1-2.19c-2.27-1.44-2.55-3.64-2.26-6,.25-2,.12-4,.27-6,.33-4.18.77-8.45,5.35-10.6a4.84,4.84,0,0,0,2.78-3.69,8.41,8.41,0,0,1,1.72-3.14,17.74,17.74,0,0,0,3-6.89c.54-3,2.55-5.09,4.17-7.42a11,11,0,0,0,1.6-3c1.63-5.18,4.74-9.61,8-13.72,2.85-3.56,7.46-4.9,11.88-5.67,6.56-1.14,13.27-.86,19.91-1.32l5.39-.39c-2.5-2.19-4.56-4-6.6-5.78C54,265.87,50.16,262.87,47.14,259a20,20,0,0,1-4.48-10.94,65.19,65.19,0,0,1-.24-9.78c.46-6.09-.91-11.91-2.38-17.73q-2.4-9.48-4.88-18.95a29.41,29.41,0,0,1-.83-7.52c0-5.07,3.38-8,8.36-6.86A24.34,24.34,0,0,0,53.76,187c3.09-.72,5.43-2.74,8-4.33,7.71-4.69,15.8-6.45,24.53-2.84,5.59,2.3,11,4.81,15,9.54,3.47,4.12,7.22,8.13,8.67,13.51a66.12,66.12,0,0,1,2,14c.25,5.53,2.64,10.27,5.53,14.81.7,1.09,1.1.37,1.59-.23a67.48,67.48,0,0,0,4.58-7c1.29-2,3.22-3,5.47-2.3,8.12,2.72,15-.72,21.92-4.13,1-.48,2.2-.65,3.07-2.16l-7.81,0c-3.06,0-6.12.09-9.18,0-1.89-.06-2.93-1.39-2-2.94,2.08-3.6,1.54-7.27.6-10.87-1.91-7.23.87-12.86,5.54-18,4-4.39,8.4-8.37,12.24-12.89a22.83,22.83,0,0,0,4.18-7.66c1.84-5.37,3.69-10.73,5.48-16.11a15.78,15.78,0,0,1,4-6.37c2.89-2.85,5.22-6.23,8.39-8.82,6.86-5.61,14.74-7.62,23.51-6.83,4.5.4,9.05.13,13.42,1.37.43-.79-.06-1.12-.43-1.47a54.3,54.3,0,0,1-17-36c-.56-6.82-3.28-12.9-7-18.51s-7.77-11.14-11.68-16.7c-1.86-2.66-1.8-4.67.41-7.22a15.25,15.25,0,0,1,12.66-5.71c5.74.26,10.56-1.44,14.33-5.87,4-4.67,9.35-7,15-8.67a50.69,50.69,0,0,1,16.29-2.61c3.53.11,6.48,1.87,9.56,3.31,5,2.33,9.62,5,11.92,10.36,1.67,3.87,2.51,8,3.57,12.06a7.48,7.48,0,0,0,3.28,4.56c-.16-1.62-.27-2.91-.42-4.19-.37-3.24-.84-6.47-1.11-9.72a9.72,9.72,0,0,1,2.49-7,59.87,59.87,0,0,1,7.28-7.4,15.56,15.56,0,0,0,4.54-6c2.25-5.64,4.51-11.27,6.72-16.93C284.29-.29,287-1,289.83,1.43c3.32,2.83,5.65,6.55,8.66,9.65a13.48,13.48,0,0,0,5.43,3.63c4.83,1.6,9.23,4.18,13.84,6.26a27.42,27.42,0,0,0,6.28,2c4.89.94,7.13,3.45,7.62,8.57-.39.21-.48-.1-.55-.35a9.42,9.42,0,0,0-7.37-6.89c-4.25-.9-8-2.83-11.88-4.62-2.47-1.15-5.07-2-7.59-3.11a20.73,20.73,0,0,1-8.75-6.75,8.07,8.07,0,0,0-3.4-3c2.19,3.41,2.84,7.35,4.35,10.77l-2.83-5.37c-1.45,1.21-1.2,2.75-1.22,4.07-.13,8-1.54,15.9-2.59,23.81a192.43,192.43,0,0,0-2.17,24.45c0,7.53.78,15,1.27,22.52.5,7.77.88,15.55,1.48,23.32.37,4.83,1,9.65.33,14.51-.26,1.82-1,3.59-.68,5.68,2.15-.84,2.92-2.75,3.83-4.44,2.88-5.34,2.8-11.1,2.48-17-.43-7.84-1.05-15.71.22-23.52,1.09-6.69,2.76-13.27,3.91-20,.45,2-.1,3.94-.54,5.81a111,111,0,0,0-1.95,39.3,28.76,28.76,0,0,1-3.91,18.81,5,5,0,0,0-1,2.54c4.15-1.46,7.15-4.39,10.53-6.8,4.64-3.32,3.91-7.91,3.54-12.42-.53-6.43-1.69-12.81-1.18-19.3a44,44,0,0,1,7.6-22c1.95-2.82,3.22-6,4.89-8.92,2.48-4.36,6.1-7.71,9.79-11,4.12-3.67,6.22-7.85,4.36-13.48a9.63,9.63,0,0,1-.51-5.06c1.82,4.68,3.83,9.32,1.4,14.47-1,2.1-2.8,3.36-4.46,4.76a44.84,44.84,0,0,0-11.43,14.47c-1.78,3.57-4.32,6.7-6.12,10.29-4.39,8.72-5.38,17.89-4,27.43.58,4,1.1,8,1.67,12.08.08.57,0,1.37.67,1.55s.9-.62,1.28-1a20.9,20.9,0,0,0,4-6.83c2.16-5.88,4.39-11.75,6.47-17.66,2.46-7,6.95-12.53,12.37-17.39a13.87,13.87,0,0,1,5.19-2.52,3.52,3.52,0,0,1,3.35.89c5.21,4.29,10.7,3.62,16.32,1,4.16-1.94,8.27-4,12.48-5.85,4-1.77,7.73-.18,11.22,1.67,1.48.78,1.08,2.93-.56,4.43a57.13,57.13,0,0,0-4.89,4.7,12.92,12.92,0,0,0-3.35,9.91c.06.73.06,1.47.08,2.2.12,6.48-3.07,11-9.31,13a22.82,22.82,0,0,0-10,6.67c-2.34,2.64-2.66,5.13-1.06,7.44,2.43,3.5,5.6,4.81,8.85,3.69a11.55,11.55,0,0,0,3.61-2.1c3.72-3.07,8.13-3.43,12.66-3.2a7.41,7.41,0,0,1,3.81,1.67c2.31,1.66,2.71,3.69,1,6s-3.65,4.86-5.6,7.42a4.76,4.76,0,0,0,4.87-2c1.63-2,3.3-4,4.79-6.13a18.8,18.8,0,0,1,7.46-6.43c3.66-1.72,7-4.17,11.31-4.19,5.37,0,10.48.85,15,4.07a11.64,11.64,0,0,0,3.61,1.71,9.08,9.08,0,0,1,6.35,5.88c2.33,6.42,7.28,9.61,13.57,10.75,4.55.81,8.15,2.51,10.58,6.58,1.18,2,1.14,2.79-1,3.78a13.11,13.11,0,0,0-8.05,11.29c-.32,3.1-.29,6.24-.38,9.37-.09,2.65,0,5.32-.2,8-.41,6.66-8.74,14.54-14.84,15.13-6.64.65-13.23,1.57-19.9.86-8.39-.89-16.25-3.64-23.91-7a254.21,254.21,0,0,0-24.55-9.68c-6.67-2.12-13.52-1.68-20.75-.27,7.49,5.52,11.7,13.51,18,19.63,5.47,5.31,7.31,11.62,4.23,18.93-2.56,6.07-3.17,12.45-3.29,19a29.73,29.73,0,0,1-6.07,17.07,6.77,6.77,0,0,0-1.47,5.51c2.56,15.57,4.6,31.24,8.57,46.55a116,116,0,0,0,6.76,18.79c1.24,2.72,2.17,2.95,5,1.83a20,20,0,0,0,8.92-7c5.21-6.92,11.47-12.88,19.95-15.66,5.44-1.78,10.82-3.72,16.2-5.69a15.34,15.34,0,0,0,7.72-5.68c3.27-4.77,7.07-9.18,9.23-14.67,1-2.44,4.86-3,7.08-.64,2.65,2.85,6,4.62,8.92,7a31.18,31.18,0,0,1,6.17,7,4.69,4.69,0,0,1,.93,2.59,18.51,18.51,0,0,0,3.07,10,15.88,15.88,0,0,1,2.69,7.63c.24,3.17,1.93,5.95,2.22,9.09,1.07,11.61-5,20.69-16.05,24.45-5,1.71-10.13,2-15.33,2.09a11.8,11.8,0,0,0-3.91.46c1.78,2,4.15,2.7,6.3,3.75,4.93,2.38,10,4.47,15,6.68,6.15,2.71,10.3,7.53,13.54,13.35,4.68,8.36,9.31,16.77,14.93,24.57a21.64,21.64,0,0,1,4.28,12.87c0,4.6.51,9.17.94,13.73a38.69,38.69,0,0,1-5.55,24.1c-3.13,5.26-4.29,11.16-5.5,17.05a7.51,7.51,0,0,1-2.76,4.94c-.94.68-1.57.74-2.11-.49s-1.31-2.47-2-3.69c-2-3.6-5.21-4.84-9.12-4.28a21.64,21.64,0,0,1-15.9-3.91c-1.08-.75-2.24-1.4-3.75-2.34.58,2,1.05,3.62,1.53,5.23,1.54,5.18.32,10.17-1.16,15.1a6.89,6.89,0,0,1-2.48,3.1c-2.51,2-3.82,4.75-4.82,7.68a76.33,76.33,0,0,0-2.86,10.41,8.77,8.77,0,0,1-3.94,6,2.44,2.44,0,0,1-3.54-.52,37.32,37.32,0,0,1-4.22-6.06c-2.07-3.75-5.27-5.59-9.46-6.18-3.75-.52-7.48-1.21-11.25-1.69a21.92,21.92,0,0,1-12.19-6,92.59,92.59,0,0,1-19.55-25.59c-1.75-3.37-2.32-7.22-3.47-10.83-.88-2.77-.83-2.82-3.25-1.1q-12.61,9-25.2,18A11.43,11.43,0,0,1,323,458a34.68,34.68,0,0,1-6.47-2.66c-7-3.88-14.63-4.71-22.4-5-7-.25-14.1-.39-21.15-.54-1.53,0-2.66-.33-2.51-2.21,0-.41,0-.81.53-.94,3.24-.81,5.25-3.37,7.48-5.5a27.79,27.79,0,0,1,18.68-8c6-.23,12-1,17.93.15a40.62,40.62,0,0,1,6.26,1.28c5,1.75,14.79-3.1,16.34-8.55,2-7,6.94-11.66,11.31-16.9,6.19-7.42,11.6-15.29,13.46-25.06a7.35,7.35,0,0,0-.05-3.95c-1.36-3.72-.68-7.34.23-11,2.63-10.54,4.06-21.22,2.64-32.06-.82-6.23-2.93-12.18-4.76-18.16-2.23-7.25-5-14.34-6.69-21.77a143.24,143.24,0,0,1-3.34-23.31c-.26-4.52-.33-9.06-1.32-13.51a5.52,5.52,0,0,0-.79-2.4c-3.05,3.2-5.8,6.46-5.91,11.16-.06,2.79-.47,5.55-.46,8.36,0,3.46-2.26,5.87-4.43,8.24a3.85,3.85,0,0,1-.3.27c-4.55,4.41-5.26,4.53-10.68,1.09a44.72,44.72,0,0,0-14.4-6.27A33,33,0,0,1,300,275.06a61.25,61.25,0,0,0-16.29-8.35,39.57,39.57,0,0,1-13.61-7.82c-2.75-2.44-4.19-6-6.11-9.07-4.54-7.32-7.83-15.31-12-22.83-.83-1.51-1.75-3-2.65-4.46a16,16,0,0,1-1.93-10.4c.13-1.19.21-2.38.31-3.57ZM90,208.05c-.63-.3-.93-.92-1.33-1.45-2.14-2.8-4.15-5.76-7-7.88-5.43-4-11.67-6.06-18.27-7.07a26.77,26.77,0,0,0-8.82-.31c7.64,5.08,15.71,9,21.55,16.12-1.11.18-1.44-.55-1.89-1a57.7,57.7,0,0,0-11.77-8.87c-7.49-4.1-14.77-8.88-24-8.1-1.73.15-2.63.64-2.76,2.34A31.85,31.85,0,0,0,37,203.69a159,159,0,0,1,6.39,28.2c.24,2,.18,4.09,1,6.07a45.4,45.4,0,0,0,7.35,11.82c3.47,4,7.4,7.24,13,8a44.61,44.61,0,0,1,6.76,1.79c.63.19,1.82.21,1.65,1.05s-1.21.39-1.88.27A100.74,100.74,0,0,1,60.85,258c-.6-.18-1.17-.72-2-.17a9.6,9.6,0,0,0,3.09,3,56.4,56.4,0,0,0,27.81,9.68c7,.46,14,.92,20.52,3.82a2.58,2.58,0,0,0,2.36.09c-7.66-6.78-17.58-8-26.45-11.55,9.93,1,18.82,5,27.42,9.8-1.43-2.5-3.43-4.49-4.8-6.94a20.37,20.37,0,0,1-1.93-16.21c.31-1.06.16-1.7-1-2.17-3.69-1.56-6.26-4.47-8.64-7.53a115.59,115.59,0,0,1-7.81-12.3c-1-1.71-2.05-3.43-3-5.21-.22-.43-.61-1.22.1-1.57s.83.5,1.07.88c1.38,2.2,2.76,4.41,4,6.67C94.47,233.15,97,238.07,101,242c1.28,1.28,2.53,2.7,4.55,2.71.23-.51-.1-.71-.26-1-2.22-3.79-5.21-7.12-6.9-11.21a218.3,218.3,0,0,1-7.72-23.07,2.09,2.09,0,0,1,1.13,1.32c1.44,3.73,3.19,7.37,4.25,11.2,2.16,7.83,5.31,15,11,21,1.86,1.94,1.73,2,3.46-.07a1.41,1.41,0,0,0,0-2.21,5.74,5.74,0,0,1-1.33-2.43c-.74-2.84-1.57-5.66-2.22-8.51a55.4,55.4,0,0,0-5.4-15.19,59.74,59.74,0,0,0-19-20.16c-5.72-3.87-11.85-6.34-18.91-5.79a4.46,4.46,0,0,0-2.94.88,20.94,20.94,0,0,1,6.66,1.25C76,193.26,83.87,197,88.85,205,89.44,206,90.16,206.82,90,208.05Zm242.54,64.69c.25-.9.35-1.28.46-1.66,3-10.45,5.54-21,9.1-31.31a37.85,37.85,0,0,0,1.74-15.15c-.68-10.52-4.17-20.15-8.84-29.47-3-6-6.73-11.34-12-15.52S311.8,172,306,168.55a4.93,4.93,0,0,0-4.1-.51c2.22,1.84,4.19,3.63,6.31,5.2,9.49,7,17.71,15.14,22.36,26.28.91,2.19,2,4.35,1.86,6.83a3.88,3.88,0,0,1-.68-1.22c-2.23-5.51-4.59-11-8.27-15.68-6.7-8.6-15.17-15.27-24.17-21.25A15.63,15.63,0,0,0,289,165.25c3.5,4.47,8,7.74,10.14,12.81s4.6,9.81,5.79,15.17a1.41,1.41,0,0,1-.7-.63c-.65-1.39-1.33-2.76-1.87-4.19-3.46-9.24-8.65-17.23-16.67-23.18-1.16-.85-2-2.8-3.33-2.55s-2,2.16-2.95,3.34c-4.37,5.41-8.87,10.66-15.83,12.93a9.88,9.88,0,0,0-2.6,1.47c-4.07,2.91-6.17,7.13-7.41,11.77-1.42,5.34-2.5,10.78-3.81,16.15a20.38,20.38,0,0,0-.7,8.29c.49,3,2.12,5.44,3.52,8,4.64,8.55,8.25,17.64,13.75,25.72,1.57,2.31,2.54,5.13,4.67,6.93,4.54,3.83,9.46,7.12,15.26,8.91a46.59,46.59,0,0,1,14.49,7.49,26.26,26.26,0,0,0,12.66,5.56,15.75,15.75,0,0,1,4.2,1.26c2.6,1.13,5.23,2.17,7.86,3.24.2-.55-.18-.82-.4-1.11a76.32,76.32,0,0,1-14.11-33.1c-1.5-8.23-1-16.57-1.25-24.86,0-1-.09-2-.06-3,0-.52-.35-1.39.53-1.45.72-.05.48.79.63,1.26a4.06,4.06,0,0,1,.1.79,154.12,154.12,0,0,1,.62,15.94,79.48,79.48,0,0,0,1.78,16.62c2.66,11.51,9.44,20.9,15.33,30.76a2.24,2.24,0,0,0,2.62,1c.86-.29.24-1.29.15-1.95-.59-4.36-.5-8.77-.81-13.15-.38-5.49,1.42-10.66,2.24-16,.73-4.78,1.67-9.54,2.53-14.37a2.11,2.11,0,0,1,.7,2.4c-1,6.25-1.86,12.51-3.12,18.72C332.27,265.51,331.57,268.8,332.56,272.74ZM280.1,143.41a3,3,0,0,0,1.44-1.59c1.66-3.64,3.4-7.24,5-10.92a16.66,16.66,0,0,0,1-10.56c-1.18-5.06-2.51-10.09-3.59-15.17-2-9.44-3.88-18.92-5.85-28.37a14.77,14.77,0,0,0-4.65-8.45,56.64,56.64,0,0,1-6.18-6.5c-7.47-8.74-7.76-8.66-10.26-18.92-1.58-6.46-5.26-10.7-10.89-13.69-6.12-3.25-12.33-5-19.4-3.3-5.28,1.26-10.28,3.22-15.39,4.9a9.12,9.12,0,0,0-4.63,3.3,22.85,22.85,0,0,1-8.78,6.77,5,5,0,0,0-2.29,1.66c9.32,3.65,19.2,5.51,27.53,11.28-.65.57-1,.15-1.41,0L217,51.57c-8.14-3.82-16.82-6-25.51-8.07-6.38-1.53-10.51,0-13.83,4.8a3.7,3.7,0,0,0-.09,4.61c3,4.46,5.95,9,9.14,13.35,5.39,7.34,9.34,15.18,9.85,24.48a9.06,9.06,0,0,0,3.07,6.44c6.46,5.95,12.71,12.11,20.24,16.79,6.44,4,12.51,8.59,19.46,11.76a104.87,104.87,0,0,1,30.77,21.16,4.67,4.67,0,0,0,2.05,1.51,32,32,0,0,0-3.73-7.5c-3.13-5.24-7.81-9-12.23-13.07-1.17-1.07-2.24-2.24-3.36-3.36l.41-.37a70.2,70.2,0,0,1,21,22.78,38.18,38.18,0,0,0-4.9-21.51,26.1,26.1,0,0,1,5,8.09c1.21,2.89,1.71,6,2.6,8.95,1.44-8.35-1-16.29-2.4-24.31s-5.36-15.43-8.63-22.9C277,109.32,278.12,126.42,280.1,143.41ZM250.45,291.18c-.68-.14-1.12-.26-1.56-.31-6.74-.79-11.24-4.34-13.47-10.78a10.62,10.62,0,0,0-1.53-3c-3.22-4.25-7.63-7.18-11.64-10.56-5.28-4.46-11.39-5.78-18.12-5.08a54.49,54.49,0,0,1-14.15-.08,24.19,24.19,0,0,0-7.73-.18c-4.8.77-9.54,1.09-14-1.39a5.66,5.66,0,0,0-1.95-.42c-11.18-1.48-22.78,5-27.62,15.25-2,4.31-4.64,8.24-8.68,11-3,2.09-3,2.16-.27,4.77l.58.54A86.07,86.07,0,0,0,148,303.14c7.48,3.93,14.95,7.55,23.32,9.2s16.64,1.93,24.92-.34a4,4,0,0,1,1.18-.17c.39,0,.91.06,1,.48s-.34.67-.75.78a24.31,24.31,0,0,1-2.5.68c-12.32,2.11-24.26.31-36.05-3.34-4.84-1.5-9-4.34-13.45-6.59a52.41,52.41,0,0,1-11.85-7.7,54.2,54.2,0,0,0-4.38-3.27c-.44.81.08,1.07.32,1.43a79.36,79.36,0,0,0,6.42,7.64,53,53,0,0,0,21,14.77c12.4,4.9,25.25,6.3,38.44,5.5,2.85-.17,5.71-.29,8.56-.44-4.82,1.75-9.79,1.92-14.79,1.85-6.8-.09-13.48-1.21-20.21-2.22a60.12,60.12,0,0,1-28.53-12.65c-5-3.89-8.5-9.15-12.6-13.87a39.15,39.15,0,0,0-4.7-5.17c.31,5.85,1.15,11,5.23,15.09,2.38,2.4,5,4.61,7,7.4a56.44,56.44,0,0,0,17.14,15.6c3.82,2.3,8.26,3.35,12,5.9,2.78,1.9,6.06,2.71,9.33,3.45q3.51.81,6.95,1.86a17,17,0,0,0,6.88,1c10.91-1.23,21.75-2.75,32.22-6.39a12.44,12.44,0,0,0,8-7.68,64.52,64.52,0,0,1,9.62-16.75c1.45-1.78,2.6-3.8,3.88-5.7-3.26,1.48-5.77,3.89-8.57,5.87a93.45,93.45,0,0,1-22.87,12.18c-2,.69-2.6.62-3.94-.1,14.35-3.76,25.65-12.54,36.33-22.34-2.92,1-5.68,2.24-8.47,3.44s-5.27,2.75-8.24,3.28C234.17,301.33,242.9,297.49,250.45,291.18ZM473.87,449.12c-.64-6.7-1.43-12.9-2.57-19a65.17,65.17,0,0,0-14.75-31.26c-4.21-4.89-8.45-9.72-11.56-15.48a45.16,45.16,0,0,0-14.3-16.17c-6.79-4.62-14.57-7.18-21.92-10.63a2.39,2.39,0,0,0-2.3.09l7,5.71a3.24,3.24,0,0,1-2.22-1c-4.1-2.74-8.08-5.79-12.95-7a41.23,41.23,0,0,1-17-8.5c-2.16-1.83-4.05-3.74-4-7.4-1.71,2.61-3,4.8-4.49,6.8-2.6,3.4-2.34,6.69-.24,10.19,2.4,4,5.19,7.75,7.82,11.6.36.52.84.94.69,1.76-1,5.5-.5,11,.06,16.5a25.32,25.32,0,0,0,2.91,9.29c2.44,4.65,6.05,8.43,9.29,12.48,6.92,8.64,15.1,15.52,25.76,19.19a21.8,21.8,0,0,1,10.17,7.18c2.31,2.92,4.35,6.06,6.73,8.93,4.31,5.21,9.29,9.55,16.16,11.11,3.63.82,7.31.07,11,.35a5.77,5.77,0,0,1,4.7,2.52c1.11,1.58,2.38,3,3.5,4.61.77,1.08,1.16.68,1.66-.2a8.24,8.24,0,0,0,0-8.39,69.34,69.34,0,0,1-4.42-8.94A91.88,91.88,0,0,0,454,416.76c-.42-.53-.91-1.07-.43-1.95.78,1.06,1.48,2,2.2,3,5.24,6.86,10,14,12.81,22.25C469.65,443.22,470.75,446.46,473.87,449.12Zm-227.12-263c.44-1,1.4-1.44,2-2.16s1.38-1.45,2.07-2.16c7.18-7.4,15.08-13.69,25.15-16.75a4.4,4.4,0,0,0,2.62-1.7c.79-1.19,1.22-2.51.41-3.75-1.22-1.84-2.61-3.7-5.12-3.7-7,0-14.1-.37-21.12.73a64.81,64.81,0,0,1-10.34.74,53.21,53.21,0,0,0-13.25,1.46c-11.58,3-22.32,7.92-32.72,13.72-11.47,6.4-21.32,15-31.59,23.06-8.05,6.31-15.66,13.31-25.43,17.08a1.73,1.73,0,0,0-1.34,1.4c1,.17,1.78.36,2.63.47,5.27.69,10.46,0,15.67-.8,6.32-.94,12.06,1.52,17.92,3.25,1.79,2.65,4.86,3.39,7.41,4.9,7.73,4.57,16,6.45,25,4.89,1.5-.26,3-1,4.52-.6a9.43,9.43,0,0,0,6.58-.94c5.09-2.32,10.19-4.64,15.24-7.05,3.44-1.63,6.81-3.44,9.31-6.42a38.66,38.66,0,0,0,9-19.92,16.92,16.92,0,0,1,4.76-9.7c3.54-3.64,7.59-6.67,11.47-9.92,1.47-1.23,2.85-2.58,4.27-3.88l-.39-.49c-1.55.86-3.09,1.73-4.64,2.57C260,174.19,254.31,179.4,249,185,248.41,185.64,247.91,186.42,246.75,186.14ZM270.89,152a5,5,0,0,0-1.25-2.54,22.54,22.54,0,0,0-8.43-5.93,179.35,179.35,0,0,0-29.66-8.78c-5.69-1.09-11-3.34-16.33-5.34a50.86,50.86,0,0,0-24.6-2.64c-11.51,1.5-18.93,9.09-25.2,18-2.38,3.39-2.57,7.69-3.94,11.5-1.84,5.13-2.88,10.59-6.35,15s-7.89,8.11-11.88,12.12c-8.49,8.53-7.64,14.52-4.52,24.32,15.2-14.07,28.75-30.17,48.15-39.11-8.83,5.54-17.65,11.1-25.22,18.34S146.45,201.44,139.6,210a12.69,12.69,0,0,0,4.71-1.19,86.62,86.62,0,0,0,8.94-6c7.37-5.16,14.43-10.72,21.55-16.22,5.51-4.26,10.67-9,16.79-12.49,10.71-6.2,21.6-11.86,33.64-15.05,4.36-1.16,8.6-2.91,13.24-2.76a58.27,58.27,0,0,0,7-.11c6.95-.61,13.81-2.21,20.84-2,.27,0,.68,0,.76-.45-16.31-5.1-32.42-1.22-49.06,1.28a7.29,7.29,0,0,1,4.38-1.9c4.88-.69,9.83-1,14.61-2.11,9-2,17.85-1.4,26.76.24C266.07,151.65,268.39,152.41,270.89,152Zm-149,153.6c-.86.48-1.1.59-1.31.74-4.56,3.35-9.13,6.68-13.65,10.08a27.57,27.57,0,0,0-4.71,4.58c-6.45,7.77-8.87,16.82-8.72,26.74.14,9.38.26,18.77-.28,28.14a17,17,0,0,0,4.11,12.54,85.74,85.74,0,0,1,5.57,7.3,173.83,173.83,0,0,1,12.59,21.77c1.77,3.65,4.36,6.37,8.29,7.6,6.94,2.17,14.1,3.52,21.1,5.44,1.24.34,1.55.07,1.18-1.2-1.14-4-1.88-8-3.17-12-2.49-7.62-5.48-15-10.19-21.56a46.08,46.08,0,0,1-4.93-8c-4.07-9.09-7.51-18.37-8.36-28.41-.08-.94-.6-1.88-.17-3.09a13,13,0,0,1,1.86,5.25,49.82,49.82,0,0,0,3.31,14.52c2.23,5.87,4.46,11.7,8.13,16.86,2.74,3.85,5.56,7.63,7.1,12.21a11,11,0,0,0,2.57,4.64c.66-.63.4-1.3.32-1.95l-1.83-14.67a177.55,177.55,0,0,0-5.11-24.81c-2.22-8.06-5.43-15.81-5.5-24.43-.07-8.45-2.52-16.55-5.08-24.57-.73-2.3-1.25-4.67-1.87-7A46.65,46.65,0,0,0,120.34,325a76.59,76.59,0,0,1-2.14,12.82C117.94,327.11,120.26,316.66,121.9,305.64ZM66.1,328.56c.51-.46.68-.65.88-.79,6.4-4.14,12-9.28,17.84-14.13C89.17,310,93.2,306,98,303c3.64-2.32,7.78-3.47,11.61-5.33,4.88-2.37,8.81-5.74,10.87-10.92.79-2,.48-2.59-1.62-3.2a22.1,22.1,0,0,0-11.64-.18c-9.1,2.2-17.74,5.72-26.46,9-5.67,2.15-11.42,3.75-17.5,3.29-14.21-1.09-27.82,1.9-41.35,5.62-2.26.62-3.81,2.43-5.92,3.16a2.33,2.33,0,0,0-1.8,2.06,15.24,15.24,0,0,1-3.74,7.83A3.92,3.92,0,0,0,9.3,317a4.25,4.25,0,0,1-2.76,4,8.16,8.16,0,0,0-4.83,6.64A39.39,39.39,0,0,0,1.28,335c.18,5.92,1.05,6.69,7,6.21,5.57-.44,11.14-.92,16.73-1.24,8.13-.47,16.22-1.09,23.92-4.09a18.6,18.6,0,0,1,5.2-1.61c.11,1.1-1.21,1.1-1.25,2.12a8.6,8.6,0,0,0,3.08-.64c2.76-1,5.55-1.88,8.3-2.92,6.2-2.33,12.13-5.16,17-9.87,7.88-7.67,15.83-15.26,25.53-20.69a3.43,3.43,0,0,0,1.89-2.15c-4.88,1.83-9.56,3.43-13.4,6.66-4.22,3.56-8.3,7.29-12.52,10.85C77.77,321.84,72.87,326.19,66.1,328.56Zm331-5.06c-5.89-2.21-10.26-1.65-14.49.5-3.14,1.59-3.12,1.6-2.45,5a15.24,15.24,0,0,1,.14,1.79,16.09,16.09,0,0,0,6.63,12.46,117.39,117.39,0,0,0,18.78,11c6.91,3.32,14.32,5.49,21.1,9.13s12.77,8.43,16.67,15.34a105.84,105.84,0,0,0,12.94,18,69.85,69.85,0,0,1,17.24,38.38c.5,4,1.26,7.89,1.9,11.84.09.55.25,1.13.85,1.21s.63-.6.8-1c.54-1.22,1.06-2.45,1.51-3.7a29.09,29.09,0,0,1,2.28-5.54,30.78,30.78,0,0,0,4.25-16.42,172.91,172.91,0,0,0-1.71-21.89,15,15,0,0,0-2.43-6.07c-5.81-9.09-11-18.53-16.52-27.8-3.36-5.67-7.81-10-14.14-12.33a100,100,0,0,1-16.46-7.73c-8.47-5-16.24-11.14-25.06-15.61C404.43,327.82,400.15,325.23,397.05,323.5ZM348.34,170.36c.33.2.43.31.55.32a8.56,8.56,0,0,0,1.59.11c8.15-.54,16,1.21,23.88,3,7,1.54,14,3.63,21.26,3.3,6-.27,12.09-.67,18.13-1,.55,0,1.43-.43,1.56.31.17,1-.9.77-1.47.84A159.35,159.35,0,0,1,389,178.57c-4.49-.16-8.71-1.85-13-3-2.18-.56-4.38-1-6.79-1.56.42,1.2,1.18,1.34,1.85,1.62,6.32,2.66,12.67,5.3,19,8,11.17,4.82,22.73,7.1,34.9,5.6,4.11-.51,8.2-1.11,11.77-3.5,4.52-3,8-6.58,7.73-12.59-.06-1.38-.34-1.71-1.69-1.39-3,.7-6,1.3-9,1.89a47.74,47.74,0,0,1-9.61,1.33,9.12,9.12,0,0,1,2.46-1.09c5.61-1.4,11.22-2.78,16.85-4.09,1.06-.25,1.34-.68,1.33-1.73,0-2.86,0-5.72.16-8.57.07-1.33-.17-1.7-1.58-1.45-7.34,1.31-14.72,2.36-22.15,3-2.27.19-4.59.54-6.92-.05a1.56,1.56,0,0,1,1.54-1.18c1.73-.12,3.46-.22,5.18-.4,7-.76,14.11-.7,20.86-3.19a7.56,7.56,0,0,0,4.51-3.68c1.61-3.2,3.46-6.17,7-7.58a1.38,1.38,0,0,0,.86-1.45c-.07-.49-.74-.47-1.19-.54-2.83-.47-5.65-.91-8.47-1.39-5.66-1-11.33-1.79-17.07-.88-5.58.88-11.12,2.11-16.73,2.84a126.48,126.48,0,0,0-32.36,8.47c-.89.37-1.89.76-2.23,1.59-1.26,3-4.21,3.42-6.64,4.67s-5.37.71-7.88,2c-3.71,1.93-7.58,3.58-11.37,5.35-.56.27-1.16.5-1.25,1.39,6.34-1.61,12.52-3.2,18.72-4.75,6.39-1.59,12.76-3.41,19.46-3.06,1.92.1,3.83.4,5.75.59s3.79.32,5.68.49c-8.54.92-17.16-.49-25.6,2.06C364.77,164.9,356.1,166,348.34,170.36Zm30.37,220a43.85,43.85,0,0,0-5.59,28.14c.48,3.69.19,7.11-2.85,9.87a69.64,69.64,0,0,0-4.92,5.5c-1,1.11-2,2.31-1.64,3.88C365,443.3,366.15,449,369,454c4,7.31,9.79,13.23,15.53,19.19a24.33,24.33,0,0,0,15.13,7.32c4,.51,8.12.55,12,1.81,1.16.37,2.3.81,3.83,1.35-1-2.3-1.77-4.13-2.57-5.95-2.69-6.09-5.24-12.23-9.69-17.36-2.88-3.32-5.45-6.9-8.08-10.43a23.65,23.65,0,0,1-3.72-8.4.77.77,0,0,1,.89.59c3,6.53,7.47,12.08,12.09,17.53,4.21,4.95,7.82,10.23,9.37,16.75.76,3.23,2.76,5.91,5.52,8.66-1.21-6-1-11.72-2.73-17.08-2.1-6.45-4.33-12.86-6.53-19.28a4.16,4.16,0,0,1-.35-2.92,3.24,3.24,0,0,1,1.15,1.92c1.11,2.93,2.13,5.89,3.23,8.82,2.75,7.31,5.1,14.71,5.79,22.56.2,2.35.36,4.74,1.85,7a4.38,4.38,0,0,0,.41-2.24c0-2.66,0-5.32.09-8,.55-13.9-2.45-27.07-7.85-39.83-2.9-6.88-7.59-12.3-12.92-17.29-1.16-1.08-2.14-2.45-4.16-3.05l4.89,13.1c-2.17-1.11-2.66-3-3.21-4.7a65.82,65.82,0,0,0-9.19-18.09c-2.82-4.07-6.58-7.59-7.6-12.75a1.49,1.49,0,0,0-1-1.15c-.84,11.48,1.82,22.32,5.36,33.45a5.8,5.8,0,0,1-2.24-3,100.71,100.71,0,0,1-4.59-20.82C379.3,398.06,379.74,394.31,378.71,390.34Zm6.65-69.79a1.88,1.88,0,0,0,1.64.23c3.66-.82,7,.38,10.29,1.68a60.23,60.23,0,0,1,8.4,4.17c5.87,3.43,12.05,6.32,17.48,10.44,2.75,2.08,5.33,3.67,9.2,3.18,5.57-.7,11.29.18,16.85-1.21,8.27-2.07,15.21-9.78,16.2-18,.52-4.36-.67-8.46-1.76-12.57-.76-2.89-1-6-2.92-8.44a14.51,14.51,0,0,1-3.16-7.43,18.07,18.07,0,0,0-6-11.54c-3.27-3.12-7.55-4.6-10.94-8.1a60.38,60.38,0,0,1-1.62,12.8c-.89,4-1.37,8.14-3.35,11.89-3,5.67-7.24,10.33-11.68,14.83a18.89,18.89,0,0,1-13.95,5.92,55.64,55.64,0,0,1-8.72-.95A23.83,23.83,0,0,0,385.36,320.55ZM151,234.52l.45.34c-.62.75-1.24,1.51-1.87,2.25-5,5.89-10.14,11.63-14.16,18.29-5,8.36-9.44,16.88-9.25,27,0,.63-.4,1.47.17,1.85s1.36-.25,1.94-.66a29.62,29.62,0,0,0,10-12.72c3.49-7.85,7.06-15.36,13.74-21.45,8.08-7.37,14.74-16.25,22.63-23.89a3,3,0,0,0,.75-3.63,2.71,2.71,0,0,0-2.85-1.74c-.68,0-1.47.4-2-.41-.65-1-1.68-1-2.68-.92a25,25,0,0,0-5.28,1,75.47,75.47,0,0,0-7.08,2.95c3.53-3.89,8.6-4.37,13.28-5.74a14.12,14.12,0,0,0-10.6-.66c-5.08,1.49-9.74,4-14.59,6-4.56,1.91-9.16,2.76-14,1.32a4.21,4.21,0,0,0-4.76,1.72c-1.41,1.77-2.8,3.56-4.06,5.43-3.68,5.47-8.09,10.42-11.26,16.24-3.93,7.24-3,14.46,2.52,20.47,1.27,1.36,2.5,2.76,3.74,4.15a29.47,29.47,0,0,1,5.1,8.07c.23.54.54,1.21,1.16,1.28s.68-.73.86-1.17a36.58,36.58,0,0,0,2.55-9.43,74.83,74.83,0,0,1,1.4-9.08,66.05,66.05,0,0,1,11.55-23.75,29.45,29.45,0,0,1,7.24-7.28c.1.51-.2.72-.42,1a81.94,81.94,0,0,0-16.56,28c-.69,1.94-1.38,3.91-.3,6.55A127.31,127.31,0,0,1,151,234.52Zm183.45,52.32c3-3.67,5.86-6.6,5.9-11.4s0-9.81,3-14a33.18,33.18,0,0,0,4.22-8.36c.7-1.94,1.7-3.47,3.85-3.94a2.5,2.5,0,0,0,1.44-1c3.47-4.51,6.18-9.31,6.28-15.24.13-7.77,1-15.37,4.27-22.6a10.1,10.1,0,0,0-.68-9.64c-4.5-7.28-10.2-13.63-16-19.86-3.73-4-8.66-6.63-12.77-10.22-5-4.32-10.75-4.62-17.3-3.87,3.49,2.4,6.66,4.53,9.77,6.74,3.92,2.79,6.83,6.17,7.49,8.91-7.78-7.82-15.78-14.57-27.27-15.58a41.14,41.14,0,0,0,6.68,4.55c6,3.64,11.82,7.43,16.3,13,3.84,4.79,6.42,10.21,8.88,15.79,2.7,6.13,5,12.3,5.82,19,.66,5.47,1.44,10.85.21,16.43-2.3,10.44-5.88,20.49-8.92,30.7C333.61,272.91,334.18,279.56,334.45,286.84ZM286.71,161c10,2.92,14.47,3.54,24.7,3.38,4.79-.07,9.6-.26,14.35.47a30.89,30.89,0,0,0,14.52-1.63c5.63-1.86,11.17-4,17-5.35,2.52-.59,5.16-1.55,7.63-1.29a15.25,15.25,0,0,0,6.59-.86c2.88-1,3.25-1.68,2.38-4.6a16.53,16.53,0,0,1-.18-9.45,22.57,22.57,0,0,0,.77-3.52,17.24,17.24,0,0,1,3.72-8.7q2-2.62,3.85-5.35a2.2,2.2,0,0,0-.24-3.07,2.36,2.36,0,0,0-3.11-.25,5.25,5.25,0,0,0-1.57,1.51,64.07,64.07,0,0,1-12.47,12.31c-3.82,2.86-7.65,5.37-12.68,5.76a30.07,30.07,0,0,1-12.13-1.72c-5.34-1.82-10.28-.77-15,2.34-6.61,4.35-13.11,8.94-20.61,11.76-5.8,2.17-11.62,4.28-17.43,6.43-.58.22-1.56.07-1.55,1S286.26,160.7,286.71,161ZM272.92,448.12c1.92.18,3.29.37,4.66.41,6.53.23,13.05.33,19.57.65,5.12.25,10.24.58,15.12,2.45,2.94,1.13,5.59,2.83,8.48,4,3.28,1.36,6.66,2.28,10,.51,4.62-2.42,8.67-5.7,12.84-8.79.31-.23.74-.47.42-.95s-.74-.21-1.1-.1a73.32,73.32,0,0,1-8.57,2c-3.81.65-6.92.62-8.69-.19a4.06,4.06,0,0,1,1.93-.4c10.13-1,19.77-3.44,28.31-9.28.88-.6,1.76-1.19,2.63-1.81,4.52-3.2,8.9-6.55,12.09-11.19a4.7,4.7,0,0,0,1-3.16c-.26-2.77-.48-5.54-.73-8.46a17.39,17.39,0,0,0-2.49,2.53c-3.88,4.54-8.2,8.41-14.48,9.18a6,6,0,0,0-3,1.17c-4.61,3.57-10,5.55-15.27,7.82-4.55,2-9.29,3.08-14.22,2a76,76,0,0,0-10.57-2.1c-4.06-.34-8.11.39-12.17.08a23.82,23.82,0,0,0-13.24,3.06C280.77,440.07,277.5,444.4,272.92,448.12ZM375,71.22c-1,.21-1.86.44-2.76.61-3.22.6-6.49,1.19-9.35,2.78-9.3,5.21-18.36,10.79-26.37,17.9a7,7,0,0,0-2.1,3.67c4.6-1.75,6.67-6.54,11.07-8.11a1.36,1.36,0,0,1-.4,1c-3.44,3.33-6.8,6.75-10.39,9.93-1.6,1.42-2,2.49-1,4.49a23.65,23.65,0,0,1,2.62,15.07c-.06.38-.48.83.06,1.27A49.35,49.35,0,0,0,354,105a5.14,5.14,0,0,1,3.62-2.19A71.82,71.82,0,0,0,367,101c3-.78,4.49-2.2,4.87-5.32.31-2.44.35-4.91.46-7.37A15.61,15.61,0,0,1,378,76.64a25.9,25.9,0,0,0,3-2.9c.84-1,1.11-2.33-.33-3a22.12,22.12,0,0,0-6.51-1.55C374.11,70,374.85,70.33,375,71.22ZM287.55,141c.5.45.89.2,1.24.11,7.06-1.64,14.07-3.49,21.18-4.89,6.52-1.27,12.54-3.3,17.53-7.93,8.54-7.92,9.67-13.85,5.76-22.86a36.78,36.78,0,0,1-3.52-15.21c0-2.78.51-5.5.74-8.28-1-.07-1.4.65-1.88,1.14a23.88,23.88,0,0,0-5,8.33c-2.27,6-4.34,12.18-6.53,18.27a30.79,30.79,0,0,1-8.81,13.35c-4.35,3.71-8.86,7.25-13.26,10.89C292.34,136.12,289.6,138.21,287.55,141ZM24.83,342.39c3.56,1.59,7.27,2.66,10.81,4.24A43.85,43.85,0,0,0,64,349c11.5-2.69,20.09-10,27.11-19.24a78.67,78.67,0,0,0,6.73-11.53,60,60,0,0,1,9.41-13.32,1.37,1.37,0,0,0-1.46.22,69.23,69.23,0,0,0-17,12.75,68.54,68.54,0,0,1-23.11,15.73c-8,3.39-16.46,5.29-25,6.85C35.44,341.45,30.12,341.51,24.83,342.39Zm352.54-223.3a13.68,13.68,0,0,0-7.32.63,33.72,33.72,0,0,0-5.75,3.58c-2.87,1.91-5,1.89-8,0a13.48,13.48,0,0,1-5.89-8.68c-.61-2.67-.84-2.77-2.93-.85-2.4,2.22-4.69,4.63-7.53,6.24a37.55,37.55,0,0,0-9.77,7.89,28.38,28.38,0,0,1-16.49,9c-10.72,2.06-21.29,4.94-31.16,9.9a8,8,0,0,0-4.6,5.13c-.3,1-.5,1.94.44,2.71s1.61-.19,2.25-.58c2.88-1.77,5.33-4.22,8.69-5.23,12.83-3.88,25.18-9.07,37.58-14.11,7.85-3.2,15.76-6.18,24.18-7.52,2.71-.43,5.4-1,8.1-1.53l.19.69c-11.25,3.13-22.72,5.56-33.44,10.4s-22.06,8.16-32.74,13.14c2.69-.09,5.16-1.08,7.73-1.57A72.85,72.85,0,0,0,326,138.74c3.06-1.91,6.49-3.35,10-2.59,4,.85,7.48.06,11-1.42a18.81,18.81,0,0,1,2.42-.86c6.66-1.76,13.16-3.89,18.95-7.75C371.59,124,374.92,122.19,377.37,119.09ZM362.86,319.8c1.46,5.6,2.47,11.16,3.61,16.69,1.06,5.18,1.91,10.37.78,15.63a14.94,14.94,0,0,0-.44,5.52c.3,2,.64,3.94.95,5.92,1,6.18,2,12.36.79,18.64-.83,4.18-1.83,8.35-2.3,12.57-1,9.07-3.75,17.4-9.34,24.72-.89,1.17-2.05,2.23-2.5,4a21,21,0,0,0,12.3-7.49c2.11-2.52,4.21-5.1,4-8.65a18,18,0,0,1,3-11,20.31,20.31,0,0,0,3-8.8c.58-4.71-.08-9.46.68-14.14a9.1,9.1,0,0,0-1.18-6.34c-1.63-2.75-3.43-5.4-5-8.17-1.18-2.07-2.69-4-3-6.48-.39-3.23,1.49-5.62,3.34-7.87A22,22,0,0,0,376.7,329c-.05-1.2-.33-1.71-1.61-1.94a17.58,17.58,0,0,1-8.59-4C365.27,322,364.07,320.89,362.86,319.8Zm70.57-186.87c-2.19-6.82-5.32-10.42-11.44-13.29-.54-.25-1.06-.56-1.58-.85-5.38-3-10.93-5-17.17-3-2.44.76-4.56,2.17-6.85,3.25a19.9,19.9,0,0,0-8.46,7.65c-2.36,3.74-5,7.27-9.37,8.9-2,.74-2.78,2.1-2.63,4.32,2.43-.91,4.72-2,7.13-2.63,7.46-2,14.91-4.06,22.46-5.63,8.25-1.72,16.6-2.56,24.78.67A18.45,18.45,0,0,0,433.43,132.93Zm-282,299.3a36.69,36.69,0,0,0,.93-4.88c.22-5.46.94-10.87,1.43-16.3a90.28,90.28,0,0,0-.34-20.52c-1.22-8.67-4.55-16.67-7.7-24.74-3.27-8.37-6.67-16.7-9.43-25.27-1-3-2-5.95-3-8.93l-.54.08c-.06,2-.14,3.94-.18,5.91-.13,6.53-.38,13.07,1.62,19.41,1.49,4.7,2.88,9.43,4.51,14.08,2.11,6,3.93,12.16,6.48,18.06a49.3,49.3,0,0,1,4.23,19.6c0,6.19.1,12.37.14,18.56A7,7,0,0,0,151.41,432.23Zm-72.74-150a14,14,0,0,0,10.3.29c3.65-1.27,7.22-2.8,11-3.41,3.55-.57,7.12-1,10.67-1.51.42-.06,1.06.08,1.14-.54s-.58-.68-1-.84a30.62,30.62,0,0,0-7.83-2.33c-7.48-1.17-15.11-1.36-22.5-3.23-10.13-2.57-19.2-6.88-26.29-15a94.2,94.2,0,0,1-9.54-12.47c-.27-.44-.44-1.32-1.24-1-.58.26-.32.93-.25,1.45.19,1.58.38,3.17.55,4.75a17.92,17.92,0,0,0,5.63,11.17,193.56,193.56,0,0,0,20.12,16.95C72.5,278.83,75.34,281.33,78.67,282.27ZM288.75,115.88a1.14,1.14,0,0,0,.39-1.12c-.53-9.24-.92-18.48-1.6-27.7a221.89,221.89,0,0,1-.85-23.91c.35-10.75,2-21.34,3.38-32a98,98,0,0,0,.54-20.68,6.54,6.54,0,0,0-2.44-5,2.84,2.84,0,0,0-.37,2.18c.62,6.26-.36,12.36-1.9,18.38s-3.11,12-3.61,18.2c-.33,4.1-.9,8.21-1.63,12.26a59.11,59.11,0,0,0,.61,25.36c1.81,7.16,3.89,14.25,4.64,21.65A46.13,46.13,0,0,0,288.75,115.88ZM277.52,71.1c.16-.67.29-1,.34-1.41.76-5.6,1.72-11.18,2.19-16.81A139.19,139.19,0,0,1,285.18,24a36.7,36.7,0,0,0,1.54-14.8c-.23-2.06-.12-4.23-1.42-6.13a1.73,1.73,0,0,0-.58,1.52,48.28,48.28,0,0,1-2.16,11.54c-1.75,5.94-5.6,10.7-8.71,15.88-1.92,3.2-3.86,6.41-4.25,10.26-.53,5.23-.69,10.49-.89,15.74-.1,2.65,1.07,4.55,3.39,6.1.83-6.57,1.65-13,2.49-19.65a2.52,2.52,0,0,1,.32,2.14c-.29,5.38-1.08,10.73-1.1,16.12C273.8,66,275.18,68.58,277.52,71.1Zm136.42,70.08c5.5-.41,10.92-1.21,16.37-1.84s10.87.51,16.32.3c-5-3.14-10.62-3-16.19-3.06,1.14-.75,2.57-.22,3.73-1a13.87,13.87,0,0,0-3.51-1.75c-7.89-3-16-2.87-24-1-7.33,1.68-14.6,3.64-21.86,5.63a22.21,22.21,0,0,0-8.93,4.72,2.74,2.74,0,0,0-1.15,2.22c0,.63-.27,1.49.34,1.87s1.2-.35,1.73-.7a28.37,28.37,0,0,1,18.23-4.7,47.89,47.89,0,0,0,18-1.57,23.85,23.85,0,0,1,7.38-1.29ZM384.89,318.64c2.31-.73,4.6-1.55,6.94-2.18,4.58-1.24,9.13-.27,13.67.4A21.63,21.63,0,0,0,418,315.44c3.11-1.43,5.38-3.89,7.69-6.26a46.35,46.35,0,0,0,10.23-14.86c1.6-4,.93-8.32,2.3-12.33a30.56,30.56,0,0,0,.92-4.29,3.58,3.58,0,0,0-.23-2.35c-.51-.93-1-1.62-1.95-.22-1.87,2.71-3.26,5.49-2.65,8.93a7.22,7.22,0,0,1-.06,2.58c-1.92,9.35-7,16.21-15.88,20.08a80.91,80.91,0,0,1-21.18,5.55A21.51,21.51,0,0,0,384.89,318.64ZM76.08,179.54c1.26.75,2,1.2,2.75,1.63,6.57,3.75,12.82,7.9,17.39,14.12,3.76,5.11,7.4,10.37,9.44,16.4,2.1,6.23,3.85,12.59,6,18.83a13.83,13.83,0,0,0,2.62,4.9c.36.41.66,1.32,1.29,1a1.63,1.63,0,0,0,.41-2,4.74,4.74,0,0,0-.29-.74,51.57,51.57,0,0,1-5.48-22.51,29.29,29.29,0,0,0-6.75-17.59c-4.81-6-11.21-9.69-18.11-12.74A16.3,16.3,0,0,0,76.08,179.54Zm-16.52,7.24a22.94,22.94,0,0,0,5.76.33c3.44-.09,6.81.14,9.93,1.75C86.77,194.78,96.1,203,102.67,214.3c1.17,2,2,4.26,3.76,6.45-.05-3.66-1.33-6.5-2.49-9.37A54.76,54.76,0,0,0,90.28,191c-6.23-5.72-13.07-10-21.91-9.86a4.44,4.44,0,0,0-1.37.15A18.33,18.33,0,0,0,59.56,186.78Zm23.49,99.1,0-.56a7.39,7.39,0,0,0-3.85-.11,89.94,89.94,0,0,1-13.52.86c-12.41,0-24.4,1.79-35.31,8.23-1.32.78-2.83,1.35-3.75,2.83a6,6,0,0,0,3.08-.46A67,67,0,0,1,46.37,294c8.33-.31,16.6-1,24.57-3.7C75,288.91,79,287.35,83.05,285.88ZM420.6,430.34a14,14,0,0,1,4.85,4.72c2,3.35,3,7.11,4.62,10.63a36.65,36.65,0,0,1,2.77,21.07,50.09,50.09,0,0,0-.9,8.74c2.07-2.3,3.95-4.35,5.78-6.45a4.63,4.63,0,0,0,1-1.7c1.91-6.61,1.74-13.12-1.87-19.12S428.48,436.72,424.2,431c-2-2.64-5.06-3.36-8.55-4.28,1.5,2.45,2.33,4.76,4.67,6.22ZM143.68,263.88a37.35,37.35,0,0,1,9-8.69c2.49-1.66,5.15-3.08,7.57-4.84,4.81-3.5,8.4-8.12,11.56-13.09,2.51-3.93,5-7.83,7.55-11.77.54-.85,1.14-1.78-.15-2.55s-1.42.5-1.85,1.11a31.23,31.23,0,0,1-3.71,4.69c-8.58,8.18-16.61,16.87-24.52,25.69C146.8,257,144.11,259.45,143.68,263.88ZM160,257.24c3.24,0,6,.13,8.77-.15a10.33,10.33,0,0,0,8.43-6,36.66,36.66,0,0,0,2.7-8.55c1.35-5.72,2.93-11.27,8.5-14.51.87-.51.48-.87-.22-1.2-2.63-1.26-4.86-.53-6.25,2.28-3.29,6.65-7,13-12.37,18.23C166.43,250.44,163.46,253.67,160,257.24ZM423.8,472.44c.14-2.26,2-3.8,2.35-5.89,1.3-8.85.91-17.52-3.32-25.66-2.65-5.09-6.24-9.59-9.22-14.48-1.21-2-3.41-3.14-5.85-3.92,6.42,6.68,8.48,15.45,11.75,23.62C422.87,454.51,422.8,463.51,423.8,472.44Zm9.3-186.07-.51-.34c-1,1.09-2.12,2.12-3,3.29-4.11,5.2-8.8,9.57-15.26,11.78a93.58,93.58,0,0,0-9,3.8c-3.36,1.54-6.65,3.22-10.28,5a5.6,5.6,0,0,0,3.67.49,56.25,56.25,0,0,0,11.6-1.94c6.06-1.79,11.84-4.1,16.19-9A25.53,25.53,0,0,0,433.1,286.37ZM258.86,139.23c-2-2.25-4.62-3.69-7.05-5.35-5.79-4-12.15-6.86-18.33-10.12-9.47-5-18-11.48-26.72-17.72-.35-.25-.62-.79-1.39.09C220.61,121.39,238.09,132.93,258.86,139.23ZM420.47,433.45A13.42,13.42,0,0,0,422.1,437c2.57,4.37,5.1,8.71,5.31,14s1.3,10.68-.15,15.9a44.14,44.14,0,0,0-1.1,18.6c.15,1-.3,2.83.62,2.81,1.22,0,1.15-1.88,1.34-3,1.22-6.75,2.43-13.51,3.39-20.3.69-4.85.66-9.82-1.28-14.39q-3-7.17-6.1-14.33A4.89,4.89,0,0,0,420.47,433.45Zm-81-5.31c4.14-1.12,6.71-3.83,9-6.92,5.27-7.15,8.39-15.4,11.91-23.44a3.84,3.84,0,0,0,.21-3.11c-1.34,2.12-2.23,4.28-3.69,6.12q-6.11,7.75-12.14,15.56A23.83,23.83,0,0,0,339.5,428.14ZM365.9,367a10.26,10.26,0,0,0-.72,4.61c0,3.46.71,6.89.21,10.36a93.47,93.47,0,0,1-17,42c-.44.61-1.16,1.12-1,2.29,2.37-1.27,4-3.21,5.74-5,5.26-5.4,9-11.62,10.27-19.21.77-4.8,1.24-9.64,2.31-14.39,1.38-6.13,2.34-12.31,1.09-18.6C366.72,368.37,366.8,367.6,365.9,367ZM266.6,56.6a19.24,19.24,0,0,0,.57-5.54c-.05-7.72,1.69-14.91,6.4-21.19a38.15,38.15,0,0,0,4.1-6.34,36.23,36.23,0,0,0,3.79-12c-1.06,2.16-2,4.35-2.92,6.57a23.29,23.29,0,0,1-6,9,84.16,84.16,0,0,0-7.11,7.27,7.23,7.23,0,0,0-1.91,5.48,93.22,93.22,0,0,0,1.56,13.84A4.07,4.07,0,0,0,266.6,56.6ZM386,313.69a14.76,14.76,0,0,0,3.15-1.66,32.19,32.19,0,0,1,6.91-4.35c6.76-3,13.48-6.09,20.2-9.19a21.42,21.42,0,0,0,7.79-5.91c-.53-.47-.87-.16-1.21,0-4.05,1.88-8.15,3.65-12.34,5.21-2.87,1.07-6,1.43-8.79,2.56-6,2.41-10.58,6.79-15,11.35A2.05,2.05,0,0,0,386,313.69Zm-243.66,74c.56,12.16,1.92,24.22,5.16,36C148.65,411.27,149.05,399,142.31,387.67Zm91.8-254.89c-12.17-5.33-22.65-12.38-30.79-23a8.82,8.82,0,0,0,1.44,3.47,38.36,38.36,0,0,0,24.81,19.85A6.83,6.83,0,0,0,234.11,132.78Zm-56.9,122.6a14.49,14.49,0,0,0,7-7.92c2-5.06,1.48-10.54,2.76-15.79-1.22-.06-1.58.65-2,1.19a17.75,17.75,0,0,0-3.25,7C180.34,245,179.47,250.37,177.21,255.38ZM31.42,291.24c12.07-6,25.33-6.22,38.3-7.78C55.72,279.92,43.2,283.78,31.42,291.24Zm-5.15.24c13.82-9,28.67-13.13,45.62-9.8a9.67,9.67,0,0,0-7.59-3.27,66,66,0,0,0-26.66,5.11A36,36,0,0,0,26.27,291.48ZM344.47,138c8.45,3.22,19.89-2.83,24.16-9.93a6.38,6.38,0,0,0-.82.18,7.64,7.64,0,0,0-1.27.56,54.52,54.52,0,0,1-17.64,6.7A6.84,6.84,0,0,0,344.47,138ZM149.8,259a15.13,15.13,0,0,0,8.71-3.22c6.25-5.38,12.16-11.13,16.9-18a35,35,0,0,0,5.16-10.49,4.12,4.12,0,0,0-2.09,1.77A55.69,55.69,0,0,0,174,236a40.08,40.08,0,0,1-15.8,17.24C155.31,255,152.6,257.06,149.8,259Zm215.8,59.1a302.58,302.58,0,0,1-12-46.68,7.52,7.52,0,0,0-.11,2.58q1.33,8.46,2.76,16.93c1.28,7.62,2.7,15.21,5.71,22.38C362.67,315.07,363.24,317,365.6,318.11ZM400,144a44.66,44.66,0,0,0-13.8,0,16.27,16.27,0,0,0-8.53,4c-.35.34-1,.56-.72,1.26a1.4,1.4,0,0,0,1.48.81,7.85,7.85,0,0,0,1.55-.3,89.18,89.18,0,0,0,14.44-4.52C396.23,144.55,398.22,144.78,400,144ZM346.82,77.87c-5.12-.69-9.2-.05-12.11,4.34-1.75,2.65-3.09,5.2-2.08,8.77C337,86.18,340.8,81.06,346.82,77.87ZM379.88,336c-1.26,3.19-.74,5.6,1.18,7.66,4.55,4.86,10.51,7.08,16.72,8.79.06,0,.17-.15.38-.36-3.45-2.18-6.64-4.65-10.13-6.71A20.28,20.28,0,0,1,379.88,336ZM282,157.47c.59.67,1.19.41,1.75.23,4.16-1.41,8.32-2.8,12.46-4.27s8.37-3.06,12.55-4.63c.45-.17,1.48.31,1.24-.72-.17-.69-.92-.21-1.39-.12a114.57,114.57,0,0,0-12.82,3A44.46,44.46,0,0,0,282,157.47ZM231.49,129.1c-8.81-5.94-17.38-12.17-25.06-19.57C212.45,119.07,221.31,124.93,231.49,129.1ZM351,79.83l-.37-.58c-6.52.81-13,6-14.51,11.82ZM93.52,285.42c-8.85,1-16.71,5.09-25,7.88C77.61,293,85.52,289,93.52,285.42Zm32.25,23c-.58,8.34,3,15.39,4.66,23.42C131.41,326.8,128.46,312.26,125.77,308.42ZM350,163.5c-3-1-12.15,2.64-14.59,5.84C341.14,169,345.4,166.35,350,163.5Zm-175,95.67c6.27,1.81,11.63-5.92,10.82-10.81a27.86,27.86,0,0,1-4.41,6.39C179.72,256.71,177.36,257.79,175.07,259.17Zm18.18-29.51c-3.56-.4-7.13,7.85-5.88,13.64C188.65,238.48,190.08,233.73,193.25,229.66Zm167.6-124.74c-3.45-.76-5.93,1.52-7,4.73ZM27.37,288l6.8-4.82-.29-.43C31.05,283.59,28.5,284.78,27.37,288Zm82.28-56.5a15.2,15.2,0,0,0,2.33,7.08C112.56,235.51,111.06,233.55,109.65,231.54Zm314.1,247.8a8.66,8.66,0,0,0,.32,6.72A10.67,10.67,0,0,0,423.75,479.34ZM272.49,170.77c-2,.88-4.43,3.1-5,4.54C269.83,174.56,271,172.82,272.49,170.77ZM130.13,312.49c1-1.58,1.14-2.68-.68-3.54A6.6,6.6,0,0,0,130.13,312.49Zm242.17,11.4c1.38.3,2.14,1.22,2.95.16.28-.36.39-1.09,0-1.26C374.27,322.37,373.65,323.27,372.3,323.89Zm55.09-34.82c1-.87,2-1.74,2.17-3.13C428.58,286.82,427.39,287.57,427.39,289.07Zm-309.65,7.41c1.83-.86,2.79-1.76,2.41-3.83ZM290.5,150.63a4,4,0,0,0-3.76,1.73A8.22,8.22,0,0,0,290.5,150.63Z"/><path class="cls-1" d="M302,53.78a12.64,12.64,0,0,1-1.18,9.38Q301.46,58.47,302,53.78Z"/><path class="cls-1" d="M301.27,37.18c1,2.52.89,5.18,1.11,7.8A21.09,21.09,0,0,1,301.27,37.18Z"/><path class="cls-1" d="M262.84,90.79c-1.39-.81-15.17-16-16.22-17.87A74.42,74.42,0,0,1,262.84,90.79Z"/><path class="cls-1" d="M220.62,103.06a26.39,26.39,0,0,1,8.8,5.38C225.9,107.6,223.15,105.51,220.62,103.06Z"/><path class="cls-1" d="M208.55,91.87a13.91,13.91,0,0,1-7.4-6.37Z"/><path class="cls-1" d="M421,369.55l11,11.91C429.29,380.8,421.09,372.18,421,369.55Z"/><path class="cls-1" d="M448.19,408.31l3.17,3.77A5.12,5.12,0,0,1,448.19,408.31Z"/><path class="cls-1" d="M193.9,223.83l16.57-9.2C205.76,219.15,200.46,222.61,193.9,223.83Z"/><path class="cls-1" d="M226.39,203.37a38,38,0,0,1,9.56-7.93A30.36,30.36,0,0,1,226.39,203.37Z"/><path class="cls-1" d="M153.16,224.33c-1.57,1.7-3.37,2.64-5.1,4A7.68,7.68,0,0,1,153.16,224.33Z"/><path class="cls-1" d="M160.68,226.85l-5,4A7.13,7.13,0,0,1,160.68,226.85Z"/><path class="cls-1" d="M304.26,444.82c2.88-.65,5.79-.28,8.68-.48a.61.61,0,0,1,.72.73c-.05.44-.36.5-.72.46C310.05,445.22,307.12,445.6,304.26,444.82Z"/><path class="cls-1" d="M422.58,138.11a7.55,7.55,0,0,1,4.62-1.44A5.09,5.09,0,0,1,422.58,138.11Z"/></g></g></svg>