<svg xmlns="http://www.w3.org/2000/svg" viewBox="0 0 365.47 458.61"><defs><style>.cls-1{fill:#ffead9;}</style></defs><g id="Layer_2" data-name="Layer 2"><g id="Layer_1-2" data-name="Layer 1"><path class="cls-1" d="M362.42,380.18a7.55,7.55,0,0,1,.05,3.95c-1.87,9.77-7.28,17.64-13.47,25.06-4.37,5.23-9.32,9.9-11.31,16.9-1.54,5.45-11.37,10.3-16.34,8.54a43,43,0,0,0-6.25-1.28c-6-1.12-12-.37-17.93-.14a27.82,27.82,0,0,0-18.69,8c-2.22,2.13-4.24,4.69-7.47,5.5-.52.13-.5.53-.54.94-.15,1.87,1,2.18,2.52,2.21,7.05.14,14.1.29,21.15.54,7.76.27,15.43,1.09,22.4,5A34.31,34.31,0,0,0,323,458a11.47,11.47,0,0,0,10.76-1.88c8.37-6,16.78-12,25.19-18,2.43-1.73,2.38-1.67,3.26,1.09s1.46,5.93,2.54,8.76v-5.74c-.36-1.5-.7-3-1.05-4.51a3.64,3.64,0,0,1,1.05-3.18v-2.69c-2,1.7-4.07,3.25-6.2,4.77-.87.61-1.75,1.21-2.62,1.8-8.54,5.84-18.19,8.29-28.32,9.27a4.22,4.22,0,0,0-1.93.41c1.78.8,4.89.84,8.7.18a70.31,70.31,0,0,0,8.57-1.95c.35-.1.8-.32,1.09.11s-.1.72-.41.95c-4.18,3.09-8.23,6.37-12.85,8.79-3.37,1.77-6.76.85-10-.52-2.89-1.2-5.54-2.91-8.48-4-4.89-1.87-10-2.21-15.13-2.46-6.51-.3-13-.41-19.56-.64-1.37,0-2.74-.24-4.66-.41,4.57-3.73,7.84-8,12.63-10.61a23.75,23.75,0,0,1,13.24-3.06c4.06.31,8.11-.42,12.18-.08a75.56,75.56,0,0,1,10.56,2.09c4.93,1.12,9.68,0,14.22-2,5.26-2.27,10.67-4.24,15.27-7.81a6,6,0,0,1,3-1.17,19.13,19.13,0,0,0,10.78-5.3v-2.12a20.38,20.38,0,0,1-10.35,5.41c.45-1.78,1.61-2.84,2.51-4A45.09,45.09,0,0,0,364.75,403V393c-.46,3-.83,6-1.31,9-1.22,7.6-5,13.82-10.27,19.21-1.72,1.77-3.36,3.72-5.73,5-.19-1.17.52-1.67,1-2.29a93.51,93.51,0,0,0,16.35-38.06V359c-.54,3.41-1.26,6.81-2.1,10.2C361.73,372.84,361.05,376.46,362.42,380.18Zm-2,17.6c-3.52,8.05-6.65,16.3-11.91,23.44-2.27,3.08-4.84,5.8-9,6.92a23.83,23.83,0,0,1,5.27-11.79q6-7.82,12.14-15.56c1.45-1.84,2.34-4,3.68-6.12A3.81,3.81,0,0,1,360.39,397.78Zm.3-166.25c.11-6.52.73-12.9,3.28-19a19.7,19.7,0,0,0,.78-2.18,15,15,0,0,0,0-9.14,18.62,18.62,0,0,0-5-7.62c-6.31-6.12-10.52-14.1-18-19.62,7.23-1.42,14.08-1.85,20.75.27l2.26.74v-3.24a59.68,59.68,0,0,0-14.27-1,9.45,9.45,0,0,1-1.59-.11c-.12,0-.23-.12-.56-.31,5.2-3,10.81-4.41,16.42-5.79v-1.5c-5.21,1.3-10.44,2.65-15.78,4,.09-.89.69-1.13,1.25-1.39,3.8-1.77,7.66-3.42,11.37-5.36a9.94,9.94,0,0,1,3.16-.91v-2.86c-2.44-.22-5,.73-7.52,1.31-5.78,1.34-11.32,3.5-17,5.34a30.78,30.78,0,0,1-14.52,1.64c-4.76-.73-9.56-.54-14.36-.47-10.22.16-14.66-.47-24.7-3.38-.45-.3-1.48,0-1.49-.88s1-.74,1.56-1c5.8-2.16,11.63-4.26,17.43-6.44,7.49-2.81,14-7.4,20.6-11.76,4.71-3.1,9.65-4.16,15-2.34a30,30,0,0,0,12.12,1.74c5-.4,8.87-2.91,12.69-5.77l.14-.11v-1.9c-5.41,4.8-13.74,7.87-20.28,5.37a6.82,6.82,0,0,1,4.42-2.48,54.5,54.5,0,0,0,15.86-5.69v-1.48a71,71,0,0,1-15.25,5.56,19.3,19.3,0,0,0-2.42.85,17.78,17.78,0,0,1-11,1.43c-3.54-.76-7,.68-10,2.58A72.28,72.28,0,0,1,301,148.27c-2.58.49-5,1.49-7.73,1.57,10.68-5,22-8.3,32.74-13.14s22.18-7.26,33.44-10.39c-.07-.23-.13-.46-.2-.69-2.7.51-5.38,1.1-8.09,1.53-8.43,1.34-16.33,4.32-24.18,7.51-12.4,5.05-24.75,10.24-37.59,14.11-3.36,1-5.8,3.47-8.68,5.23-.65.4-1.25,1.42-2.25.59s-.74-1.67-.44-2.71a8,8,0,0,1,4.59-5.13c9.88-5,20.44-7.84,31.16-9.9a28.28,28.28,0,0,0,16.49-9A37.76,37.76,0,0,1,340,120c2.84-1.61,5.12-4,7.53-6.24,2.08-1.92,2.31-1.82,2.93.86a13.48,13.48,0,0,0,5.89,8.67c2.92,1.89,5.08,1.92,8,0l.46-.32v-1.67a10.54,10.54,0,0,1-2.42,1.21c-3.25,1.13-6.43-.18-8.86-3.69-1.59-2.3-1.27-4.8,1.06-7.43a22.79,22.79,0,0,1,10-6.67l.19-.07v-3.14a69,69,0,0,1-7.14,1.31A5,5,0,0,0,354,105a49.25,49.25,0,0,1-17.55,14.77c-.53-.43-.12-.88-.06-1.27a23.56,23.56,0,0,0-2.62-15.06c-1.06-2-.65-3.08,1-4.5,3.58-3.17,6.94-6.58,10.39-9.93a1.32,1.32,0,0,0,.39-.94c-4.39,1.56-6.47,6.35-11.07,8.1a7,7,0,0,1,2.1-3.67c8-7.11,17.08-12.7,26.38-17.89a14,14,0,0,1,1.83-.88V71.83c-1.95.93-3.91,1.87-5.87,2.79-5.61,2.62-11.11,3.28-16.31-1a3.53,3.53,0,0,0-3.35-.89A14,14,0,0,0,334,75.25c-5.43,4.85-9.92,10.38-12.38,17.38-2.07,5.92-4.31,11.78-6.47,17.67a20.73,20.73,0,0,1-4,6.82c-.38.43-.62,1.23-1.29,1s-.58-1-.66-1.54c-.57-4-1.09-8.06-1.68-12.08-1.38-9.54-.38-18.71,4-27.42,1.8-3.6,4.35-6.73,6.12-10.29a45,45,0,0,1,11.43-14.48c1.66-1.4,3.48-2.67,4.47-4.77,2.42-5.14.41-9.78-1.4-14.46a9.67,9.67,0,0,0,.5,5.05c1.87,5.64-.23,9.82-4.36,13.49-3.68,3.27-7.3,6.62-9.78,11-1.68,3-2.94,6.1-4.89,8.91a44,44,0,0,0-7.61,22c-.51,6.5.65,12.87,1.18,19.29.38,4.52,1.1,9.11-3.53,12.42-3.38,2.42-6.39,5.35-10.53,6.8a4.89,4.89,0,0,1,1-2.53A28.85,28.85,0,0,0,298,110.74,111,111,0,0,1,300,71.45c.45-1.87,1-3.81.54-5.81-1.14,6.69-2.82,13.28-3.91,20-1.27,7.79-.65,15.67-.22,23.51.32,5.84.4,11.61-2.47,17-.91,1.69-1.68,3.6-3.83,4.43-.29-2.08.42-3.85.68-5.67.69-4.87,0-9.68-.33-14.51-.6-7.77-1-15.55-1.49-23.33-.49-7.5-1.3-15-1.26-22.52A194.27,194.27,0,0,1,289.82,40c1.05-7.92,2.47-15.8,2.59-23.82,0-1.31-.23-2.85,1.23-4.06l2.82,5.37c-1.5-3.41-2.15-7.36-4.34-10.77a8.26,8.26,0,0,1,3.4,3,20.73,20.73,0,0,0,8.75,6.75c2.52,1.06,5.11,2,7.59,3.1,3.86,1.8,7.63,3.73,11.88,4.63a9.45,9.45,0,0,1,7.37,6.89c.07.24.16.55.54.34-.49-5.11-2.73-7.63-7.62-8.56a27.34,27.34,0,0,1-6.27-2c-4.62-2.09-9-4.67-13.85-6.27a13.5,13.5,0,0,1-5.42-3.62c-3-3.11-5.35-6.82-8.66-9.65C287-1,284.28-.3,282.94,3.13c-2.2,5.65-4.47,11.29-6.71,16.93a15.66,15.66,0,0,1-4.54,6,59.86,59.86,0,0,0-7.28,7.4,9.66,9.66,0,0,0-2.49,7c.26,3.25.74,6.49,1.11,9.73.14,1.28.25,2.57.41,4.2a7.55,7.55,0,0,1-3.28-4.57c-1.05-4.06-1.9-8.2-3.57-12.07-2.3-5.34-6.94-8-11.92-10.36-3.08-1.44-6-3.19-9.55-3.29a50.69,50.69,0,0,0-16.3,2.59c-5.68,1.72-11,4-15,8.68-3.77,4.42-8.6,6.13-14.34,5.87a15.29,15.29,0,0,0-12.66,5.7c-2.2,2.55-2.27,4.57-.4,7.23,3.9,5.56,7.94,11,11.67,16.69s6.42,11.7,7,18.53a54.27,54.27,0,0,0,17,36c.37.35.86.68.43,1.47-4.37-1.25-8.93-1-13.42-1.38-8.78-.78-16.65,1.22-23.52,6.84-3.16,2.6-5.5,6-8.38,8.82a15.71,15.71,0,0,0-4,6.37c-1.79,5.38-3.65,10.74-5.48,16.12a23.14,23.14,0,0,1-4.18,7.65c-3.85,4.52-8.26,8.5-12.24,12.89-4.67,5.13-7.45,10.76-5.55,18,.95,3.59,1.48,7.26-.59,10.86-.89,1.55.15,2.89,2,2.93,3.06.09,6.13,0,9.19,0l7.8,0c-.87,1.5-2.1,1.67-3.07,2.15-6.91,3.41-13.8,6.85-21.91,4.13-2.26-.76-4.18.27-5.48,2.3a68.47,68.47,0,0,1-4.57,7c-.5.6-.9,1.31-1.59.23-2.9-4.55-5.28-9.28-5.54-14.81a64.77,64.77,0,0,0-2-14c-1.44-5.38-5.2-9.39-8.67-13.5-4-4.74-9.44-7.25-15-9.56-8.74-3.61-16.82-1.85-24.54,2.85-2.61,1.59-4.94,3.61-8,4.33a24.25,24.25,0,0,1-11.08.24c-5-1.1-8.35,1.78-8.36,6.85a29.32,29.32,0,0,0,.84,7.52q2.48,9.48,4.88,19c1.47,5.82,2.84,11.64,2.38,17.73a64.08,64.08,0,0,0,.24,9.79A20,20,0,0,0,47.13,259c3,3.87,6.87,6.87,10.51,10.08l6.6,5.79-5.39.38c-6.64.45-13.34.18-19.91,1.33-4.41.75-9,2.09-11.88,5.65-3.3,4.12-6.41,8.54-8,13.72a10.57,10.57,0,0,1-1.59,3c-1.62,2.34-3.64,4.46-4.17,7.42a17.88,17.88,0,0,1-3.06,6.9,8.55,8.55,0,0,0-1.72,3.14,4.86,4.86,0,0,1-2.77,3.69c-4.59,2.15-5,6.42-5.35,10.6-.16,2,0,4-.27,6-.29,2.33,0,4.52,2.26,6a13.78,13.78,0,0,0,10.1,2.19A37.13,37.13,0,0,1,34,347.37c4.92,2.08,9.91,4,15.37,4.1A60.47,60.47,0,0,0,65,349.76c4.14-1,8.54-1.67,12-4.24,8.69-6.46,16.83-13.46,21.07-23.94A34.2,34.2,0,0,1,106.44,309c3.37-3.12,6.93-6,10.45-9a45.39,45.39,0,0,1,5.62-4.5c.21,4-.85,7.23-3.93,9.74-4.49,3.67-9.15,7.1-13.5,10.95C96.77,323.59,92.27,332.7,92,343.7s.22,22.09-.28,33.14a17.15,17.15,0,0,0,4.16,12c2.93,3.62,5.67,7.39,8.26,11.29,3.79,5.66,6.29,12,9.85,17.82,1.43,2.31,2.4,5.1,4.85,6.51,4.35,2.5,8.93,4.51,14,4.89,5.85.44,11.24,2.09,15.83,5.9a5.38,5.38,0,0,0,1.38.79c1.91.81,2.41.49,2.58-1.52.84-9.74,1.75-19.48,2.51-29.23a61.89,61.89,0,0,0-2.37-23.91c-2.88-8.93-6.2-17.71-9.39-26.55-4-11-8.06-21.9-9.73-33.53-.33-2.29-1-4.57-.27-6.9.17-.52.15-1.34.86-1.4s.77.65,1.08,1.06A57.06,57.06,0,0,0,147,325.48c4,2.94,8.56,4.6,12.78,7a53,53,0,0,0,11.78,5.4c2.82.78,5.77,1.07,8.53,2.12a21,21,0,0,0,11,1.32c9.4-1.49,18.78-3.07,27.91-5.93,5-1.57,8.58-4.27,10.55-9.38,4-10.29,10.43-19,18.46-26.5a21.1,21.1,0,0,0,5.49-8c.6-1.61.38-2.17-1.54-2.08-8.22.36-12.49-2.48-15.57-10.08a15.47,15.47,0,0,0-2.83-4.56c-2.48-2.81-5.47-5.06-8.25-7.54-6.47-5.75-13.91-8.61-22.59-7.36-5.71.82-11.28.08-16.89-.67-1.65-.22-1.57-.9-.89-2.09a28,28,0,0,0,3.74-10.9c.42-4,1.92-7.7,3.46-11.42,1.44-3.5,3.78-4.8,7.35-4.92a67.06,67.06,0,0,0,14.21-2c7.69-2,14.72-5.43,21.75-9,4-2,7.68-4.24,9.92-8.32a12.67,12.67,0,0,1,1.92-2.18l.44.21c-.11,1.2-.18,2.39-.31,3.58a15.87,15.87,0,0,0,1.93,10.4c.9,1.47,1.81,2.95,2.65,4.46,4.17,7.52,7.45,15.5,12,22.84,1.92,3.09,3.36,6.61,6.11,9.06a39.73,39.73,0,0,0,13.61,7.82,60.87,60.87,0,0,1,16.3,8.35,32.93,32.93,0,0,0,12.23,5.77,44.89,44.89,0,0,1,14.4,6.26c5.42,3.45,6.12,3.33,10.68-1.08a3.71,3.71,0,0,0,.29-.27c2.18-2.37,4.45-4.79,4.44-8.24,0-2.81.39-5.57.46-8.37.1-4.69,2.85-7.95,5.9-11.15a5.39,5.39,0,0,1,.79,2.4c1,4.45,1.06,9,1.33,13.51a143.38,143.38,0,0,0,3.33,23.31c1.69,7.43,4.46,14.51,6.69,21.77a148.93,148.93,0,0,1,4.23,15v-5.87c-.57-2.75-1.18-5.52-1.9-8.29l1.9,1.72v-3.89c-1.67-1.16-2.19-2.79-2.82-4.29-3-7.19-4.43-14.77-5.7-22.39q-1.43-8.46-2.77-16.94a7.47,7.47,0,0,1,.11-2.57,309.22,309.22,0,0,0,11.18,44.24v-5.3c-1.16-3.19-2.18-6.42-3-9.71-4-15.31-6-31-8.58-46.54a6.85,6.85,0,0,1,1.47-5.53A29.69,29.69,0,0,0,360.69,231.53Zm.15-126.61-7,4.72C354.92,106.44,357.39,104.15,360.84,104.92ZM350,163.49c-4.64,2.86-8.9,5.5-14.58,5.85C337.89,166.14,347,162.46,350,163.49ZM290.5,150.62a7.92,7.92,0,0,1-3.76,1.73A4,4,0,0,1,290.5,150.62Zm5.28.32a112.6,112.6,0,0,1,12.83-3c.46-.08,1.22-.57,1.38.13.24,1-.79.55-1.24.72-4.17,1.57-8.34,3.14-12.54,4.63s-8.31,2.86-12.47,4.26c-.55.19-1.15.45-1.75-.22A44.34,44.34,0,0,1,295.78,150.94Zm54.82-71.7.36.59c-4.91,3.71-9.83,7.42-14.88,11.25C337.57,85.29,344.08,80.06,350.6,79.24Zm-15.89,3c2.9-4.4,7-5,12.1-4.34-6,3.19-9.79,8.31-14.19,13.11C331.62,87.41,333,84.87,334.71,82.21ZM295,133.94c4.41-3.65,8.91-7.18,13.26-10.89a30.84,30.84,0,0,0,8.82-13.35c2.19-6.08,4.26-12.22,6.53-18.27a23.77,23.77,0,0,1,5-8.33c.48-.5.84-1.22,1.88-1.14-.23,2.78-.7,5.5-.73,8.28a36.72,36.72,0,0,0,3.51,15.2c3.92,9,2.78,15-5.75,22.87-5,4.63-11,6.65-17.54,7.93-7.1,1.39-14.12,3.25-21.18,4.89-.35.08-.74.34-1.24-.11C289.59,138.21,292.33,136.12,295,133.94ZM288.17,5.47a6.6,6.6,0,0,1,2.44,5,98.73,98.73,0,0,1-.54,20.69c-1.39,10.62-3,21.21-3.39,32a224.41,224.41,0,0,0,.86,23.91c.68,9.23,1.07,18.47,1.59,27.7a1.14,1.14,0,0,1-.38,1.12,46.07,46.07,0,0,1-2.85-12.38c-.74-7.4-2.82-14.49-4.64-21.65a59.22,59.22,0,0,1-.6-25.35c.72-4.06,1.3-8.16,1.63-12.26.5-6.23,2.06-12.2,3.6-18.21a52.46,52.46,0,0,0,1.9-18.37A2.84,2.84,0,0,1,288.17,5.47Zm-3.45-.87a1.74,1.74,0,0,1,.57-1.52c1.3,1.9,1.19,4.08,1.42,6.14A36.56,36.56,0,0,1,285.17,24a138.51,138.51,0,0,0-5.12,28.86c-.47,5.62-1.44,11.21-2.19,16.81a13.33,13.33,0,0,1-.35,1.4c-2.34-2.51-3.72-5.13-3.7-8.35,0-5.4.81-10.74,1.1-16.12a2.57,2.57,0,0,0-.33-2.14L272.1,64.13c-2.32-1.55-3.49-3.45-3.39-6.1.2-5.26.36-10.51.89-15.74.39-3.86,2.32-7.06,4.24-10.26,3.12-5.18,7-9.94,8.72-15.88A48.36,48.36,0,0,0,284.72,4.6ZM265.4,34.37a82.72,82.72,0,0,1,7.11-7.27,23.26,23.26,0,0,0,6-9c.9-2.22,1.86-4.41,2.93-6.57a36.41,36.41,0,0,1-3.79,12,38.71,38.71,0,0,1-4.11,6.35c-4.7,6.28-6.44,13.47-6.39,21.19a19.3,19.3,0,0,1-.58,5.54A4.07,4.07,0,0,1,265,53.69a94.55,94.55,0,0,1-1.55-13.84A7.23,7.23,0,0,1,265.4,34.37ZM196.59,90.74c-.51-9.3-4.46-17.14-9.84-24.48-3.19-4.34-6.11-8.89-9.15-13.35a3.7,3.7,0,0,1,.1-4.61c3.31-4.76,7.44-6.33,13.82-4.8,8.69,2.08,17.37,4.25,25.52,8.08,1.57.73,3.12,1.5,4.69,2.23.39.19.76.61,1.41,0-8.33-5.77-18.2-7.63-27.53-11.27a5,5,0,0,1,2.29-1.68,22.76,22.76,0,0,0,8.78-6.76,9.11,9.11,0,0,1,4.63-3.3c5.12-1.68,10.12-3.64,15.39-4.9,7.07-1.7,13.29,0,19.4,3.29,5.63,3,9.32,7.24,10.89,13.7,2.5,10.26,2.79,10.19,10.27,18.92a56.51,56.51,0,0,0,6.17,6.5,14.75,14.75,0,0,1,4.66,8.45c2,9.45,3.83,18.92,5.84,28.37,1.09,5.08,2.42,10.1,3.6,15.16a16.83,16.83,0,0,1-1,10.57c-1.57,3.68-3.32,7.28-5,10.93a3,3,0,0,1-1.44,1.57c-2-17-3.09-34.07-14.19-48.2,3.27,7.47,7.19,14.73,8.63,22.9s3.84,16,2.39,24.31c-.89-3-1.39-6.07-2.6-9a26,26,0,0,0-5-8.08,38.33,38.33,0,0,1,4.9,21.5,70.17,70.17,0,0,0-21-22.77l-.41.37c1.11,1.12,2.19,2.29,3.36,3.36,4.41,4,9.1,7.83,12.23,13.06a32.09,32.09,0,0,1,3.72,7.51,4.51,4.51,0,0,1-2-1.51,105.09,105.09,0,0,0-30.77-21.17c-7-3.16-13-7.75-19.47-11.75-7.53-4.68-13.77-10.85-20.24-16.79A9.12,9.12,0,0,1,196.59,90.74Zm8.77,15.39c.77-.88,1-.34,1.4-.09,8.68,6.24,17.24,12.71,26.72,17.72,6.17,3.26,12.54,6.16,18.32,10.12,2.43,1.66,5,3.09,7.06,5.35C238.09,132.92,220.61,121.38,205.36,106.13Zm26.12,23c-10.17-4.18-19-10-25.06-19.57C214.1,116.92,222.67,123.16,231.48,129.1Zm-26.72-15.89a8.88,8.88,0,0,1-1.44-3.47c8.13,10.66,18.61,17.71,30.78,23a6.86,6.86,0,0,1-4.53.28A38.37,38.37,0,0,1,204.76,113.21Zm-61.52,70.25c4-4,8.38-7.63,11.88-12.11s4.51-9.9,6.35-15c1.38-3.82,1.56-8.11,3.94-11.5,6.27-8.93,13.7-16.53,25.21-18a50.87,50.87,0,0,1,24.6,2.64c5.36,2,10.63,4.25,16.33,5.34a177.37,177.37,0,0,1,29.65,8.79,22.38,22.38,0,0,1,8.44,5.91,5,5,0,0,1,1.24,2.55c-2.49.37-4.81-.39-7.14-.82-8.91-1.64-17.77-2.29-26.75-.25-4.79,1.09-9.74,1.43-14.61,2.11A7.36,7.36,0,0,0,218,155c16.65-2.5,32.76-6.37,49.07-1.28-.09.45-.49.46-.77.45-7-.24-13.89,1.36-20.84,2a58.24,58.24,0,0,1-7,.12c-4.64-.16-8.87,1.6-13.24,2.75-12,3.2-22.92,8.86-33.64,15-6.11,3.54-11.27,8.24-16.79,12.5-7.12,5.5-14.18,11.06-21.55,16.22a84.41,84.41,0,0,1-8.93,6,12.69,12.69,0,0,1-4.72,1.19c6.86-8.52,14.5-15.69,22.07-22.93s16.38-12.81,25.21-18.34c-19.39,8.94-32.94,25-48.14,39.11C135.61,198,134.75,192,143.24,183.46ZM85.3,180.8c6.9,3,13.3,6.71,18.11,12.73a29.29,29.29,0,0,1,6.75,17.6,51.53,51.53,0,0,0,5.48,22.5,6.83,6.83,0,0,1,.29.75,1.65,1.65,0,0,1-.42,2c-.62.35-.93-.55-1.29-1a13.65,13.65,0,0,1-2.61-4.9c-2.1-6.24-3.86-12.6-6-18.83-2-6-5.68-11.29-9.43-16.4-4.57-6.21-10.82-10.37-17.4-14.13-.75-.42-1.48-.88-2.74-1.63A16.48,16.48,0,0,1,85.3,180.8ZM112,238.62a15.29,15.29,0,0,1-2.32-7.08C111.06,233.54,112.56,235.51,112,238.62ZM67,181.28a4.44,4.44,0,0,1,1.37-.15C77.21,181,84,185.27,90.27,191a54.71,54.71,0,0,1,13.67,20.38c1.16,2.88,2.44,5.71,2.49,9.38-1.77-2.19-2.59-4.44-3.76-6.45C96.1,203,86.76,194.78,75.25,188.87c-3.13-1.62-6.5-1.85-9.93-1.77a23,23,0,0,1-5.77-.32A18.37,18.37,0,0,1,67,181.28Zm-30,22.4a31.56,31.56,0,0,1-1.25-11.81c.12-1.72,1-2.2,2.76-2.35,9.2-.78,16.47,4,24,8.1a57.64,57.64,0,0,1,11.76,8.87c.46.42.78,1.14,1.89,1-5.84-7.12-13.91-11-21.54-16.11a26.52,26.52,0,0,1,8.82.31c6.6,1,12.84,3,18.27,7.07,2.87,2.12,4.87,5.08,7,7.88A4.05,4.05,0,0,0,90,208.05c.14-1.22-.58-2.11-1.18-3.07-5-8-12.81-11.72-21.46-14.22a20.89,20.89,0,0,0-6.66-1.24,4.56,4.56,0,0,1,3-.89c7-.54,13.18,1.92,18.91,5.79a60,60,0,0,1,19,20.17A55.38,55.38,0,0,1,107,229.78c.66,2.85,1.49,5.67,2.23,8.5a5.7,5.7,0,0,0,1.32,2.44,1.41,1.41,0,0,1,0,2.21c-1.72,2-1.59,2-3.45.06-5.69-6-8.83-13.16-11-21-1.06-3.83-2.8-7.48-4.24-11.2a2.12,2.12,0,0,0-1.14-1.33,219.05,219.05,0,0,0,7.72,23.07c1.7,4.1,4.68,7.43,6.9,11.22.16.27.5.47.27,1-2,0-3.27-1.43-4.56-2.71-4-4-6.53-8.88-9.26-13.69-1.28-2.25-2.65-4.46-4-6.66-.24-.38-.38-1.23-1.08-.89s-.32,1.15-.09,1.59c.92,1.76,1.95,3.48,3,5.21a115.89,115.89,0,0,0,7.81,12.29c2.37,3.06,5,6,8.63,7.52,1.11.48,1.26,1.11,1,2.19a20.4,20.4,0,0,0,1.94,16.2c1.37,2.44,3.36,4.43,4.8,6.94-8.6-4.84-17.49-8.78-27.43-9.8,8.88,3.57,18.79,4.77,26.46,11.55a2.59,2.59,0,0,1-2.37-.1c-6.54-2.89-13.53-3.35-20.51-3.81A56.41,56.41,0,0,1,62,260.87a9.28,9.28,0,0,1-3.09-3c.79-.55,1.36,0,2,.17a102.09,102.09,0,0,0,10.41,2.85c.67.13,1.69.67,1.88-.25s-1-.87-1.64-1.06a46.53,46.53,0,0,0-6.76-1.8c-5.56-.74-9.49-4-13-8A45.6,45.6,0,0,1,44.41,238c-.85-2-.79-4-1-6.07A159.33,159.33,0,0,0,37,203.68Zm12.41,56a17.93,17.93,0,0,1-5.62-11.17c-.17-1.59-.37-3.17-.56-4.76-.06-.51-.33-1.17.25-1.45.8-.36,1,.53,1.24,1a95.23,95.23,0,0,0,9.55,12.48c7.08,8.07,16.15,12.39,26.29,15,7.38,1.88,15,2.06,22.5,3.23a31.47,31.47,0,0,1,7.82,2.32c.38.17,1,.24,1,.84s-.73.49-1.15.55c-3.55.51-7.12.94-10.66,1.5-3.84.62-7.41,2.15-11.06,3.42a14,14,0,0,1-10.29-.29c-3.34-.94-6.17-3.44-9.14-5.64A192.64,192.64,0,0,1,49.4,259.68Zm16.25,26.4a91.23,91.23,0,0,0,13.51-.87,7.28,7.28,0,0,1,3.85.12c0,.17,0,.36,0,.55-4,1.47-8,3-12.11,4.4-8,2.67-16.24,3.38-24.57,3.7a66.64,66.64,0,0,0-16.7,2.69,5.93,5.93,0,0,1-3.08.46c.93-1.48,2.44-2.05,3.76-2.83C41.24,287.87,53.24,286.12,65.65,286.08Zm-34.23,5.16c11.77-7.46,24.29-11.32,38.3-7.78C56.74,285,43.49,285.22,31.42,291.24Zm62.09-5.82c-8,3.59-15.9,7.58-25,7.88C76.81,290.51,84.66,286.44,93.51,285.42Zm-59.64-2.63.3.42L27.36,288C28.49,284.78,31.05,283.59,33.87,282.79Zm3.77.73a65.82,65.82,0,0,1,26.65-5.11,9.7,9.7,0,0,1,7.6,3.27c-17-3.33-31.8.83-45.63,9.8A36.31,36.31,0,0,1,37.64,283.52Zm60.21,34.73a79.43,79.43,0,0,1-6.73,11.53C84.09,339.05,75.5,346.34,64,349a43.79,43.79,0,0,1-28.37-2.39c-3.54-1.58-7.25-2.65-10.8-4.25,5.28-.87,10.61-.94,15.84-1.89,8.53-1.56,17-3.46,25-6.85a68.54,68.54,0,0,0,23.11-15.73,69.34,69.34,0,0,1,17-12.76,1.37,1.37,0,0,1,1.45-.21A59.88,59.88,0,0,0,97.85,318.25Zm19.88-21.77c.91-1.44,1.59-2.52,2.41-3.84C120.53,294.72,119.56,295.62,117.73,296.48Zm2.75-9.77c-2.06,5.18-6,8.55-10.87,10.92-3.82,1.86-8,3-11.6,5.33C93.2,306,89.16,310,84.82,313.63c-5.84,4.86-11.45,10-17.84,14.14a9.14,9.14,0,0,0-.89.79c6.77-2.37,11.68-6.72,16.66-10.92,4.23-3.55,8.3-7.29,12.52-10.84,3.84-3.24,8.53-4.83,13.4-6.66a3.38,3.38,0,0,1-1.89,2.14c-9.69,5.44-17.64,13-25.52,20.7-4.83,4.71-10.76,7.54-17,9.87-2.74,1-5.53,1.95-8.3,2.91a8.16,8.16,0,0,1-3.08.65c0-1,1.37-1,1.25-2.13A19.06,19.06,0,0,0,49,335.9c-7.7,3-15.79,3.62-23.92,4.08-5.58.32-11.15.8-16.73,1.25-6,.47-6.86-.29-7-6.21a40.42,40.42,0,0,1,.43-7.37A8.17,8.17,0,0,1,6.53,321a4.25,4.25,0,0,0,2.77-4,3.86,3.86,0,0,1,1.16-2.67,15.36,15.36,0,0,0,3.74-7.83A2.34,2.34,0,0,1,16,304.42c2.11-.73,3.66-2.54,5.92-3.16,13.54-3.73,27.15-6.71,41.35-5.63,6.08.47,11.84-1.14,17.51-3.28,8.71-3.3,17.35-6.83,26.45-9a22.14,22.14,0,0,1,11.65.17C121,284.12,121.28,284.72,120.48,286.71Zm1.57-5.66c-.63-.06-.93-.74-1.16-1.27a29.86,29.86,0,0,0-5.1-8.07c-1.24-1.38-2.48-2.79-3.75-4.16-5.56-6-6.44-13.22-2.51-20.47,3.16-5.82,7.57-10.77,11.25-16.23,1.27-1.87,2.66-3.66,4.06-5.44a4.23,4.23,0,0,1,4.76-1.71c4.85,1.43,9.45.59,14-1.32,4.85-2,9.52-4.51,14.59-6a14.07,14.07,0,0,1,10.6.66c-4.68,1.37-9.74,1.85-13.27,5.74a71.69,71.69,0,0,1,7.07-2.95,25,25,0,0,1,5.28-1c1-.08,2-.08,2.68.91.54.81,1.32.45,2,.42a2.74,2.74,0,0,1,2.86,1.74,3,3,0,0,1-.75,3.63c-7.9,7.64-14.56,16.52-22.63,23.88-6.69,6.1-10.26,13.6-13.75,21.46a29.6,29.6,0,0,1-10,12.72c-.59.41-1.23,1.13-1.94.66s-.16-1.22-.17-1.85c-.2-10.13,4.21-18.66,9.25-27,4-6.66,9.16-12.4,14.15-18.27l1.88-2.25c-.15-.13-.3-.24-.45-.36a127.59,127.59,0,0,0-22.64,31.37c-1.07-2.65-.39-4.61.31-6.55a81.83,81.83,0,0,1,16.56-28c.22-.24.51-.43.41-1a29.66,29.66,0,0,0-7.24,7.29,65.79,65.79,0,0,0-11.54,23.75,74.53,74.53,0,0,0-1.4,9.08,37,37,0,0,1-2.56,9.43C122.72,280.33,122.74,281.12,122.05,281.05Zm53.35-43.22c-4.73,6.82-10.64,12.57-16.9,18a15.12,15.12,0,0,1-8.71,3.21c2.81-1.94,5.52-4.05,8.44-5.8A40.11,40.11,0,0,0,174,236a55.58,55.58,0,0,1,4.45-6.84,4.08,4.08,0,0,1,2.09-1.78A34.81,34.81,0,0,1,175.4,237.83Zm6.54-8.68c1.39-2.81,3.62-3.53,6.25-2.28.7.33,1.09.69.22,1.19-5.58,3.25-7.15,8.79-8.51,14.52a36.19,36.19,0,0,1-2.7,8.55,10.34,10.34,0,0,1-8.43,6c-2.74.28-5.53.11-8.76.14,3.45-3.56,6.42-6.79,9.56-9.85C175,242.14,178.65,235.8,181.94,229.15Zm-2.6-3.66c-2.5,3.93-5,7.84-7.54,11.77-3.17,5-6.76,9.59-11.56,13.09-2.42,1.77-5.08,3.17-7.58,4.83a37.76,37.76,0,0,0-9,8.7c.44-4.44,3.13-6.87,5.45-9.45,7.9-8.81,15.94-17.52,24.52-25.69a32.21,32.21,0,0,0,3.7-4.69c.44-.61.6-1.86,1.86-1.11S179.88,224.64,179.34,225.49ZM144.89,430.56c-7-1.92-14.16-3.26-21.1-5.44-3.94-1.23-6.52-3.94-8.3-7.6a174.43,174.43,0,0,0-12.59-21.76,83.75,83.75,0,0,0-5.56-7.31,16.89,16.89,0,0,1-4.11-12.53c.53-9.37.42-18.76.27-28.14-.15-9.93,2.28-19,8.73-26.74a28.34,28.34,0,0,1,4.7-4.59c4.52-3.4,9.1-6.72,13.66-10.07.2-.15.44-.26,1.3-.74-1.64,11-4,21.48-3.7,32.19A76.37,76.37,0,0,0,120.33,325a46.81,46.81,0,0,1,2.81-12.61c.62,2.34,1.14,4.73,1.88,7,2.56,8,5,16.12,5.07,24.57.08,8.62,3.29,16.37,5.5,24.43a176.44,176.44,0,0,1,5.12,24.81c.61,4.9,1.22,9.78,1.83,14.67.08.65.33,1.32-.32,1.95a10.9,10.9,0,0,1-2.57-4.64c-1.54-4.58-4.37-8.36-7.1-12.21-3.68-5.16-5.9-11-8.13-16.86a49.25,49.25,0,0,1-3.31-14.53,13.21,13.21,0,0,0-1.86-5.23c-.44,1.21.08,2.13.16,3.08.86,10,4.3,19.32,8.36,28.42a47.32,47.32,0,0,0,4.93,8c4.71,6.58,7.7,13.95,10.2,21.57,1.28,3.94,2,8,3.16,12C146.43,430.64,146.13,430.91,144.89,430.56Zm-14.47-98.72c-1.68-8-5.23-15.09-4.66-23.42C128.46,312.26,131.41,326.8,130.42,331.84Zm-1-22.9c1.81.87,1.65,2,.68,3.55A6.52,6.52,0,0,1,129.45,308.94Zm18,114.73c-3.24-11.79-4.59-23.84-5.16-36C149.05,399,148.64,411.27,147.46,423.67ZM133.3,331.59c1,3,2,5.94,3,8.93,2.76,8.57,6.16,16.89,9.43,25.27,3.14,8.08,6.47,16.08,7.69,24.74a89.15,89.15,0,0,1,.34,20.52c-.48,5.43-1.21,10.84-1.43,16.3a34,34,0,0,1-.93,4.88,7.07,7.07,0,0,1-1.83-4.94c0-6.19-.13-12.38-.14-18.56a49.7,49.7,0,0,0-4.23-19.61c-2.56-5.89-4.37-12-6.49-18-1.62-4.66-3-9.39-4.5-14.09-2-6.35-1.76-12.87-1.63-19.41,0-2,.12-3.94.18-5.91ZM190,261.35a54.85,54.85,0,0,0,14.14.07c6.73-.69,12.84.63,18.12,5.09,4,3.38,8.42,6.32,11.65,10.57a10.66,10.66,0,0,1,1.52,3c2.24,6.43,6.74,10,13.48,10.78.44.05.87.17,1.56.3-7.56,6.32-16.28,10.16-24.65,14.66,3-.54,5.53-2.12,8.24-3.28s5.56-2.47,8.48-3.43c-10.68,9.79-22,18.57-36.34,22.33,1.34.72,2,.79,3.94.1A93.61,93.61,0,0,0,233,309.37c2.81-2,5.31-4.39,8.58-5.88-1.29,1.91-2.44,3.93-3.88,5.7A64,64,0,0,0,228.07,326a12.49,12.49,0,0,1-8,7.68c-10.47,3.64-21.31,5.16-32.22,6.39a17.09,17.09,0,0,1-6.88-1c-2.3-.7-4.62-1.33-7-1.86-3.27-.75-6.55-1.55-9.33-3.45-3.74-2.55-8.17-3.61-12-5.9a56.27,56.27,0,0,1-17.13-15.6c-2-2.79-4.58-5-7-7.4-4.07-4.1-4.92-9.25-5.23-15.09a38.58,38.58,0,0,1,4.71,5.17c4.1,4.72,7.62,10,12.6,13.87a60.08,60.08,0,0,0,28.53,12.65c6.72,1,13.4,2.12,20.21,2.22,5,.07,10-.11,14.78-1.85-2.85.14-5.7.27-8.56.44-13.19.8-26-.61-38.44-5.5a52.84,52.84,0,0,1-21-14.78,79.36,79.36,0,0,1-6.42-7.64c-.24-.36-.76-.62-.32-1.42,1.48,1.09,3,2.05,4.38,3.26a52.23,52.23,0,0,0,11.85,7.71c4.45,2.24,8.6,5.09,13.44,6.59,11.79,3.65,23.74,5.45,36,3.34.85-.15,1.67-.46,2.51-.68.41-.12.84-.33.74-.78s-.61-.48-1-.48a4.26,4.26,0,0,0-1.18.17c-8.28,2.27-16.55,2-24.92.34s-15.84-5.26-23.32-9.2a85.8,85.8,0,0,1-17.69-12.2l-.59-.54c-2.76-2.62-2.77-2.69.27-4.78,4-2.77,6.65-6.7,8.69-11,4.84-10.27,16.43-16.74,27.62-15.25a5.42,5.42,0,0,1,1.94.41c4.49,2.48,9.23,2.16,14,1.38A24.48,24.48,0,0,1,190,261.35Zm-14.92-2.19c2.3-1.37,4.65-2.46,6.41-4.41a27.8,27.8,0,0,0,4.41-6.38C186.69,253.25,181.33,261,175.06,259.16Zm9.2-11.7a14.52,14.52,0,0,1-7,7.92c2.26-5,3.12-10.36,4.52-15.54a17.66,17.66,0,0,1,3.26-7c.45-.54.8-1.25,2-1.2C185.74,236.92,186.25,242.4,184.26,247.46Zm3.1-4.16c-1.24-5.79,2.33-14.05,5.89-13.65C190.08,233.73,188.65,238.48,187.36,243.3Zm55-31.49c-2.5,3-5.87,4.79-9.31,6.42-5.06,2.4-10.15,4.73-15.25,7.05a9.52,9.52,0,0,1-6.58.94c-1.51-.39-3,.34-4.52.61a35.72,35.72,0,0,1-24.94-4.9c-2.55-1.51-5.62-2.25-7.41-4.9-5.86-1.74-11.6-4.19-17.93-3.25-5.2.77-10.39,1.49-15.66.8-.85-.12-1.69-.3-2.63-.46.13-.93.76-1.19,1.34-1.41,9.76-3.78,17.37-10.78,25.43-17.09,10.27-8,20.12-16.65,31.59-23.06,10.39-5.79,21.13-10.76,32.71-13.71a53.26,53.26,0,0,1,13.25-1.46,65,65,0,0,0,10.35-.74c7-1.11,14.07-.74,21.12-.73,2.51,0,3.9,1.86,5.11,3.7.82,1.25.39,2.55-.4,3.75a4.57,4.57,0,0,1-2.63,1.71c-10.06,3-18,9.34-25.14,16.75-.7.7-1.41,1.4-2.07,2.15s-1.61,1.14-2,2.16c1.16.27,1.66-.51,2.23-1.11,5.33-5.63,11-10.84,17.89-14.56,1.56-.84,3.1-1.72,4.65-2.58.12.17.25.33.38.5-1.42,1.29-2.79,2.64-4.27,3.88-3.87,3.25-7.92,6.27-11.47,9.92a16.89,16.89,0,0,0-4.76,9.7A38.6,38.6,0,0,1,242.36,211.81Zm30.13-41c-1.51,2.06-2.66,3.79-5,4.54A11.34,11.34,0,0,1,272.49,170.77Zm60.07,102c-1-3.93-.29-7.23.36-10.46,1.26-6.19,2.15-12.46,3.13-18.71a2.13,2.13,0,0,0-.7-2.4c-.86,4.83-1.8,9.58-2.54,14.37-.82,5.31-2.61,10.48-2.23,16,.3,4.38.22,8.78.81,13.15.08.67.7,1.67-.16,2a2.25,2.25,0,0,1-2.61-1c-5.89-9.86-12.68-19.26-15.34-30.76a80.25,80.25,0,0,1-1.78-16.63,157.18,157.18,0,0,0-.61-15.94,4.18,4.18,0,0,0-.11-.79c-.14-.46.09-1.31-.63-1.26-.88.07-.5.94-.52,1.46,0,1,0,2,.05,3,.23,8.3-.25,16.64,1.25,24.87A76.52,76.52,0,0,0,325,282.62c.23.3.6.57.41,1.12-2.63-1.08-5.27-2.11-7.86-3.24a15.39,15.39,0,0,0-4.2-1.26,26.41,26.41,0,0,1-12.67-5.57,46.67,46.67,0,0,0-14.49-7.48c-5.79-1.79-10.71-5.07-15.26-8.91-2.13-1.8-3.1-4.62-4.67-6.93-5.5-8.08-9.1-17.18-13.75-25.72-1.39-2.57-3-5-3.52-8a20.44,20.44,0,0,1,.71-8.3c1.31-5.37,2.39-10.8,3.81-16.14,1.23-4.64,3.34-8.86,7.4-11.77a9.91,9.91,0,0,1,2.6-1.48c7-2.26,11.46-7.51,15.84-12.93.95-1.18,1.6-3.08,2.94-3.33s2.18,1.69,3.34,2.55c8,6,13.2,13.94,16.66,23.17.54,1.43,1.23,2.81,1.87,4.2a1.27,1.27,0,0,0,.7.62c-1.18-5.35-3.72-10.17-5.79-15.17s-6.63-8.34-10.14-12.8a15.63,15.63,0,0,1,10.29,2.95c9,6,17.47,12.64,24.18,21.24,3.67,4.72,6,10.18,8.26,15.69a4,4,0,0,0,.69,1.22c.12-2.48-.95-4.64-1.87-6.83-4.65-11.15-12.86-19.24-22.35-26.28-2.13-1.58-4.09-3.36-6.31-5.2a4.86,4.86,0,0,1,4.09.51c5.85,3.45,11.73,6.85,17.07,11.08s9,9.54,12,15.52c4.66,9.31,8.16,18.95,8.84,29.47a38,38,0,0,1-1.75,15.15c-3.56,10.28-6.1,20.86-9.09,31.31C332.91,271.46,332.81,271.84,332.56,272.73Zm20.3-24.65a2.41,2.41,0,0,1-1.44,1c-2.15.48-3.15,2-3.84,3.93a33.75,33.75,0,0,1-4.22,8.37c-3,4.22-3,9.23-3,14s-2.89,7.73-5.9,11.39c-.27-7.27-.83-13.92,1.17-20.64,3.05-10.21,6.63-20.26,8.92-30.7,1.23-5.58.45-11-.2-16.43-.81-6.69-3.12-12.87-5.83-19-2.46-5.58-5-11-8.88-15.78-4.47-5.57-10.31-9.35-16.29-13a41,41,0,0,1-6.68-4.56c11.49,1,19.48,7.77,27.26,15.59-.66-2.75-3.57-6.13-7.48-8.91-3.12-2.21-6.29-4.34-9.77-6.75,6.54-.74,12.33-.45,17.29,3.88,4.12,3.59,9.05,6.2,12.78,10.21,5.8,6.24,11.51,12.59,16,19.88a10.09,10.09,0,0,1,.69,9.62c-3.24,7.24-4.14,14.84-4.28,22.61C359,238.78,356.33,243.58,352.86,248.08Z"/><path class="cls-1" d="M302,53.78a12.63,12.63,0,0,1-1.18,9.38Q301.46,58.47,302,53.78Z"/><path class="cls-1" d="M301.27,37.18c1,2.52.89,5.18,1.11,7.8A21.09,21.09,0,0,1,301.27,37.18Z"/><path class="cls-1" d="M262.84,90.8c-1.39-.82-15.17-16-16.22-17.88A74.28,74.28,0,0,1,262.84,90.8Z"/><path class="cls-1" d="M220.62,103.06a26.42,26.42,0,0,1,8.8,5.39C225.9,107.6,223.15,105.51,220.62,103.06Z"/><path class="cls-1" d="M208.55,91.87a13.88,13.88,0,0,1-7.4-6.37Z"/><path class="cls-1" d="M193.9,223.83l16.57-9.19C205.76,219.15,200.46,222.61,193.9,223.83Z"/><path class="cls-1" d="M226.39,203.37a38.14,38.14,0,0,1,9.56-7.92A30.47,30.47,0,0,1,226.39,203.37Z"/><path class="cls-1" d="M153.16,224.34c-1.57,1.7-3.37,2.63-5.1,4A7.64,7.64,0,0,1,153.16,224.34Z"/><path class="cls-1" d="M160.68,226.86l-5,4A7.09,7.09,0,0,1,160.68,226.86Z"/><path class="cls-1" d="M304.26,444.82c2.88-.65,5.79-.28,8.68-.48a.62.62,0,0,1,.72.73c-.05.45-.36.5-.72.46C310.05,445.22,307.12,445.6,304.26,444.82Z"/></g></g></svg>