<?xml version="1.0" standalone="no"?>
<!DOCTYPE svg PUBLIC "-//W3C//DTD SVG 20010904//EN"
 "http://www.w3.org/TR/2001/REC-SVG-20010904/DTD/svg10.dtd">
<svg version="1.0" xmlns="http://www.w3.org/2000/svg"
 width="260.000000pt" height="260.000000pt" viewBox="0 0 260.000000 260.000000"
 preserveAspectRatio="xMidYMid meet">
<metadata>
Created by potrace 1.14, written by Peter Selinger 2001-2017
</metadata>
<g transform="translate(0.000000,260.000000) scale(0.100000,-0.100000)"
fill="#000000" stroke="none">
<path d="M2011 1631 c-12 -8 -14 -44 -12 -198 1 -112 -2 -199 -8 -216 -10 -27
-10 -27 30 -27 37 0 40 2 28 17 -11 12 -15 68 -19 224 -4 176 -7 207 -19 200z"/>
<path d="M281 1566 c-33 -35 -38 -85 -11 -119 12 -15 31 -32 43 -38 l22 -10
-22 19 c-26 23 -19 36 11 20 11 -6 4 5 -16 24 -43 40 -47 64 -17 102 25 32 20
34 -10 2z"/>
<path d="M2225 1486 c-45 -19 -82 -68 -89 -118 -15 -101 46 -178 141 -178 67
0 136 61 120 104 -12 31 -28 17 -21 -19 5 -31 3 -36 -27 -54 -51 -31 -99 -28
-134 9 -40 42 -27 58 71 92 43 15 87 37 97 49 62 76 -54 160 -158 115z m102
-11 c29 -21 38 -62 18 -92 -9 -13 -46 -39 -83 -56 -37 -17 -70 -33 -73 -34
-13 -8 -18 61 -8 103 20 77 92 116 146 79z"/>
<path d="M260 1291 c-16 -30 -12 -36 10 -16 21 19 26 35 10 35 -5 0 -14 -9
-20 -19z"/>
</g>
</svg>
